<svg width="304" height="364" viewBox="0 0 304 364" fill="none" xmlns="http://www.w3.org/2000/svg">
<path fill-rule="evenodd" clip-rule="evenodd" d="M107.677 181.339C111.728 177.854 116.767 176.321 123.755 175.55L123.838 176.304C116.913 177.068 112.054 178.574 108.173 181.914C104.284 185.261 101.329 190.49 98.3138 198.812L97.5991 198.554C100.626 190.199 103.635 184.817 107.677 181.339Z" fill="white"/>
<path fill-rule="evenodd" clip-rule="evenodd" d="M94.1576 224.123C93.7855 219.212 93.9113 216.365 94.9234 211.127L95.6696 211.271C94.6706 216.441 94.5483 219.22 94.9154 224.065L94.1576 224.123Z" fill="white"/>
<path fill-rule="evenodd" clip-rule="evenodd" d="M138.987 185.707C141.599 185.095 144.429 184.969 148.123 185.029L148.11 185.788C144.432 185.727 141.678 185.856 139.16 186.445C136.65 187.033 134.354 188.084 131.606 189.897L131.187 189.264C133.99 187.415 136.368 186.32 138.987 185.707Z" fill="white"/>
<path fill-rule="evenodd" clip-rule="evenodd" d="M115.866 222.54C116.862 212.503 118.099 201.936 126.188 193.863L126.725 194.4C118.854 202.256 117.621 212.55 116.622 222.614C116.591 222.93 116.56 223.246 116.529 223.561C115.575 233.238 114.645 242.668 107.714 249.026L107.199 248.468C113.913 242.31 114.818 233.152 115.784 223.364C115.811 223.09 115.839 222.815 115.866 222.54Z" fill="white"/>
<path fill-rule="evenodd" clip-rule="evenodd" d="M115.909 261.545C121.438 256.182 125.542 249.688 129.914 240.617L130.599 240.946C126.208 250.054 122.059 256.638 116.438 262.089C110.818 267.539 103.749 271.834 93.5521 276.4L93.241 275.708C103.399 271.16 110.378 266.908 115.909 261.545Z" fill="white"/>
<path fill-rule="evenodd" clip-rule="evenodd" d="M241.73 204.069C247.635 208.514 250.909 215.653 250.716 224.103L249.957 224.086C250.144 215.847 246.958 208.954 241.273 204.675C235.586 200.394 227.347 198.692 217.36 200.949L217.193 200.209C227.346 197.915 235.827 199.626 241.73 204.069Z" fill="white"/>
<path fill-rule="evenodd" clip-rule="evenodd" d="M241.699 251.476C245.855 244.052 247.249 235.971 246.158 224.89L246.915 224.815C248.016 236.007 246.613 244.253 242.363 251.846C238.123 259.42 231.067 266.311 220.941 274.827L220.452 274.247C230.573 265.734 237.533 258.919 241.699 251.476Z" fill="white"/>
<path fill-rule="evenodd" clip-rule="evenodd" d="M196.804 281.675C195.811 284.835 195.295 288.252 194.855 292.779L194.098 292.706C194.54 288.164 195.062 284.684 196.078 281.448C197.096 278.207 198.604 275.226 201.001 271.671L201.632 272.094C199.265 275.605 197.794 278.52 196.804 281.675Z" fill="white"/>
<path fill-rule="evenodd" clip-rule="evenodd" d="M222.406 181.567C222.309 181.669 222.211 181.772 222.112 181.876L221.561 181.355C221.663 181.246 221.765 181.139 221.866 181.033C225.759 176.929 228.079 174.484 233.855 172.161L234.139 172.865C228.517 175.125 226.294 177.469 222.406 181.567Z" fill="white"/>
<path fill-rule="evenodd" clip-rule="evenodd" d="M217.601 209.076C216.737 209.182 215.92 209.094 214.93 208.917L215.063 208.171C216.029 208.343 216.758 208.415 217.509 208.323C218.259 208.232 219.058 207.974 220.15 207.444L220.482 208.127C219.348 208.676 218.465 208.971 217.601 209.076Z" fill="white"/>
<path fill-rule="evenodd" clip-rule="evenodd" d="M225.214 222.545C221.239 215.279 213.294 210.585 202.412 209.3L202.501 208.547C213.549 209.851 221.754 214.639 225.881 222.181C230.007 229.721 230.004 239.917 224.846 251.931L224.147 251.632C229.249 239.751 229.191 229.813 225.214 222.545Z" fill="white"/>
<path fill-rule="evenodd" clip-rule="evenodd" d="M150.206 179.634C154.067 171.95 155.488 169.122 157.245 161.054L157.988 161.215C156.21 169.378 154.753 172.277 150.887 179.971C150.597 180.547 150.294 181.15 149.976 181.785L149.297 181.445C149.614 180.812 149.917 180.209 150.206 179.634Z" fill="white"/>
<path fill-rule="evenodd" clip-rule="evenodd" d="M184.308 217.417C180.849 218.843 178.139 221.053 176.959 223.5L176.274 223.171C177.564 220.497 180.459 218.183 184.018 216.715C187.586 215.244 191.874 214.6 196.014 215.315C200.16 216.03 204.157 218.11 207.114 222.08C210.067 226.046 211.957 231.866 211.957 240.023C211.957 243.229 210.912 246.722 209.334 250.201C207.754 253.683 205.627 257.176 203.436 260.386C201.243 263.596 198.981 266.532 197.127 268.898C196.834 269.272 196.552 269.631 196.282 269.975C194.835 271.816 193.749 273.197 193.282 273.974C191.711 276.587 189.094 282.707 187.852 289.539C186.607 296.382 186.761 303.838 190.606 309.21C191.552 310.532 193.065 312.522 195.112 313.975C197.149 315.42 199.694 316.32 202.739 315.511L202.934 316.244C199.613 317.126 196.838 316.13 194.672 314.593C192.515 313.062 190.941 310.983 189.987 309.651C185.961 304.024 185.848 296.309 187.104 289.403C188.362 282.487 191.01 276.28 192.631 273.583C193.125 272.762 194.249 271.332 195.691 269.497C195.96 269.155 196.24 268.799 196.528 268.431C198.38 266.068 200.63 263.148 202.808 259.958C204.986 256.768 207.087 253.315 208.642 249.888C210.198 246.456 211.197 243.076 211.197 240.023C211.197 231.979 209.334 226.333 206.504 222.533C203.677 218.736 199.861 216.749 195.884 216.062C191.901 215.375 187.758 215.994 184.308 217.417Z" fill="white"/>
<path fill-rule="evenodd" clip-rule="evenodd" d="M162.141 199.528C157.876 200.479 154.112 203.679 151.873 207.961L151.87 207.968C147.977 215.045 146.291 221.588 144.588 228.199C143.975 230.578 143.359 232.966 142.638 235.391C139.917 244.54 135.71 254.078 124.455 265.315C119.445 271.077 110.251 275.746 101.398 278.597C96.9612 280.025 92.5902 281.003 88.8442 281.433C85.116 281.861 81.948 281.754 79.9553 280.958C75.9775 279.37 74.784 276.175 74.5874 273.427C74.4894 272.058 74.6364 270.792 74.8064 269.87C74.8916 269.409 74.983 269.032 75.0535 268.768C75.0888 268.637 75.1189 268.534 75.1404 268.463C75.1511 268.427 75.1597 268.4 75.1658 268.381L75.1729 268.358L75.1749 268.352L75.1756 268.35C75.1756 268.35 75.1759 268.349 75.5364 268.469C75.8969 268.589 75.8969 268.589 75.897 268.589L75.8955 268.593L75.89 268.611C75.885 268.626 75.8775 268.65 75.8679 268.682C75.8486 268.746 75.8207 268.841 75.7877 268.964C75.7216 269.211 75.6349 269.569 75.5539 270.008C75.3914 270.888 75.2534 272.087 75.3454 273.373C75.5288 275.935 76.6153 278.808 80.2375 280.254C82.0448 280.976 85.0518 281.105 88.7574 280.68C92.4451 280.256 96.7666 279.291 101.165 277.875C109.977 275.038 119.017 270.418 123.889 264.808L123.898 264.797L123.908 264.788C135.065 253.651 139.217 244.228 141.91 235.175C142.616 232.801 143.223 230.443 143.832 228.08C145.541 221.444 147.26 214.773 151.201 207.607C153.523 203.167 157.453 199.796 161.975 198.788C166.52 197.775 171.593 199.164 176.137 204.116L175.576 204.628C171.191 199.848 166.385 198.582 162.141 199.528Z" fill="white"/>
<path fill-rule="evenodd" clip-rule="evenodd" d="M86.645 159.154C93.5677 160.808 99.4903 167.232 98.7154 177.094L97.9577 177.035C98.7027 167.553 93.0354 161.461 86.468 159.892C79.9038 158.323 72.4098 161.262 69.4363 169.98L68.7168 169.736C71.8233 160.628 79.7192 157.499 86.645 159.154Z" fill="white"/>
<path fill-rule="evenodd" clip-rule="evenodd" d="M231.109 187.04C227.311 190.243 223.087 194.29 218.302 198.954L217.771 198.412C222.555 193.749 226.797 189.684 230.618 186.461C234.437 183.24 237.858 180.84 241.003 179.524C244.158 178.204 247.063 177.965 249.811 179.112C252.545 180.253 255.059 182.739 257.501 186.728L256.852 187.123C254.449 183.198 252.041 180.865 249.518 179.812C247.009 178.765 244.323 178.957 241.297 180.223C238.26 181.494 234.91 183.834 231.109 187.04Z" fill="white"/>
<path fill-rule="evenodd" clip-rule="evenodd" d="M235.914 187.763C232.916 190.279 229.501 193.636 225.532 197.806L224.981 197.284C228.956 193.108 232.394 189.726 235.425 187.183C238.452 184.643 241.096 182.921 243.485 182.089C245.889 181.252 248.045 181.315 250.054 182.358C252.043 183.391 253.843 185.362 255.601 188.245L254.952 188.64C253.224 185.806 251.514 183.971 249.703 183.031C247.912 182.101 245.978 182.024 243.735 182.805C241.476 183.592 238.916 185.245 235.914 187.763Z" fill="white"/>
<path fill-rule="evenodd" clip-rule="evenodd" d="M84.7267 156.488C76.2398 155.936 66.565 162.275 61.0799 180.209L60.353 179.988C65.8879 161.891 75.7832 155.146 84.7762 155.731C93.7289 156.314 101.545 164.164 102.893 174.741L102.14 174.837C100.828 164.554 93.254 157.043 84.7267 156.488Z" fill="white"/>
<path fill-rule="evenodd" clip-rule="evenodd" d="M243.977 260.627C252.613 251.258 257.999 232.973 251.871 211.683L252.602 211.474C258.79 232.975 253.38 251.546 244.536 261.141C240.614 265.396 234.709 271.02 228.917 276.537C228.241 277.181 227.566 277.824 226.897 278.462C220.474 284.588 214.515 290.348 211.876 293.734C210.584 295.393 209.645 297.464 208.86 299.731C208.261 301.462 207.758 303.287 207.254 305.116C207.098 305.684 206.941 306.253 206.781 306.82C206.11 309.198 205.388 311.529 204.402 313.549C203.415 315.571 202.152 317.306 200.386 318.471L200.381 318.474L200.376 318.477C197.336 320.351 194.603 321.131 192.066 320.719C189.529 320.308 187.27 318.717 185.148 316.025C182.211 312.696 181.071 307.559 180.917 301.391C180.763 295.205 181.602 287.901 182.7 280.174L182.717 280.053L182.802 279.964C191.971 270.422 201.062 256.433 205.901 244.441C207.762 239.231 207.094 232.417 205.155 228.432C203.228 224.475 200.003 222.132 195.886 220.665C191.204 219.483 184.905 221.111 177.634 227.787L177.119 227.229C184.501 220.452 191.061 218.656 196.09 219.934L196.107 219.938L196.124 219.944C200.382 221.459 203.8 223.913 205.838 228.101C207.865 232.264 208.55 239.293 206.614 244.703L206.612 244.71L206.609 244.717C201.749 256.766 192.643 270.79 183.436 280.401C182.346 288.082 181.526 295.287 181.677 301.372C181.829 307.501 182.967 312.411 185.725 315.531L185.732 315.539L185.739 315.547C187.795 318.159 189.904 319.6 192.188 319.971C194.474 320.342 197.018 319.654 199.972 317.834C201.582 316.772 202.767 315.167 203.718 313.217C204.672 311.263 205.38 308.99 206.049 306.615C206.206 306.058 206.361 305.496 206.517 304.931C207.022 303.097 207.534 301.24 208.142 299.483C208.938 297.183 209.909 295.023 211.277 293.269C213.958 289.827 219.969 284.02 226.371 277.914C227.041 277.275 227.715 276.633 228.39 275.99C234.187 270.468 240.072 264.863 243.977 260.627Z" fill="white"/>
<path fill-rule="evenodd" clip-rule="evenodd" d="M69.1245 274.705C69.7432 264.253 71.5529 251.301 77.4743 239.1L78.1583 239.43C72.2997 251.502 70.4994 264.341 69.8832 274.749C69.6437 278.795 69.5832 282.466 69.5319 285.585C69.5172 286.479 69.5032 287.329 69.4859 288.128C69.4473 289.918 69.3922 291.465 69.2743 292.71C69.1577 293.941 68.9759 294.929 68.6562 295.567C68.3371 296.204 67.7688 296.819 67.0513 297.409C66.3299 298.002 65.4344 298.589 64.4326 299.163C62.4294 300.313 59.9661 301.434 57.5418 302.478C56.5941 302.886 55.6544 303.281 54.7489 303.662C53.3275 304.26 51.9904 304.823 50.8387 305.343C49.8981 305.768 49.0951 306.159 48.4835 306.512C48.1777 306.688 47.9262 306.85 47.7319 306.999C47.5338 307.15 47.4139 307.273 47.3525 307.365L47.3457 307.375L47.3382 307.385C44.973 310.472 45.0415 314.311 46.0255 317.912C47.0083 321.509 48.8847 324.79 50.0222 326.682C51.135 328.533 52.9062 330.489 54.9153 332.028C56.9295 333.571 59.1416 334.663 61.1307 334.843C62.7886 334.994 64.6853 334.131 66.7225 332.604C68.7469 331.087 70.8409 328.967 72.88 326.726C73.8982 325.606 74.8992 324.46 75.8687 323.348L76.0475 323.143C76.9526 322.104 77.8297 321.098 78.6626 320.178C80.4234 318.234 82.0335 316.624 83.3362 315.924C83.6959 315.73 84.1782 315.59 84.7494 315.483C85.3257 315.374 86.0179 315.294 86.8123 315.232C88.4002 315.108 90.4297 315.054 92.8163 315C93.0696 314.994 93.3271 314.988 93.5885 314.982C98.2612 314.878 104.223 314.744 110.995 314.106C125.296 312.76 143.186 309.167 160.074 298.869C191.968 278.139 203.163 250.89 206.107 243.725C206.17 243.571 206.23 243.427 206.285 243.293L206.988 243.581C206.932 243.716 206.873 243.861 206.81 244.014C203.849 251.219 192.58 278.648 160.484 299.508L160.479 299.511L160.474 299.514C143.45 309.896 125.431 313.509 111.067 314.862C104.267 315.502 98.2805 315.636 93.6089 315.741C93.3463 315.747 93.0878 315.752 92.8336 315.758C90.442 315.813 88.4346 315.866 86.8715 315.988C86.0904 316.049 85.4286 316.127 84.8903 316.228C84.347 316.331 83.9543 316.453 83.6965 316.591C82.5292 317.219 81.0043 318.724 79.2264 320.687C78.3985 321.601 77.5258 322.603 76.6191 323.643L76.4421 323.846C75.4729 324.958 74.467 326.109 73.4427 327.235C71.3968 329.485 69.2633 331.649 67.1789 333.211C65.1074 334.764 63.014 335.776 61.0619 335.599C58.8712 335.4 56.5233 334.216 54.4526 332.63C52.3766 331.04 50.5378 329.014 49.3705 327.072C48.2278 325.172 46.3043 321.815 45.2922 318.111C44.2821 314.415 44.16 310.292 46.7275 306.934C46.8561 306.745 47.0479 306.566 47.2696 306.397C47.4994 306.221 47.7816 306.04 48.1037 305.854C48.7479 305.484 49.5777 305.08 50.5252 304.652C51.6838 304.129 53.0392 303.558 54.4697 302.956C55.3737 302.576 56.3076 302.183 57.2408 301.781C59.6616 300.739 62.0908 299.632 64.0538 298.506C65.0351 297.943 65.8912 297.38 66.5681 296.823C67.2489 296.263 67.7256 295.729 67.9764 295.228C68.2267 294.728 68.4012 293.867 68.5177 292.639C68.6328 291.424 68.6875 289.901 68.7261 288.112C68.7432 287.318 68.7571 286.473 68.7718 285.581C68.8232 282.46 68.8839 278.768 69.1245 274.705Z" fill="white"/>
<path fill-rule="evenodd" clip-rule="evenodd" d="M237.416 169.479C233.277 166.42 230.695 164.921 226.335 162.637C226.107 162.518 225.875 162.397 225.636 162.272L217.656 199.441C217.932 199.373 218.206 199.306 218.477 199.241C235.967 195.042 243.742 197.396 251.814 211.944C251.955 212.197 252.096 212.455 252.236 212.716C252.391 212.46 252.542 212.207 252.689 211.958C256.451 205.585 257.818 201.226 257.936 192.235C257.48 177.422 252.629 172.72 237.416 169.479ZM257.176 192.242C256.949 184.901 255.632 180.257 252.652 177.032C249.651 173.784 244.842 171.836 237.258 170.22L237.097 170.186L236.964 170.088C232.926 167.104 230.394 165.625 226.17 163.408L218.653 198.419C227.264 196.38 233.675 195.912 238.97 197.862C244.251 199.807 248.271 204.097 252.261 211.186C253.928 208.323 255.079 205.886 255.85 203.22C256.719 200.211 257.114 196.868 257.176 192.242Z" fill="white"/>
<path fill-rule="evenodd" clip-rule="evenodd" d="M101.686 174.59C108.138 171.466 116.008 170.614 125.363 171.757L125.27 172.51C116.005 171.378 108.295 172.233 102.017 175.272C95.7457 178.309 90.8618 183.545 87.2813 191.257C83.4443 199.521 82.3973 211.207 82.4158 221.913C82.432 231.229 83.2536 239.754 83.7168 244.559C83.7852 245.27 83.8459 245.899 83.8949 246.437C84.0945 248.628 83.1762 251.506 81.8787 254.646C81.2255 256.227 80.4671 257.894 79.6873 259.596C79.6207 259.742 79.554 259.887 79.4872 260.033C78.7701 261.598 78.0406 263.19 77.3583 264.779C75.864 268.259 74.6119 271.69 74.2212 274.734C73.8311 277.773 74.3067 280.359 76.1852 282.234C79.7585 285.801 85.727 286.766 92.8957 285.36C100.05 283.957 108.313 280.203 116.356 274.466C132.441 262.992 147.569 243.638 151.161 219.487C152.48 210.612 158.872 205.439 164.2 204.849C166.872 204.553 169.325 205.414 170.662 207.613C171.988 209.792 172.147 213.174 170.515 217.773L169.798 217.52C171.396 213.017 171.167 209.904 170.012 208.006C168.87 206.128 166.75 205.329 164.284 205.603C159.335 206.15 153.187 211.027 151.912 219.599C148.284 243.996 133.012 263.517 116.798 275.083C108.69 280.867 100.328 284.675 93.0423 286.104C85.7711 287.531 79.4845 286.6 75.6478 282.771C73.5362 280.663 73.0619 277.797 73.4674 274.638C73.8724 271.483 75.1615 267.969 76.6597 264.48C77.3459 262.882 78.0792 261.282 78.7955 259.719C78.8626 259.573 78.9294 259.427 78.9961 259.281C79.7764 257.577 80.5291 255.923 81.1761 254.357C82.4793 251.203 83.3185 248.487 83.138 246.506C83.0893 245.97 83.0288 245.344 82.9605 244.635C82.4975 239.832 81.672 231.269 81.6558 221.914C81.6373 211.192 82.6803 199.362 86.5917 190.938C90.2312 183.1 95.2273 177.717 101.686 174.59Z" fill="white"/>
<path fill-rule="evenodd" clip-rule="evenodd" d="M101.182 151.249L101.18 151.248L101.168 151.245L101.118 151.232C101.072 151.221 101.003 151.204 100.911 151.182C100.726 151.139 100.452 151.078 100.098 151.007C99.3885 150.865 98.3604 150.685 97.0942 150.534C94.5591 150.231 91.0846 150.045 87.3146 150.51C79.7857 151.437 71.1405 154.94 66.3458 165.247C63.8761 170.557 61.8305 175.209 60.9932 180.827C60.1573 186.435 60.52 193.06 62.9711 202.281C65.45 211.607 65.967 217.545 64.6834 222.621C63.4035 227.681 60.3511 231.786 55.9997 237.451C53.9636 240.102 53.8796 242.604 54.8914 244.497C55.9238 246.427 58.1888 247.896 61.181 248.23C67.0833 248.89 75.8021 245.059 81.9834 231.544C81.4107 224.243 80.4096 207.86 85.3658 194.019C87.872 187.02 91.9209 180.614 98.37 176.378C104.747 172.189 113.379 170.181 124.979 171.702C127.535 168.27 131.572 160.745 133.556 152.816C128.194 150.123 123.646 148.612 118.829 148.292C113.849 147.962 108.513 148.902 101.62 151.234L101.403 151.307L101.182 151.249ZM101.376 150.515C101.376 150.515 75.5366 143.688 65.6565 164.928C60.7165 175.547 57.2965 183.891 62.2365 202.476C67.1765 221.06 64.1365 225.611 55.3965 236.99C46.6566 248.368 70.2164 259.367 82.7564 231.68C81.6164 217.268 78.5766 166.066 125.317 172.513C127.976 169.1 132.418 160.935 134.436 152.412C123.143 146.634 115.264 145.818 101.376 150.515Z" fill="white"/>
<path fill-rule="evenodd" clip-rule="evenodd" d="M45.9884 309.419C45.9886 309.419 45.9887 309.419 45.8965 309.051C45.8044 308.683 45.8045 308.683 45.8047 308.683L45.8061 308.683L45.809 308.682L45.818 308.68C45.8255 308.678 45.8358 308.676 45.8489 308.673C45.8751 308.667 45.9123 308.66 45.9593 308.651C46.0533 308.633 46.1872 308.611 46.3517 308.592C46.6799 308.554 47.1356 308.528 47.6443 308.579C48.6607 308.681 49.9275 309.093 50.7727 310.358C51.0534 310.778 51.3697 311.283 51.7268 311.853C53.3322 314.415 55.7593 318.287 59.4533 321.667C61.8345 323.846 62.7999 327.277 63.1831 330.098C63.3759 331.517 63.424 332.803 63.424 333.734C63.424 334.2 63.412 334.577 63.3999 334.839C63.3938 334.971 63.3877 335.073 63.3831 335.143C63.3808 335.178 63.3789 335.205 63.3775 335.223L63.3759 335.245L63.3754 335.25L63.3753 335.252C63.3753 335.252 63.3752 335.253 62.9965 335.221C62.6178 335.19 62.6178 335.19 62.6178 335.19L62.6183 335.185L62.6196 335.167C62.6206 335.154 62.6218 335.137 62.6233 335.115C62.6238 335.108 62.6243 335.101 62.6248 335.093C62.6291 335.028 62.6349 334.93 62.6407 334.805C62.6523 334.553 62.664 334.187 62.664 333.734C62.664 332.828 62.6171 331.577 62.43 330.199C62.0532 327.426 61.1186 324.22 58.9398 322.226C55.1599 318.768 52.6651 314.784 51.0644 312.228C50.7152 311.67 50.4085 311.18 50.1404 310.779C49.4655 309.769 48.4523 309.422 47.5687 309.334C47.1275 309.29 46.7282 309.312 46.4388 309.345C46.2947 309.362 46.1791 309.381 46.1009 309.396C46.0619 309.403 46.0323 309.41 46.0132 309.414L45.9926 309.418L45.9884 309.419C45.9885 309.419 45.9882 309.42 45.9884 309.419Z" fill="white"/>
<path fill-rule="evenodd" clip-rule="evenodd" d="M122.83 291.766C132.697 285.144 142.387 275.773 154.667 261.396L155.246 261.889C142.948 276.286 133.205 285.717 123.254 292.395C113.298 299.078 103.153 302.992 90.0721 306.385L89.881 305.65C102.912 302.271 112.969 298.385 122.83 291.766Z" fill="white"/>
<path fill-rule="evenodd" clip-rule="evenodd" d="M90.3598 310.997C88.8585 299.759 82.4988 293.067 73.9205 290.834L74.1124 290.1C83.0141 292.417 89.5745 299.379 91.1131 310.897L90.3598 310.997Z" fill="white"/>
<path fill-rule="evenodd" clip-rule="evenodd" d="M71.516 316.327C75.3719 313.587 77.3962 311.637 80.1654 307.695L80.7876 308.131C77.9648 312.149 75.8772 314.159 71.9569 316.945L71.516 316.327ZM63.2118 321.604C65.9708 320.28 67.2167 319.444 69.2202 317.856L69.6927 318.451C67.6489 320.07 66.3554 320.937 63.5412 322.288L63.2118 321.604Z" fill="white"/>
<path fill-rule="evenodd" clip-rule="evenodd" d="M215.376 208.923C215.376 208.923 250.716 95.5205 209.296 40.5258C167.876 -14.4688 133.676 15.4937 140.136 61.3858C140.581 64.5411 140.96 67.6857 141.277 70.8132L141.999 70.4014C141.688 67.3748 141.319 64.3325 140.889 61.2803C139.288 49.9046 140.212 39.5521 143.11 31.2825C146.009 23.0095 150.864 16.8686 157.097 13.8037C163.311 10.7484 171.021 10.688 179.783 14.8167C188.563 18.9534 198.377 27.2904 208.689 40.9816C229.211 68.2292 230.768 110.064 227.113 145.269C225.288 162.842 222.172 178.704 219.511 190.174C218.18 195.908 216.964 200.542 216.081 203.742C215.64 205.341 215.282 206.582 215.034 207.422C214.993 207.561 214.955 207.69 214.92 207.807C214.891 207.906 214.863 207.998 214.838 208.081C214.693 208.065 214.525 208.048 214.332 208.031C213.551 207.964 212.373 207.904 210.758 207.928C207.527 207.976 202.543 208.36 195.475 209.695C188.232 211.063 182.956 214.785 178.264 220.434C174.867 224.523 171.758 229.646 168.416 235.636C168.956 234.13 169.524 232.597 170.099 231.046L170.1 231.043C170.396 230.247 170.693 229.445 170.989 228.64C172.864 223.539 174.69 218.308 175.652 213.383C176.614 208.464 176.736 203.753 175.113 199.733C173.473 195.673 170.101 192.433 164.331 190.383L164.326 190.381L164.321 190.379C161.492 189.419 159.166 188.654 157.178 188C152.455 186.447 149.642 185.522 146.533 184.102C142.204 182.126 137.322 179.198 126.002 172.275C133.09 161.341 138.371 145.178 141.126 126.16C141.795 121.545 142.315 116.758 142.677 111.834L141.93 111.629C140.097 136.846 134.082 158.424 125.354 171.879C125.216 172.092 125.076 172.304 124.937 172.513L125.585 172.91C145.039 184.807 145.624 184.999 156.983 188.735C158.967 189.388 161.278 190.148 164.076 191.097C181.77 197.383 175.323 214.772 169.39 230.772C168.282 233.76 167.192 236.7 166.281 239.51C165.889 240.719 165.53 241.904 165.216 243.058C165.817 241.952 166.404 240.87 166.982 239.812C175.909 223.458 182.41 212.934 195.616 210.44C209.677 207.785 215.376 208.923 215.376 208.923ZM202.01 112.173C201.061 140.12 195.226 171.153 184.617 202.354L185.336 202.597C195.997 171.245 201.851 140.049 202.777 111.954L202.01 112.173ZM198.288 65.2344L199.091 65.3488C195.46 48.5408 189.225 34.2506 180.328 23.595L179.745 24.0806C188.498 34.5641 194.669 48.6383 198.288 65.2344ZM162.412 69.2758L161.632 69.1646C161.553 68.5286 161.473 67.8927 161.392 67.2574C161.283 66.3878 161.173 65.5193 161.063 64.6527L161.061 64.6349L161.06 64.631L161.06 64.6309C159.995 56.2249 158.954 48.009 158.418 40.9077C157.829 33.0883 157.844 26.5458 159.156 22.581L159.877 22.8189C158.62 26.6196 158.585 33.0151 159.176 40.8507C159.71 47.9315 160.749 56.1275 161.814 64.5381L161.814 64.5382L161.814 64.5383L161.814 64.5385C161.925 65.4112 162.036 66.2862 162.147 67.1626C162.235 67.8663 162.324 68.5709 162.412 69.2758Z" fill="white"/>
<path fill-rule="evenodd" clip-rule="evenodd" d="M173.394 143.644C169.219 143.842 165.063 143.027 159.784 141.395L160.009 140.671C165.253 142.291 169.312 143.079 173.358 142.886C177.403 142.694 181.469 141.521 186.721 139.17L187.032 139.862C181.734 142.233 177.571 143.445 173.394 143.644Z" fill="#FFD600"/>
<path fill-rule="evenodd" clip-rule="evenodd" d="M184.217 110.312C194.358 110.312 202.837 100.112 202.837 87.1765C202.837 74.2414 194.358 64.0408 184.217 64.0408C174.075 64.0408 165.597 74.2414 165.597 87.1765C165.597 100.112 174.075 110.312 184.217 110.312ZM184.217 111.071C194.92 111.071 203.597 100.373 203.597 87.1765C203.597 73.98 194.92 63.2822 184.217 63.2822C173.513 63.2822 164.837 73.98 164.837 87.1765C164.837 100.373 173.513 111.071 184.217 111.071Z" fill="#FFD600"/>
<path fill-rule="evenodd" clip-rule="evenodd" d="M135.196 78.218C132.766 82.0258 131.304 86.3141 131.396 90.2012L131.397 90.2102H131.396C131.396 97.8312 133.258 103.263 136.112 106.864C138.963 110.461 142.828 112.264 146.912 112.589C155.103 113.239 164.162 107.933 167.522 99.1771L168.231 99.4484C164.751 108.518 155.38 114.022 146.851 113.345C142.575 113.005 138.508 111.11 135.516 107.335C132.528 103.565 130.637 97.952 130.636 90.2147C130.54 86.1383 132.07 81.7052 134.555 77.8105C137.043 73.9127 140.509 70.5193 144.331 68.5395C148.157 66.5579 152.368 65.9806 156.291 67.785C160.207 69.5859 163.751 73.7211 166.335 80.9807L165.618 81.2346C163.072 74.0819 159.634 70.1575 155.973 68.4739C152.32 66.7936 148.361 67.3068 144.682 69.2127C140.999 71.1205 137.625 74.4118 135.196 78.218Z" fill="#FFD600"/>
<path fill-rule="evenodd" clip-rule="evenodd" d="M147.328 69.7121C139.663 72.1232 132.547 81.2515 133.296 92.0807C133.766 98.8895 135.903 103.608 138.84 106.594C141.776 109.579 145.542 110.866 149.341 110.762C156.961 110.554 164.679 104.751 165.981 95.8448L166.733 95.9543C165.374 105.253 157.323 111.303 149.362 111.521C145.371 111.63 141.395 110.274 138.298 107.126C135.203 103.979 133.017 99.0728 132.537 92.1329C131.766 80.9643 139.09 71.5081 147.1 68.9887C151.122 67.7234 155.337 68.2051 158.76 71.1244C162.169 74.0324 164.734 79.3096 165.594 87.516L164.838 87.595C163.989 79.4926 161.471 74.4346 158.266 71.701C155.074 68.9786 151.143 68.5121 147.328 69.7121Z" fill="#FFD600"/>
<path fill-rule="evenodd" clip-rule="evenodd" d="M216.947 90.9656C218.05 77.9463 210.385 66.8127 200 65.936L200.064 65.1802C211.009 66.1042 218.829 77.7498 217.704 91.0295C216.578 104.314 206.906 114.269 195.965 113.345L196.029 112.589C206.418 113.466 215.844 103.98 216.947 90.9656Z" fill="#FFD600"/>
<path fill-rule="evenodd" clip-rule="evenodd" d="M167.297 115.103C165.763 115.795 164.123 116.2 162.509 115.999C159.459 115.618 154.891 114.858 151.091 114.194C149.19 113.862 147.479 113.554 146.243 113.329C145.625 113.216 145.126 113.124 144.782 113.06C144.609 113.029 144.476 113.004 144.385 112.987L144.247 112.961C144.247 112.961 144.247 112.961 144.317 112.588C144.387 112.215 144.387 112.215 144.387 112.215L144.524 112.241C144.615 112.258 144.748 112.283 144.92 112.315C145.264 112.378 145.763 112.47 146.38 112.583C147.614 112.808 149.323 113.116 151.222 113.447C155.022 114.111 159.574 114.868 162.604 115.246C164.031 115.424 165.525 115.07 166.984 114.412C168.441 113.754 169.838 112.803 171.058 111.819C172.277 110.837 173.309 109.829 174.038 109.067C174.402 108.686 174.689 108.367 174.885 108.144C174.983 108.033 175.058 107.945 175.108 107.886C175.133 107.856 175.152 107.833 175.164 107.818L175.178 107.802L175.182 107.798L175.182 107.797L175.477 108.037C175.771 108.277 175.771 108.277 175.77 108.277L175.765 108.284L175.749 108.303C175.735 108.32 175.715 108.344 175.688 108.375C175.636 108.438 175.558 108.529 175.457 108.644C175.255 108.874 174.96 109.201 174.588 109.591C173.844 110.369 172.787 111.4 171.535 112.409C170.285 113.417 168.833 114.409 167.297 115.103Z" fill="#FFD600"/>
<path fill-rule="evenodd" clip-rule="evenodd" d="M170.03 71.9844C163.339 69.6314 159.405 68.7407 152.229 67.4486L152.364 66.7021C159.565 67.9988 163.541 68.8983 170.283 71.269L170.03 71.9844Z" fill="#FFD600"/>
<path fill-rule="evenodd" clip-rule="evenodd" d="M186.167 63.2852L200.227 65.1815L200.126 65.9332L186.066 64.0369L186.167 63.2852Z" fill="#FFD600"/>
<path fill-rule="evenodd" clip-rule="evenodd" d="M182.377 110.317L196.437 112.593L196.316 113.342L182.256 111.066L182.377 110.317Z" fill="#FFD600"/>
<path fill-rule="evenodd" clip-rule="evenodd" d="M183.837 108.036C192.927 108.036 200.557 98.8569 200.557 87.1762C200.557 75.4955 192.927 66.3162 183.837 66.3162C174.746 66.3162 167.117 75.4955 167.117 87.1762C167.117 98.8569 174.746 108.036 183.837 108.036ZM183.837 108.795C193.491 108.795 201.317 99.1158 201.317 87.1762C201.317 75.2366 193.491 65.5576 183.837 65.5576C174.183 65.5576 166.357 75.2366 166.357 87.1762C166.357 99.1158 174.183 108.795 183.837 108.795Z" fill="#FFD600"/>
<path fill-rule="evenodd" clip-rule="evenodd" d="M186.497 104.243C194.122 104.243 200.557 96.5872 200.557 86.7969C200.557 77.0067 194.122 69.3503 186.497 69.3503C178.871 69.3503 172.437 77.0067 172.437 86.7969C172.437 96.5872 178.871 104.243 186.497 104.243ZM186.497 105.002C194.681 105.002 201.317 96.8513 201.317 86.7969C201.317 76.7425 194.681 68.5918 186.497 68.5918C178.312 68.5918 171.677 76.7425 171.677 86.7969C171.677 96.8513 178.312 105.002 186.497 105.002Z" fill="#FFD600"/>
<path fill-rule="evenodd" clip-rule="evenodd" d="M150.777 108.036C158.402 108.036 164.837 100.38 164.837 90.5899C164.837 80.7996 158.402 73.1433 150.777 73.1433C143.151 73.1433 136.717 80.7996 136.717 90.5899C136.717 100.38 143.151 108.036 150.777 108.036ZM150.777 108.795C158.961 108.795 165.597 100.644 165.597 90.5899C165.597 80.5355 158.961 72.3848 150.777 72.3848C142.592 72.3848 135.957 80.5355 135.957 90.5899C135.957 100.644 142.592 108.795 150.777 108.795Z" fill="#FFD600"/>
<path fill-rule="evenodd" clip-rule="evenodd" d="M198.268 90.3189C199.187 88.9352 199.413 87.4549 199.062 86.5552L199.771 86.2803C200.243 87.4926 199.899 89.2361 198.902 90.7379C197.891 92.2602 196.172 93.5999 193.779 93.9981L193.764 94.0005L193.75 94.0018C191.541 94.1952 189.815 93.0718 188.752 91.5226C187.696 89.9844 187.261 87.9858 187.646 86.3319L188.387 86.5036C188.056 87.9248 188.428 89.7083 189.379 91.0939C190.32 92.465 191.797 93.4057 193.669 93.2474C195.828 92.8839 197.365 91.679 198.268 90.3189Z" fill="#FFD600"/>
<path fill-rule="evenodd" clip-rule="evenodd" d="M162.928 93.2076C163.847 91.8239 164.073 90.3436 163.722 89.4439L164.431 89.1689C164.903 90.3812 164.559 92.1248 163.562 93.6266C162.551 95.1488 160.832 96.4886 158.439 96.8867L158.424 96.8891L158.41 96.8904C156.201 97.0839 154.475 95.9604 153.412 94.4113C152.356 92.873 151.922 90.8744 152.306 89.2206L153.047 89.3922C152.716 90.8135 153.088 92.597 154.039 93.9825C154.98 95.3536 156.457 96.2944 158.329 96.1361C160.488 95.7726 162.025 94.5677 162.928 93.2076Z" fill="#FFD600"/>
<path fill-rule="evenodd" clip-rule="evenodd" d="M171.978 88.3223C182.378 86.1347 188.551 85.3698 200.957 86.0391L200.916 86.7965C188.585 86.1313 182.48 86.8884 172.135 89.0646L171.978 88.3223Z" fill="#FFD600"/>
<path fill-rule="evenodd" clip-rule="evenodd" d="M136.638 91.211C147.038 89.0233 153.211 88.2585 165.617 88.9278L165.576 89.6852C153.245 89.02 147.14 89.7771 136.795 91.9533L136.638 91.211Z" fill="#FFD600"/>
<path fill-rule="evenodd" clip-rule="evenodd" d="M216.168 81.107L216.137 80.729C216.105 80.3511 216.105 80.3511 216.105 80.351L216.109 80.3507L216.12 80.3499L216.16 80.3468C216.194 80.3442 216.245 80.3406 216.309 80.3365C216.438 80.3281 216.622 80.3176 216.846 80.3086C217.291 80.2905 217.895 80.2784 218.526 80.3026C219.154 80.3267 219.822 80.3873 220.391 80.5197C220.675 80.5859 220.947 80.6728 221.18 80.7891C221.41 80.9041 221.628 81.0601 221.773 81.2772C221.864 81.4133 221.916 81.6002 221.953 81.7763C221.993 81.9663 222.026 82.1993 222.051 82.4641C222.103 82.9946 222.133 83.6819 222.145 84.4686C222.169 86.0437 222.121 88.0433 222.026 90.0393C221.931 92.0354 221.788 94.0342 221.621 95.6081C221.537 96.3943 221.447 97.0799 221.353 97.608C221.306 97.8717 221.256 98.102 221.205 98.2887C221.157 98.4636 221.097 98.6395 221.013 98.7652C220.712 99.2156 220.132 99.3363 219.618 99.3547C219.074 99.374 218.445 99.2841 217.864 99.1632C217.278 99.0415 216.72 98.8838 216.309 98.7572C216.104 98.6938 215.934 98.6379 215.815 98.5977C215.756 98.5776 215.709 98.5613 215.677 98.5501L215.64 98.537L215.631 98.5334L215.627 98.5322C215.627 98.5321 215.627 98.532 215.757 98.1756L215.886 97.8191L215.889 97.8199L215.897 97.8229L215.93 97.8346C215.96 97.845 216.003 97.8603 216.06 97.8794C216.173 97.9177 216.336 97.9714 216.534 98.0325C216.931 98.1548 217.465 98.3053 218.019 98.4206C218.578 98.5368 219.137 98.6128 219.59 98.5966C220.074 98.5794 220.301 98.463 220.38 98.3445C220.38 98.3446 220.381 98.3432 220.383 98.3399C220.385 98.3366 220.387 98.3319 220.39 98.3257C220.397 98.3129 220.404 98.2955 220.413 98.2726C220.431 98.2265 220.451 98.1653 220.472 98.0877C220.515 97.9321 220.56 97.7269 220.604 97.475C220.694 96.972 220.782 96.3063 220.865 95.5281C221.03 93.9729 221.172 91.9894 221.267 90.0032C221.362 88.0167 221.409 86.034 221.385 84.4801C221.374 83.7023 221.344 83.0384 221.295 82.5378C221.271 82.287 221.242 82.0844 221.21 81.9322C221.194 81.8562 221.178 81.7978 221.163 81.755C221.151 81.7174 221.142 81.701 221.14 81.6981C221.14 81.6976 221.14 81.6975 221.14 81.6981C221.095 81.6307 221.004 81.5495 220.84 81.4675C220.678 81.3867 220.468 81.3166 220.218 81.2584C219.718 81.1419 219.104 81.0839 218.497 81.0606C217.893 81.0374 217.309 81.049 216.876 81.0665C216.66 81.0752 216.482 81.0854 216.359 81.0934C216.297 81.0974 216.249 81.1008 216.216 81.1033L216.18 81.1061L216.171 81.1068L216.168 81.107Z" fill="#FFD600"/>
<path fill-rule="evenodd" clip-rule="evenodd" d="M226.334 84.8954L221.774 84.1369L221.899 83.3887L226.459 84.1472L226.334 84.8954Z" fill="#FFD600"/>
<path fill-rule="evenodd" clip-rule="evenodd" d="M228.541 101.943L220.561 98.909L220.832 98.2002L228.812 101.234L228.541 101.943Z" fill="#FFD600"/>
<path fill-rule="evenodd" clip-rule="evenodd" d="M157.617 90.5896C158.246 90.5896 158.757 90.0802 158.757 89.4518C158.757 89.3191 158.734 89.1917 158.692 89.0732C160.012 89.0825 161.037 89.2103 161.037 90.9689C161.037 92.4351 159.846 93.6238 158.377 93.6238C156.907 93.6238 155.717 92.4351 155.717 90.9689C155.717 90.0279 156.01 89.5538 156.485 89.315C156.479 89.3599 156.477 89.4055 156.477 89.4518C156.477 90.0802 156.987 90.5896 157.617 90.5896Z" fill="#FFD600"/>
<path fill-rule="evenodd" clip-rule="evenodd" d="M193.337 90.5903C194.806 90.5903 195.997 89.4017 195.997 87.9354C195.997 86.0391 194.806 86.0391 193.337 86.0391C193.116 86.0391 192.903 86.0391 192.698 86.0454C193.27 86.1059 193.717 86.5894 193.717 87.1769C193.717 87.8053 193.206 88.3147 192.577 88.3147C191.947 88.3147 191.437 87.8053 191.437 87.1769C191.437 86.6339 191.818 86.1798 192.327 86.0663C191.359 86.1512 190.677 86.5002 190.677 87.9354C190.677 89.4017 191.867 90.5903 193.337 90.5903Z" fill="#FFD600"/>
<path fill-rule="evenodd" clip-rule="evenodd" d="M290.677 339.475C291.057 339.038 291.178 338.684 291.181 338.4L291.181 338.392C291.181 338.107 291.061 337.75 290.677 337.309C290.288 336.862 289.668 336.376 288.777 335.868C286.997 334.853 284.312 333.843 280.771 332.866C273.703 330.915 263.431 329.147 250.689 327.66C225.216 324.686 190 322.844 151.084 322.844C126.143 322.844 102.721 323.601 82.4096 324.927V324.011C102.732 322.685 126.152 321.93 151.084 321.93C228.963 321.93 292.096 329.3 292.096 338.392L292.096 338.403V345.698L292.096 345.709C292.096 354.801 228.963 362.171 151.084 362.171C73.2055 362.171 10.0723 354.801 10.0723 345.709V345.709V338.392C10.0723 334.305 22.8307 330.566 43.9518 327.687V328.61C34.6556 329.881 27.0152 331.315 21.3976 332.866C17.8562 333.843 15.1715 334.853 13.3913 335.868C12.501 336.376 11.8804 336.862 11.4915 337.309C11.1078 337.75 10.9879 338.107 10.9879 338.392C10.9879 338.677 11.1078 339.034 11.4915 339.475C11.8804 339.922 12.501 340.408 13.3913 340.916C15.1551 341.922 17.807 342.922 21.3003 343.891L21.3014 343.892L21.3976 343.918C28.4661 345.869 38.7374 347.637 51.48 349.124C76.9531 352.098 112.169 353.94 151.084 353.94C190 353.94 225.216 352.098 250.689 349.124C259.68 348.074 267.441 346.886 273.715 345.591L21.3014 343.892L273.75 345.584C276.353 345.046 278.7 344.49 280.771 343.918C284.312 342.941 286.997 341.931 288.777 340.916C289.668 340.408 290.288 339.922 290.677 339.475ZM277.849 345.611C284.727 343.969 289.33 342.172 291.181 340.278V343.822V345.701L277.849 345.611ZM277.818 345.619L291.181 345.709C291.181 345.994 291.061 346.351 290.677 346.792C290.288 347.239 289.668 347.724 288.777 348.232C286.997 349.248 284.312 350.258 280.771 351.235C273.703 353.186 263.431 354.953 250.689 356.441C225.216 359.415 190 361.256 151.084 361.256C112.169 361.256 76.9531 359.415 51.48 356.441C38.7374 354.953 28.4661 353.186 21.3976 351.235C17.8562 350.258 15.1715 349.248 13.3913 348.232C12.501 347.724 11.8804 347.239 11.4915 346.792C11.1078 346.351 10.9879 345.994 10.9879 345.709V345.709V343.822L18.0674 343.87C37.4024 350.269 89.6564 354.854 151.084 354.854C206.756 354.854 254.893 351.088 277.818 345.619ZM10.9879 343.822V340.278C12.2041 341.523 14.609 342.725 18.0668 343.87L10.9879 343.822Z" fill="white"/>
</svg>
