<svg width="300" height="467" viewBox="0 0 300 467" fill="none" xmlns="http://www.w3.org/2000/svg">
<path fill-rule="evenodd" clip-rule="evenodd" d="M106.412 232.179C110.407 228.737 115.376 227.224 122.266 226.463L122.348 227.207C115.52 227.961 110.728 229.449 106.902 232.746C103.066 236.051 100.153 241.213 97.1796 249.429L96.4749 249.174C99.4599 240.926 102.427 235.613 106.412 232.179Z" fill="white"/>
<path fill-rule="evenodd" clip-rule="evenodd" d="M93.0812 274.418C92.7143 269.57 92.8383 266.759 93.8363 261.588L94.5722 261.73C93.587 266.834 93.4664 269.578 93.8285 274.362L93.0812 274.418Z" fill="white"/>
<path fill-rule="evenodd" clip-rule="evenodd" d="M137.286 236.491C139.861 235.887 142.652 235.762 146.295 235.822L146.282 236.571C142.655 236.511 139.94 236.638 137.457 237.22C134.982 237.8 132.718 238.838 130.008 240.628L129.595 240.003C132.359 238.178 134.704 237.096 137.286 236.491Z" fill="white"/>
<path fill-rule="evenodd" clip-rule="evenodd" d="M114.487 272.855C115.469 262.946 116.689 252.514 124.665 244.544L125.195 245.073C117.433 252.83 116.218 262.992 115.233 272.929C115.202 273.241 115.171 273.552 115.14 273.864C114.2 283.417 113.284 292.728 106.448 299.005L105.941 298.453C112.562 292.374 113.453 283.332 114.406 273.67C114.433 273.399 114.46 273.127 114.487 272.855Z" fill="white"/>
<path fill-rule="evenodd" clip-rule="evenodd" d="M114.529 311.364C119.982 306.07 124.028 299.658 128.339 290.703L129.015 291.028C124.685 300.02 120.594 306.52 115.051 311.901C109.51 317.282 102.539 321.523 92.484 326.031L92.1772 325.347C102.193 320.857 109.076 316.659 114.529 311.364Z" fill="white"/>
<path fill-rule="evenodd" clip-rule="evenodd" d="M238.598 254.619C244.421 259.007 247.649 266.056 247.459 274.398L246.71 274.381C246.895 266.248 243.753 259.442 238.147 255.217C232.539 250.991 224.415 249.311 214.568 251.539L214.402 250.809C224.414 248.543 232.777 250.233 238.598 254.619Z" fill="white"/>
<path fill-rule="evenodd" clip-rule="evenodd" d="M238.567 301.423C242.665 294.094 244.039 286.115 242.964 275.175L243.71 275.102C244.796 286.151 243.413 294.292 239.222 301.788C235.041 309.266 228.083 316.069 218.099 324.477L217.616 323.904C227.596 315.499 234.459 308.771 238.567 301.423Z" fill="white"/>
<path fill-rule="evenodd" clip-rule="evenodd" d="M194.297 331.238C193.319 334.358 192.81 337.731 192.375 342.201L191.629 342.129C192.065 337.645 192.58 334.209 193.582 331.014C194.586 327.814 196.073 324.871 198.436 321.361L199.058 321.779C196.724 325.246 195.274 328.123 194.297 331.238Z" fill="white"/>
<path fill-rule="evenodd" clip-rule="evenodd" d="M219.542 232.404C219.447 232.504 219.351 232.606 219.253 232.709L218.709 232.194C218.811 232.087 218.911 231.981 219.01 231.876C222.849 227.825 225.136 225.41 230.832 223.117L231.112 223.812C225.569 226.044 223.376 228.358 219.542 232.404Z" fill="white"/>
<path fill-rule="evenodd" clip-rule="evenodd" d="M214.805 259.562C213.953 259.666 213.147 259.58 212.171 259.406L212.302 258.668C213.254 258.838 213.973 258.909 214.714 258.819C215.454 258.729 216.242 258.474 217.319 257.951L217.646 258.625C216.528 259.167 215.657 259.459 214.805 259.562Z" fill="white"/>
<path fill-rule="evenodd" clip-rule="evenodd" d="M222.312 272.86C218.392 265.686 210.558 261.052 199.827 259.784L199.915 259.04C210.809 260.327 218.9 265.054 222.97 272.501C227.038 279.944 227.035 290.011 221.949 301.872L221.26 301.577C226.29 289.847 226.234 280.036 222.312 272.86Z" fill="white"/>
<path fill-rule="evenodd" clip-rule="evenodd" d="M148.349 230.496C152.156 222.91 153.557 220.118 155.29 212.152L156.022 212.311C154.269 220.37 152.833 223.232 149.02 230.829C148.735 231.398 148.436 231.993 148.122 232.619L147.452 232.285C147.765 231.659 148.064 231.064 148.349 230.496Z" fill="white"/>
<path fill-rule="evenodd" clip-rule="evenodd" d="M181.976 267.797C178.565 269.205 175.893 271.388 174.729 273.803L174.054 273.478C175.326 270.838 178.18 268.554 181.69 267.105C185.208 265.653 189.436 265.017 193.518 265.722C197.607 266.429 201.549 268.482 204.464 272.401C207.376 276.317 209.239 282.063 209.239 290.116C209.239 293.281 208.209 296.73 206.653 300.164C205.095 303.602 202.998 307.05 200.837 310.219C198.675 313.389 196.444 316.287 194.616 318.623C194.327 318.993 194.049 319.348 193.783 319.686C192.356 321.504 191.285 322.867 190.825 323.634C189.276 326.215 186.695 332.256 185.47 339.001C184.243 345.757 184.395 353.118 188.186 358.422C189.119 359.728 190.611 361.692 192.629 363.126C194.638 364.553 197.147 365.442 200.15 364.643L200.342 365.367C197.068 366.238 194.331 365.254 192.195 363.737C190.068 362.226 188.516 360.173 187.576 358.857C183.605 353.302 183.494 345.685 184.733 338.868C185.973 332.039 188.584 325.911 190.182 323.249C190.669 322.438 191.778 321.026 193.2 319.215C193.465 318.877 193.741 318.526 194.026 318.162C195.851 315.829 198.07 312.947 200.217 309.798C202.365 306.648 204.437 303.239 205.97 299.855C207.505 296.467 208.49 293.13 208.49 290.116C208.49 282.175 206.652 276.6 203.862 272.848C201.075 269.1 197.312 267.138 193.391 266.46C189.463 265.781 185.378 266.393 181.976 267.797Z" fill="white"/>
<path fill-rule="evenodd" clip-rule="evenodd" d="M160.118 250.136C155.912 251.074 152.2 254.234 149.993 258.461L149.989 258.468C146.151 265.455 144.488 271.915 142.809 278.442C142.204 280.791 141.598 283.148 140.886 285.542C138.203 294.575 134.055 303.991 122.956 315.085C118.016 320.774 108.95 325.384 100.221 328.198C95.8458 329.608 91.5357 330.574 87.8419 330.999C84.1656 331.421 81.0417 331.315 79.0768 330.53C75.1545 328.962 73.9776 325.807 73.7837 323.094C73.6871 321.743 73.832 320.492 73.9997 319.583C74.0837 319.127 74.1739 318.755 74.2434 318.495C74.2781 318.365 74.3078 318.263 74.329 318.193C74.3396 318.158 74.3481 318.131 74.3541 318.112L74.3611 318.09L74.3631 318.084L74.3637 318.082C74.3638 318.082 74.364 318.081 74.7195 318.2C75.075 318.318 75.075 318.318 75.0751 318.318L75.0736 318.322L75.0682 318.339C75.0633 318.354 75.0559 318.378 75.0464 318.41C75.0273 318.473 74.9999 318.567 74.9673 318.688C74.9022 318.932 74.8167 319.285 74.7367 319.718C74.5766 320.587 74.4405 321.771 74.5312 323.041C74.712 325.57 75.7834 328.407 79.3551 329.834C81.1373 330.547 84.1024 330.674 87.7563 330.255C91.3926 329.837 95.6539 328.883 99.9908 327.485C108.68 324.684 117.595 320.124 122.399 314.584L122.407 314.574L122.417 314.565C133.419 303.57 137.513 294.267 140.168 285.329C140.864 282.985 141.463 280.657 142.064 278.324C143.749 271.773 145.444 265.186 149.33 258.112C151.62 253.729 155.495 250.4 159.954 249.405C164.435 248.405 169.438 249.776 173.918 254.665L173.366 255.171C169.041 250.452 164.302 249.202 160.118 250.136Z" fill="white"/>
<path fill-rule="evenodd" clip-rule="evenodd" d="M85.6733 210.276C92.4995 211.91 98.3397 218.252 97.5755 227.988L96.8284 227.929C97.5631 218.569 91.9747 212.554 85.4988 211.005C79.0261 209.456 71.6364 212.358 68.7043 220.965L67.9949 220.724C71.0581 211.732 78.844 208.642 85.6733 210.276Z" fill="white"/>
<path fill-rule="evenodd" clip-rule="evenodd" d="M228.125 237.807C224.38 240.969 220.215 244.965 215.496 249.569L214.972 249.034C219.69 244.43 223.873 240.417 227.641 237.235C231.406 234.055 234.78 231.685 237.881 230.386C240.992 229.083 243.856 228.847 246.566 229.98C249.262 231.106 251.741 233.561 254.149 237.499L253.509 237.889C251.14 234.014 248.765 231.71 246.277 230.671C243.803 229.637 241.155 229.827 238.17 231.077C235.176 232.331 231.872 234.642 228.125 237.807Z" fill="white"/>
<path fill-rule="evenodd" clip-rule="evenodd" d="M232.863 238.521C229.906 241.004 226.539 244.319 222.625 248.436L222.082 247.92C226.002 243.797 229.392 240.458 232.38 237.948C235.365 235.44 237.973 233.74 240.328 232.918C242.699 232.092 244.825 232.154 246.806 233.184C248.767 234.204 250.542 236.15 252.276 238.997L251.635 239.386C249.932 236.589 248.245 234.776 246.46 233.848C244.694 232.93 242.787 232.854 240.575 233.626C238.347 234.402 235.823 236.034 232.863 238.521Z" fill="white"/>
<path fill-rule="evenodd" clip-rule="evenodd" d="M83.7817 207.644C75.4129 207.099 65.873 213.357 60.4643 231.063L59.7476 230.845C65.2053 212.978 74.9627 206.319 83.8305 206.897C92.6585 207.472 100.365 215.222 101.695 225.664L100.952 225.759C99.6589 215.607 92.1902 208.192 83.7817 207.644Z" fill="white"/>
<path fill-rule="evenodd" clip-rule="evenodd" d="M240.813 310.458C249.329 301.208 254.639 283.156 248.598 262.136L249.318 261.93C255.42 283.157 250.085 301.492 241.365 310.965C237.497 315.166 231.675 320.718 225.963 326.165C225.297 326.801 224.631 327.435 223.971 328.066C217.637 334.113 211.762 339.801 209.16 343.143C207.885 344.781 206.959 346.826 206.186 349.064C205.595 350.773 205.099 352.574 204.602 354.38C204.448 354.941 204.293 355.503 204.135 356.063C203.474 358.411 202.761 360.712 201.789 362.706C200.816 364.702 199.571 366.415 197.83 367.565L197.825 367.568L197.82 367.571C194.822 369.421 192.127 370.191 189.626 369.785C187.124 369.379 184.896 367.808 182.804 365.15C179.908 361.864 178.783 356.792 178.632 350.702C178.48 344.596 179.307 337.384 180.39 329.755L180.407 329.636L180.491 329.549C189.532 320.128 198.497 306.317 203.268 294.477C205.103 289.334 204.445 282.607 202.532 278.672C200.632 274.765 197.452 272.453 193.392 271.004C188.775 269.837 182.565 271.445 175.394 278.035L174.887 277.484C182.166 270.794 188.634 269.02 193.594 270.282L193.611 270.287L193.627 270.293C197.826 271.788 201.196 274.211 203.206 278.345C205.204 282.455 205.88 289.395 203.971 294.736L203.969 294.743L203.966 294.75C199.174 306.645 190.195 320.491 181.115 329.98C180.041 337.563 179.232 344.677 179.381 350.684C179.531 356.735 180.653 361.582 183.373 364.662L183.38 364.67L183.386 364.679C185.414 367.258 187.493 368.68 189.746 369.046C192 369.412 194.508 368.734 197.421 366.937C199.009 365.887 200.177 364.303 201.116 362.378C202.056 360.449 202.754 358.204 203.414 355.86C203.569 355.31 203.722 354.755 203.875 354.198C204.373 352.387 204.878 350.553 205.477 348.819C206.262 346.549 207.22 344.416 208.568 342.684C211.213 339.286 217.14 333.553 223.453 327.524C224.113 326.894 224.778 326.26 225.444 325.625C231.16 320.174 236.963 314.64 240.813 310.458Z" fill="white"/>
<path fill-rule="evenodd" clip-rule="evenodd" d="M68.3969 324.356C69.007 314.038 70.7915 301.25 76.6304 289.204L77.3049 289.531C71.5279 301.449 69.7527 314.124 69.145 324.4C68.9088 328.394 68.8492 332.018 68.7986 335.098C68.7841 335.981 68.7703 336.819 68.7533 337.609C68.7152 339.376 68.6609 340.903 68.5446 342.132C68.4296 343.347 68.2504 344.323 67.9351 344.953C67.6205 345.582 67.0601 346.189 66.3526 346.771C65.6412 347.357 64.7582 347.936 63.7703 348.503C61.795 349.638 59.3661 350.745 56.9756 351.776C56.0411 352.178 55.1145 352.569 54.2216 352.945C52.82 353.535 51.5015 354.091 50.3659 354.605C49.4383 355.024 48.6465 355.41 48.0434 355.758C47.742 355.932 47.4939 356.092 47.3023 356.239C47.107 356.389 46.9888 356.51 46.9282 356.601L46.9215 356.611L46.9141 356.621C44.5819 359.668 44.6494 363.458 45.6197 367.013C46.5888 370.564 48.4391 373.804 49.5607 375.672C50.658 377.499 52.4046 379.431 54.3856 380.95C56.3718 382.473 58.553 383.551 60.5145 383.729C62.1493 383.878 64.0195 383.026 66.0284 381.519C68.0246 380.021 70.0894 377.928 72.1001 375.715C73.1041 374.61 74.0912 373.478 75.0471 372.38L75.2234 372.178C76.1159 371.152 76.9808 370.159 77.8021 369.251C79.5384 367.332 81.126 365.741 82.4106 365.05C82.7652 364.859 83.2409 364.721 83.8041 364.615C84.3724 364.508 85.0549 364.429 85.8382 364.367C87.4041 364.245 89.4052 364.192 91.7586 364.138C92.0084 364.133 92.2623 364.127 92.5201 364.121C97.1276 364.018 103.007 363.886 109.684 363.256C123.786 361.927 141.426 358.379 158.079 348.213C189.529 327.746 200.568 300.844 203.471 293.77C203.533 293.619 203.592 293.477 203.647 293.344L204.34 293.629C204.285 293.762 204.226 293.904 204.164 294.056C201.245 301.17 190.132 328.249 158.483 348.844L158.479 348.847L158.474 348.849C141.687 359.1 123.919 362.666 109.755 364.002C103.05 364.634 97.1467 364.766 92.5402 364.87C92.2812 364.876 92.0264 364.881 91.7757 364.887C89.4174 364.941 87.438 364.994 85.8967 365.114C85.1264 365.174 84.4738 365.251 83.9431 365.351C83.4073 365.452 83.0201 365.573 82.7659 365.71C81.6149 366.329 80.1112 367.815 78.3581 369.753C77.5416 370.656 76.6811 371.644 75.7871 372.671L75.6125 372.872C74.6569 373.97 73.665 375.106 72.655 376.218C70.6376 378.439 68.5338 380.575 66.4784 382.118C64.4358 383.65 62.3716 384.65 60.4466 384.475C58.2865 384.279 55.9712 383.11 53.9294 381.544C51.8823 379.974 50.0691 377.974 48.9181 376.057C47.7914 374.181 45.8946 370.867 44.8967 367.21C43.9006 363.561 43.7802 359.491 46.312 356.175C46.4388 355.989 46.6278 355.812 46.8465 355.645C47.0731 355.471 47.3513 355.292 47.669 355.109C48.3042 354.743 49.1224 354.345 50.0567 353.922C51.1992 353.405 52.5357 352.842 53.9462 352.248C54.8377 351.873 55.7586 351.485 56.6788 351.088C59.0658 350.059 61.4612 348.966 63.3969 347.854C64.3645 347.298 65.2087 346.742 65.8761 346.193C66.5474 345.64 67.0174 345.112 67.2648 344.618C67.5116 344.125 67.6837 343.275 67.7985 342.062C67.912 340.862 67.966 339.359 68.004 337.593C68.0209 336.809 68.0346 335.975 68.0491 335.094C68.0998 332.013 68.1597 328.367 68.3969 324.356Z" fill="white"/>
<path fill-rule="evenodd" clip-rule="evenodd" d="M234.344 220.469C230.262 217.449 227.716 215.969 223.418 213.715C223.193 213.597 222.963 213.477 222.728 213.354L214.86 250.05C215.132 249.983 215.401 249.917 215.668 249.853C232.915 245.707 240.582 248.031 248.541 262.394C248.68 262.644 248.819 262.898 248.958 263.156C249.11 262.903 249.259 262.654 249.404 262.408C253.113 256.116 254.462 251.812 254.578 242.936C254.129 228.311 249.345 223.669 234.344 220.469ZM253.829 242.942C253.604 235.695 252.306 231.11 249.367 227.926C246.409 224.72 241.666 222.797 234.188 221.201L234.029 221.167L233.898 221.071C229.916 218.124 227.42 216.664 223.255 214.475L215.842 249.041C224.333 247.028 230.655 246.566 235.877 248.491C241.084 250.411 245.047 254.647 248.982 261.646C250.626 258.819 251.761 256.413 252.521 253.781C253.378 250.81 253.768 247.51 253.829 242.942Z" fill="white"/>
<path fill-rule="evenodd" clip-rule="evenodd" d="M100.504 225.515C106.866 222.431 114.627 221.59 123.852 222.719L123.76 223.462C114.625 222.345 107.022 223.188 100.831 226.189C94.6472 229.187 89.8314 234.357 86.3007 241.97C82.5173 250.129 81.4848 261.666 81.5031 272.236C81.519 281.434 82.3292 289.85 82.7859 294.594C82.8534 295.296 82.9132 295.917 82.9615 296.448C83.1583 298.611 82.2529 301.453 80.9735 304.553C80.3293 306.113 79.5815 307.759 78.8126 309.44C78.7469 309.583 78.6811 309.727 78.6152 309.871C77.9082 311.416 77.1888 312.987 76.516 314.556C75.0425 317.992 73.8079 321.38 73.4226 324.385C73.038 327.386 73.507 329.939 75.3592 331.79C78.8827 335.311 84.7681 336.264 91.837 334.876C98.8917 333.49 107.04 329.785 114.97 324.121C130.832 312.792 145.749 293.684 149.29 269.841C150.592 261.079 156.894 255.971 162.148 255.389C164.783 255.097 167.201 255.947 168.52 258.118C169.827 260.269 169.984 263.608 168.375 268.149L167.668 267.899C169.244 263.453 169.018 260.38 167.879 258.506C166.752 256.652 164.662 255.864 162.231 256.133C157.351 256.674 151.288 261.489 150.031 269.951C146.454 294.038 131.394 313.311 115.406 324.73C107.411 330.44 99.1656 334.2 91.9815 335.611C84.8116 337.019 78.6126 336.1 74.8293 332.319C72.7472 330.239 72.2794 327.409 72.6793 324.29C73.0786 321.175 74.3498 317.706 75.8272 314.261C76.5037 312.684 77.2268 311.104 77.9332 309.561C77.9993 309.416 78.0652 309.272 78.131 309.129C78.9004 307.447 79.6426 305.813 80.2807 304.267C81.5656 301.154 82.3932 298.472 82.2152 296.516C82.1671 295.987 82.1075 295.369 82.0402 294.669C81.5836 289.927 80.7696 281.473 80.7537 272.237C80.7354 261.651 81.7638 249.973 85.6208 241.656C89.2095 233.917 94.136 228.602 100.504 225.515Z" fill="white"/>
<path fill-rule="evenodd" clip-rule="evenodd" d="M100.008 202.471L100.006 202.471L99.9944 202.468L99.9446 202.455C99.8996 202.444 99.831 202.427 99.7402 202.406C99.5586 202.363 99.288 202.303 98.9385 202.233C98.2394 202.093 97.2256 201.915 95.9771 201.765C93.4773 201.466 90.0512 201.283 86.3337 201.741C78.9097 202.657 70.385 206.115 65.6571 216.291C63.2217 221.533 61.2046 226.127 60.379 231.673C59.5548 237.21 59.9124 243.75 62.3294 252.854C64.7737 262.061 65.2835 267.924 64.0178 272.935C62.7557 277.931 59.7459 281.984 55.455 287.576C53.4474 290.193 53.3645 292.664 54.3622 294.532C55.3803 296.438 57.6137 297.888 60.5642 298.218C66.3843 298.869 74.9816 295.087 81.0768 281.745C80.512 274.536 79.5249 258.362 84.4121 244.697C86.8834 237.787 90.8758 231.463 97.235 227.28C103.523 223.145 112.035 221.163 123.474 222.665C125.994 219.276 129.975 211.846 131.931 204.019C126.643 201.36 122.159 199.867 117.409 199.552C112.498 199.227 107.237 200.155 100.44 202.456L100.226 202.529L100.008 202.471ZM100.2 201.747C100.2 201.747 74.7197 195.007 64.9773 215.976C60.1062 226.461 56.7338 234.698 61.605 253.046C66.4762 271.394 63.4785 275.887 54.8603 287.121C46.2421 298.354 69.4738 309.213 81.839 281.879C80.7149 267.65 77.7174 217.099 123.806 223.465C126.429 220.095 130.809 212.034 132.799 203.619C121.663 197.915 113.894 197.109 100.2 201.747Z" fill="white"/>
<path fill-rule="evenodd" clip-rule="evenodd" d="M45.583 358.629C45.5832 358.629 45.5833 358.629 45.4924 358.266C45.4015 357.902 45.4017 357.902 45.4019 357.902L45.4033 357.902L45.4061 357.901L45.415 357.899C45.4224 357.898 45.4326 357.895 45.4455 357.892C45.4713 357.887 45.508 357.879 45.5543 357.87C45.647 357.853 45.779 357.831 45.9413 357.812C46.2649 357.775 46.7142 357.749 47.2159 357.8C48.2181 357.9 49.4672 358.307 50.3007 359.556C50.5774 359.971 50.8894 360.469 51.2414 361.031C52.8245 363.561 55.2178 367.384 58.8603 370.721C61.2084 372.872 62.1603 376.259 62.5381 379.044C62.7283 380.446 62.7757 381.715 62.7757 382.634C62.7757 383.094 62.7639 383.467 62.7519 383.726C62.7459 383.855 62.7399 383.956 62.7354 384.025C62.7331 384.06 62.7312 384.086 62.7299 384.105L62.7283 384.126L62.7278 384.131L62.7277 384.133C62.7277 384.133 62.7276 384.134 62.3542 384.103C61.9808 384.071 61.9808 384.071 61.9808 384.072L61.9812 384.066L61.9825 384.049C61.9835 384.036 61.9847 384.019 61.9862 383.998C61.9866 383.991 61.9871 383.984 61.9876 383.976C61.9918 383.912 61.9976 383.815 62.0033 383.691C62.0148 383.442 62.0263 383.081 62.0263 382.634C62.0263 381.739 61.9801 380.505 61.7955 379.145C61.424 376.406 60.5024 373.241 58.3539 371.273C54.6267 367.859 52.1667 363.925 50.5883 361.402C50.2439 360.851 49.9415 360.368 49.6771 359.971C49.0117 358.974 48.0126 358.632 47.1413 358.545C46.7062 358.501 46.3125 358.523 46.0272 358.556C45.885 358.572 45.7711 358.591 45.694 358.606C45.6555 358.613 45.6263 358.619 45.6074 358.623L45.5871 358.628L45.583 358.629C45.5831 358.629 45.5828 358.629 45.583 358.629Z" fill="white"/>
<path fill-rule="evenodd" clip-rule="evenodd" d="M121.354 341.2C131.083 334.662 140.639 325.41 152.748 311.217L153.318 311.703C141.192 325.917 131.584 335.227 121.772 341.821C111.955 348.419 101.952 352.283 89.0527 355.632L88.8643 354.908C101.714 351.571 111.63 347.734 121.354 341.2Z" fill="white"/>
<path fill-rule="evenodd" clip-rule="evenodd" d="M89.3364 360.188C87.856 349.092 81.585 342.485 73.1262 340.28L73.3154 339.556C82.0931 341.844 88.562 348.717 90.0793 360.089L89.3364 360.188Z" fill="white"/>
<path fill-rule="evenodd" clip-rule="evenodd" d="M70.7552 365.45C74.5574 362.744 76.5535 360.819 79.284 356.928L79.8976 357.358C77.1141 361.324 75.0556 363.309 71.1899 366.06L70.7552 365.45ZM62.5667 370.66C65.2872 369.352 66.5158 368.527 68.4914 366.959L68.9573 367.546C66.942 369.145 65.6665 370.001 62.8914 371.335L62.5667 370.66Z" fill="white"/>
<path fill-rule="evenodd" clip-rule="evenodd" d="M212.611 259.412C212.611 259.412 247.459 147.452 206.616 93.1578C165.773 38.8631 132.05 68.4443 138.42 113.752C138.858 116.867 139.232 119.972 139.544 123.06L140.256 122.653C139.95 119.665 139.585 116.662 139.162 113.648C137.583 102.417 138.494 92.1965 141.352 84.0322C144.211 75.8644 148.998 69.8017 155.144 66.7759C161.271 63.7594 168.873 63.6997 177.514 67.7759C186.171 71.86 195.849 80.0909 206.017 93.6078C226.253 120.509 227.789 161.811 224.184 196.568C222.385 213.917 219.312 229.577 216.688 240.901C215.376 246.562 214.177 251.137 213.306 254.296C212.871 255.875 212.518 257.1 212.274 257.93C212.233 258.067 212.196 258.194 212.161 258.309C212.132 258.408 212.105 258.498 212.081 258.581C211.938 258.564 211.771 258.548 211.581 258.531C210.811 258.465 209.65 258.405 208.057 258.429C204.871 258.477 199.957 258.856 192.987 260.174C185.845 261.524 180.642 265.199 176.016 270.776C172.666 274.813 169.6 279.871 166.305 285.784C166.837 284.298 167.398 282.785 167.965 281.253L167.966 281.25C168.257 280.464 168.55 279.673 168.842 278.878C170.692 273.842 172.491 268.677 173.441 263.815C174.389 258.958 174.51 254.308 172.908 250.338C171.292 246.33 167.967 243.131 162.277 241.107L162.272 241.106L162.267 241.104C159.477 240.156 157.184 239.401 155.224 238.755C150.566 237.222 147.793 236.308 144.727 234.907C140.458 232.956 135.644 230.065 124.482 223.23C131.472 212.435 136.679 196.478 139.395 177.702C140.055 173.146 140.568 168.42 140.924 163.558L140.188 163.356C138.38 188.252 132.449 209.556 123.843 222.839C123.707 223.05 123.569 223.258 123.431 223.465L124.071 223.857C143.253 235.602 143.83 235.792 155.032 239.481C156.987 240.125 159.267 240.876 162.026 241.813C179.474 248.019 173.116 265.186 167.266 280.983C166.173 283.933 165.098 286.835 164.199 289.61C163.813 290.803 163.459 291.972 163.15 293.112C163.742 292.02 164.321 290.952 164.891 289.908C173.694 273.762 180.105 263.371 193.127 260.91C206.991 258.289 212.611 259.412 212.611 259.412ZM199.431 163.893C198.495 191.484 192.741 222.122 182.28 252.926L182.99 253.167C193.502 222.214 199.275 191.414 200.188 163.677L199.431 163.893ZM195.761 117.552L196.552 117.665C192.972 101.071 186.824 86.9625 178.052 76.4424L177.476 76.9219C186.107 87.2719 192.192 101.167 195.761 117.552ZM160.385 121.542L159.616 121.432C159.537 120.804 159.459 120.176 159.379 119.549C159.271 118.691 159.163 117.833 159.054 116.978L159.052 116.96L159.052 116.956L159.052 116.956C158.001 108.657 156.975 100.546 156.447 93.5348C155.865 85.8149 155.88 79.3557 157.174 75.4414L157.885 75.6762C156.645 79.4286 156.611 85.7427 157.194 93.4786C157.721 100.469 158.745 108.561 159.796 116.865L159.796 116.865L159.796 116.865L159.796 116.865C159.905 117.727 160.014 118.59 160.123 119.456C160.211 120.15 160.298 120.846 160.385 121.542Z" fill="white"/>
<path fill-rule="evenodd" clip-rule="evenodd" d="M171.214 194.963C167.097 195.159 162.999 194.354 157.793 192.743L158.015 192.028C163.186 193.628 167.188 194.405 171.178 194.215C175.167 194.025 179.176 192.867 184.355 190.546L184.662 191.229C179.437 193.57 175.332 194.767 171.214 194.963Z" fill="#FFD600"/>
<path fill-rule="evenodd" clip-rule="evenodd" d="M181.885 162.055C191.885 162.055 200.246 151.985 200.246 139.214C200.246 126.444 191.885 116.373 181.885 116.373C171.885 116.373 163.525 126.444 163.525 139.214C163.525 151.985 171.885 162.055 181.885 162.055ZM181.885 162.804C192.44 162.804 200.995 152.243 200.995 139.214C200.995 126.186 192.44 115.624 181.885 115.624C171.331 115.624 162.775 126.186 162.775 139.214C162.775 152.243 171.331 162.804 181.885 162.804Z" fill="#FFD600"/>
<path fill-rule="evenodd" clip-rule="evenodd" d="M133.548 130.37C131.152 134.13 129.71 138.363 129.801 142.201L129.801 142.21H129.801C129.801 149.734 131.637 155.097 134.451 158.652C137.262 162.203 141.074 163.983 145.1 164.303C153.178 164.945 162.11 159.707 165.423 151.063L166.123 151.33C162.691 160.285 153.451 165.718 145.041 165.05C140.824 164.715 136.814 162.844 133.863 159.117C130.917 155.394 129.053 149.853 129.052 142.214C128.957 138.19 130.465 133.813 132.916 129.968C135.369 126.12 138.787 122.769 142.556 120.815C146.328 118.859 150.481 118.289 154.349 120.07C158.21 121.848 161.705 125.931 164.253 133.098L163.546 133.348C161.036 126.287 157.645 122.412 154.035 120.75C150.433 119.091 146.529 119.598 142.901 121.48C139.27 123.363 135.943 126.612 133.548 130.37Z" fill="#FFD600"/>
<path fill-rule="evenodd" clip-rule="evenodd" d="M145.511 121.972C137.953 124.352 130.936 133.364 131.674 144.056C132.138 150.778 134.245 155.436 137.141 158.385C140.036 161.331 143.749 162.602 147.496 162.5C155.009 162.294 162.62 156.565 163.903 147.772L164.645 147.88C163.305 157.06 155.366 163.033 147.516 163.248C143.581 163.356 139.66 162.018 136.606 158.909C133.555 155.802 131.399 150.959 130.926 144.107C130.165 133.081 137.388 123.745 145.286 121.258C149.252 120.008 153.409 120.484 156.783 123.366C160.145 126.237 162.674 131.447 163.523 139.549L162.777 139.627C161.94 131.628 159.457 126.634 156.297 123.935C153.149 121.248 149.273 120.787 145.511 121.972Z" fill="#FFD600"/>
<path fill-rule="evenodd" clip-rule="evenodd" d="M214.16 142.955C215.247 130.101 207.689 119.109 197.449 118.244L197.512 117.498C208.305 118.41 216.016 129.907 214.906 143.018C213.796 156.134 204.258 165.961 193.47 165.05L193.533 164.303C203.778 165.169 213.072 155.803 214.16 142.955Z" fill="#FFD600"/>
<path fill-rule="evenodd" clip-rule="evenodd" d="M165.202 166.784C163.689 167.468 162.071 167.867 160.481 167.669C157.473 167.293 152.968 166.543 149.222 165.887C147.347 165.56 145.66 165.255 144.441 165.033C143.832 164.922 143.34 164.831 143 164.768C142.83 164.736 142.698 164.712 142.609 164.695L142.473 164.67C142.473 164.67 142.472 164.67 142.541 164.302C142.61 163.934 142.61 163.934 142.611 163.934L142.746 163.959C142.835 163.976 142.967 164 143.137 164.031C143.476 164.094 143.967 164.185 144.576 164.296C145.793 164.518 147.478 164.822 149.351 165.15C153.098 165.805 157.586 166.552 160.574 166.926C161.981 167.101 163.455 166.752 164.893 166.102C166.329 165.452 167.707 164.513 168.91 163.542C170.112 162.572 171.13 161.578 171.849 160.825C172.207 160.449 172.491 160.134 172.684 159.914C172.78 159.804 172.854 159.718 172.904 159.659C172.929 159.63 172.947 159.607 172.96 159.593L172.973 159.576L172.976 159.572L172.977 159.571L173.267 159.808C173.557 160.045 173.557 160.046 173.557 160.046L173.551 160.052L173.536 160.071C173.522 160.088 173.502 160.111 173.476 160.142C173.424 160.204 173.347 160.294 173.248 160.408C173.048 160.635 172.758 160.958 172.391 161.342C171.657 162.111 170.615 163.129 169.381 164.125C168.148 165.12 166.716 166.1 165.202 166.784Z" fill="#FFD600"/>
<path fill-rule="evenodd" clip-rule="evenodd" d="M167.897 124.215C161.299 121.892 157.419 121.013 150.344 119.737L150.477 119C157.577 120.28 161.498 121.168 168.146 123.509L167.897 124.215Z" fill="#FFD600"/>
<path fill-rule="evenodd" clip-rule="evenodd" d="M183.809 115.627L197.673 117.499L197.573 118.241L183.709 116.369L183.809 115.627Z" fill="#FFD600"/>
<path fill-rule="evenodd" clip-rule="evenodd" d="M180.072 162.061L193.936 164.307L193.816 165.046L179.952 162.8L180.072 162.061Z" fill="#FFD600"/>
<path fill-rule="evenodd" clip-rule="evenodd" d="M181.511 159.809C190.474 159.809 197.998 150.747 197.998 139.215C197.998 127.683 190.474 118.62 181.511 118.62C172.547 118.62 165.024 127.683 165.024 139.215C165.024 150.747 172.547 159.809 181.511 159.809ZM181.511 160.558C191.03 160.558 198.747 151.002 198.747 139.215C198.747 127.427 191.03 117.871 181.511 117.871C171.991 117.871 164.274 127.427 164.274 139.215C164.274 151.002 171.991 160.558 181.511 160.558Z" fill="#FFD600"/>
<path fill-rule="evenodd" clip-rule="evenodd" d="M184.134 156.064C191.653 156.064 197.998 148.505 197.998 138.84C197.998 129.174 191.653 121.615 184.134 121.615C176.615 121.615 170.269 129.174 170.269 138.84C170.269 148.505 176.615 156.064 184.134 156.064ZM184.134 156.813C192.204 156.813 198.747 148.766 198.747 138.84C198.747 128.913 192.204 120.866 184.134 120.866C176.063 120.866 169.52 128.913 169.52 138.84C169.52 148.766 176.063 156.813 184.134 156.813Z" fill="#FFD600"/>
<path fill-rule="evenodd" clip-rule="evenodd" d="M148.911 159.808C156.43 159.808 162.776 152.249 162.776 142.584C162.776 132.918 156.43 125.359 148.911 125.359C141.392 125.359 135.047 132.918 135.047 142.584C135.047 152.249 141.392 159.808 148.911 159.808ZM148.911 160.557C156.982 160.557 163.525 152.51 163.525 142.584C163.525 132.657 156.982 124.61 148.911 124.61C140.841 124.61 134.298 132.657 134.298 142.584C134.298 152.51 140.841 160.557 148.911 160.557Z" fill="#FFD600"/>
<path fill-rule="evenodd" clip-rule="evenodd" d="M195.741 142.316C196.647 140.95 196.87 139.489 196.524 138.601L197.223 138.329C197.689 139.526 197.349 141.247 196.366 142.73C195.37 144.233 193.675 145.556 191.315 145.949L191.3 145.951L191.286 145.952C189.108 146.143 187.406 145.034 186.358 143.505C185.316 141.986 184.888 140.013 185.267 138.38L185.997 138.55C185.671 139.953 186.038 141.713 186.976 143.081C187.904 144.435 189.36 145.364 191.206 145.208C193.335 144.849 194.851 143.659 195.741 142.316Z" fill="#FFD600"/>
<path fill-rule="evenodd" clip-rule="evenodd" d="M160.894 145.169C161.8 143.803 162.022 142.341 161.677 141.453L162.375 141.182C162.841 142.378 162.502 144.1 161.519 145.583C160.522 147.085 158.827 148.408 156.467 148.801L156.453 148.804L156.438 148.805C154.26 148.996 152.558 147.887 151.51 146.357C150.469 144.839 150.04 142.865 150.42 141.233L151.15 141.402C150.824 142.805 151.19 144.566 152.128 145.934C153.056 147.288 154.513 148.216 156.358 148.06C158.487 147.701 160.003 146.512 160.894 145.169Z" fill="#FFD600"/>
<path fill-rule="evenodd" clip-rule="evenodd" d="M169.818 140.346C180.072 138.186 186.159 137.431 198.393 138.092L198.352 138.84C186.194 138.183 180.173 138.93 169.972 141.079L169.818 140.346Z" fill="#FFD600"/>
<path fill-rule="evenodd" clip-rule="evenodd" d="M134.97 143.198C145.225 141.038 151.311 140.283 163.545 140.943L163.505 141.691C151.346 141.034 145.325 141.782 135.125 143.93L134.97 143.198Z" fill="#FFD600"/>
<path fill-rule="evenodd" clip-rule="evenodd" d="M213.392 133.222L213.361 132.848C213.33 132.475 213.33 132.475 213.33 132.475L213.334 132.475L213.344 132.474L213.384 132.471C213.418 132.469 213.468 132.465 213.531 132.461C213.658 132.453 213.84 132.442 214.06 132.433C214.499 132.416 215.095 132.404 215.717 132.427C216.336 132.451 216.995 132.511 217.556 132.642C217.836 132.707 218.104 132.793 218.334 132.908C218.561 133.021 218.775 133.175 218.918 133.39C219.008 133.524 219.06 133.709 219.097 133.882C219.136 134.07 219.168 134.3 219.193 134.561C219.244 135.085 219.274 135.764 219.286 136.54C219.309 138.095 219.262 140.07 219.168 142.04C219.074 144.011 218.933 145.984 218.768 147.538C218.686 148.314 218.597 148.991 218.504 149.513C218.458 149.773 218.409 150 218.359 150.185C218.311 150.357 218.252 150.531 218.169 150.655C217.872 151.1 217.3 151.219 216.793 151.237C216.257 151.256 215.637 151.167 215.064 151.048C214.487 150.928 213.936 150.772 213.531 150.647C213.328 150.585 213.161 150.529 213.044 150.49C212.986 150.47 212.94 150.454 212.908 150.443L212.872 150.43L212.862 150.426L212.858 150.425C212.858 150.425 212.858 150.425 212.986 150.073L213.114 149.721L213.116 149.722L213.124 149.725L213.157 149.736C213.186 149.747 213.23 149.762 213.285 149.781C213.397 149.818 213.557 149.871 213.752 149.932C214.144 150.052 214.67 150.201 215.217 150.315C215.768 150.43 216.319 150.505 216.767 150.489C217.243 150.472 217.467 150.357 217.545 150.24C217.545 150.24 217.546 150.238 217.548 150.235C217.55 150.232 217.552 150.227 217.555 150.221C217.562 150.209 217.569 150.191 217.578 150.169C217.595 150.123 217.615 150.063 217.636 149.986C217.678 149.833 217.722 149.63 217.766 149.381C217.855 148.885 217.942 148.227 218.023 147.459C218.186 145.924 218.326 143.966 218.42 142.005C218.513 140.043 218.56 138.086 218.536 136.552C218.525 135.784 218.496 135.128 218.447 134.634C218.423 134.387 218.395 134.187 218.363 134.036C218.347 133.961 218.332 133.904 218.318 133.861C218.305 133.824 218.296 133.808 218.295 133.805C218.295 133.805 218.295 133.805 218.295 133.805C218.251 133.739 218.161 133.658 217.999 133.578C217.839 133.498 217.632 133.429 217.386 133.371C216.892 133.256 216.287 133.199 215.688 133.176C215.092 133.153 214.517 133.164 214.09 133.182C213.877 133.19 213.701 133.2 213.58 133.208C213.519 133.212 213.471 133.216 213.439 133.218L213.403 133.221L213.394 133.221L213.392 133.222Z" fill="#FFD600"/>
<path fill-rule="evenodd" clip-rule="evenodd" d="M223.416 136.962L218.92 136.213L219.043 135.475L223.539 136.224L223.416 136.962Z" fill="#FFD600"/>
<path fill-rule="evenodd" clip-rule="evenodd" d="M225.592 153.793L217.724 150.797L217.99 150.098L225.859 153.093L225.592 153.793Z" fill="#FFD600"/>
<path fill-rule="evenodd" clip-rule="evenodd" d="M155.656 142.584C156.277 142.584 156.78 142.081 156.78 141.461C156.78 141.33 156.758 141.204 156.716 141.087C158.018 141.096 159.028 141.222 159.028 142.958C159.028 144.406 157.854 145.58 156.405 145.58C154.957 145.58 153.782 144.406 153.782 142.958C153.782 142.029 154.072 141.561 154.54 141.326C154.535 141.37 154.532 141.415 154.532 141.461C154.532 142.081 155.035 142.584 155.656 142.584Z" fill="#FFD600"/>
<path fill-rule="evenodd" clip-rule="evenodd" d="M190.878 142.584C192.327 142.584 193.501 141.411 193.501 139.963C193.501 138.091 192.327 138.091 190.878 138.091C190.661 138.091 190.45 138.091 190.249 138.097C190.813 138.157 191.253 138.634 191.253 139.214C191.253 139.835 190.75 140.337 190.129 140.337C189.508 140.337 189.005 139.835 189.005 139.214C189.005 138.678 189.381 138.23 189.883 138.118C188.928 138.202 188.255 138.546 188.255 139.963C188.255 141.411 189.43 142.584 190.878 142.584Z" fill="#FFD600"/>
<path fill-rule="evenodd" clip-rule="evenodd" d="M286.863 388.303C287.238 387.871 287.357 387.522 287.359 387.241L287.359 387.233C287.359 386.952 287.241 386.599 286.863 386.164C286.479 385.722 285.867 385.243 284.989 384.742C283.234 383.739 280.587 382.742 277.095 381.777C270.125 379.851 259.996 378.106 247.431 376.638C222.313 373.702 187.588 371.883 149.215 371.883C124.621 371.883 101.525 372.63 81.4968 373.94V373.035C101.536 371.726 124.63 370.98 149.215 370.98C226.009 370.98 288.262 378.257 288.262 387.233L288.262 387.249V394.441L288.262 394.457C288.262 403.433 226.009 410.71 149.215 410.71C72.4209 410.71 10.1672 403.433 10.1672 394.457V394.457V387.233V387.233C10.1672 383.198 22.748 379.506 43.5747 376.665V377.576C34.4081 378.83 26.8741 380.246 21.3348 381.777C17.8427 382.742 15.1954 383.739 13.44 384.742C12.5621 385.243 11.9502 385.722 11.5667 386.164C11.1883 386.599 11.0701 386.952 11.0701 387.233V387.233C11.0701 387.515 11.1883 387.867 11.5667 388.303C11.9502 388.744 12.5621 389.223 13.44 389.725C15.1954 390.727 17.8427 391.724 21.3348 392.689C28.3048 394.615 38.433 396.36 50.9981 397.829C76.1163 400.765 110.841 402.583 149.215 402.583C187.588 402.583 222.313 400.765 247.431 397.829C259.996 396.36 270.125 394.615 277.095 392.689C280.587 391.724 283.234 390.727 284.989 389.725C285.867 389.223 286.479 388.744 286.863 388.303ZM149.215 403.486C220.62 403.486 279.455 397.195 287.359 389.096L287.359 392.594V394.457C287.359 394.739 287.241 395.091 286.863 395.526C286.479 395.968 285.867 396.447 284.989 396.948C283.234 397.951 280.587 398.948 277.095 399.913C270.125 401.839 259.996 403.584 247.431 405.052C222.313 407.988 187.588 409.807 149.215 409.807C110.841 409.807 76.1163 407.988 50.9981 405.052C38.433 403.584 28.3048 401.839 21.3348 399.913C17.8427 398.948 15.1954 397.951 13.44 396.948C12.5621 396.447 11.9502 395.968 11.5667 395.526C11.1883 395.091 11.0701 394.739 11.0701 394.457L11.0701 394.457V389.096C18.9746 397.195 77.809 403.486 149.215 403.486Z" fill="white"/>
</svg>
