<svg width="1818" height="171" viewBox="0 0 1818 171" fill="none" xmlns="http://www.w3.org/2000/svg">
<path fill-rule="evenodd" clip-rule="evenodd" d="M1525 0H-35V1H413L390.412 33H-35V34H389.706L364.294 70H-35V71H363.588L333.941 113H-35V114H333.235L297.941 164H-35V165H297.235L293 171H294L298.235 165H519.388L516 171H517L520.388 165H699.541L697 171H698L700.541 165H855.694L854 171H855L856.694 165H987.847L987 171H988L988.847 165H1122.15L1123 171H1124L1123.15 165H1254.31L1256 171H1257L1255.31 165H1410.46L1413 171H1414L1411.46 165H1525V164H1411.04L1389.86 114H1525V113H1389.44L1371.65 71H1525V70H1371.22L1355.98 34H1516.64L1594 171H1595L1517.64 34H1525V33H1517.07L1499 1H1525V0ZM1498 1H1342L1355.55 33H1516.07L1498 1ZM1354.55 33L1341 1H1209L1218.04 33H1354.55ZM1217.04 33L1208 1H1100L1104.52 33H1217.04ZM1104.66 34H1217.32L1227.48 70H1109.74L1104.66 34ZM1103.52 33L1099 1H1012L1007.48 33H1103.52ZM1007.34 34H1103.66L1108.74 70H1002.26L1007.34 34ZM1006.48 33L1011 1H903L893.965 33H1006.48ZM893.682 34H1006.34L1001.26 70H883.518L893.682 34ZM892.965 33L902 1H770L756.447 33H892.965ZM756.024 34H892.682L882.518 70H740.776L756.024 34ZM755.447 33L769 1H613L594.929 33H755.447ZM594.365 34H755.024L739.776 70H574.035L594.365 34ZM593.929 33L612 1H414L391.412 33H593.929ZM390.706 34H593.365L573.035 70H365.294L390.706 34ZM364.588 71L334.941 113H548.753L572.471 71H364.588ZM573.471 71L549.753 113H721.565L739.353 71H573.471ZM740.353 71L722.565 113H870.376L882.235 71H740.353ZM883.235 71L871.376 113H995.188L1001.12 71H883.235ZM1002.12 71L996.188 113H1114.81L1108.88 71H1002.12ZM1109.88 71L1115.81 113H1239.62L1227.76 71H1109.88ZM1228.76 71L1240.62 113H1388.44L1370.65 71H1228.76ZM1370.22 70L1354.98 34H1218.32L1228.48 70H1370.22ZM1388.86 114H1240.91L1255.02 164H1410.04L1388.86 114ZM1254.02 164L1239.91 114H1115.95L1123.01 164H1254.02ZM1122.01 164L1114.95 114H996.047L988.988 164H1122.01ZM987.988 164L995.047 114H871.094L856.976 164H987.988ZM855.976 164L870.094 114H722.141L700.965 164H855.976ZM699.965 164L721.141 114H549.188L520.953 164H699.965ZM519.953 164L548.188 114H334.235L298.941 164H519.953ZM1698 1H1697L1817 171H1818L1698 1Z" fill="url(#paint0_linear_5136_35741)"/>
<defs>
<linearGradient id="paint0_linear_5136_35741" x1="910.505" y1="763" x2="910.505" y2="-12" gradientUnits="userSpaceOnUse">
<stop stop-color="white"/>
<stop offset="1" stop-color="white" stop-opacity="0"/>
</linearGradient>
</defs>
</svg>
