<svg width="2040" height="241" viewBox="0 0 2040 241" fill="none" xmlns="http://www.w3.org/2000/svg">
<rect opacity="0.15" x="-480" width="3000" height="40" fill="url(#paint0_linear_5372_13664)"/>
<g clip-path="url(#clip0_5372_13664)">
<path fill-rule="evenodd" clip-rule="evenodd" d="M-84.2268 40H-85.2268H-480V41H-86.0515L-112.443 73H-480V74H-113.268L-142.959 110H-480V111H-143.784L-178.423 153H-480V154H-179.247L-220.485 204H-480V205H-221.309L-251 241H-250L-220.309 205H68.9794L43 241H44L69.9794 205H319.268L297 241H298L320.268 205H529.557L511 241H512L530.557 205H699.845L685 241H686L700.845 205H830.134L819 241H820L831.134 205H920.423L913 241H914L921.423 205H970.711L967 241H968L971.711 205H1006.84L1006 241H1007L1007.84 205H1032.16L1033 241H1034L1033.16 205H1068.29L1072 241H1073L1069.29 205H1118.58L1126 241H1127L1119.58 205H1208.87L1220 241H1221L1209.87 205H1339.15L1354 241H1355L1340.15 205H1509.44L1528 241H1529L1510.44 205H1719.73L1742 241H1743L1720.73 205H1970.02L1996 241H1997L1971.02 205H2260.31L2290 241H2291L2261.31 205H2520V204H2260.48L2219.25 154H2520V153H2218.42L2183.78 111H2520V110H2182.96L2153.27 74H2520V73H2152.44L2126.05 41H2520V40H2125.23H2124.23H1851.95H1850.95H1618.67H1617.67H1425.39H1424.39H1272.11H1271.11H1158.84H1157.84H1085.56H1084.56H1052.28H1051.28H1029.34H1028.34H1011.66H1010.66H988.722H987.722H955.443H954.443H882.165H881.165H768.887H767.887H615.608H614.608H422.33H421.33H189.052H188.052H-84.2268ZM-111.443 73L-85.0515 41H187.33L164.237 73H-111.443ZM165.237 73L188.33 41H420.711L400.918 73H165.237ZM401.918 73L421.711 41H614.093L597.598 73H401.918ZM598.598 73L615.093 41H767.474L754.278 73H598.598ZM755.278 73L768.474 41H880.856L870.959 73H755.278ZM871.959 73L881.856 41H954.237L947.639 73H871.959ZM948.639 73L955.237 41H987.619L984.32 73H948.639ZM985.32 73L988.619 41H1010.64L1009.9 73H985.32ZM1010.9 73L1011.64 41H1028.36L1029.1 73H1010.9ZM1030.1 73L1029.36 41H1051.38L1054.68 73H1030.1ZM1055.68 73L1052.38 41H1084.76L1091.36 73H1055.68ZM1092.36 73L1085.76 41H1158.14L1168.04 73H1092.36ZM1169.04 73L1159.14 41H1271.53L1284.72 73H1169.04ZM1285.72 73L1272.53 41H1424.91L1441.4 73H1285.72ZM1442.4 73L1425.91 41H1618.29L1638.08 73H1442.4ZM1639.08 73L1619.29 41H1851.67L1874.76 73H1639.08ZM1875.76 73L1852.67 41H2125.05L2151.44 73H1875.76ZM1876.48 74H2152.27L2181.96 110H1902.46L1876.48 74ZM1903.19 111H2182.78L2217.42 153H1933.49L1903.19 111ZM1934.22 154H2218.25L2259.48 204H1970.3L1934.22 154ZM1933.22 154L1969.3 204H1720.11L1689.19 154H1933.22ZM1688.19 154L1719.11 204H1509.93L1484.15 154H1688.19ZM1483.15 154L1508.93 204H1339.74L1319.12 154H1483.15ZM1318.12 154L1338.74 204H1209.56L1194.09 154H1318.12ZM1193.09 154L1208.56 204H1119.37L1109.06 154H1193.09ZM1108.06 154L1118.37 204H1069.19L1064.03 154H1108.06ZM1063.03 154L1068.19 204H1033.14L1031.98 154H1063.03ZM1030.98 154L1032.14 204H1007.86L1009.02 154H1030.98ZM1008.02 154L1006.86 204H971.814L976.969 154H1008.02ZM975.969 154L970.814 204H921.629L931.938 154H975.969ZM930.938 154L920.629 204H831.443L846.907 154H930.938ZM845.907 154L830.443 204H701.258L721.876 154H845.907ZM720.876 154L700.258 204H531.072L556.845 154H720.876ZM555.845 154L530.072 204H320.887L351.814 154H555.845ZM350.814 154L319.887 204H70.701L106.784 154H350.814ZM105.784 154L69.701 204H-219.485L-178.247 154H105.784ZM106.505 153H-177.423L-142.784 111H136.814L106.505 153ZM137.536 110H-141.959L-112.268 74H163.515L137.536 110ZM138.536 110L164.515 74H400.299L378.031 110H138.536ZM379.031 110L401.299 74H597.083L578.526 110H379.031ZM579.526 110L598.083 74H753.866L739.021 110H579.526ZM740.021 110L754.866 74H870.65L859.516 110H740.021ZM860.516 110L871.65 74H947.433L940.01 110H860.516ZM941.01 110L948.433 74H984.217L980.505 110H941.01ZM981.505 110L985.217 74H1009.87L1009.04 110H981.505ZM1010.04 110L1010.87 74H1029.13L1029.96 110H1010.04ZM1030.96 110L1030.13 74H1054.78L1058.49 110H1030.96ZM1059.49 110L1055.78 74H1091.57L1098.99 110H1059.49ZM1099.99 110L1092.57 74H1168.35L1179.48 110H1099.99ZM1180.48 110L1169.35 74H1285.13L1299.98 110H1180.48ZM1300.98 110L1286.13 74H1441.92L1460.47 110H1300.98ZM1461.47 110L1442.92 74H1638.7L1660.97 110H1461.47ZM1661.97 110L1639.7 74H1875.48L1901.46 110H1661.97ZM1662.59 111H1902.19L1932.49 153H1688.57L1662.59 111ZM1661.59 111L1687.57 153H1483.64L1461.99 111H1661.59ZM1460.99 111L1482.64 153H1318.71L1301.39 111H1460.99ZM1300.39 111L1317.71 153H1193.78L1180.79 111H1300.39ZM1179.79 111L1192.78 153H1108.86L1100.2 111H1179.79ZM1099.2 111L1107.86 153H1063.93L1059.6 111H1099.2ZM1058.6 111L1062.93 153H1031.96L1030.98 111H1058.6ZM1029.98 111L1030.96 153H1009.04L1010.02 111H1029.98ZM1009.02 111L1008.04 153H977.072L981.402 111H1009.02ZM980.402 111L976.072 153H932.144L940.804 111H980.402ZM939.804 111L931.144 153H847.217L860.206 111H939.804ZM859.206 111L846.217 153H722.289L739.608 111H859.206ZM738.608 111L721.289 153H557.361L579.01 111H738.608ZM578.01 111L556.361 153H352.433L378.412 111H578.01ZM377.412 111L351.433 153H107.505L137.814 111H377.412Z" fill="url(#paint1_linear_5372_13664)"/>
</g>
<defs>
<linearGradient id="paint0_linear_5372_13664" x1="1020" y1="0" x2="1020" y2="40" gradientUnits="userSpaceOnUse">
<stop stop-opacity="0"/>
<stop offset="1"/>
</linearGradient>
<linearGradient id="paint1_linear_5372_13664" x1="1020" y1="40" x2="1020" y2="241" gradientUnits="userSpaceOnUse">
<stop stop-color="white" stop-opacity="0"/>
<stop offset="1" stop-color="white" stop-opacity="0.25"/>
</linearGradient>
<clipPath id="clip0_5372_13664">
<rect width="3000" height="201" fill="white" transform="translate(-480 40)"/>
</clipPath>
</defs>
</svg>
