<svg width="16" height="16" viewBox="0 0 16 16" fill="none" xmlns="http://www.w3.org/2000/svg">
<path fill-rule="evenodd" clip-rule="evenodd" d="M11 0V1H14C14.5523 1 15 1.44772 15 2V5H16V2C16 0.895431 15.1046 0 14 0H11Z" fill="#0F0F0F"/>
<path fill-rule="evenodd" clip-rule="evenodd" d="M2 4C2 2.89543 2.89543 2 4 2H11V3H4C3.44772 3 3 3.44772 3 4V12C3 12.5523 3.44772 13 4 13H12C12.5523 13 13 12.5523 13 12V5H14V12C14 13.1046 13.1046 14 12 14H4C2.89543 14 2 13.1046 2 12V4Z" fill="#0F0F0F"/>
<path d="M15 0.500038L15.5 1.00008L9 7.50007L8.49999 7L15 0.500038Z" fill="#0F0F0F"/>
</svg>
