<svg width="256" height="256" viewBox="0 0 256 256" fill="none" xmlns="http://www.w3.org/2000/svg">
<path fill-rule="evenodd" clip-rule="evenodd" d="M128 256C198.692 256 256 198.692 256 128C256 57.3076 198.692 0 128 0C57.3076 0 0 57.3076 0 128C0 198.692 57.3076 256 128 256ZM128 240.941C132.479 240.941 136.897 240.68 141.24 240.173L141.156 230.142L143.6 239.873C152.734 238.611 161.519 236.256 169.82 232.946L167.144 223.283L172.018 232.042C180.427 228.48 188.314 223.928 195.535 218.534L190.472 209.931L197.416 217.097C204.567 211.518 211.028 205.097 216.652 197.982L209.548 190.996L218.098 196.114C223.54 188.927 228.141 181.069 231.757 172.686L223.074 167.769L232.671 170.503C236.036 162.223 238.448 153.453 239.769 144.33L230.128 141.833L240.083 141.99C240.65 137.406 240.941 132.737 240.941 128C240.941 123.559 240.685 119.179 240.186 114.872L230.228 114.955L239.89 112.529C238.639 103.392 236.295 94.6044 232.994 86.3005L223.368 88.9658L232.096 84.109C228.544 75.6965 224.003 67.8041 218.617 60.5777L210.016 65.6395L217.184 58.6951C211.613 51.5368 205.199 45.0668 198.092 39.4342L191.082 46.5619L196.218 37.9812C189.037 32.5308 181.184 27.92 172.805 24.295L167.855 33.0364L170.608 23.3723C162.33 19.9977 153.562 17.577 144.44 16.2467L141.918 25.9828L142.077 15.9276C137.465 15.3542 132.767 15.0589 128 15.0589C123.588 15.0589 119.236 15.3118 114.956 15.804L115.04 25.8827L112.584 16.1022C103.446 17.3493 94.6565 19.6895 86.3504 22.9866L89.0518 32.7426L84.1289 23.8961C75.7143 27.4464 67.8198 31.9872 60.5915 37.3724L65.7248 46.0949L58.6823 38.8264C51.5242 44.3987 45.0547 50.8139 39.4228 57.9229L46.6483 65.0291L37.9504 59.8225C32.5026 67.0068 27.8948 74.8631 24.2734 83.2452L33.1222 88.2563L23.3407 85.4691C19.9722 93.75 17.5579 102.521 16.2344 111.645L26.0689 114.192L15.9141 114.032C15.3496 118.609 15.0589 123.271 15.0589 128C15.0589 132.45 15.3162 136.839 15.8168 141.155L25.9684 141.07L16.1197 143.543C17.3772 152.68 19.7276 161.468 23.0347 169.771L32.828 167.059L23.9502 171.999C27.5109 180.409 32.0615 188.298 37.4558 195.52L46.1806 190.386L38.9124 197.428C44.4933 204.579 50.9163 211.041 58.0324 216.664L65.1151 209.462L59.9272 218.129C67.1171 223.568 74.9781 228.166 83.3641 231.778L88.3416 222.988L85.5738 232.702C93.8571 236.062 102.63 238.467 111.755 239.782L114.278 230.042L114.119 240.097C118.668 240.654 123.3 240.941 128 240.941ZM128.095 30.5876L127.364 24.4723C127.576 24.471 127.788 24.4703 128.001 24.4703C128.276 24.4703 128.55 24.4714 128.825 24.4735L128.095 30.5876ZM153.306 33.9069L154.184 27.8099C154.656 27.9328 155.126 28.059 155.595 28.1883L153.306 33.9069ZM176.801 43.6385L179.214 38.0043C179.635 38.2443 180.054 38.4873 180.472 38.733L176.801 43.6385ZM196.975 59.119L200.742 54.3312C201.084 54.6695 201.425 55.0102 201.763 55.3532L196.975 59.119ZM212.456 79.2937L217.334 75.6428C217.578 76.0579 217.819 76.475 218.057 76.8938L212.456 79.2937ZM222.187 102.787L227.844 100.523C227.972 100.987 228.096 101.453 228.217 101.919L222.187 102.787ZM225.507 127.999L231.528 127.28C231.529 127.52 231.53 127.76 231.53 128C231.53 128.239 231.529 128.479 231.528 128.718L225.507 127.999ZM222.187 153.212L228.217 154.08C228.096 154.546 227.972 155.011 227.845 155.475L222.187 153.212ZM212.456 176.705L218.058 179.105C217.82 179.524 217.579 179.941 217.335 180.356L212.456 176.705ZM196.975 196.88L201.763 200.646C201.425 200.989 201.085 201.33 200.742 201.668L196.975 196.88ZM176.801 212.36L180.472 217.266C180.055 217.512 179.636 217.755 179.215 217.995L176.801 212.36ZM153.306 222.092L155.595 227.811C155.126 227.94 154.656 228.067 154.184 228.19L153.306 222.092ZM128.095 225.411L128.825 231.526C128.55 231.528 128.276 231.529 128.001 231.529L127.787 231.529C127.646 231.529 127.505 231.528 127.364 231.527L128.095 225.411ZM102.883 222.092L101.998 228.237C101.523 228.114 101.048 227.987 100.576 227.858L102.883 222.092ZM79.3892 212.36L76.9382 218.081C76.5103 217.838 76.0843 217.592 75.6602 217.343L79.3892 212.36ZM59.2146 196.88L55.3655 201.773C55.0148 201.428 54.6666 201.08 54.3209 200.73L59.2146 196.88ZM43.7341 176.705L38.7241 180.454C38.4732 180.028 38.2253 179.6 37.9803 179.17L43.7341 176.705ZM34.0025 153.212L28.1753 155.543C28.0437 155.065 27.9155 154.586 27.7906 154.106L34.0025 153.212ZM30.6832 127.999L24.4738 128.74C24.4721 128.494 24.4712 128.247 24.4712 128C24.4712 127.752 24.4721 127.505 24.4738 127.258L30.6832 127.999ZM34.002 102.787L27.7908 101.893C27.9157 101.413 28.0439 100.933 28.1754 100.456L34.002 102.787ZM43.734 79.2937L37.9807 76.8289C38.2256 76.3989 38.4736 75.9709 38.7245 75.5448L43.734 79.2937ZM59.2146 59.1187L54.3213 55.2694C54.667 54.9192 55.0152 54.5715 55.3658 54.2262L59.2146 59.1187ZM79.3892 43.6385L75.6606 38.656C76.0847 38.407 76.5106 38.161 76.9385 37.918L79.3892 43.6385ZM100.576 28.1417C101.049 28.0122 101.523 27.8859 101.998 27.7629L102.883 33.9065L100.576 28.1417ZM128 211.577C128 211.577 151.342 174.158 151.342 128C151.342 81.8421 128 44.4237 128 44.4237C128 44.4237 104.659 81.8421 104.659 128C104.659 174.158 128 211.577 128 211.577Z" fill="#E56262"/>
</svg>
