<svg width="680" height="680" viewBox="0 0 680 680" fill="none" xmlns="http://www.w3.org/2000/svg">
<path fill-rule="evenodd" clip-rule="evenodd" d="M340 680C527.777 680 680 527.777 680 340C680 152.223 527.777 0 340 0C152.223 0 0 152.223 0 340C0 527.777 152.223 680 340 680ZM340 640C351.897 640 363.633 639.307 375.169 637.96L374.947 611.318L381.436 637.162C405.7 633.81 429.036 627.556 451.085 618.762L443.978 593.097L456.924 616.361C479.259 606.9 500.209 594.81 519.388 580.48L505.941 557.63L524.384 576.665C543.379 561.846 560.544 544.789 575.482 525.892L556.613 507.335L579.322 520.928C593.776 501.838 605.999 480.966 615.603 458.698L592.542 445.638L618.03 452.901C626.971 430.907 633.377 407.612 636.887 383.379L611.278 376.745L637.721 377.163C639.225 364.986 640 352.584 640 340C640 328.205 639.319 316.57 637.995 305.13L611.544 305.35L637.209 298.906C633.885 274.639 627.658 251.296 618.891 229.239L593.323 236.319L616.506 223.418C607.072 201.072 595.009 180.106 580.703 160.91L557.856 174.356L576.895 155.91C562.098 136.896 545.062 119.71 526.183 104.749L507.561 123.684L521.206 100.889C502.132 86.411 481.272 74.1634 459.015 64.5342L445.865 87.7554L453.18 62.0831C431.192 53.1194 407.901 46.6894 383.671 43.1557L376.971 69.0196L377.393 42.3077C365.143 40.7846 352.663 40 340 40C328.282 40 316.721 40.6718 305.353 41.9791L305.576 68.7531L299.052 42.7712C274.78 46.0839 251.432 52.2999 229.369 61.0576L236.545 86.974L223.468 63.4736C201.116 72.9043 180.147 84.9658 160.946 99.2701L174.582 122.441L155.875 103.133C136.861 117.934 119.676 134.975 104.716 153.859L123.91 172.736L100.804 158.905C86.3341 177.988 74.095 198.856 64.4756 221.121L87.9818 234.432L61.9982 227.028C53.0506 249.025 46.6377 272.323 43.1222 296.559L69.2459 303.326L42.2714 302.9C40.7721 315.056 40 327.438 40 340C40 351.821 40.6836 363.481 42.0136 374.945L68.9794 374.721L42.8181 381.29C46.1588 405.558 52.4021 428.9 61.1865 450.955L87.2004 443.752L63.6184 456.875C73.0768 479.214 85.1644 500.169 99.4933 519.353L122.667 505.715L103.362 524.42C118.187 543.415 135.248 560.578 154.151 575.515L172.962 556.387L159.183 579.406C178.282 593.853 199.163 606.068 221.438 615.661L234.659 592.316L227.307 618.115C249.31 627.039 272.612 633.429 296.851 636.92L303.552 611.051L303.13 637.757C315.213 639.238 327.517 640 340 640ZM340.25 81.25L338.31 65.0051C338.873 65.0017 339.436 65 340 65C340.73 65 341.46 65.0029 342.189 65.0086L340.25 81.25ZM407.219 90.0667L409.551 73.8711C410.803 74.1975 412.052 74.5326 413.298 74.8762L407.219 90.0667ZM469.625 115.916L476.037 100.95C477.155 101.587 478.268 102.233 479.376 102.885L469.625 115.916ZM523.214 157.036L533.219 144.318C534.129 145.217 535.033 146.122 535.93 147.033L523.214 157.036ZM564.334 210.625L577.293 200.927C577.941 202.03 578.581 203.138 579.214 204.25L564.334 210.625ZM590.183 273.031L605.211 267.017C605.549 268.25 605.879 269.486 606.201 270.725L590.183 273.031ZM599 340L614.994 338.09C614.998 338.726 615 339.363 615 340C615 340.282 615 340.563 614.999 340.845C614.998 341.2 614.996 341.555 614.994 341.91L599 340ZM590.183 406.969L606.201 409.275C605.879 410.514 605.549 411.75 605.211 412.983L590.183 406.969ZM564.334 469.375L579.214 475.75C578.581 476.862 577.941 477.97 577.293 479.073L564.334 469.375ZM523.214 522.964L535.93 532.967C535.033 533.879 534.129 534.783 533.219 535.682L523.214 522.964ZM469.625 564.084L479.376 577.115C478.268 577.767 477.155 578.413 476.037 579.05L469.625 564.084ZM407.219 589.933L413.298 605.124C412.052 605.467 410.803 605.802 409.551 606.129L407.219 589.933ZM340.25 598.75L342.189 614.991C341.46 614.997 340.73 615 340 615C339.436 615 338.873 614.998 338.31 614.995L340.25 598.75ZM273.281 589.933L270.931 606.254C269.668 605.927 268.409 605.592 267.152 605.248L273.281 589.933ZM210.875 564.084L204.365 579.279C203.229 578.633 202.097 577.98 200.971 577.319L210.875 564.084ZM157.286 522.964L147.063 535.96C146.131 535.043 145.207 534.119 144.288 533.189L157.286 522.964ZM116.166 469.375L102.86 479.333C102.193 478.201 101.535 477.064 100.884 475.922L116.166 469.375ZM90.3167 406.969L74.839 413.163C74.4896 411.894 74.149 410.621 73.8174 409.344L90.3167 406.969ZM81.5 340L65.0069 341.969C65.0023 341.313 65 340.657 65 340C65 339.343 65.0023 338.687 65.0069 338.031L81.5 340ZM90.3167 273.031L73.8174 270.656C74.149 269.379 74.4896 268.106 74.839 266.837L90.3167 273.031ZM116.166 210.625L100.884 204.078C101.535 202.936 102.193 201.799 102.86 200.667L116.166 210.625ZM157.286 157.036L144.288 146.811C145.207 145.881 146.131 144.957 147.063 144.04L157.286 157.036ZM210.875 115.916L200.971 102.681C202.097 102.02 203.229 101.367 204.365 100.721L210.875 115.916ZM267.152 74.7524C268.409 74.4082 269.668 74.0727 270.931 73.7459L273.281 90.0667L267.152 74.7524ZM340 562C340 562 402 462.607 402 340C402 217.393 340 118 340 118C340 118 278 217.393 278 340C278 462.607 340 562 340 562Z" fill="white"/>
</svg>
