<svg width="16" height="16" viewBox="0 0 16 16" fill="none" xmlns="http://www.w3.org/2000/svg">
<g clip-path="url(#clip0_5771_7340)">
<path fill-rule="evenodd" clip-rule="evenodd" d="M2 0C0.895431 0 0 0.895431 0 2V10C0 11.1046 0.895431 12 2 12H2.5C2.77614 12 3 11.7761 3 11.5C3 11.2239 2.77614 11 2.5 11H2C1.44772 11 1 10.5523 1 10V2C1 1.44772 1.44772 1 2 1H10C10.5523 1 11 1.44772 11 2V2.5C11 2.77614 11.2239 3 11.5 3C11.7761 3 12 2.77614 12 2.5V2C12 0.895431 11.1046 0 10 0H2ZM4 6C4 4.89543 4.89543 4 6 4H14C15.1046 4 16 4.89543 16 6V14C16 15.1046 15.1046 16 14 16H6C4.89543 16 4 15.1046 4 14V6ZM5 6C5 5.44772 5.44772 5 6 5H14C14.5523 5 15 5.44772 15 6V14C15 14.5523 14.5523 15 14 15H6C5.44772 15 5 14.5523 5 14V6Z" fill="black"/>
</g>
<defs>
<clipPath id="clip0_5771_7340">
<rect width="16" height="16" fill="white"/>
</clipPath>
</defs>
</svg>
