<svg width="20" height="19" viewBox="0 0 20 19" fill="none" xmlns="http://www.w3.org/2000/svg">
<path fill-rule="evenodd" clip-rule="evenodd" d="M12.5 1.49947L2 7.56165C0.666668 8.33145 0.666668 10.2559 2 11.0257L12.5 17.0879C13.8333 17.8577 15.5 16.8955 15.5 15.3559L15.5 3.23152C15.5 1.69192 13.8333 0.729669 12.5 1.49947ZM1.5 6.69562C-0.499998 7.85032 -0.5 10.7371 1.5 11.8918L12 17.954C14 19.1087 16.5 17.6653 16.5 15.3559L16.5 3.23152C16.5 0.922119 14 -0.521256 12 0.633445L1.5 6.69562Z" fill="white"/>
<path fill-rule="evenodd" clip-rule="evenodd" d="M19 15.5868L19 3.00013C19 1.84321 18.0213 0.927608 16.867 1.00457L13.4883 1.22981C13.3578 1.23851 13.2291 1.25994 13.104 1.29346L13 1.29346L13 0.293494L12.9857 0.293494C13.1288 0.262472 13.2745 0.24184 13.4218 0.23202L16.8004 0.00677975C18.532 -0.108657 20 1.26474 20 3.00013L20 15.5868C20 17.3222 18.532 18.6956 16.8004 18.5802L13.4218 18.3549C13.2746 18.3451 13.1289 18.3245 12.9859 18.2935L13 18.2935L13 17.2935L13.1038 17.2935C13.229 17.327 13.3578 17.3484 13.4883 17.3571L16.867 17.5824C18.0213 17.6593 19 16.7437 19 15.5868Z" fill="white"/>
</svg>
