<svg width="60" height="60" viewBox="0 0 60 60" fill="none" xmlns="http://www.w3.org/2000/svg">
<g clip-path="url(#clip0_5136_33488)">
<path d="M42.9044 5.96449L54.0358 17.0959C61.1626 24.2228 61.1627 35.7777 54.0358 42.9046L42.9044 54.036C35.7775 61.1629 24.2225 61.1629 17.0956 54.036L5.96423 42.9046C-1.16265 35.7777 -1.16265 24.2228 5.96423 17.0959L17.0956 5.96449C24.2225 -1.16239 35.7775 -1.16239 42.9044 5.96449Z" stroke="white"/>
<path fill-rule="evenodd" clip-rule="evenodd" d="M17.8238 13.6493C17.1259 12.9509 15.9945 12.9509 15.2967 13.6493C14.5988 14.3478 14.5988 15.4803 15.2967 16.1787L15.8478 16.7303L11.0722 21.5103C10.9181 21.6645 10.9181 21.9145 11.0722 22.0688L13.0413 24.0397C13.1954 24.1939 13.4452 24.1939 13.5993 24.0397L18.3749 19.2597L20.902 21.789L18.6535 24.0396C18.4994 24.1939 18.4994 24.4439 18.6535 24.5981L20.6226 26.569C20.7767 26.7232 21.0265 26.7232 21.1805 26.569L23.4291 24.3184L27.4729 28.3658L20.1851 35.6601L18.9406 34.4146C18.9343 34.4082 18.928 34.4018 18.9216 34.3955C16.8281 32.3 13.4339 32.3 11.3404 34.3955C9.24689 36.4909 9.24689 39.8882 11.3404 41.9835C12.3112 42.9555 13.5617 43.4765 14.8326 43.5471C14.9029 44.8191 15.4236 46.0709 16.3945 47.0424C18.4879 49.1379 21.8822 49.1379 23.9757 47.0424C26.0692 44.9469 26.0692 41.5497 23.9757 39.4543L23.9756 39.4543L22.7122 38.1895L29.9999 30.8952L37.2878 38.1895L36.0243 39.4543V39.4543C33.9308 41.5497 33.9308 44.9469 36.0243 47.0424C38.1177 49.1379 41.512 49.1379 43.6057 47.0424C44.5763 46.0709 45.0968 44.8191 45.1674 43.5471C46.4384 43.4765 47.6887 42.9555 48.6597 41.9835C50.7532 39.8882 50.7532 36.4909 48.6597 34.3955C46.5662 32.3 43.172 32.3 41.0783 34.3955C41.0733 34.4005 41.0683 34.4056 41.0632 34.4106L41.0593 34.4146L39.8149 35.6601L32.5271 28.3658L36.5709 24.3184L38.8194 26.569C38.9735 26.7232 39.2233 26.7232 39.3774 26.569L41.3465 24.5981C41.5006 24.4439 41.5006 24.1939 41.3465 24.0396L39.0979 21.789L41.625 19.2597L41.6255 19.2601L40.3619 20.5248C41.0597 19.8264 42.1911 19.8264 42.8888 20.5248L46.4004 24.0397C46.5548 24.1939 46.8045 24.1939 46.9584 24.0397L48.9276 22.0688C49.0816 21.9145 49.0816 21.6645 48.9276 21.5103L44.1519 16.7303L44.7031 16.1787C45.4012 15.4803 45.4012 14.3478 44.7031 13.6493C44.0054 12.9509 42.874 12.9509 42.1763 13.6493L29.9999 25.8364L17.8238 13.6493ZM43.6057 39.4543L43.5998 39.4487L43.5929 39.4418L42.3421 38.1896L43.5973 36.9328C43.6003 36.9302 43.6028 36.9276 43.6052 36.9249C44.3034 36.2264 45.4348 36.2264 46.1325 36.9249C46.8302 37.6234 46.8302 38.7558 46.1325 39.4543C45.4378 40.1497 44.3133 40.1527 43.6146 39.4635C43.6117 39.4604 43.6087 39.4574 43.6057 39.4543ZM41.0784 44.5132C41.7732 43.818 41.7762 42.6925 41.0882 41.9933L41.0847 41.9899L41.0783 41.9835C41.0718 41.977 41.0652 41.9706 41.0587 41.9637L39.8149 40.719L38.5514 41.9835C37.8535 42.6821 37.8535 43.8145 38.5514 44.5132C39.2492 45.2113 40.3806 45.2113 41.0784 44.5132ZM18.3745 19.2601L17.1109 20.5248C17.8088 19.8264 18.9402 19.8264 19.638 20.5248L18.3745 19.2601ZM22.1651 25.5837L23.4286 24.319L24.6922 25.5837C23.9943 24.8852 22.8629 24.8852 22.1651 25.5837ZM16.3945 39.4543L16.4 39.4487L16.407 39.4418L17.658 38.1896L16.4024 36.9328C16.4011 36.9316 16.3998 36.9302 16.3986 36.9289C16.3972 36.9276 16.3959 36.9262 16.3946 36.9249C15.6967 36.2264 14.5653 36.2264 13.8675 36.9249C13.1696 37.6234 13.1696 38.7558 13.8675 39.4543C14.5622 40.1497 15.6867 40.1527 16.3852 39.4635C16.3883 39.4604 16.3913 39.4574 16.3945 39.4543ZM18.9215 44.5132C18.227 43.818 18.2237 42.6925 18.9117 41.9933L18.9152 41.9899L18.9216 41.9835C18.9282 41.977 18.9347 41.9706 18.9412 41.9637L20.1851 40.719L21.4486 41.9835C22.1464 42.6821 22.1464 43.8145 21.4486 44.5132C20.7508 45.2113 19.6194 45.2113 18.9215 44.5132ZM37.8348 25.5837L36.5713 24.319L35.3078 25.5837C36.0056 24.8852 37.137 24.8852 37.8348 25.5837Z" fill="white"/>
</g>
<defs>
<clipPath id="clip0_5136_33488">
<rect width="60" height="60" fill="white"/>
</clipPath>
</defs>
</svg>
