<svg width="64" height="72" viewBox="0 0 64 72" fill="none" xmlns="http://www.w3.org/2000/svg">
<mask id="path-1-inside-1_5136_35410" fill="white">
<path fill-rule="evenodd" clip-rule="evenodd" d="M8 0C5.79086 0 4 1.79086 4 4V34C4 49.464 19 67 32 67C45 67 60 49.464 60 34V4C60 1.79086 58.2091 0 56 0H32H8Z"/>
</mask>
<path d="M5 4C5 2.34314 6.34314 1 8 1V-1C5.23858 -1 3 1.23858 3 4H5ZM5 34V4H3V34H5ZM32 66C25.9181 66 19.1711 61.8616 13.8866 55.651C8.62014 49.4615 5 41.4328 5 34H3C3 42.0312 6.87986 50.5025 12.3634 56.947C17.8289 63.3704 25.0819 68 32 68V66ZM32 68C38.9181 68 46.1711 63.3704 51.6366 56.947C57.1201 50.5025 61 42.0312 61 34H59C59 41.4328 55.3799 49.4615 50.1134 55.651C44.8289 61.8616 38.0819 66 32 66V68ZM61 34V4H59V34H61ZM61 4C61 1.23858 58.7614 -1 56 -1V1C57.6569 1 59 2.34314 59 4H61ZM56 -1H32V1H56V-1ZM8 1H32V-1H8V1Z" fill="black" mask="url(#path-1-inside-1_5136_35410)"/>
<path fill-rule="evenodd" clip-rule="evenodd" d="M15 11.996C15 11.4437 15.4477 11 16 11H27H48C48.5523 11 49 11.4477 49 12V23H27V28H40V36H27V53C27 53 15 49 15 30V11.996Z" fill="black"/>
</svg>
