<svg width="368" height="437" viewBox="0 0 368 437" fill="none" xmlns="http://www.w3.org/2000/svg">
<path fill-rule="evenodd" clip-rule="evenodd" d="M322.648 104.986V104.944C322.648 101.415 320.158 77.288 303.157 53.6818C286.197 30.1341 254.73 7.00697 196.584 5.46334C136.216 3.86075 102.942 31.4193 86.1399 60.2164C77.7248 74.6392 73.4353 89.3869 71.9622 100.966C71.2253 106.758 71.1968 111.728 71.6946 115.449C71.9437 117.312 72.3208 118.832 72.7893 119.977C73.2653 121.14 73.795 121.816 74.284 122.13C74.5975 122.331 75.1941 122.603 76.1024 122.935C76.9928 123.261 78.1269 123.624 79.4754 124.017C82.1714 124.804 85.6869 125.702 89.7479 126.652C97.8678 128.553 108.133 130.658 118.308 132.502C128.486 134.347 138.557 135.928 146.293 136.785C150.165 137.214 153.428 137.459 155.818 137.468C157.017 137.473 157.964 137.418 158.646 137.308C158.987 137.253 159.233 137.188 159.4 137.124C159.514 137.08 159.562 137.047 159.572 137.04C161.151 135.13 161.692 133.26 162.401 129.723C162.506 129.198 162.614 128.639 162.73 128.042C163.398 124.603 164.313 119.885 166.283 112.981C168.415 105.513 171.817 98.6219 177.433 93.3831C183.062 88.1331 190.841 84.6111 201.596 83.7611C210.57 83.0517 219.423 85.8876 226.207 90.9043C232.989 95.9194 237.767 103.165 238.465 111.313C239.168 119.534 237.76 126.033 234.983 131.77C232.219 137.482 228.116 142.4 223.509 147.474C221.229 149.984 217.065 154.074 211.955 159.092L211.663 159.379C206.409 164.539 200.163 170.677 193.875 177.145C181.265 190.116 168.604 204.297 163.387 214.515C158.167 224.742 155.424 237.172 153.993 248.124C152.563 259.063 152.448 268.459 152.448 272.586C152.448 274.012 152.641 274.96 152.933 275.601C153.212 276.214 153.596 276.582 154.081 276.836C154.597 277.105 155.258 277.261 156.11 277.372C156.604 277.437 157.08 277.478 157.594 277.524C158.022 277.561 158.476 277.601 158.99 277.658C159.442 277.708 160.864 277.732 163.103 277.725C165.31 277.719 168.244 277.685 171.66 277.631C178.492 277.523 187.243 277.336 195.954 277.135C204.326 276.941 212.669 276.734 219.228 276.571C226.304 276.395 231.305 276.271 232.028 276.271C233.185 276.271 233.995 275.892 234.566 275.364C235.153 274.821 235.538 274.073 235.735 273.284C235.834 272.887 235.999 271.723 236.241 269.936L236.317 269.377C236.541 267.717 236.82 265.663 237.156 263.412C237.903 258.401 238.944 252.37 240.34 247.475C242.37 239.601 249.142 231.697 257.78 223.134C260.934 220.009 264.339 216.792 267.887 213.441C274.156 207.52 280.869 201.179 287.419 194.18C307.869 172.329 326.297 144.485 322.652 105.029L322.648 104.986ZM241.228 247.716C239.23 254.72 237.954 264.138 237.228 269.501C236.952 271.544 236.755 272.999 236.628 273.507C236.168 275.35 234.788 277.192 232.028 277.192C231.314 277.192 226.354 277.315 219.32 277.49C199.158 277.991 161.957 278.915 158.888 278.574C158.429 278.522 157.981 278.483 157.548 278.444C154.074 278.136 151.528 277.91 151.528 272.586C151.528 264.296 151.988 234.821 162.568 214.096C170.548 198.465 195.535 173.926 211.284 158.461C216.416 153.421 220.567 149.345 222.828 146.854C232.028 136.722 238.928 127.511 237.548 111.392C236.207 95.7327 219.148 83.2977 201.668 84.6793C180.508 86.3519 171.374 98.496 167.168 113.234C165.209 120.098 164.301 124.779 163.633 128.216C162.734 132.851 162.273 135.225 160.268 137.643C156.776 141.855 80.2568 127.051 73.788 122.906C62.2879 115.537 75.168 1.31866 196.608 4.54255C313.448 7.64433 323.568 97.5749 323.568 104.944C328.425 157.522 294.42 189.644 268.482 214.146C255.113 226.774 243.888 237.378 241.228 247.716Z" fill="white"/>
<path fill-rule="evenodd" clip-rule="evenodd" d="M135.793 145.002L46.1066 128.885L46.2692 127.979L135.983 144.1L135.996 144.104L136.005 144.106L136.034 144.113L136.147 144.139C136.247 144.163 136.394 144.197 136.584 144.24C136.964 144.326 137.514 144.446 138.191 144.585C139.546 144.862 141.408 145.21 143.442 145.497C145.477 145.784 147.675 146.008 149.702 146.037C151.739 146.067 153.56 145.9 154.865 145.432C157.431 144.512 158.977 141.922 159.884 139.437C160.333 138.208 160.613 137.037 160.781 136.173C160.865 135.741 160.92 135.387 160.955 135.142C160.972 135.019 160.984 134.924 160.992 134.86C160.996 134.829 160.998 134.804 161 134.789L161.002 134.771L161.002 134.768C161.002 134.768 161.002 134.767 161.46 134.813C161.918 134.858 161.918 134.859 161.918 134.859L161.917 134.861L161.917 134.867L161.915 134.889C161.912 134.907 161.909 134.934 161.905 134.969C161.897 135.039 161.884 135.141 161.866 135.271C161.829 135.529 161.771 135.899 161.684 136.349C161.51 137.246 161.218 138.466 160.748 139.753C159.819 142.298 158.146 145.235 155.175 146.3C153.712 146.824 151.757 146.989 149.688 146.958C147.609 146.928 145.37 146.699 143.314 146.409C141.256 146.119 139.374 145.767 138.007 145.487C137.323 145.347 136.767 145.225 136.382 145.138C136.189 145.095 136.039 145.06 135.937 145.036C135.886 145.024 135.847 145.015 135.82 145.009L135.793 145.002Z" fill="white"/>
<path fill-rule="evenodd" clip-rule="evenodd" d="M156.624 402.001C152.227 402.352 149.772 402.251 145.473 401.536L145.623 400.627C149.848 401.329 152.227 401.428 156.551 401.083L156.624 402.001Z" fill="white"/>
<path fill-rule="evenodd" clip-rule="evenodd" d="M161.228 309.429C154.798 309.993 151.27 310.04 145.464 308.962L145.632 308.057C151.327 309.113 154.765 309.071 161.148 308.511L161.228 309.429Z" fill="white"/>
<path fill-rule="evenodd" clip-rule="evenodd" d="M223.156 306.028C217.243 305.051 209.688 304.136 203.064 304.365C201.46 304.42 199.218 304.495 196.5 304.587C187.917 304.875 174.592 305.323 161.665 305.804C144.631 306.438 128.328 307.128 124.442 307.586L124.334 306.671C128.268 306.208 144.625 305.516 161.631 304.883C174.56 304.402 187.888 303.955 196.471 303.666C199.188 303.575 201.429 303.5 203.032 303.444C209.747 303.212 217.373 304.139 223.305 305.12C226.275 305.61 228.826 306.115 230.635 306.498C231.54 306.689 232.259 306.85 232.753 306.963C233 307.019 233.19 307.064 233.319 307.094C233.384 307.11 233.433 307.121 233.466 307.129L233.504 307.138L233.516 307.141C233.516 307.141 233.517 307.141 233.408 307.589C233.299 308.036 233.299 308.036 233.299 308.036L233.288 308.034L233.251 308.025C233.219 308.017 233.171 308.006 233.108 307.991C232.981 307.961 232.793 307.917 232.548 307.861C232.059 307.749 231.344 307.589 230.445 307.399C228.646 307.019 226.109 306.516 223.156 306.028Z" fill="white"/>
<path fill-rule="evenodd" clip-rule="evenodd" d="M158.405 278.573L149.205 278.112L149.251 277.192L158.451 277.653L158.405 278.573Z" fill="white"/>
<path fill-rule="evenodd" clip-rule="evenodd" d="M80.1566 125.203C73.269 124.12 69.6256 123.8 64.2777 125.644L63.9781 124.773C69.5496 122.852 73.382 123.205 80.2993 124.293L80.1566 125.203Z" fill="white"/>
<path fill-rule="evenodd" clip-rule="evenodd" d="M154.268 138.164C152.868 137.964 151.173 137.804 149.19 137.642L149.265 136.724C151.25 136.886 152.968 137.048 154.398 137.253C155.823 137.456 156.992 137.706 157.865 138.054C158.731 138.398 159.398 138.876 159.669 139.594C159.941 140.314 159.759 141.127 159.294 142.004L158.482 141.572C158.898 140.786 158.942 140.273 158.809 139.92C158.674 139.563 158.303 139.219 157.525 138.91C156.756 138.603 155.674 138.365 154.268 138.164Z" fill="white"/>
<path fill-rule="evenodd" clip-rule="evenodd" d="M184.101 89.7373C184.101 89.7373 184.101 89.7374 184.188 89.2851C184.275 88.8329 184.275 88.8329 184.276 88.833L184.277 88.8332L184.281 88.834L184.293 88.8365L184.339 88.846C184.378 88.8544 184.435 88.867 184.508 88.8843C184.655 88.9188 184.868 88.9723 185.137 89.049C185.676 89.2023 186.443 89.4486 187.364 89.8226C189.207 90.5701 191.674 91.8296 194.176 93.8797C199.193 97.9902 204.317 105.25 204.887 117.819C205.119 122.927 204.888 127.506 201.907 133.474C198.94 139.414 193.262 146.711 182.673 157.313C180.363 159.626 177.312 162.495 173.846 165.754C172.99 166.559 172.108 167.388 171.206 168.239C166.65 172.534 161.567 177.379 156.571 182.468C146.565 192.658 136.96 203.775 132.627 213.365L132.623 213.373L132.619 213.381C128.051 222.528 122.548 239.037 122.548 262.915C122.548 264.993 122.548 267.158 122.718 268.974C122.803 269.882 122.929 270.686 123.113 271.339C123.299 272.002 123.531 272.459 123.793 272.721C124.416 273.345 125.148 273.773 126.419 274.161C127.708 274.554 129.518 274.895 132.284 275.356C137.79 276.275 147.883 277.192 149.688 277.192C150.299 277.192 150.765 276.653 151.105 275.859C151.264 275.488 151.372 275.112 151.44 274.826C151.474 274.684 151.497 274.565 151.512 274.484C151.52 274.443 151.525 274.412 151.528 274.391L151.532 274.369L151.533 274.364C151.532 274.364 151.533 274.364 151.988 274.429C152.212 274.461 152.326 274.477 152.384 274.485C152.443 274.494 152.443 274.494 152.443 274.494L152.443 274.498L152.441 274.507L152.436 274.539C152.432 274.565 152.426 274.603 152.417 274.65C152.4 274.745 152.373 274.879 152.335 275.039C152.259 275.357 152.137 275.787 151.951 276.222C151.6 277.041 150.917 278.113 149.688 278.113C147.813 278.113 137.666 277.188 132.132 276.265C129.378 275.805 127.508 275.455 126.151 275.042C124.778 274.624 123.9 274.131 123.143 273.373C122.715 272.945 122.429 272.308 122.227 271.589C122.023 270.86 121.89 269.995 121.802 269.06C121.628 267.196 121.628 264.991 121.628 262.929V262.915C121.628 238.901 127.161 222.253 131.792 212.977C136.201 203.225 145.913 192.008 155.915 181.822C160.924 176.72 166.018 171.865 170.576 167.568C171.481 166.715 172.365 165.883 173.223 165.077C176.687 161.819 179.723 158.963 182.023 156.661C192.594 146.078 198.186 138.866 201.084 133.062C203.968 127.287 204.196 122.884 203.968 117.861C203.41 105.559 198.414 98.5417 193.593 94.5925C191.177 92.6127 188.795 91.3967 187.019 90.6762C186.131 90.3161 185.396 90.0803 184.886 89.935C184.63 89.8624 184.431 89.8124 184.297 89.7809C184.231 89.7651 184.18 89.7539 184.147 89.7469L184.11 89.7392L184.102 89.7376L184.101 89.7373Z" fill="white"/>
<path fill-rule="evenodd" clip-rule="evenodd" d="M49.8045 127.993C50.0006 127.842 50.2737 127.698 50.5994 127.552L50.9757 128.392C50.7265 128.504 50.5531 128.596 50.4386 128.671C50.5552 128.743 50.7272 128.828 50.9673 128.93L50.6078 129.778C50.3059 129.649 50.0417 129.521 49.8457 129.383C49.6723 129.262 49.4251 129.046 49.4077 128.712C49.3896 128.366 49.6276 128.129 49.8045 127.993ZM50.2985 128.784C50.2983 128.784 50.2994 128.782 50.3023 128.779C50.3002 128.782 50.2987 128.784 50.2985 128.784Z" fill="white"/>
<path fill-rule="evenodd" clip-rule="evenodd" d="M83.9856 37.1421C61.3678 56.4974 49.3953 84.5755 44.344 121.127L44.344 121.127C43.9237 124.165 43.9211 125.571 44.7237 126.785C45.0471 127.215 45.3218 127.481 45.585 127.647C45.8424 127.809 46.112 127.891 46.4509 127.915C46.802 127.94 47.2214 127.904 47.7773 127.825C48.0375 127.788 48.3204 127.744 48.635 127.694L48.6917 127.685C49.0278 127.632 49.3972 127.574 49.8033 127.516C52.3829 127.147 58.5386 125.883 62.0467 125.163C62.8941 124.989 63.587 124.847 64.0377 124.757C65.4384 124.476 66.5562 123.322 67.4523 121.49C68.344 119.667 68.9675 117.267 69.425 114.685C69.8814 112.108 70.1676 109.381 70.3974 106.915C70.4459 106.394 70.492 105.883 70.5368 105.388C70.7027 103.551 70.8499 101.922 71.0332 100.729L71.9425 100.869C71.764 102.031 71.6205 103.619 71.4549 105.451C71.4098 105.95 71.363 106.468 71.3134 107C71.0832 109.47 70.7943 112.23 70.3308 114.846C69.8683 117.456 69.2268 119.956 68.2785 121.895C67.3346 123.825 66.0374 125.296 64.2181 125.66C63.7775 125.748 63.0956 125.888 62.2586 126.06C58.758 126.779 52.5453 128.054 49.9334 128.428C49.5346 128.485 49.1709 128.542 48.835 128.595L48.7697 128.605C48.4601 128.654 48.1721 128.7 47.9057 128.737C47.3403 128.817 46.8395 128.867 46.3854 128.834C45.9191 128.801 45.4985 128.681 45.0944 128.426C44.6984 128.176 44.3429 127.812 43.9799 127.327L43.9722 127.317L43.9651 127.306C42.9354 125.759 43.0176 124.001 43.4327 121C48.5014 84.3229 60.5368 55.9968 83.3879 36.4419C106.233 16.892 139.818 6.17058 187.853 4.54297L187.884 5.46355C139.955 7.08757 106.609 17.782 83.9856 37.1421Z" fill="white"/>
<path fill-rule="evenodd" clip-rule="evenodd" d="M183.095 307.588C197.727 307.05 215.788 306.589 231.109 306.668C231.11 306.668 231.11 306.668 231.11 306.668L231.108 307.128V306.668C231.108 306.668 231.109 306.668 231.109 306.668C232.867 306.668 234.584 307.543 235.853 308.752C237.116 309.957 238.007 311.565 238.008 313.114C238.008 313.113 238.008 313.113 237.548 313.116L237.088 313.118L237.088 313.116C237.088 311.901 236.37 310.517 235.218 309.419C234.072 308.326 232.57 307.589 231.108 307.589L231.106 307.589C215.803 307.511 197.755 307.971 183.128 308.509C168.484 309.047 157.312 309.661 155.733 309.887C154.985 309.994 154.424 310.215 153.991 310.518C153.559 310.821 153.23 311.222 152.971 311.726C152.439 312.759 152.215 314.171 151.984 315.939C151.931 316.343 151.881 317.895 151.838 320.36C151.795 322.805 151.759 326.111 151.731 329.988C151.673 337.743 151.644 347.779 151.644 357.778C151.644 367.777 151.672 377.738 151.73 385.343C151.758 389.146 151.794 392.358 151.837 394.691C151.859 395.858 151.882 396.802 151.907 397.49C151.919 397.835 151.932 398.112 151.945 398.32C151.959 398.538 151.972 398.652 151.979 398.689C152.157 399.577 152.393 400.091 152.726 400.421C153.05 400.743 153.524 400.949 154.319 401.081C154.305 401.081 154.29 401.082 154.276 401.082L154.288 401.543L154.361 401.088C154.347 401.086 154.333 401.083 154.319 401.081C169.894 400.676 189.07 399.526 204.648 398.419C212.443 397.866 219.335 397.323 224.422 396.89C226.965 396.673 229.056 396.484 230.582 396.335C232.124 396.184 233.059 396.077 233.318 396.025C234.397 395.809 235.229 395.384 235.843 394.769C236.456 394.155 236.881 393.322 237.097 392.241C237.104 392.206 237.116 392.093 237.129 391.874C237.142 391.667 237.153 391.391 237.164 391.048C237.186 390.362 237.204 389.421 237.22 388.26C237.252 385.939 237.271 382.748 237.282 378.981C237.304 371.448 237.289 361.619 237.261 351.861C237.232 342.104 237.189 332.418 237.153 325.172C237.135 321.548 237.119 318.535 237.107 316.428C237.101 315.374 237.096 314.547 237.093 313.983L237.088 313.118C237.088 313.118 237.088 313.118 237.548 313.116H238.008L238.013 313.977C238.016 314.541 238.021 315.369 238.027 316.423C238.039 318.53 238.055 321.544 238.073 325.167C238.109 332.414 238.152 342.1 238.181 351.859C238.209 361.617 238.224 371.448 238.202 378.984C238.191 382.751 238.172 385.947 238.14 388.273C238.124 389.435 238.106 390.383 238.084 391.077C238.073 391.424 238.061 391.71 238.048 391.929C238.035 392.137 238.021 392.313 237.999 392.422C237.755 393.644 237.259 394.653 236.493 395.42C235.727 396.188 234.719 396.684 233.498 396.928C233.182 396.991 232.188 397.103 230.672 397.252C229.14 397.401 227.045 397.591 224.5 397.807C219.408 398.241 212.512 398.784 204.713 399.338C189.116 400.446 169.903 401.598 154.3 402.003L154.257 402.004L154.215 401.997C153.318 401.853 152.608 401.601 152.078 401.075C151.552 400.553 151.268 399.823 151.077 398.87C151.055 398.762 151.04 398.586 151.027 398.378C151.013 398.158 151 397.872 150.987 397.524C150.962 396.828 150.939 395.877 150.917 394.708C150.874 392.37 150.838 389.154 150.81 385.35C150.752 377.742 150.724 367.779 150.724 357.778C150.724 347.778 150.753 337.739 150.811 329.982C150.839 326.103 150.875 322.793 150.918 320.344C150.961 317.913 151.011 316.29 151.072 315.819C151.298 314.087 151.534 312.506 152.153 311.304C152.469 310.691 152.889 310.166 153.463 309.763C154.037 309.362 154.741 309.099 155.603 308.975C157.244 308.741 168.48 308.125 183.095 307.588ZM238.008 313.116C238.008 313.115 238.008 313.114 238.008 313.114V313.116Z" fill="white"/>
<path fill-rule="evenodd" clip-rule="evenodd" d="M136.213 307.072C141.092 307.474 146.076 308.052 147.959 308.524C150.074 309.053 150.908 310.914 151.233 312.812C151.488 314.296 151.453 315.936 151.426 317.218C151.419 317.572 151.412 317.9 151.412 318.189C151.412 318.189 151.412 318.19 151.412 318.19L151.417 319.052C151.42 319.616 151.425 320.443 151.431 321.497C151.442 323.605 151.459 326.618 151.477 330.242C151.513 337.488 151.556 347.175 151.584 356.933C151.613 366.691 151.628 376.522 151.606 384.058C151.595 387.826 151.575 391.021 151.544 393.347C151.528 394.51 151.509 395.457 151.487 396.151C151.476 396.498 151.465 396.784 151.452 397.003C151.439 397.211 151.425 397.388 151.403 397.496C151.172 398.652 150.836 399.816 150.005 400.613C149.149 401.434 147.865 401.778 145.951 401.539C145.687 401.506 145.418 401.473 145.141 401.439C141.546 400.997 136.56 400.383 122.452 397.387L122.427 397.382L122.402 397.374C120.794 396.837 120.106 395.428 119.78 394.018C119.615 393.309 119.535 392.569 119.479 391.89C119.459 391.648 119.443 391.417 119.427 391.198C119.398 390.786 119.372 390.415 119.331 390.084C119.312 389.927 119.296 389.498 119.279 388.872C119.263 388.231 119.246 387.353 119.229 386.272C119.195 384.11 119.162 381.133 119.13 377.608C119.068 370.559 119.015 361.321 118.99 352.043C118.966 342.766 118.969 333.449 119.019 326.242C119.044 322.639 119.081 319.561 119.132 317.28C119.157 316.14 119.186 315.196 119.219 314.483C119.251 313.786 119.288 313.275 119.336 313.027C119.664 311.341 120.141 309.876 120.988 308.767C121.85 307.639 123.066 306.918 124.783 306.672C125.636 306.55 127.288 306.553 129.3 306.632C131.329 306.712 133.765 306.87 136.213 307.072ZM150.952 318.19L150.492 318.193L150.492 318.19C150.492 317.867 150.499 317.514 150.507 317.141C150.533 315.866 150.564 314.355 150.326 312.967C150.02 311.176 149.302 309.809 147.736 309.417C145.939 308.967 141.034 308.394 136.138 307.99C133.698 307.789 131.276 307.631 129.264 307.552C127.238 307.473 125.67 307.476 124.913 307.584C123.41 307.799 122.42 308.409 121.719 309.327C121.002 310.265 120.559 311.563 120.239 313.203C120.207 313.371 120.171 313.809 120.138 314.526C120.106 315.228 120.077 316.163 120.052 317.301C120.001 319.575 119.964 322.647 119.939 326.248C119.889 333.451 119.886 342.765 119.91 352.041C119.935 361.317 119.988 370.553 120.05 377.6C120.082 381.124 120.115 384.099 120.149 386.258C120.166 387.337 120.183 388.212 120.199 388.848C120.216 389.498 120.232 389.871 120.245 389.973C120.288 390.325 120.317 390.737 120.348 391.165C120.363 391.38 120.378 391.598 120.396 391.815C120.451 392.481 120.527 393.167 120.676 393.81C120.974 395.097 121.534 396.101 122.67 396.492C136.723 399.476 141.682 400.085 145.254 400.524C145.532 400.559 145.801 400.592 146.065 400.625C147.83 400.846 148.789 400.504 149.369 399.947C149.975 399.366 150.272 398.462 150.501 397.316C150.508 397.28 150.52 397.167 150.533 396.949C150.545 396.742 150.557 396.465 150.568 396.122C150.59 395.436 150.608 394.495 150.624 393.335C150.655 391.014 150.675 387.822 150.686 384.056C150.708 376.523 150.693 366.694 150.664 356.936C150.636 347.178 150.593 337.493 150.557 330.246C150.539 326.623 150.522 323.61 150.511 321.502C150.505 320.448 150.5 319.621 150.497 319.057L150.492 318.193C150.492 318.192 150.492 318.193 150.952 318.19Z" fill="white"/>
<path fill-rule="evenodd" clip-rule="evenodd" d="M68.3623 59.9907C82.4977 41.4596 92.4571 33.8168 112.207 23.0215L112.722 23.7798C95.5656 38.0718 84.6308 50.6394 77.3775 65.3796C70.1214 80.1253 66.5308 97.0827 64.1254 120.19L64.0898 120.532L49.0326 123.359L48.8631 122.453L63.246 119.753C65.6553 96.7812 69.2605 79.7908 76.5522 64.9725C83.3629 51.1318 93.3738 39.2183 108.564 26.0984C91.6635 35.6545 82.25 43.3606 69.3407 60.2262C72.9262 63.8868 73.0447 69.7014 70.9351 74.7818C68.7965 79.9323 64.3069 84.5011 58.4914 85.5489C54.1925 97.7297 52.2675 104.703 51.2937 116.814L60.0442 115.145L64.3705 87.8567C63.7335 88.4603 63.1329 88.9413 62.4917 89.3062C61.5934 89.8173 60.6394 90.0876 59.4319 90.1836C59.1784 91.1864 58.9313 92.1461 58.6924 93.0743C56.8836 100.102 55.5404 105.32 55.3878 113.703L54.4679 113.686C54.6226 105.19 55.9921 99.8713 57.8026 92.8398C58.067 91.8125 58.3409 90.7488 58.6218 89.6332L58.7049 89.3033L59.0443 89.2859C60.3086 89.221 61.2086 88.9768 62.0371 88.5053C62.8794 88.0261 63.6764 87.2967 64.7147 86.2044L65.734 85.1321L60.8515 115.929L50.2831 117.944L50.3292 117.344C51.3025 104.666 53.265 97.5719 57.7142 84.9866L57.8054 84.7287L58.0752 84.6855C63.6283 83.7959 68.0023 79.4454 70.0856 74.4282C72.1741 69.3985 71.8976 63.8767 68.4133 60.6062L68.1099 60.3215L68.3623 59.9907Z" fill="white"/>
<path fill-rule="evenodd" clip-rule="evenodd" d="M61.5051 129.333L61.3679 128.893C61.2307 128.453 61.2307 128.453 61.2308 128.453L61.2366 128.451L61.253 128.446L61.3164 128.427C61.3718 128.41 61.4531 128.385 61.5574 128.354C61.7658 128.291 62.0663 128.202 62.4352 128.097C63.1728 127.887 64.1859 127.612 65.2869 127.351C66.3867 127.09 67.5807 126.842 68.6785 126.688C69.7643 126.536 70.8004 126.469 71.5635 126.596C72.9455 126.827 92.8433 130.282 112.392 133.678C122.167 135.376 131.855 137.06 139.1 138.32L151.146 140.413C151.146 140.414 151.147 140.414 151.068 140.867L151.146 140.413L151.197 141.309C145.492 142.986 142.365 143.449 137.202 142.705L137.194 142.704L70.9462 130.728L71.1096 129.821L137.342 141.794C141.721 142.425 144.558 142.167 148.995 140.974L138.943 139.227C131.698 137.968 122.009 136.284 112.234 134.586C92.6825 131.189 72.7903 127.735 71.4123 127.505C70.7954 127.402 69.8765 127.45 68.806 127.6C67.7476 127.749 66.5841 127.99 65.4989 128.247C64.4149 128.504 63.4155 128.776 62.6868 128.983C62.3226 129.087 62.0265 129.174 61.8217 129.236C61.7193 129.267 61.6398 129.291 61.5861 129.307L61.5251 129.326L61.5099 129.331L61.5051 129.333Z" fill="white"/>
<path fill-rule="evenodd" clip-rule="evenodd" d="M57.69 109.966C58.3557 103.035 59.1132 99.296 60.9251 92.8447L61.8107 93.0941C60.0122 99.4979 59.2657 103.183 58.6058 110.054L57.69 109.966Z" fill="white"/>
<path fill-rule="evenodd" clip-rule="evenodd" d="M74.3244 58.913C74.6967 59.6122 74.9825 60.2363 75.1918 60.9601C75.4249 61.7661 75.5572 62.675 75.6272 63.9282L74.7086 63.9796C74.6407 62.7641 74.5147 61.9307 74.3081 61.2162C74.102 60.5034 73.8098 59.8881 73.3843 59.1087L73.2508 58.8642L73.4052 58.6323C78.1526 51.5022 81.6295 47.9766 88.1976 41.9678L88.8521 42.6133C83.2845 48.8991 80.3306 52.4189 76.9584 59.0956L76.1374 58.68C78.1466 54.7019 80.0154 51.8215 82.3418 48.85C79.4774 51.8183 77.1211 54.7345 74.3244 58.913Z" fill="white"/>
<path fill-rule="evenodd" clip-rule="evenodd" d="M200.136 86.6328L201.767 86.9924C214.346 89.7656 222.853 94.1433 227.783 99.842C232.733 105.564 234.026 112.556 232.305 120.413C230.588 128.25 225.871 136.963 218.787 146.206C211.698 155.455 202.217 165.263 190.933 175.292L190.02 176.104L191.107 167.398L191.182 167.299C194.445 163.021 196.121 160.126 196.503 157.873C196.69 156.768 196.564 155.824 196.157 154.938C195.746 154.042 195.034 153.179 194.003 152.265L193.678 151.977L193.947 151.635C202.429 140.848 208.348 128.961 209.087 118.038C209.455 112.585 208.533 107.377 205.999 102.657C203.466 97.9374 199.307 93.678 193.159 90.1444L193.617 89.3456C199.889 92.9507 204.183 97.3267 206.81 102.221C209.437 107.115 210.383 112.501 210.004 118.1C209.256 129.169 203.332 141.097 194.934 151.867C195.856 152.731 196.557 153.604 196.993 154.553C197.483 155.62 197.626 156.753 197.41 158.027C196.988 160.512 195.196 163.544 191.989 167.759L191.236 173.788C202.09 164.068 211.206 154.584 218.057 145.645C225.103 136.452 229.73 127.865 231.406 120.216C233.078 112.586 231.812 105.906 227.087 100.445C222.549 95.1992 214.773 91.0229 203.174 88.2599C210.099 95.1676 214.099 102.895 214.375 112.414C214.665 122.381 210.869 134.246 202.222 149.12C202.722 149.786 203.069 150.435 203.267 151.12C203.49 151.892 203.516 152.681 203.392 153.552C203.224 154.73 202.773 156.097 202.137 157.822C214.88 142.437 222.212 131.82 224.51 122.735C225.705 118.013 225.537 113.706 224.05 109.349C222.62 105.16 219.963 100.904 216.08 96.1767L215.048 98.9336C219.851 108.952 220.729 116.63 218.839 124.229C216.949 131.832 212.295 139.316 206.196 148.943L205.419 148.45C211.54 138.787 216.1 131.435 217.947 124.007C219.783 116.619 218.943 109.118 214.134 99.1566L214.048 98.979L215.774 94.3704L216.281 94.976C220.473 99.9897 223.378 104.531 224.92 109.051C226.467 113.583 226.639 118.072 225.402 122.961C222.941 132.69 214.895 144.01 201.101 160.506L200.318 160.048C200.42 159.776 200.519 159.512 200.616 159.257C201.608 156.629 202.276 154.86 202.481 153.422C202.591 152.65 202.562 151.997 202.383 151.376C202.203 150.753 201.863 150.135 201.309 149.445L201.111 149.198L201.271 148.924C209.992 133.988 213.74 122.218 213.456 112.441C213.173 102.69 208.877 94.8542 201.353 87.7779L200.136 86.6328Z" fill="white"/>
<path fill-rule="evenodd" clip-rule="evenodd" d="M140.696 208.254C148.042 195.946 158.795 184.302 175.61 169.992L176.206 170.694C159.426 184.974 148.758 196.542 141.486 208.727C134.394 220.609 130.516 233.107 127.375 249.336C129.535 247.625 131.447 246.302 133.093 245.616C134.043 245.221 134.941 245.021 135.77 245.107C136.615 245.194 137.351 245.575 137.961 246.268C138.56 246.948 139.029 247.918 139.39 249.179C139.751 250.444 140.012 252.03 140.176 253.969C140.497 257.758 140.456 262.946 140.056 269.823H145.545C145.437 249.136 148.912 233.825 155.388 220.274C161.623 207.23 170.628 195.84 181.833 182.879C181.251 183.131 180.706 183.323 180.196 183.449C179.102 183.717 178.132 183.689 177.273 183.277C176.419 182.867 175.742 182.11 175.167 181.059C174.675 180.161 174.243 179.022 173.832 177.64C161.906 188.772 153.989 196.442 148.111 205.084C142.283 213.654 138.448 223.202 134.742 238.073C136.526 237.173 138.003 236.773 139.323 237.161C140.616 237.542 141.636 238.643 142.624 240.413C142.641 240.34 142.658 240.266 142.675 240.193C145.431 228.436 147.442 219.856 151.154 212.003C155.024 203.818 160.73 196.443 170.997 187.044L171.618 187.724C161.406 197.072 155.788 204.354 151.986 212.397C148.316 220.16 146.326 228.65 143.558 240.46C143.452 240.913 143.344 241.371 143.236 241.835L142.94 243.097L142.374 241.93C141.202 239.513 140.195 238.378 139.063 238.045C137.925 237.71 136.483 238.13 134.272 239.368L133.349 239.885L133.601 238.856C137.398 223.353 141.307 213.453 147.351 204.566C153.386 195.692 161.536 187.851 173.754 176.454L174.309 175.936L174.511 176.668C174.977 178.357 175.449 179.658 175.973 180.616C176.497 181.573 177.053 182.15 177.67 182.446C178.281 182.739 179.02 182.789 179.977 182.554C180.941 182.317 182.094 181.799 183.5 180.996L184.075 181.699C172.152 195.406 162.678 207.155 156.218 220.672C149.763 234.177 146.306 249.474 146.468 270.28L146.471 270.744H139.079L139.109 270.256C139.534 263.149 139.582 257.858 139.259 254.047C139.098 252.142 138.845 250.62 138.505 249.433C138.165 248.242 137.746 247.416 137.271 246.877C136.806 246.349 136.279 246.085 135.675 246.023C135.056 245.959 134.319 246.104 133.447 246.467C131.694 247.197 129.546 248.743 126.978 250.837L126.002 251.634L126.236 250.394C129.429 233.512 133.348 220.566 140.696 208.254Z" fill="white"/>
<path fill-rule="evenodd" clip-rule="evenodd" d="M129.025 312.653C127.354 312.838 126.467 313.258 125.919 313.926C125.349 314.622 125.072 315.67 124.844 317.318C123.462 329.441 123.723 335.874 124.735 346.463C125.805 345.139 126.802 344.158 127.95 343.468C129.359 342.621 130.954 342.237 133.105 342.131L133.386 342.117L133.526 342.36C136.618 347.714 138.195 354.966 137.726 360.134C137.672 360.725 137.626 361.311 137.58 361.893C137.237 366.258 136.911 370.411 133.5 375.101L133.349 375.309L133.093 375.289L133.128 374.83C133.093 375.289 133.093 375.289 133.093 375.289L133.092 375.289L133.086 375.288L133.07 375.287C133.057 375.286 133.038 375.284 133.014 375.282C132.966 375.277 132.896 375.269 132.806 375.258C132.627 375.235 132.371 375.198 132.052 375.139C131.415 375.02 130.529 374.813 129.525 374.458C127.709 373.816 125.486 372.684 123.662 370.697C123.649 370.781 123.635 370.871 123.622 370.967C123.538 371.572 123.467 372.4 123.41 373.388C123.295 375.362 123.238 377.944 123.238 380.587C123.238 383.229 123.295 385.927 123.41 388.133C123.467 389.237 123.538 390.213 123.623 390.997C123.71 391.793 123.807 392.352 123.904 392.646C123.924 392.706 123.993 392.818 124.174 392.975C124.349 393.127 124.598 393.293 124.922 393.469C125.569 393.82 126.463 394.182 127.536 394.534C129.677 395.237 132.469 395.88 135.268 396.308C138.069 396.738 140.849 396.949 142.972 396.801C144.036 396.727 144.904 396.564 145.52 396.313C146.143 396.058 146.412 395.756 146.479 395.455C146.528 395.235 146.58 394.754 146.631 394.007C146.681 393.274 146.728 392.314 146.772 391.161C146.86 388.855 146.935 385.784 147 382.212C147.129 375.069 147.215 365.932 147.273 356.923C147.33 347.914 147.359 339.034 147.374 332.407C147.381 329.093 147.384 326.343 147.386 324.421C147.387 323.46 147.388 322.706 147.388 322.192L147.388 321.406C147.388 321.405 147.388 321.405 147.848 321.405L147.388 321.406V321.397L147.388 321.388C147.487 318.704 147.484 316.847 147.241 315.584C147.12 314.959 146.947 314.514 146.724 314.197C146.513 313.898 146.246 313.693 145.887 313.561C139.324 312.336 135.636 312.3 129.025 312.653ZM148.308 321.414C148.406 318.752 148.41 316.791 148.144 315.41C148.01 314.712 147.801 314.128 147.476 313.666C147.144 313.195 146.707 312.873 146.161 312.681L146.127 312.669L146.092 312.662C139.408 311.412 135.641 311.377 128.963 311.734L128.951 311.735L128.938 311.736C127.163 311.931 125.981 312.398 125.207 313.342C124.455 314.261 124.159 315.555 123.932 317.197L123.931 317.208C122.489 329.851 122.823 336.371 123.93 347.702L124.045 348.876L124.755 347.934C126.092 346.161 127.18 345.005 128.424 344.257C129.601 343.55 130.956 343.187 132.869 343.066C135.78 348.242 137.254 355.163 136.81 360.05C136.755 360.653 136.708 361.245 136.662 361.829C136.322 366.12 136.017 369.963 132.911 374.343C132.749 374.322 132.513 374.288 132.22 374.233C131.621 374.121 130.782 373.925 129.831 373.589C127.926 372.916 125.596 371.689 123.827 369.476L123.506 369.074L123.143 369.438C123.052 369.529 122.996 369.64 122.961 369.723C122.922 369.815 122.89 369.918 122.861 370.027C122.804 370.245 122.755 370.522 122.71 370.841C122.622 371.481 122.549 372.337 122.491 373.335C122.376 375.333 122.318 377.933 122.318 380.587C122.318 383.24 122.376 385.954 122.491 388.181C122.549 389.294 122.621 390.289 122.709 391.096C122.795 391.89 122.899 392.54 123.032 392.937C123.127 393.222 123.335 393.466 123.572 393.672C123.815 393.882 124.126 394.084 124.483 394.278C125.198 394.667 126.151 395.049 127.249 395.409C129.449 396.131 132.292 396.784 135.128 397.219C137.962 397.653 140.817 397.874 143.036 397.72C144.141 397.643 145.121 397.47 145.867 397.166C146.606 396.864 147.214 396.39 147.377 395.655C147.443 395.356 147.499 394.805 147.549 394.07C147.6 393.323 147.647 392.353 147.691 391.196C147.78 388.881 147.855 385.802 147.92 382.228C148.049 375.08 148.135 365.939 148.193 356.928C148.25 347.918 148.279 339.037 148.294 332.409C148.301 329.095 148.304 326.344 148.306 324.422C148.307 323.46 148.308 322.706 148.308 322.193L148.308 321.414Z" fill="white"/>
<path fill-rule="evenodd" clip-rule="evenodd" d="M136.385 315.878C133.831 315.764 131.149 316.11 129.629 316.762C129.352 316.881 129.077 317.143 128.819 317.598C128.562 318.052 128.342 318.664 128.161 319.421C127.8 320.935 127.613 322.948 127.545 325.245C127.41 329.834 127.753 335.453 128.067 340.258L127.149 340.318C126.835 335.522 126.489 329.858 126.625 325.218C126.694 322.9 126.883 320.813 127.266 319.207C127.458 318.404 127.703 317.701 128.018 317.144C128.333 316.588 128.739 316.142 129.267 315.916C130.966 315.186 133.805 314.841 136.426 314.958C137.743 315.016 139.032 315.193 140.12 315.508C141.192 315.819 142.138 316.285 142.687 316.972C142.861 317.191 142.995 317.528 143.107 317.9C143.225 318.289 143.338 318.778 143.446 319.347C143.662 320.487 143.866 321.983 144.057 323.715C144.439 327.181 144.771 331.622 145.03 336.116C145.289 340.611 145.476 345.164 145.569 348.854C145.662 352.527 145.664 355.384 145.545 356.458C145.42 357.582 145.009 358.43 144.433 359.024C143.859 359.615 143.145 359.93 142.45 360.03C141.762 360.128 141.071 360.017 140.535 359.727C139.997 359.436 139.568 358.929 139.568 358.25C139.568 357.35 139.34 352.992 138.937 348.562C138.736 346.35 138.493 344.13 138.215 342.323C138.076 341.419 137.929 340.625 137.776 339.99C137.619 339.341 137.467 338.905 137.333 338.683C137.19 338.444 137.057 338.325 136.948 338.264C136.843 338.206 136.729 338.185 136.587 338.199C136.266 338.23 135.879 338.43 135.374 338.728C135.319 338.76 135.263 338.793 135.206 338.827C134.778 339.082 134.285 339.375 133.792 339.532C133.204 339.72 132.547 339.737 131.932 339.275C131.739 339.13 131.595 338.923 131.481 338.704C131.366 338.481 131.267 338.216 131.181 337.923C131.01 337.336 130.879 336.594 130.781 335.758C130.583 334.083 130.511 331.974 130.54 329.862C130.569 327.748 130.699 325.615 130.91 323.889C131.016 323.027 131.142 322.259 131.289 321.641C131.43 321.047 131.604 320.522 131.84 320.208C132.63 319.153 134.073 318.496 135.583 318.825C137.11 319.157 138.586 320.464 139.54 323.09C140.527 325.808 139.653 328.263 138.579 329.996C138.04 330.864 137.444 331.566 136.983 332.05C136.752 332.292 136.554 332.481 136.412 332.611C136.341 332.675 136.284 332.725 136.245 332.76C136.225 332.777 136.209 332.79 136.198 332.799L136.185 332.81L136.181 332.813L136.18 332.814C136.18 332.814 136.179 332.815 135.888 332.458C135.597 332.102 135.597 332.102 135.596 332.102L135.598 332.101L135.607 332.094C135.615 332.087 135.627 332.076 135.644 332.062C135.677 332.033 135.728 331.989 135.792 331.93C135.919 331.813 136.102 331.639 136.317 331.414C136.747 330.962 137.301 330.311 137.797 329.51C138.793 327.903 139.528 325.753 138.676 323.405C137.789 320.965 136.506 319.968 135.388 319.725C134.253 319.478 133.165 319.973 132.576 320.76C132.466 320.907 132.325 321.26 132.184 321.854C132.048 322.426 131.927 323.158 131.824 324.001C131.618 325.687 131.489 327.786 131.46 329.874C131.432 331.964 131.503 334.029 131.694 335.65C131.79 336.462 131.914 337.148 132.064 337.664C132.14 337.923 132.219 338.127 132.298 338.28C132.379 338.437 132.446 338.51 132.484 338.538C132.788 338.766 133.109 338.784 133.513 338.655C133.898 338.532 134.293 338.298 134.735 338.035C134.792 338.002 134.849 337.968 134.907 337.934C135.379 337.655 135.941 337.337 136.497 337.282C136.793 337.253 137.1 337.296 137.392 337.458C137.68 337.617 137.92 337.872 138.122 338.209C138.334 338.562 138.512 339.119 138.67 339.774C138.832 340.444 138.983 341.266 139.124 342.182C139.406 344.017 139.652 346.258 139.853 348.479C140.256 352.914 140.488 357.307 140.488 358.25C140.488 358.491 140.633 358.733 140.973 358.917C141.313 359.101 141.801 359.192 142.32 359.118C142.834 359.044 143.355 358.813 143.773 358.382C144.189 357.954 144.525 357.305 144.631 356.357C144.741 355.358 144.743 352.573 144.65 348.878C144.556 345.198 144.37 340.655 144.111 336.169C143.853 331.683 143.522 327.259 143.143 323.816C142.953 322.094 142.751 320.625 142.542 319.519C142.437 318.966 142.331 318.512 142.227 318.167C142.117 317.805 142.024 317.617 141.969 317.548C141.598 317.084 140.876 316.686 139.864 316.393C138.867 316.104 137.655 315.934 136.385 315.878Z" fill="white"/>
<path fill-rule="evenodd" clip-rule="evenodd" d="M143.525 363.813C143.899 364.385 144.259 365.24 144.609 366.408C144.974 367.626 145.145 369.611 145.174 371.902C145.203 374.209 145.087 376.873 144.856 379.476C144.625 382.079 144.278 384.631 143.842 386.712C143.624 387.752 143.382 388.683 143.119 389.446C142.859 390.199 142.564 390.833 142.221 391.244C141.55 392.051 140.482 392.514 139.292 392.754C138.094 392.995 136.71 393.023 135.331 392.905C132.591 392.672 129.744 391.854 128.273 390.872C127.425 390.306 126.934 389.14 126.629 387.877C126.317 386.582 126.171 385.051 126.113 383.599C126.055 382.143 126.084 380.748 126.128 379.718C126.15 379.203 126.175 378.778 126.195 378.482C126.205 378.333 126.214 378.217 126.22 378.138L126.227 378.046L126.229 378.023L126.23 378.015C126.23 378.015 126.23 378.014 126.688 378.054L127.146 378.094L127.146 378.1L127.144 378.122L127.137 378.209C127.131 378.286 127.123 378.399 127.113 378.544C127.093 378.834 127.068 379.251 127.047 379.757C127.004 380.771 126.976 382.139 127.033 383.562C127.09 384.988 127.232 386.451 127.523 387.661C127.822 388.902 128.251 389.75 128.783 390.106C130.072 390.966 132.745 391.76 135.409 391.987C136.733 392.1 138.024 392.07 139.111 391.851C140.207 391.63 141.036 391.23 141.515 390.655C141.747 390.375 141.999 389.872 142.249 389.146C142.496 388.431 142.728 387.541 142.942 386.523C143.368 384.488 143.711 381.973 143.94 379.395C144.169 376.817 144.283 374.184 144.254 371.914C144.226 369.629 144.052 367.757 143.727 366.672C143.387 365.537 143.058 364.78 142.755 364.316C142.441 363.834 142.23 363.777 142.156 363.777C142.074 363.777 141.892 363.842 141.635 364.212C141.39 364.564 141.148 365.092 140.924 365.764C140.707 366.418 140.483 367.561 140.222 368.984C140.177 369.226 140.132 369.476 140.085 369.732C139.862 370.958 139.615 372.319 139.328 373.66C138.981 375.279 138.573 376.889 138.072 378.217C137.581 379.518 136.965 380.652 136.143 381.2C134.639 382.204 133.237 382.212 132.211 381.955C131.809 381.854 131.468 381.714 131.201 381.581C131.174 382.003 131.174 382.568 131.281 383.153C131.492 384.316 132.098 385.496 133.7 385.897C135.451 386.335 136.612 386.108 137.317 385.805C137.673 385.653 137.922 385.477 138.078 385.345C138.156 385.278 138.211 385.223 138.244 385.187C138.261 385.169 138.272 385.156 138.278 385.149L138.282 385.143L138.281 385.145L138.281 385.145C138.281 385.146 138.28 385.146 138.648 385.423C139.016 385.699 139.016 385.699 139.016 385.7L139.014 385.702L139.012 385.705L139.005 385.713C139 385.72 138.994 385.728 138.985 385.737C138.969 385.757 138.947 385.782 138.919 385.813C138.862 385.874 138.781 385.956 138.672 386.048C138.454 386.232 138.128 386.459 137.679 386.652C136.774 387.04 135.405 387.274 133.476 386.791C131.398 386.27 130.624 384.687 130.375 383.317C130.252 382.636 130.252 381.992 130.283 381.522C130.298 381.285 130.321 381.09 130.34 380.953C130.35 380.884 130.359 380.829 130.365 380.791C130.369 380.772 130.371 380.757 130.373 380.746L130.376 380.733L130.376 380.729L130.377 380.728C130.377 380.728 130.377 380.727 130.828 380.817L130.377 380.727L130.525 379.985L131.114 380.456L131.115 380.457L131.116 380.458L131.129 380.468C131.142 380.477 131.163 380.493 131.192 380.513C131.25 380.552 131.338 380.609 131.454 380.674C131.686 380.803 132.022 380.958 132.435 381.061C133.249 381.265 134.377 381.272 135.633 380.434C136.191 380.061 136.725 379.181 137.211 377.891C137.688 376.628 138.085 375.072 138.428 373.467C138.712 372.142 138.956 370.797 139.179 369.572C139.226 369.315 139.272 369.063 139.317 368.817C139.573 367.418 139.809 366.202 140.052 365.473C140.288 364.764 140.563 364.141 140.88 363.686C141.182 363.251 141.604 362.855 142.156 362.855C142.713 362.855 143.164 363.259 143.525 363.813ZM138.282 385.143C138.283 385.143 138.283 385.143 138.282 385.143V385.143Z" fill="white"/>
<path fill-rule="evenodd" clip-rule="evenodd" d="M92.6479 106.786C99.5072 106.786 105.068 101.219 105.068 94.3512C105.068 87.4836 99.5072 81.9162 92.6479 81.9162C85.7885 81.9162 80.2279 87.4836 80.2279 94.3512C80.2279 101.219 85.7885 106.786 92.6479 106.786ZM92.6479 107.707C100.015 107.707 105.988 101.728 105.988 94.3512C105.988 86.9749 100.015 80.9951 92.6479 80.9951C85.2804 80.9951 79.3079 86.9749 79.3079 94.3512C79.3079 101.728 85.2804 107.707 92.6479 107.707Z" fill="#597DFF"/>
<path fill-rule="evenodd" clip-rule="evenodd" d="M111.968 86.5216C115.271 86.5216 117.948 83.841 117.948 80.5343C117.948 77.2277 115.271 74.5471 111.968 74.5471C108.665 74.5471 105.988 77.2277 105.988 80.5343C105.988 83.841 108.665 86.5216 111.968 86.5216ZM111.968 87.4427C115.779 87.4427 118.868 84.3497 118.868 80.5343C118.868 76.7189 115.779 73.626 111.968 73.626C108.157 73.626 105.068 76.7189 105.068 80.5343C105.068 84.3497 108.157 87.4427 111.968 87.4427Z" fill="#597DFF"/>
<path fill-rule="evenodd" clip-rule="evenodd" d="M63.523 76C64.3282 75.1203 65.2344 73.7451 66.0213 72.0803C66.8082 70.4155 67.2956 68.8419 67.4646 67.6607C67.5499 67.0644 67.5461 66.6214 67.4915 66.3359C67.4807 66.2792 67.4693 66.235 67.4588 66.201C67.4258 66.2144 67.3845 66.2336 67.3338 66.2612C67.0787 66.3999 66.7342 66.6779 66.3276 67.122C65.5225 68.0018 64.6162 69.377 63.8294 71.0418C63.0425 72.7066 62.555 74.2802 62.3861 75.4613C62.3008 76.0577 62.3046 76.5007 62.3592 76.7862C62.37 76.8429 62.3814 76.8871 62.3919 76.9211C62.4249 76.9077 62.4662 76.8885 62.5169 76.8609C62.772 76.7221 63.1165 76.4442 63.523 76ZM62.2861 76.9511C62.2862 76.9509 62.2883 76.9507 62.2922 76.9509C62.288 76.9513 62.2861 76.9512 62.2861 76.9511ZM62.4322 77.0172C62.4348 77.0201 62.4359 77.0219 62.4359 77.022C62.4358 77.0221 62.4345 77.0207 62.4322 77.0172ZM67.5646 66.171C67.5645 66.1712 67.5624 66.1714 67.5585 66.1712C67.5626 66.1708 67.5646 66.1709 67.5646 66.171ZM67.4186 66.1049C67.4159 66.102 67.4147 66.1002 67.4148 66.1001C67.4149 66.0999 67.4162 66.1014 67.4186 66.1049ZM61.9739 77.8055C63.0385 78.3099 65.2229 75.923 66.8529 72.4743C68.4829 69.0256 68.9413 65.821 67.8768 65.3166C66.8122 64.8122 64.6278 67.1991 62.9978 70.6478C61.3677 74.0965 60.9093 77.3011 61.9739 77.8055Z" fill="#597DFF"/>
<path d="M64.9946 71.6268C64.0031 73.7245 62.8924 75.2795 62.5136 75.1C62.1348 74.9206 62.6315 73.0746 63.623 70.9769C64.6145 68.8792 65.7253 67.3242 66.104 67.5036C66.4828 67.6831 65.9861 69.5291 64.9946 71.6268Z" fill="#597DFF"/>
<path d="M48.8647 90.0688C48.4223 91.5031 47.6514 92.5384 47.1431 92.3812C46.6347 92.224 46.5813 90.9338 47.0238 89.4995C47.4663 88.0651 48.2371 87.0298 48.7455 87.187C49.2538 87.3442 49.3072 88.6344 48.8647 90.0688Z" fill="#597DFF"/>
<path d="M260.951 225.304C259.918 226.392 258.768 226.976 258.382 226.609C257.997 226.242 258.522 225.063 259.555 223.975C260.588 222.887 261.738 222.302 262.124 222.67C262.51 223.037 261.985 224.216 260.951 225.304Z" fill="#597DFF"/>
<path d="M169.259 117.273C168.88 118.726 168.155 119.794 167.64 119.659C167.125 119.524 167.016 118.237 167.396 116.785C167.775 115.333 168.501 114.265 169.015 114.4C169.53 114.535 169.639 115.821 169.259 117.273Z" fill="#597DFF"/>
<path fill-rule="evenodd" clip-rule="evenodd" d="M132.618 262.456C133.484 262.43 134.136 260.769 134.075 258.747C134.014 256.725 133.262 255.107 132.396 255.133C132.004 255.145 131.467 255.492 131.002 256.056C131.049 256.04 131.094 256.031 131.135 256.03C131.563 256.017 131.934 256.816 131.964 257.814C131.994 258.812 131.672 259.631 131.245 259.644C130.888 259.655 130.254 259.1 130.037 258.337C130.02 258.502 130.014 258.671 130.019 258.842C130.08 260.864 131.752 262.482 132.618 262.456Z" fill="#597DFF"/>
<path fill-rule="evenodd" clip-rule="evenodd" d="M185.837 161.871C186.095 162.117 186.771 161.829 187.346 161.226C187.709 160.844 187.946 160.428 188.005 160.111C188.242 160.118 188.441 160.187 188.586 160.325C189.213 160.924 188.59 162.596 187.194 164.059C185.799 165.523 184.16 166.223 183.533 165.624C182.907 165.025 183.53 163.354 184.925 161.89C185.247 161.552 185.583 161.254 185.916 161.004C185.717 161.381 185.674 161.714 185.837 161.871Z" fill="#597DFF"/>
<path d="M184.42 174.318C183.663 175.112 182.739 175.46 182.356 175.094C181.973 174.728 182.277 173.788 183.034 172.993C183.792 172.199 184.716 171.851 185.099 172.217C185.482 172.583 185.178 173.523 184.42 174.318Z" fill="#597DFF"/>
<path fill-rule="evenodd" clip-rule="evenodd" d="M127.273 363.829C128.22 363.8 128.932 361.919 128.862 359.627C128.793 357.335 127.969 355.501 127.022 355.53C126.852 355.535 126.69 355.6 126.538 355.716C126.861 356.032 127.103 356.778 127.13 357.655C127.165 358.83 126.801 359.794 126.315 359.809C125.953 359.82 125.626 359.298 125.468 358.545C125.434 358.921 125.421 359.32 125.433 359.731C125.503 362.023 126.326 363.857 127.273 363.829Z" fill="#597DFF"/>
<path fill-rule="evenodd" clip-rule="evenodd" d="M183.128 168.95C184.56 168.167 186.324 166.798 188.054 165.017C189.783 163.235 191.1 161.43 191.841 159.975C192.214 159.242 192.416 158.645 192.477 158.213C192.527 157.863 192.471 157.736 192.456 157.708C192.428 157.694 192.3 157.642 191.951 157.701C191.521 157.774 190.932 157.994 190.21 158.388C188.778 159.172 187.014 160.541 185.285 162.322C183.555 164.104 182.239 165.908 181.498 167.364C181.125 168.097 180.922 168.694 180.861 169.126C180.812 169.476 180.867 169.603 180.883 169.63C180.911 169.645 181.039 169.697 181.387 169.638C181.817 169.565 182.407 169.345 183.128 168.95ZM180.241 170.292C181.37 171.391 185.163 169.316 188.714 165.659C192.264 162.001 194.227 158.145 193.098 157.047C191.969 155.948 188.175 158.023 184.625 161.68C181.075 165.338 179.112 169.193 180.241 170.292Z" fill="#597DFF"/>
<path fill-rule="evenodd" clip-rule="evenodd" d="M181.096 176.626C181.558 175.718 182.39 174.575 183.495 173.436C184.6 172.298 185.718 171.433 186.611 170.945C187.037 170.712 187.37 170.588 187.599 170.542C187.559 170.772 187.445 171.108 187.225 171.542C186.763 172.449 185.931 173.593 184.826 174.731C183.721 175.87 182.603 176.735 181.71 177.223C181.284 177.456 180.951 177.58 180.722 177.626C180.762 177.396 180.876 177.059 181.096 176.626ZM180.709 177.834C180.71 177.834 180.709 177.831 180.708 177.825C180.709 177.831 180.709 177.834 180.709 177.834ZM180.524 177.646C180.518 177.645 180.515 177.644 180.515 177.645C180.515 177.645 180.518 177.645 180.524 177.646ZM187.611 170.334C187.611 170.334 187.612 170.337 187.613 170.342C187.612 170.336 187.612 170.334 187.611 170.334ZM187.797 170.521C187.803 170.523 187.806 170.523 187.806 170.523C187.806 170.523 187.803 170.522 187.797 170.521ZM179.993 178.377C179.261 177.665 180.534 175.165 182.835 172.794C185.137 170.423 187.596 169.078 188.328 169.791C189.06 170.503 187.787 173.002 185.486 175.373C183.184 177.744 180.725 179.089 179.993 178.377Z" fill="#597DFF"/>
<path fill-rule="evenodd" clip-rule="evenodd" d="M116.568 106.786C120.887 106.786 124.388 103.281 124.388 98.9566C124.388 94.6325 120.887 91.1272 116.568 91.1272C112.249 91.1272 108.748 94.6325 108.748 98.9566C108.748 103.281 112.249 106.786 116.568 106.786ZM116.568 107.707C121.395 107.707 125.308 103.789 125.308 98.9566C125.308 94.1238 121.395 90.2061 116.568 90.2061C111.741 90.2061 107.828 94.1238 107.828 98.9566C107.828 103.789 111.741 107.707 116.568 107.707Z" fill="#597DFF"/>
<path fill-rule="evenodd" clip-rule="evenodd" d="M183.728 80.0742C188.047 80.0742 191.548 76.5688 191.548 72.2447C191.548 67.9206 188.047 64.4153 183.728 64.4153C179.409 64.4153 175.908 67.9206 175.908 72.2447C175.908 76.5688 179.409 80.0742 183.728 80.0742ZM183.728 80.9953C188.555 80.9953 192.468 77.0775 192.468 72.2447C192.468 67.4119 188.555 63.4941 183.728 63.4941C178.901 63.4941 174.988 67.4119 174.988 72.2447C174.988 77.0775 178.901 80.9953 183.728 80.9953Z" fill="#597DFF"/>
<path fill-rule="evenodd" clip-rule="evenodd" d="M219.608 25.7285C223.927 25.7285 227.428 22.2231 227.428 17.899C227.428 13.5749 223.927 10.0695 219.608 10.0695C215.289 10.0695 211.788 13.5749 211.788 17.899C211.788 22.2231 215.289 25.7285 219.608 25.7285ZM219.608 26.6496C224.435 26.6496 228.348 22.7318 228.348 17.899C228.348 13.0662 224.435 9.14844 219.608 9.14844C214.781 9.14844 210.868 13.0662 210.868 17.899C210.868 22.7318 214.781 26.6496 219.608 26.6496Z" fill="#597DFF"/>
<path fill-rule="evenodd" clip-rule="evenodd" d="M232.028 35.8612C235.077 35.8612 237.548 33.3868 237.548 30.3345C237.548 27.2822 235.077 24.8078 232.028 24.8078C228.979 24.8078 226.508 27.2822 226.508 30.3345C226.508 33.3868 228.979 35.8612 232.028 35.8612ZM232.028 36.7823C235.585 36.7823 238.468 33.8955 238.468 30.3345C238.468 26.7735 235.585 23.8867 232.028 23.8867C228.471 23.8867 225.588 26.7735 225.588 30.3345C225.588 33.8955 228.471 36.7823 232.028 36.7823Z" fill="#597DFF"/>
<path fill-rule="evenodd" clip-rule="evenodd" d="M279.868 129.814C288.506 129.814 295.508 122.803 295.508 114.155C295.508 105.507 288.506 98.4963 279.868 98.4963C271.23 98.4963 264.228 105.507 264.228 114.155C264.228 122.803 271.23 129.814 279.868 129.814ZM279.868 130.735C289.014 130.735 296.428 123.312 296.428 114.155C296.428 104.998 289.014 97.5752 279.868 97.5752C270.722 97.5752 263.308 104.998 263.308 114.155C263.308 123.312 270.722 130.735 279.868 130.735Z" fill="#597DFF"/>
<path fill-rule="evenodd" clip-rule="evenodd" d="M170.388 342.591C175.469 342.591 179.588 338.467 179.588 333.38C179.588 328.293 175.469 324.169 170.388 324.169C165.307 324.169 161.188 328.293 161.188 333.38C161.188 338.467 165.307 342.591 170.388 342.591ZM170.388 343.513C175.977 343.513 180.508 338.976 180.508 333.38C180.508 327.784 175.977 323.248 170.388 323.248C164.799 323.248 160.268 327.784 160.268 333.38C160.268 338.976 164.799 343.513 170.388 343.513Z" fill="#597DFF"/>
<path fill-rule="evenodd" clip-rule="evenodd" d="M130.604 365.987C131.298 364.289 131.748 361.88 131.748 359.171C131.748 356.463 131.298 354.053 130.604 352.355C130.256 351.504 129.865 350.876 129.478 350.476C129.094 350.078 128.773 349.96 128.528 349.96C128.283 349.96 127.962 350.078 127.578 350.476C127.191 350.876 126.8 351.504 126.452 352.355C125.758 354.053 125.308 356.463 125.308 359.171C125.308 361.88 125.758 364.289 126.452 365.987C126.8 366.838 127.191 367.466 127.578 367.867C127.962 368.265 128.283 368.382 128.528 368.382C128.773 368.382 129.094 368.265 129.478 367.867C129.865 367.466 130.256 366.838 130.604 365.987ZM128.528 369.304C130.814 369.304 132.668 364.767 132.668 359.171C132.668 353.575 130.814 349.039 128.528 349.039C126.241 349.039 124.388 353.575 124.388 359.171C124.388 364.767 126.241 369.304 128.528 369.304Z" fill="#597DFF"/>
<path fill-rule="evenodd" clip-rule="evenodd" d="M134.547 264.298C135.079 262.928 135.428 260.974 135.428 258.77C135.428 256.565 135.079 254.611 134.547 253.241C134.28 252.554 133.985 252.06 133.704 251.754C133.424 251.449 133.228 251.401 133.128 251.401C133.028 251.401 132.832 251.449 132.552 251.754C132.271 252.06 131.975 252.554 131.708 253.241C131.177 254.611 130.828 256.565 130.828 258.77C130.828 260.974 131.177 262.928 131.708 264.298C131.975 264.985 132.271 265.479 132.552 265.785C132.832 266.09 133.028 266.138 133.128 266.138C133.228 266.138 133.424 266.09 133.704 265.785C133.985 265.479 134.28 264.985 134.547 264.298ZM133.128 267.06C134.906 267.06 136.348 263.348 136.348 258.77C136.348 254.191 134.906 250.479 133.128 250.479C131.349 250.479 129.908 254.191 129.908 258.77C129.908 263.348 131.349 267.06 133.128 267.06Z" fill="#597DFF"/>
<path fill-rule="evenodd" clip-rule="evenodd" d="M180.508 352.723C183.048 352.723 185.108 350.661 185.108 348.117C185.108 345.574 183.048 343.512 180.508 343.512C177.967 343.512 175.908 345.574 175.908 348.117C175.908 350.661 177.967 352.723 180.508 352.723ZM180.508 353.644C183.556 353.644 186.028 351.17 186.028 348.117C186.028 345.065 183.556 342.591 180.508 342.591C177.459 342.591 174.988 345.065 174.988 348.117C174.988 351.17 177.459 353.644 180.508 353.644Z" fill="#597DFF"/>
<path fill-rule="evenodd" clip-rule="evenodd" d="M227.428 382.199C229.968 382.199 232.028 380.137 232.028 377.593C232.028 375.049 229.968 372.988 227.428 372.988C224.887 372.988 222.828 375.049 222.828 377.593C222.828 380.137 224.887 382.199 227.428 382.199ZM227.428 383.12C230.476 383.12 232.948 380.645 232.948 377.593C232.948 374.541 230.476 372.066 227.428 372.066C224.379 372.066 221.908 374.541 221.908 377.593C221.908 380.645 224.379 383.12 227.428 383.12Z" fill="#597DFF"/>
<path fill-rule="evenodd" clip-rule="evenodd" d="M218.688 206.267C223.515 206.267 227.428 202.349 227.428 197.516C227.428 192.684 223.515 188.766 218.688 188.766C213.861 188.766 209.948 192.684 209.948 197.516C209.948 202.349 213.861 206.267 218.688 206.267ZM218.688 207.188C224.023 207.188 228.348 202.858 228.348 197.516C228.348 192.175 224.023 187.845 218.688 187.845C213.353 187.845 209.028 192.175 209.028 197.516C209.028 202.858 213.353 207.188 218.688 207.188Z" fill="#597DFF"/>
<path fill-rule="evenodd" clip-rule="evenodd" d="M234.328 198.898C237.122 198.898 239.388 196.63 239.388 193.832C239.388 191.034 237.122 188.766 234.328 188.766C231.533 188.766 229.268 191.034 229.268 193.832C229.268 196.63 231.533 198.898 234.328 198.898ZM234.328 199.819C237.631 199.819 240.308 197.139 240.308 193.832C240.308 190.525 237.631 187.845 234.328 187.845C231.025 187.845 228.348 190.525 228.348 193.832C228.348 197.139 231.025 199.819 234.328 199.819Z" fill="#597DFF"/>
<path fill-rule="evenodd" clip-rule="evenodd" d="M177.288 273.507C180.082 273.507 182.348 271.239 182.348 268.441C182.348 265.643 180.082 263.375 177.288 263.375C174.493 263.375 172.228 265.643 172.228 268.441C172.228 271.239 174.493 273.507 177.288 273.507ZM177.288 274.429C180.591 274.429 183.268 271.748 183.268 268.441C183.268 265.135 180.591 262.454 177.288 262.454C173.985 262.454 171.308 265.135 171.308 268.441C171.308 271.748 173.985 274.429 177.288 274.429Z" fill="#597DFF"/>
<path fill-rule="evenodd" clip-rule="evenodd" d="M228.348 271.666C229.872 271.666 231.108 270.428 231.108 268.902C231.108 267.376 229.872 266.139 228.348 266.139C226.824 266.139 225.588 267.376 225.588 268.902C225.588 270.428 226.824 271.666 228.348 271.666ZM228.348 272.587C230.38 272.587 232.028 270.937 232.028 268.902C232.028 266.867 230.38 265.218 228.348 265.218C226.315 265.218 224.668 266.867 224.668 268.902C224.668 270.937 226.315 272.587 228.348 272.587Z" fill="#597DFF"/>
<path fill-rule="evenodd" clip-rule="evenodd" d="M221.908 265.218C223.94 265.218 225.588 263.568 225.588 261.533C225.588 259.498 223.94 257.849 221.908 257.849C219.875 257.849 218.228 259.498 218.228 261.533C218.228 263.568 219.875 265.218 221.908 265.218ZM221.908 266.139C224.448 266.139 226.508 264.077 226.508 261.533C226.508 258.99 224.448 256.928 221.908 256.928C219.367 256.928 217.308 258.99 217.308 261.533C217.308 264.077 219.367 266.139 221.908 266.139Z" fill="#597DFF"/>
<path fill-rule="evenodd" clip-rule="evenodd" d="M258.3 226.79C259.167 226.583 260.126 226.031 260.949 225.164C261.772 224.298 262.274 223.311 262.438 222.434C262.602 221.551 262.418 220.843 261.97 220.417L262.604 219.749C263.353 220.461 263.542 221.531 263.342 222.602C263.142 223.679 262.544 224.822 261.616 225.799C260.688 226.776 259.578 227.431 258.514 227.686C257.455 227.939 256.379 227.804 255.631 227.092L256.265 226.424C256.712 226.85 257.428 226.999 258.3 226.79Z" fill="#597DFF"/>
<path fill-rule="evenodd" clip-rule="evenodd" d="M49.2688 87.4714C48.5922 88.0523 47.9906 88.9815 47.6536 90.1289C47.3166 91.2762 47.3201 92.3836 47.575 93.2387C47.8314 94.0989 48.318 94.645 48.9106 94.8194L48.651 95.7031C47.6606 95.4115 47.0047 94.5465 46.6934 93.5021C46.3806 92.4527 46.3912 91.1619 46.771 89.869C47.1507 88.5761 47.8396 87.485 48.67 86.7721C49.4964 86.0627 50.5156 85.6908 51.506 85.9824L51.2464 86.8661C50.6539 86.6917 49.9495 86.887 49.2688 87.4714Z" fill="#597DFF"/>
<path fill-rule="evenodd" clip-rule="evenodd" d="M167.293 120.049C167.887 119.424 168.417 118.454 168.715 117.283C169.012 116.113 169.01 115.007 168.788 114.173C168.561 113.324 168.141 112.86 167.686 112.744L167.913 111.851C168.836 112.086 169.41 112.94 169.676 113.936C169.947 114.948 169.935 116.216 169.606 117.51C169.277 118.805 168.681 119.924 167.96 120.684C167.251 121.431 166.339 121.905 165.416 121.67L165.643 120.777C166.098 120.893 166.688 120.687 167.293 120.049Z" fill="#597DFF"/>
<path fill-rule="evenodd" clip-rule="evenodd" d="M88.9679 101.26C92.2705 101.26 94.9479 98.5793 94.9479 95.2726C94.9479 91.9659 92.2705 89.2854 88.9679 89.2854C85.6652 89.2854 82.9879 91.9659 82.9879 95.2726C82.9879 98.5793 85.6652 101.26 88.9679 101.26ZM88.9679 102.181C92.7786 102.181 95.8679 99.088 95.8679 95.2726C95.8679 91.4572 92.7786 88.3643 88.9679 88.3643C85.1571 88.3643 82.0679 91.4572 82.0679 95.2726C82.0679 99.088 85.1571 102.181 88.9679 102.181Z" fill="#597DFF"/>
<path fill-rule="evenodd" clip-rule="evenodd" d="M280.6 126.063C285.681 126.063 289.8 121.939 289.8 116.852C289.8 111.765 285.681 107.641 280.6 107.641C275.519 107.641 271.4 111.765 271.4 116.852C271.4 121.939 275.519 126.063 280.6 126.063ZM280.6 126.984C286.189 126.984 290.72 122.448 290.72 116.852C290.72 111.256 286.189 106.72 280.6 106.72C275.011 106.72 270.48 111.256 270.48 116.852C270.48 122.448 275.011 126.984 280.6 126.984Z" fill="#597DFF"/>
<path fill-rule="evenodd" clip-rule="evenodd" d="M117.028 104.023C119.06 104.023 120.708 102.374 120.708 100.339C120.708 98.3041 119.06 96.6545 117.028 96.6545C114.995 96.6545 113.348 98.3041 113.348 100.339C113.348 102.374 114.995 104.023 117.028 104.023ZM117.028 104.945C119.568 104.945 121.628 102.883 121.628 100.339C121.628 97.7954 119.568 95.7334 117.028 95.7334C114.487 95.7334 112.428 97.7954 112.428 100.339C112.428 102.883 114.487 104.945 117.028 104.945Z" fill="#597DFF"/>
<path fill-rule="evenodd" clip-rule="evenodd" d="M164.227 334.358C165.507 335.098 167.517 334.537 168.612 332.638C169.707 330.739 169.187 328.716 167.907 327.976C166.626 327.236 164.616 327.796 163.521 329.695C162.426 331.594 162.946 333.617 164.227 334.358ZM163.767 335.155C165.613 336.222 168.139 335.302 169.409 333.099C170.679 330.896 170.213 328.245 168.367 327.178C166.521 326.111 163.994 327.032 162.724 329.235C161.454 331.437 161.921 334.088 163.767 335.155Z" fill="#597DFF"/>
<path fill-rule="evenodd" clip-rule="evenodd" d="M184.188 76.3896C186.22 76.3896 187.868 74.74 187.868 72.7052C187.868 70.6703 186.22 69.0207 184.188 69.0207C182.155 69.0207 180.508 70.6703 180.508 72.7052C180.508 74.74 182.155 76.3896 184.188 76.3896ZM184.188 77.3107C186.728 77.3107 188.788 75.2488 188.788 72.7052C188.788 70.1616 186.728 68.0996 184.188 68.0996C181.647 68.0996 179.588 70.1616 179.588 72.7052C179.588 75.2488 181.647 77.3107 184.188 77.3107Z" fill="#597DFF"/>
<path fill-rule="evenodd" clip-rule="evenodd" d="M218.228 19.2802C220.26 19.2802 221.908 17.6307 221.908 15.5958C221.908 13.5609 220.26 11.9113 218.228 11.9113C216.195 11.9113 214.548 13.5609 214.548 15.5958C214.548 17.6307 216.195 19.2802 218.228 19.2802ZM218.228 20.2014C220.768 20.2014 222.828 18.1394 222.828 15.5958C222.828 13.0522 220.768 10.9902 218.228 10.9902C215.687 10.9902 213.628 13.0522 213.628 15.5958C213.628 18.1394 215.687 20.2014 218.228 20.2014Z" fill="#597DFF"/>
<path fill-rule="evenodd" clip-rule="evenodd" d="M234.558 34.631C235.851 33.8837 236.093 32.6874 235.75 32.0919C235.406 31.4965 234.25 31.1083 232.957 31.8557C231.665 32.603 231.422 33.7993 231.766 34.3947C232.109 34.9902 233.265 35.3783 234.558 34.631ZM235.018 35.4287C236.558 34.5385 237.242 32.8383 236.546 31.6314C235.85 30.4244 234.038 30.1677 232.497 31.058C230.957 31.9482 230.273 33.6483 230.969 34.8553C231.665 36.0622 233.478 36.319 235.018 35.4287Z" fill="#597DFF"/>
<path fill-rule="evenodd" clip-rule="evenodd" d="M88.9679 99.417C91.2543 99.417 93.1079 97.5612 93.1079 95.272C93.1079 92.9827 91.2543 91.127 88.9679 91.127C88.4797 91.127 88.0113 91.2115 87.5765 91.3669C88.1327 91.6837 88.5079 92.2826 88.5079 92.9692C88.5079 93.9866 87.6841 94.8114 86.6679 94.8114C85.9821 94.8114 85.384 94.4358 85.0675 93.8789C84.9124 94.3143 84.8279 94.7832 84.8279 95.272C84.8279 97.5612 86.6814 99.417 88.9679 99.417Z" fill="#597DFF"/>
<path d="M281.489 117.09C280.568 120.529 279.424 123.211 278.933 123.079C278.442 122.948 278.791 120.053 279.711 116.613C280.632 113.173 281.776 110.492 282.267 110.623C282.758 110.755 282.409 113.65 281.489 117.09Z" fill="#597DFF"/>
<path fill-rule="evenodd" clip-rule="evenodd" d="M216.388 204.424C218.928 204.424 220.988 202.362 220.988 199.818C220.988 197.275 218.928 195.213 216.388 195.213C215.783 195.213 215.206 195.33 214.677 195.542C215.155 195.875 215.468 196.428 215.468 197.055C215.468 198.073 214.644 198.897 213.628 198.897C213.002 198.897 212.449 198.584 212.116 198.106C211.904 198.635 211.788 199.213 211.788 199.818C211.788 202.362 213.847 204.424 216.388 204.424Z" fill="#597DFF"/>
<path fill-rule="evenodd" clip-rule="evenodd" d="M236.168 196.134C237.438 196.134 238.468 195.103 238.468 193.831C238.468 192.559 237.438 191.528 236.168 191.528C235.866 191.528 235.577 191.587 235.313 191.693C235.551 191.859 235.708 192.136 235.708 192.449C235.708 192.958 235.296 193.371 234.788 193.371C234.475 193.371 234.198 193.214 234.032 192.975C233.926 193.24 233.868 193.529 233.868 193.831C233.868 195.103 234.898 196.134 236.168 196.134Z" fill="#597DFF"/>
<path fill-rule="evenodd" clip-rule="evenodd" d="M228.348 270.744C229.364 270.744 230.188 269.919 230.188 268.902C230.188 267.884 229.364 267.06 228.348 267.06C228.159 267.06 227.977 267.088 227.806 267.141C228.125 267.285 228.348 267.607 228.348 267.981C228.348 268.489 227.936 268.902 227.428 268.902C227.055 268.902 226.733 268.679 226.589 268.359C226.536 268.531 226.508 268.713 226.508 268.902C226.508 269.919 227.332 270.744 228.348 270.744Z" fill="#597DFF"/>
<path fill-rule="evenodd" clip-rule="evenodd" d="M220.988 262.454C222.004 262.454 222.828 261.629 222.828 260.612C222.828 259.594 222.004 258.77 220.988 258.77C220.799 258.77 220.617 258.798 220.446 258.851C220.765 258.995 220.988 259.317 220.988 259.691C220.988 260.199 220.576 260.612 220.068 260.612C219.695 260.612 219.373 260.389 219.229 260.069C219.176 260.241 219.148 260.423 219.148 260.612C219.148 261.629 219.972 262.454 220.988 262.454Z" fill="#597DFF"/>
<path fill-rule="evenodd" clip-rule="evenodd" d="M177.288 270.744C178.558 270.744 179.588 269.713 179.588 268.441C179.588 267.17 178.558 266.139 177.288 266.139C177.109 266.139 176.935 266.159 176.768 266.198C177.335 266.369 177.748 266.897 177.748 267.52C177.748 268.283 177.13 268.902 176.368 268.902C175.745 268.902 175.218 268.489 175.047 267.921C175.008 268.088 174.988 268.263 174.988 268.441C174.988 269.713 176.018 270.744 177.288 270.744Z" fill="#597DFF"/>
<path fill-rule="evenodd" clip-rule="evenodd" d="M227.888 381.278C229.158 381.278 230.188 380.453 230.188 379.436C230.188 378.419 229.158 377.594 227.888 377.594C227.573 377.594 227.273 377.644 227 377.736C227.257 377.899 227.428 378.187 227.428 378.515C227.428 379.024 227.016 379.436 226.508 379.436C226.144 379.436 225.829 379.224 225.68 378.918C225.62 379.082 225.588 379.256 225.588 379.436C225.588 380.453 226.618 381.278 227.888 381.278Z" fill="#597DFF"/>
<path d="M182.73 347.431C183.059 348.66 183.142 349.705 182.917 349.765C182.692 349.825 182.243 348.879 181.914 347.65C181.585 346.422 181.501 345.377 181.726 345.316C181.952 345.256 182.401 346.203 182.73 347.431Z" fill="#597DFF"/>
<path fill-rule="evenodd" clip-rule="evenodd" d="M113.348 80.9954C114.872 80.9954 116.108 79.7582 116.108 78.2321C116.108 76.7059 114.872 75.4688 113.348 75.4688C113.065 75.4688 112.792 75.5114 112.535 75.5905C113.014 75.8071 113.348 76.2898 113.348 76.8504C113.348 77.6135 112.73 78.2321 111.968 78.2321C111.408 78.2321 110.926 77.8982 110.709 77.4184C110.63 77.6756 110.588 77.9489 110.588 78.2321C110.588 79.7582 111.824 80.9954 113.348 80.9954Z" fill="#597DFF"/>
<path fill-rule="evenodd" clip-rule="evenodd" d="M117.948 104.023C119.472 104.023 120.708 102.786 120.708 101.259C120.708 99.7333 119.472 98.4961 117.948 98.4961C117.665 98.4961 117.392 98.5387 117.135 98.6178C117.614 98.8345 117.948 99.3171 117.948 99.8778C117.948 100.641 117.33 101.259 116.568 101.259C116.008 101.259 115.526 100.926 115.309 100.446C115.23 100.703 115.188 100.976 115.188 101.259C115.188 102.786 116.424 104.023 117.948 104.023Z" fill="#597DFF"/>
<path fill-rule="evenodd" clip-rule="evenodd" d="M164.469 329.219C164.909 329.473 165.513 329.25 165.819 328.721C166.007 328.395 166.037 328.028 165.93 327.735C166.222 327.757 166.506 327.841 166.768 327.992C167.867 328.627 168.14 330.214 167.377 331.536C166.615 332.857 165.107 333.414 164.008 332.778C162.909 332.143 162.635 330.557 163.398 329.235C163.579 328.921 163.802 328.65 164.052 328.428C164.052 328.76 164.198 329.062 164.469 329.219Z" fill="#597DFF"/>
<path fill-rule="evenodd" clip-rule="evenodd" d="M184.188 75.4681C185.712 75.4681 186.948 74.2309 186.948 72.7047C186.948 71.1786 185.712 69.9414 184.188 69.9414C183.905 69.9414 183.632 69.984 183.375 70.0632C183.854 70.2798 184.188 70.7624 184.188 71.3231C184.188 72.0861 183.57 72.7047 182.808 72.7047C182.248 72.7047 181.766 72.3708 181.549 71.891C181.47 72.1483 181.428 72.4215 181.428 72.7047C181.428 74.2309 182.664 75.4681 184.188 75.4681Z" fill="#597DFF"/>
<path fill-rule="evenodd" clip-rule="evenodd" d="M217.564 14.0112C218.103 13.4716 218.083 12.5768 217.52 12.0126C217.439 11.9317 217.351 11.862 217.259 11.8035C217.882 11.7549 218.477 11.9383 218.906 12.3675C219.789 13.2513 219.63 14.8425 218.553 15.9216C217.475 17.0008 215.885 17.1592 215.003 16.2755C214.185 15.4569 214.261 14.0314 215.133 12.968C215.143 13.3264 215.289 13.687 215.568 13.9665C216.132 14.5307 217.025 14.5507 217.564 14.0112Z" fill="#597DFF"/>
<path fill-rule="evenodd" clip-rule="evenodd" d="M174.146 67.3946C173.018 69.7212 172.916 72.5935 173.602 76.7757L172.694 76.9249C172 72.6885 172.063 69.581 173.318 66.9924C174.573 64.4041 176.977 62.4211 180.745 60.3281L181.191 61.1336C177.47 63.2003 175.274 65.0677 174.146 67.3946Z" fill="#597DFF"/>
<path fill-rule="evenodd" clip-rule="evenodd" d="M216.475 30.4977C214.636 29.9926 212.985 29.0259 211.041 27.4695L211.615 26.75C213.507 28.2642 215.046 29.1499 216.718 29.6094C218.395 30.07 220.247 30.1135 222.785 29.8751L222.871 30.7922C220.289 31.0347 218.309 31.0015 216.475 30.4977Z" fill="#597DFF"/>
<path fill-rule="evenodd" clip-rule="evenodd" d="M233.864 21.9235C232.817 21.7333 231.729 21.7887 230.265 22.0372L230.111 21.129C231.623 20.8724 232.831 20.7997 234.028 21.0172C235.226 21.2346 236.375 21.7355 237.782 22.5683L237.314 23.3612C235.954 22.5563 234.911 22.1137 233.864 21.9235Z" fill="#597DFF"/>
<path fill-rule="evenodd" clip-rule="evenodd" d="M280.52 136.319C271.024 136.732 261.29 130.115 258.717 117.471L259.619 117.287C262.106 129.512 271.461 135.791 280.48 135.398C289.472 135.007 298.287 127.968 299.65 113.191L300.566 113.276C299.168 128.435 290.044 135.904 280.52 136.319Z" fill="#597DFF"/>
<path fill-rule="evenodd" clip-rule="evenodd" d="M182.904 263.697C182.051 262.664 180.827 261.881 178.939 261.033L179.316 260.192C181.247 261.06 182.625 261.913 183.613 263.111C184.604 264.311 185.164 265.811 185.56 267.896L184.656 268.067C184.274 266.054 183.754 264.727 182.904 263.697Z" fill="#597DFF"/>
<path fill-rule="evenodd" clip-rule="evenodd" d="M222.625 371.67C221.781 372.448 221.147 373.467 220.491 375.01L219.645 374.649C220.325 373.048 221.022 371.895 222.003 370.992C222.982 370.091 224.209 369.47 225.893 368.869L226.202 369.737C224.566 370.321 223.472 370.891 222.625 371.67Z" fill="#597DFF"/>
<path fill-rule="evenodd" clip-rule="evenodd" d="M116 382.575C50.0478 385.712 3.55591 393.276 3.55591 402.108V411.477C3.55591 423.12 84.3435 432.558 184 432.558C283.656 432.558 364.444 423.12 364.444 411.477V402.108C364.444 392.792 312.723 384.888 241 382.101V383.273C267.86 384.317 291.902 386.08 311.457 388.365C327.763 390.27 340.907 392.533 349.952 395.031C354.483 396.283 357.919 397.576 360.197 398.876C361.336 399.527 362.13 400.148 362.628 400.721C363.119 401.286 363.272 401.742 363.272 402.108L363.272 402.117C363.27 402.481 363.115 402.935 362.628 403.495C362.13 404.068 361.336 404.689 360.197 405.339C357.919 406.64 354.483 407.933 349.952 409.185C340.907 411.683 327.763 413.946 311.457 415.851C278.861 419.659 233.797 422.017 184 422.017C134.202 422.017 89.1389 419.659 56.5428 415.851C40.2368 413.946 27.0933 411.683 18.0482 409.185C13.5165 407.933 10.081 406.64 7.80304 405.339C6.66379 404.689 5.86968 404.068 5.37201 403.495C4.88097 402.93 4.72762 402.473 4.72762 402.108C4.72762 401.742 4.88097 401.286 5.37201 400.721C5.86968 400.148 6.66379 399.527 7.80304 398.876C10.081 397.576 13.5165 396.283 18.0482 395.031C27.0933 392.533 40.2368 390.27 56.5428 388.365C73.388 386.397 93.5629 384.816 116 383.748V382.575ZM116 386.37C53.1271 389.024 9 395.247 9 402.5C9 412.165 87.3502 420 184 420C280.65 420 359 412.165 359 402.5C359 394.831 309.665 388.314 241 385.949V386.923C266.356 387.796 289.065 389.237 307.612 391.092C323.426 392.673 336.173 394.552 344.945 396.626C349.34 397.665 352.672 398.738 354.881 399.818C355.986 400.358 356.756 400.873 357.239 401.349C357.715 401.818 357.864 402.197 357.864 402.5C357.864 402.566 357.857 402.634 357.841 402.707C350.035 396.706 303.534 391.748 241 389.841V390.703C266.356 391.477 289.065 392.753 307.612 394.395C323.426 395.796 336.173 397.46 344.945 399.297C349.34 400.217 352.672 401.168 354.881 402.124C355.986 402.602 356.756 403.059 357.239 403.48C357.255 403.494 357.271 403.508 357.286 403.522C357.3 403.535 357.314 403.548 357.328 403.561C357.3 403.591 357.27 403.621 357.239 403.652C356.756 404.127 355.986 404.643 354.881 405.183C352.672 406.263 349.34 407.336 344.945 408.375C336.173 410.449 323.426 412.328 307.612 413.909C275.999 417.07 232.295 419.028 184 419.028C135.705 419.028 92.001 417.07 60.3882 413.909C44.5742 412.328 31.8273 410.449 23.055 408.375C18.6601 407.336 15.3283 406.263 13.119 405.183C12.0141 404.643 11.244 404.127 10.7613 403.652C10.7301 403.621 10.7003 403.591 10.6718 403.561C10.7003 403.534 10.73 403.507 10.7612 403.48C11.2439 403.059 12.014 402.602 13.1189 402.124C15.3282 401.168 18.66 400.217 23.0549 399.297C31.8272 397.46 44.5741 395.796 60.3881 394.395C76.2101 392.994 95.0608 391.86 116 391.076V390.214C59.0637 392.342 17.5003 397.063 10.1588 402.707C10.1432 402.634 10.1364 402.566 10.1364 402.5C10.1364 402.197 10.2851 401.818 10.7613 401.349C11.244 400.873 12.0141 400.358 13.119 399.818C15.3283 398.738 18.6601 397.665 23.055 396.626C31.8273 394.552 44.5742 392.673 60.3882 391.092C76.2102 389.509 95.0608 388.229 116 387.344V386.37ZM363.272 404.523C353.014 415.028 276.664 423.189 184 423.189C91.3356 423.189 14.9853 415.028 4.72762 404.523L4.72763 409.062V411.477C4.72763 411.843 4.88098 412.3 5.37202 412.864C5.86969 413.437 6.6638 414.058 7.80305 414.709C10.0811 416.009 13.5165 417.302 18.0482 418.554C27.0933 421.052 40.2368 423.315 56.5428 425.22C89.1389 429.028 134.202 431.387 184 431.387C233.797 431.387 278.861 429.028 311.457 425.22C327.763 423.315 340.907 421.052 349.952 418.554C354.483 417.302 357.919 416.009 360.197 414.709C361.336 414.058 362.13 413.437 362.628 412.864C363.119 412.3 363.272 411.843 363.272 411.477L363.272 411.464V409.062L363.272 404.523Z" fill="white"/>
</svg>
