<svg width="468" height="688" viewBox="0 0 468 688" fill="none" xmlns="http://www.w3.org/2000/svg">
<path fill-rule="evenodd" clip-rule="evenodd" d="M409.993 200.411V200.357C409.993 195.878 406.833 165.253 385.252 135.288C363.724 105.398 323.781 76.0413 249.973 74.0819C173.345 72.0477 131.109 107.029 109.781 143.583C99.0996 161.89 93.6548 180.61 91.7848 195.308C90.8495 202.66 90.8133 208.968 91.4452 213.693C91.7614 216.057 92.2401 217.987 92.8348 219.44C93.4389 220.916 94.1114 221.775 94.732 222.172C95.13 222.427 95.8873 222.773 97.0403 223.195C98.1705 223.608 99.6101 224.069 101.322 224.568C104.744 225.567 109.206 226.706 114.361 227.913C124.668 230.326 137.698 232.997 150.614 235.338C163.533 237.68 176.317 239.687 186.137 240.775C191.051 241.319 195.193 241.63 198.228 241.642C199.749 241.648 200.951 241.579 201.816 241.439C202.249 241.369 202.563 241.287 202.774 241.205C202.919 241.149 202.979 241.108 202.993 241.099C204.996 238.675 205.683 236.301 206.583 231.811C206.716 231.144 206.854 230.435 207.001 229.677C207.848 225.312 209.011 219.323 211.512 210.559C214.217 201.08 218.535 192.333 225.664 185.683C232.809 179.019 242.684 174.548 256.335 173.469C267.727 172.569 278.964 176.168 287.575 182.536C296.184 188.902 302.249 198.1 303.135 208.442C304.028 218.877 302.24 227.127 298.716 234.409C295.207 241.66 289.998 247.903 284.151 254.343C281.257 257.53 275.971 262.721 269.485 269.09L269.114 269.454C262.444 276.004 254.516 283.796 246.535 292.006C230.529 308.471 214.457 326.471 207.835 339.441C201.208 352.423 197.728 368.202 195.91 382.103C194.095 395.988 193.949 407.916 193.949 413.154C193.949 414.964 194.195 416.168 194.565 416.981C194.919 417.76 195.407 418.227 196.022 418.548C196.677 418.89 197.516 419.089 198.598 419.229C199.224 419.311 199.829 419.364 200.482 419.421C201.025 419.469 201.602 419.52 202.253 419.592C202.827 419.656 204.633 419.686 207.475 419.678C210.276 419.67 214 419.626 218.336 419.558C227.008 419.421 238.117 419.183 249.174 418.928C259.801 418.682 270.391 418.419 278.717 418.212C287.699 417.989 294.046 417.831 294.964 417.831C296.433 417.831 297.461 417.35 298.187 416.68C298.932 415.991 299.42 415.042 299.67 414.04C299.796 413.536 300.005 412.058 300.312 409.791L300.408 409.08C300.694 406.974 301.047 404.366 301.473 401.509C302.422 395.148 303.744 387.492 305.515 381.28C308.093 371.284 316.688 361.252 327.653 350.383C331.656 346.415 335.979 342.332 340.482 338.078C348.439 330.563 356.961 322.514 365.275 313.629C391.233 285.893 414.624 250.549 409.998 200.465L409.993 200.411ZM306.642 381.586C304.106 390.475 302.487 402.43 301.566 409.238C301.214 411.832 300.964 413.678 300.803 414.324C300.219 416.662 298.468 419 294.964 419C294.058 419 287.762 419.157 278.834 419.379C253.241 420.015 206.02 421.188 202.124 420.754C201.542 420.689 200.973 420.639 200.424 420.59C196.013 420.199 192.782 419.912 192.782 413.154C192.782 402.631 193.366 365.217 206.795 338.909C216.924 319.068 248.642 287.92 268.632 268.29C275.147 261.892 280.416 256.718 283.286 253.557C294.964 240.695 303.723 229.003 301.971 208.542C300.27 188.665 278.615 172.881 256.427 174.635C229.568 176.758 217.973 192.173 212.634 210.88C210.148 219.593 208.995 225.535 208.148 229.898C207.006 235.781 206.421 238.795 203.876 241.865C199.443 247.211 102.314 228.419 94.1025 223.157C79.5048 213.803 95.8542 68.8209 250.004 72.9131C398.315 76.8504 411.161 191.004 411.161 200.357C417.326 267.098 374.162 307.871 341.237 338.973C324.268 355.003 310.018 368.463 306.642 381.586Z" fill="white"/>
<path fill-rule="evenodd" clip-rule="evenodd" d="M172.809 251.206L58.9651 230.748L59.1715 229.597L173.049 250.061L173.067 250.065L173.078 250.068L173.114 250.077L173.258 250.111C173.384 250.14 173.572 250.184 173.813 250.238C174.295 250.347 174.993 250.5 175.852 250.676C177.572 251.027 179.936 251.47 182.518 251.834C185.101 252.198 187.891 252.482 190.463 252.52C193.049 252.558 195.361 252.346 197.018 251.752C200.275 250.584 202.237 247.296 203.389 244.141C203.958 242.582 204.314 241.096 204.527 239.998C204.633 239.45 204.704 239 204.748 238.689C204.77 238.534 204.785 238.413 204.795 238.332C204.799 238.292 204.803 238.261 204.805 238.241L204.807 238.219L204.808 238.214C204.808 238.214 204.808 238.214 205.389 238.272C205.97 238.33 205.97 238.33 205.97 238.33L205.97 238.333L205.969 238.341L205.966 238.368C205.963 238.392 205.959 238.426 205.954 238.471C205.944 238.56 205.927 238.689 205.904 238.853C205.858 239.181 205.784 239.651 205.673 240.221C205.452 241.36 205.082 242.909 204.486 244.543C203.306 247.773 201.182 251.501 197.411 252.853C195.554 253.518 193.073 253.728 190.446 253.689C187.807 253.65 184.965 253.359 182.355 252.991C179.743 252.623 177.354 252.176 175.618 251.821C174.75 251.644 174.045 251.489 173.556 251.379C173.311 251.323 173.121 251.279 172.991 251.249C172.926 251.234 172.877 251.222 172.843 251.214L172.809 251.206Z" fill="white"/>
<path fill-rule="evenodd" clip-rule="evenodd" d="M199.251 577.427C193.669 577.873 190.553 577.744 185.095 576.836L185.287 575.683C190.649 576.574 193.669 576.7 199.158 576.261L199.251 577.427Z" fill="white"/>
<path fill-rule="evenodd" clip-rule="evenodd" d="M205.095 459.921C196.932 460.636 192.454 460.696 185.085 459.328L185.297 458.179C192.526 459.52 196.891 459.466 204.993 458.756L205.095 459.921Z" fill="white"/>
<path fill-rule="evenodd" clip-rule="evenodd" d="M283.702 455.603C276.197 454.363 266.608 453.201 258.199 453.492C256.163 453.562 253.317 453.657 249.868 453.773C238.972 454.14 222.058 454.708 205.649 455.318C184.027 456.123 163.333 456.999 158.4 457.58L158.263 456.419C163.257 455.831 184.019 454.953 205.606 454.15C222.017 453.539 238.935 452.971 249.83 452.605C253.278 452.489 256.124 452.393 258.158 452.323C266.683 452.029 276.362 453.205 283.892 454.45C287.661 455.073 290.9 455.714 293.196 456.199C294.345 456.442 295.258 456.646 295.885 456.789C296.198 456.861 296.44 456.918 296.603 456.956C296.685 456.976 296.748 456.99 296.79 457.001L296.837 457.012L296.853 457.016C296.853 457.016 296.854 457.016 296.716 457.584C296.578 458.152 296.578 458.152 296.578 458.152L296.563 458.149L296.517 458.138C296.477 458.128 296.416 458.113 296.335 458.094C296.174 458.056 295.935 458 295.625 457.929C295.004 457.787 294.097 457.585 292.955 457.343C290.672 456.86 287.451 456.223 283.702 455.603Z" fill="white"/>
<path fill-rule="evenodd" clip-rule="evenodd" d="M201.511 420.753L189.833 420.169L189.891 419.001L201.569 419.586L201.511 420.753Z" fill="white"/>
<path fill-rule="evenodd" clip-rule="evenodd" d="M102.186 226.073C93.4437 224.699 88.819 224.292 82.0306 226.633L81.6504 225.527C88.7225 223.089 93.5871 223.538 102.368 224.918L102.186 226.073Z" fill="white"/>
<path fill-rule="evenodd" clip-rule="evenodd" d="M196.26 242.526C194.482 242.272 192.332 242.069 189.815 241.863L189.91 240.697C192.429 240.904 194.61 241.109 196.425 241.369C198.234 241.627 199.717 241.944 200.826 242.385C201.925 242.823 202.771 243.429 203.116 244.34C203.461 245.255 203.23 246.287 202.64 247.4L201.608 246.852C202.137 245.854 202.193 245.203 202.023 244.754C201.852 244.302 201.382 243.865 200.395 243.472C199.418 243.083 198.045 242.781 196.26 242.526Z" fill="white"/>
<path fill-rule="evenodd" clip-rule="evenodd" d="M234.128 181.055C234.128 181.055 234.128 181.055 234.239 180.481C234.349 179.907 234.349 179.907 234.35 179.907L234.352 179.908L234.356 179.908L234.372 179.912L234.43 179.924C234.48 179.934 234.552 179.95 234.645 179.972C234.831 180.016 235.101 180.084 235.443 180.181C236.127 180.376 237.101 180.689 238.271 181.163C240.61 182.112 243.74 183.711 246.917 186.313C253.286 191.531 259.789 200.746 260.514 216.7C260.808 223.185 260.514 228.996 256.73 236.573C252.965 244.113 245.757 253.374 232.316 266.832C229.383 269.768 225.51 273.41 221.112 277.547C220.025 278.569 218.905 279.621 217.761 280.701C211.977 286.153 205.525 292.303 199.183 298.762C186.482 311.698 174.29 325.809 168.79 337.981L168.785 337.992L168.78 338.002C162.982 349.613 155.996 370.569 155.996 400.878C155.996 403.516 155.996 406.264 156.212 408.569C156.32 409.722 156.48 410.742 156.713 411.571C156.949 412.412 157.243 412.992 157.577 413.326C158.367 414.117 159.296 414.661 160.91 415.153C162.546 415.652 164.844 416.085 168.354 416.67C175.343 417.837 188.155 419.001 190.446 419.001C191.222 419.001 191.814 418.316 192.245 417.309C192.447 416.838 192.583 416.361 192.67 415.997C192.713 415.816 192.743 415.667 192.762 415.563C192.771 415.512 192.778 415.472 192.782 415.446L192.787 415.417L192.787 415.411C192.787 415.411 192.787 415.41 193.366 415.493C193.65 415.534 193.794 415.554 193.868 415.565C193.944 415.576 193.944 415.576 193.944 415.576L193.943 415.581L193.941 415.593L193.935 415.632C193.929 415.666 193.921 415.714 193.91 415.775C193.888 415.895 193.854 416.065 193.806 416.268C193.71 416.672 193.555 417.218 193.318 417.77C192.874 418.808 192.006 420.17 190.446 420.17C188.066 420.17 175.186 418.996 168.162 417.824C164.665 417.24 162.291 416.796 160.57 416.272C158.827 415.74 157.712 415.115 156.751 414.153C156.208 413.609 155.845 412.801 155.589 411.888C155.329 410.963 155.161 409.865 155.05 408.679C154.828 406.313 154.828 403.514 154.828 400.896V400.878C154.828 370.396 161.852 349.264 167.73 337.489C173.327 325.11 185.655 310.872 198.35 297.943C204.708 291.467 211.174 285.304 216.96 279.85C218.109 278.766 219.231 277.711 220.32 276.687C224.717 272.552 228.572 268.927 231.49 266.005C244.908 252.571 252.006 243.417 255.686 236.05C259.347 228.718 259.636 223.13 259.347 216.753C258.638 201.139 252.296 192.231 246.177 187.218C243.11 184.705 240.086 183.161 237.832 182.247C236.705 181.79 235.772 181.49 235.124 181.306C234.8 181.214 234.547 181.15 234.378 181.11C234.293 181.09 234.228 181.076 234.186 181.067L234.14 181.058L234.13 181.055L234.128 181.055Z" fill="white"/>
<path fill-rule="evenodd" clip-rule="evenodd" d="M63.659 229.614C63.908 229.423 64.2547 229.24 64.6681 229.055L65.1457 230.122C64.8294 230.264 64.6094 230.38 64.464 230.476C64.612 230.566 64.8303 230.674 65.1351 230.804L64.6788 231.88C64.2955 231.717 63.9602 231.554 63.7114 231.379C63.4913 231.225 63.1775 230.952 63.1553 230.528C63.1324 230.088 63.4345 229.787 63.659 229.614ZM64.2862 230.618C64.2859 230.618 64.2873 230.616 64.291 230.612C64.2882 230.616 64.2864 230.618 64.2862 230.618Z" fill="white"/>
<path fill-rule="evenodd" clip-rule="evenodd" d="M107.047 114.293C78.3369 138.861 63.1396 174.502 56.7278 220.898L56.7277 220.899C56.1943 224.755 56.191 226.54 57.2098 228.081C57.6203 228.627 57.9689 228.964 58.3031 229.175C58.6297 229.381 58.9719 229.485 59.4021 229.516C59.8478 229.548 60.3802 229.501 61.0858 229.401C61.4161 229.355 61.7752 229.298 62.1746 229.235L62.2465 229.223C62.6731 229.156 63.1421 229.082 63.6575 229.009C66.9319 228.54 74.7456 226.936 79.1987 226.022C80.2743 225.802 81.1538 225.621 81.7259 225.507C83.5039 225.151 84.9228 223.685 86.0602 221.36C87.1921 219.045 87.9836 215.999 88.5643 212.722C89.1437 209.451 89.5069 205.989 89.7986 202.859C89.8602 202.197 89.9188 201.549 89.9756 200.921C90.1862 198.589 90.373 196.521 90.6058 195.007L91.76 195.185C91.5334 196.659 91.3511 198.675 91.141 201C91.0837 201.635 91.0243 202.292 90.9614 202.967C90.6692 206.103 90.3025 209.605 89.7141 212.926C89.127 216.24 88.3128 219.413 87.109 221.874C85.9109 224.324 84.2643 226.191 81.955 226.653C81.3957 226.765 80.5301 226.943 79.4676 227.161C75.0241 228.073 67.1381 229.692 63.8227 230.166C63.3164 230.239 62.8548 230.311 62.4284 230.378L62.3456 230.392C61.9525 230.454 61.5869 230.511 61.2489 230.559C60.5311 230.66 59.8954 230.723 59.319 230.682C58.7271 230.64 58.1932 230.488 57.6803 230.164C57.1776 229.847 56.7263 229.384 56.2655 228.769L56.2558 228.756L56.2468 228.742C54.9397 226.779 55.0441 224.547 55.571 220.738C62.005 174.182 77.2821 138.226 106.288 113.404C135.287 88.5883 177.917 74.9791 238.891 72.9131L238.93 74.0816C178.091 76.1431 135.764 89.7181 107.047 114.293Z" fill="white"/>
<path fill-rule="evenodd" clip-rule="evenodd" d="M232.851 457.583C251.424 456.901 274.35 456.316 293.798 456.415C293.799 456.415 293.799 456.415 293.8 456.415L293.797 457V456.415C293.797 456.415 293.798 456.415 293.798 456.415C296.029 456.416 298.21 457.526 299.819 459.061C301.423 460.59 302.554 462.632 302.555 464.598C302.555 464.597 302.555 464.596 301.971 464.6L301.387 464.603L301.387 464.6C301.387 463.058 300.475 461.301 299.014 459.908C297.559 458.52 295.652 457.585 293.797 457.585L293.794 457.585C274.369 457.485 251.46 458.069 232.894 458.752C214.304 459.435 200.124 460.215 198.119 460.502C197.17 460.638 196.458 460.918 195.908 461.303C195.359 461.687 194.943 462.197 194.613 462.836C193.938 464.147 193.653 465.94 193.361 468.183C193.294 468.697 193.23 470.667 193.175 473.795C193.121 476.899 193.075 481.095 193.039 486.017C192.966 495.86 192.93 508.6 192.929 521.292C192.929 533.985 192.965 546.629 193.038 556.282C193.074 561.109 193.12 565.186 193.174 568.147C193.201 569.628 193.231 570.828 193.263 571.701C193.279 572.138 193.295 572.49 193.312 572.754C193.329 573.031 193.345 573.176 193.354 573.222C193.58 574.35 193.88 575.002 194.303 575.421C194.714 575.829 195.316 576.091 196.325 576.259C196.307 576.259 196.288 576.26 196.27 576.26L196.285 576.844L196.377 576.267C196.36 576.264 196.342 576.261 196.325 576.259C216.095 575.744 240.436 574.285 260.209 572.88C270.104 572.177 278.853 571.488 285.309 570.938C288.538 570.663 291.192 570.423 293.129 570.234C295.086 570.043 296.273 569.906 296.602 569.841C297.972 569.566 299.028 569.027 299.807 568.247C300.586 567.467 301.125 566.409 301.399 565.038C301.408 564.993 301.423 564.849 301.44 564.572C301.455 564.309 301.47 563.958 301.484 563.523C301.512 562.652 301.535 561.458 301.555 559.985C301.595 557.038 301.62 552.988 301.634 548.206C301.661 538.644 301.643 526.168 301.606 513.782C301.57 501.396 301.515 489.101 301.47 479.903C301.447 475.304 301.426 471.479 301.411 468.804C301.404 467.466 301.398 466.416 301.394 465.7L301.387 464.603C301.387 464.603 301.387 464.603 301.971 464.6H302.555L302.562 465.694C302.566 466.409 302.572 467.46 302.579 468.797C302.594 471.473 302.615 475.298 302.637 479.897C302.683 489.096 302.738 501.391 302.774 513.778C302.811 526.165 302.829 538.644 302.802 548.21C302.788 552.992 302.763 557.048 302.723 560C302.703 561.476 302.679 562.679 302.651 563.56C302.637 564 302.622 564.363 302.606 564.641C302.59 564.905 302.571 565.129 302.544 565.267C302.234 566.818 301.605 568.1 300.632 569.073C299.66 570.047 298.38 570.677 296.831 570.987C296.429 571.067 295.167 571.21 293.243 571.398C291.299 571.588 288.639 571.828 285.408 572.103C278.946 572.654 270.192 573.343 260.292 574.046C240.494 575.453 216.106 576.915 196.3 577.429L196.246 577.43L196.193 577.422C195.054 577.239 194.153 576.918 193.481 576.252C192.813 575.589 192.451 574.662 192.209 573.452C192.182 573.315 192.163 573.092 192.146 572.827C192.128 572.549 192.112 572.185 192.096 571.743C192.064 570.86 192.034 569.652 192.007 568.169C191.952 565.201 191.906 561.119 191.87 556.291C191.797 546.634 191.761 533.986 191.762 521.292C191.762 508.598 191.798 495.856 191.871 486.009C191.908 481.085 191.953 476.884 192.008 473.775C192.062 470.689 192.125 468.629 192.203 468.032C192.49 465.832 192.789 463.825 193.575 462.3C193.976 461.523 194.509 460.856 195.238 460.345C195.966 459.835 196.861 459.501 197.954 459.344C200.037 459.046 214.3 458.265 232.851 457.583ZM302.555 464.6C302.555 464.599 302.555 464.598 302.555 464.598V464.6Z" fill="white"/>
<path fill-rule="evenodd" clip-rule="evenodd" d="M173.342 456.928C179.535 457.439 185.861 458.173 188.252 458.771C190.936 459.443 191.995 461.805 192.408 464.214C192.73 466.098 192.687 468.179 192.653 469.806C192.643 470.257 192.634 470.672 192.634 471.039C192.634 471.04 192.634 471.041 192.634 471.041L192.641 472.135C192.645 472.851 192.651 473.901 192.658 475.239C192.673 477.914 192.694 481.739 192.716 486.338C192.762 495.537 192.817 507.833 192.853 520.219C192.89 532.606 192.908 545.085 192.881 554.651C192.867 559.433 192.842 563.489 192.802 566.442C192.782 567.917 192.758 569.12 192.73 570.001C192.716 570.441 192.701 570.804 192.685 571.082C192.669 571.346 192.65 571.571 192.623 571.708C192.33 573.175 191.904 574.653 190.849 575.664C189.761 576.706 188.132 577.144 185.702 576.839C185.367 576.798 185.026 576.756 184.674 576.712C180.111 576.151 173.783 575.373 155.875 571.57L155.842 571.563L155.811 571.553C153.77 570.871 152.897 569.084 152.482 567.293C152.273 566.393 152.171 565.454 152.101 564.592C152.075 564.285 152.055 563.992 152.035 563.713C151.998 563.191 151.964 562.719 151.913 562.3C151.889 562.1 151.868 561.556 151.847 560.76C151.826 559.947 151.804 558.833 151.783 557.461C151.74 554.717 151.697 550.937 151.658 546.463C151.579 537.516 151.512 525.789 151.48 514.013C151.449 502.236 151.453 490.409 151.517 481.261C151.549 476.688 151.595 472.782 151.66 469.886C151.692 468.438 151.729 467.24 151.77 466.336C151.811 465.451 151.858 464.802 151.919 464.488C152.336 462.348 152.941 460.487 154.015 459.08C155.11 457.647 156.653 456.733 158.833 456.421C159.916 456.266 162.013 456.27 164.567 456.37C167.142 456.471 170.234 456.672 173.342 456.928ZM192.05 471.041L191.467 471.045L191.467 471.041C191.467 470.631 191.476 470.183 191.485 469.71C191.519 468.091 191.558 466.172 191.257 464.411C190.867 462.138 189.956 460.403 187.969 459.905C185.688 459.334 179.461 458.606 173.246 458.094C170.149 457.838 167.075 457.638 164.522 457.538C161.949 457.437 159.958 457.441 158.998 457.578C157.09 457.851 155.833 458.625 154.943 459.79C154.033 460.982 153.471 462.629 153.066 464.711C153.024 464.924 152.979 465.48 152.937 466.39C152.896 467.28 152.859 468.468 152.827 469.912C152.763 472.799 152.716 476.698 152.685 481.27C152.621 490.412 152.617 502.235 152.648 514.01C152.679 525.784 152.746 537.508 152.826 546.453C152.865 550.926 152.908 554.702 152.951 557.443C152.972 558.813 152.993 559.923 153.014 560.73C153.036 561.556 153.056 562.029 153.072 562.158C153.127 562.606 153.164 563.129 153.203 563.672C153.222 563.944 153.242 564.221 153.265 564.497C153.334 565.343 153.43 566.213 153.619 567.029C153.998 568.663 154.708 569.938 156.15 570.433C173.988 574.221 180.284 574.995 184.818 575.552C185.17 575.595 185.512 575.637 185.847 575.679C188.088 575.96 189.305 575.525 190.041 574.819C190.811 574.082 191.187 572.934 191.478 571.479C191.487 571.434 191.502 571.291 191.519 571.013C191.534 570.75 191.549 570.399 191.563 569.964C191.591 569.094 191.614 567.899 191.634 566.426C191.674 563.48 191.699 559.429 191.713 554.647C191.74 545.085 191.722 532.609 191.686 520.223C191.649 507.837 191.594 495.542 191.549 486.344C191.526 481.745 191.505 477.92 191.49 475.245C191.483 473.908 191.477 472.857 191.473 472.142L191.467 471.045C191.467 471.044 191.467 471.045 192.05 471.041Z" fill="white"/>
<path fill-rule="evenodd" clip-rule="evenodd" d="M87.2154 143.296C105.158 119.774 117.8 110.072 142.87 96.3691L143.524 97.3317C121.746 115.473 107.866 131.426 98.6589 150.136C89.4484 168.854 84.8907 190.379 81.8373 219.71L81.7922 220.144L62.6793 223.732L62.4641 222.583L80.7211 219.155C83.7793 189.996 88.3555 168.429 97.6113 149.62C106.256 132.051 118.964 116.929 138.245 100.275C116.793 112.405 104.844 122.187 88.4574 143.595C93.0086 148.242 93.159 155.622 90.4812 162.071C87.7666 168.609 82.0678 174.408 74.6858 175.738C69.229 191.2 66.7854 200.052 65.5494 215.424L76.6569 213.306L82.1484 178.668C81.3399 179.434 80.5775 180.044 79.7636 180.508C78.6233 181.156 77.4124 181.499 75.8796 181.621C75.5578 182.894 75.2442 184.112 74.941 185.291C72.645 194.211 70.9399 200.835 70.7462 211.476L69.5786 211.455C69.7749 200.67 71.5133 193.918 73.8114 184.993C74.1471 183.689 74.4948 182.339 74.8514 180.923L74.9568 180.504L75.3876 180.482C76.9925 180.399 78.1348 180.09 79.1866 179.491C80.2556 178.883 81.2673 177.957 82.5853 176.57L83.8791 175.209L77.6816 214.301L64.2666 216.859L64.3251 216.097C65.5605 200.005 68.0517 191 73.6993 175.025L73.815 174.697L74.1575 174.642C81.2063 173.513 86.7585 167.991 89.4029 161.622C92.0539 155.238 91.7029 148.229 87.2801 144.077L86.8951 143.716L87.2154 143.296Z" fill="white"/>
<path fill-rule="evenodd" clip-rule="evenodd" d="M78.5112 231.315L78.3371 230.757C78.1629 230.199 78.163 230.199 78.1631 230.199L78.1704 230.197L78.1913 230.19L78.2717 230.165C78.342 230.144 78.4452 230.112 78.5776 230.073C78.8422 229.993 79.2235 229.881 79.6919 229.747C80.6281 229.481 81.9141 229.131 83.3116 228.8C84.7077 228.469 86.2233 228.154 87.6168 227.958C88.995 227.765 90.3102 227.68 91.2789 227.842C93.0331 228.135 118.29 232.52 143.104 236.831C155.512 238.987 167.81 241.124 177.007 242.723L192.297 245.381C192.297 245.381 192.298 245.381 192.198 245.957L192.297 245.381L192.362 246.518C185.12 248.646 181.151 249.234 174.597 248.289L174.587 248.288L90.4952 233.086L90.7027 231.936L174.774 247.134C180.333 247.934 183.935 247.606 189.567 246.093L176.807 243.875C167.611 242.276 155.312 240.139 142.904 237.983C118.086 233.671 92.836 229.287 91.0869 228.995C90.3039 228.865 89.1375 228.926 87.7787 229.116C86.4351 229.305 84.9583 229.611 83.5808 229.938C82.2048 230.264 80.9362 230.609 80.0112 230.872C79.549 231.003 79.1731 231.115 78.9131 231.193C78.7832 231.232 78.6822 231.262 78.614 231.283L78.5367 231.307L78.5173 231.313L78.5112 231.315Z" fill="white"/>
<path fill-rule="evenodd" clip-rule="evenodd" d="M73.6685 206.732C74.5135 197.934 75.4751 193.188 77.7749 184.999L78.8991 185.316C76.6162 193.444 75.6686 198.121 74.831 206.844L73.6685 206.732Z" fill="white"/>
<path fill-rule="evenodd" clip-rule="evenodd" d="M94.7833 141.928C95.2559 142.816 95.6188 143.608 95.8844 144.527C96.1803 145.55 96.3482 146.704 96.4371 148.294L95.2711 148.36C95.1849 146.817 95.025 145.759 94.7627 144.852C94.501 143.947 94.1301 143.166 93.59 142.177L93.4206 141.866L93.6165 141.572C99.6427 132.521 104.056 128.046 112.393 120.419L113.224 121.238C106.157 129.217 102.407 133.685 98.1269 142.16L97.0847 141.633C99.6351 136.583 102.007 132.927 104.96 129.155C101.324 132.923 98.3334 136.624 94.7833 141.928Z" fill="white"/>
<path fill-rule="evenodd" clip-rule="evenodd" d="M254.482 177.115L256.552 177.572C272.52 181.092 283.318 186.649 289.576 193.882C295.859 201.145 297.5 210.021 295.316 219.994C293.136 229.942 287.15 241.001 278.157 252.735C269.159 264.474 257.124 276.924 242.801 289.655L241.642 290.686L243.021 279.635L243.117 279.509C247.259 274.079 249.385 270.403 249.87 267.544C250.108 266.142 249.949 264.943 249.432 263.819C248.91 262.681 248.006 261.586 246.697 260.425L246.285 260.059L246.626 259.626C257.392 245.933 264.906 230.844 265.844 216.98C266.312 210.057 265.141 203.447 261.925 197.456C258.709 191.465 253.43 186.058 245.626 181.573L246.207 180.559C254.169 185.135 259.619 190.69 262.954 196.902C266.288 203.115 267.489 209.95 267.009 217.059C266.059 231.108 258.539 246.249 247.879 259.921C249.05 261.017 249.939 262.125 250.493 263.33C251.115 264.684 251.296 266.123 251.022 267.74C250.487 270.893 248.212 274.743 244.141 280.093L243.185 287.746C256.962 275.408 268.534 263.369 277.23 252.023C286.174 240.353 292.048 229.453 294.175 219.744C296.297 210.059 294.69 201.58 288.693 194.648C282.933 187.989 273.062 182.688 258.339 179.181C267.129 187.949 272.206 197.757 272.557 209.841C272.924 222.492 268.107 237.553 257.13 256.433C257.765 257.279 258.205 258.103 258.456 258.972C258.739 259.953 258.772 260.954 258.615 262.059C258.402 263.554 257.83 265.29 257.022 267.479C273.198 247.95 282.504 234.474 285.422 222.941C286.938 216.947 286.725 211.481 284.837 205.95C283.022 200.633 279.649 195.23 274.721 189.23L273.41 192.729C279.508 205.446 280.622 215.192 278.223 224.838C275.824 234.488 269.916 243.989 262.175 256.209L261.189 255.582C268.958 243.318 274.746 233.985 277.09 224.556C279.422 215.179 278.355 205.656 272.25 193.012L272.142 192.787L274.333 186.937L274.975 187.706C280.298 194.07 283.984 199.835 285.942 205.572C287.906 211.325 288.123 217.023 286.554 223.228C283.43 235.578 273.217 249.947 255.707 270.886L254.713 270.304C254.843 269.959 254.969 269.625 255.091 269.301C256.351 265.966 257.199 263.719 257.459 261.894C257.598 260.914 257.562 260.085 257.334 259.297C257.106 258.507 256.674 257.721 255.972 256.846L255.72 256.532L255.923 256.185C266.993 237.225 271.75 222.285 271.39 209.875C271.03 197.497 265.577 187.551 256.027 178.569L254.482 177.115Z" fill="white"/>
<path fill-rule="evenodd" clip-rule="evenodd" d="M179.032 331.494C188.356 315.87 202.006 301.09 223.35 282.926L224.107 283.817C202.807 301.943 189.265 316.627 180.035 332.093C171.033 347.176 166.11 363.04 162.123 383.641C164.865 381.469 167.292 379.79 169.382 378.919C170.587 378.417 171.727 378.163 172.779 378.272C173.852 378.383 174.786 378.867 175.56 379.746C176.321 380.61 176.917 381.841 177.374 383.442C177.833 385.047 178.163 387.06 178.372 389.522C178.78 394.331 178.727 400.916 178.22 409.646H185.187C185.05 383.387 189.461 363.952 197.682 346.751C205.595 330.193 217.027 315.736 231.25 299.283C230.51 299.604 229.819 299.847 229.171 300.007C227.783 300.348 226.552 300.312 225.461 299.788C224.377 299.268 223.518 298.308 222.787 296.973C222.164 295.834 221.614 294.388 221.094 292.634C205.956 306.765 195.905 316.5 188.445 327.47C181.046 338.348 176.178 350.467 171.475 369.345C173.739 368.202 175.614 367.693 177.289 368.187C178.931 368.67 180.225 370.067 181.479 372.315C181.501 372.221 181.523 372.128 181.545 372.036C185.043 357.111 187.595 346.221 192.307 336.252C197.219 325.862 204.462 316.501 217.495 304.57L218.283 305.433C205.32 317.3 198.189 326.543 193.363 336.753C188.705 346.606 186.179 357.383 182.665 372.374C182.53 372.95 182.394 373.531 182.256 374.119L181.88 375.721L181.162 374.241C179.674 371.172 178.397 369.732 176.96 369.309C175.515 368.883 173.685 369.416 170.878 370.988L169.707 371.644L170.026 370.338C174.845 350.66 179.807 338.093 187.479 326.812C195.14 315.548 205.485 305.595 220.995 291.128L221.699 290.471L221.956 291.4C222.546 293.544 223.146 295.196 223.811 296.411C224.476 297.625 225.182 298.358 225.966 298.734C226.741 299.106 227.678 299.17 228.893 298.871C230.117 298.57 231.581 297.912 233.366 296.894L234.095 297.786C218.961 315.185 206.935 330.098 198.735 347.256C190.542 364.399 186.153 383.815 186.359 410.226L186.363 410.816H176.98L177.017 410.196C177.558 401.175 177.618 394.458 177.208 389.62C177.003 387.202 176.682 385.27 176.251 383.764C175.82 382.253 175.288 381.204 174.684 380.519C174.094 379.85 173.426 379.515 172.659 379.435C171.873 379.354 170.937 379.538 169.83 379.999C167.605 380.926 164.879 382.888 161.62 385.546L160.38 386.557L160.677 384.984C164.73 363.555 169.705 347.122 179.032 331.494Z" fill="white"/>
<path fill-rule="evenodd" clip-rule="evenodd" d="M164.218 464.013C162.097 464.248 160.97 464.78 160.275 465.629C159.551 466.512 159.2 467.843 158.911 469.934C157.156 485.322 157.487 493.488 158.772 506.929C160.13 505.249 161.396 504.004 162.854 503.127C164.642 502.053 166.666 501.565 169.397 501.43L169.753 501.413L169.931 501.722C173.855 508.517 175.858 517.723 175.262 524.282C175.194 525.033 175.136 525.777 175.077 526.516C174.642 532.056 174.228 537.328 169.898 543.281L169.706 543.545L169.381 543.52L169.426 542.937C169.381 543.52 169.381 543.52 169.381 543.52L169.38 543.52L169.372 543.519L169.352 543.517C169.336 543.516 169.312 543.514 169.281 543.51C169.22 543.504 169.131 543.495 169.017 543.48C168.79 543.452 168.464 543.404 168.06 543.329C167.252 543.178 166.127 542.915 164.852 542.465C162.547 541.65 159.725 540.213 157.411 537.692C157.393 537.797 157.376 537.911 157.359 538.034C157.253 538.802 157.162 539.853 157.09 541.107C156.945 543.613 156.872 546.889 156.872 550.244C156.872 553.599 156.945 557.023 157.09 559.824C157.163 561.224 157.253 562.464 157.361 563.458C157.471 564.469 157.594 565.179 157.718 565.552C157.743 565.628 157.83 565.771 158.06 565.97C158.282 566.162 158.598 566.373 159.009 566.596C159.83 567.042 160.966 567.502 162.327 567.949C165.046 568.841 168.59 569.657 172.142 570.201C175.698 570.746 179.226 571.013 181.921 570.826C183.272 570.732 184.374 570.525 185.155 570.207C185.947 569.884 186.288 569.5 186.373 569.117C186.435 568.839 186.501 568.227 186.566 567.28C186.629 566.349 186.689 565.131 186.745 563.667C186.856 560.739 186.952 556.841 187.034 552.307C187.198 543.24 187.308 531.642 187.381 520.206C187.454 508.771 187.49 497.5 187.508 489.088C187.518 484.882 187.522 481.39 187.524 478.95C187.526 477.73 187.526 476.773 187.526 476.121L187.527 475.123C187.527 475.123 187.527 475.122 188.111 475.122L187.527 475.123V475.112L187.527 475.101C187.653 471.694 187.648 469.336 187.34 467.733C187.187 466.94 186.967 466.375 186.684 465.972C186.417 465.593 186.077 465.333 185.622 465.165C177.291 463.611 172.61 463.564 164.218 464.013ZM188.694 475.133C188.819 471.754 188.824 469.266 188.486 467.512C188.316 466.627 188.051 465.886 187.638 465.299C187.217 464.7 186.662 464.292 185.969 464.048L185.926 464.033L185.882 464.025C177.398 462.438 172.616 462.393 164.139 462.846L164.123 462.847L164.107 462.849C161.854 463.096 160.354 463.689 159.372 464.888C158.417 466.054 158.041 467.696 157.753 469.781L157.751 469.795C155.921 485.843 156.346 494.12 157.75 508.502L157.896 509.993L158.798 508.797C160.495 506.546 161.876 505.079 163.455 504.13C164.949 503.232 166.669 502.771 169.098 502.618C172.792 509.188 174.663 517.973 174.099 524.176C174.03 524.942 173.97 525.693 173.911 526.435C173.479 531.881 173.093 536.76 169.151 542.319C168.944 542.292 168.646 542.249 168.273 542.179C167.513 542.038 166.448 541.789 165.241 541.362C162.822 540.508 159.865 538.951 157.62 536.141L157.212 535.631L156.751 536.093C156.636 536.208 156.565 536.349 156.52 536.455C156.471 536.571 156.43 536.703 156.394 536.841C156.321 537.118 156.258 537.469 156.202 537.874C156.09 538.686 155.997 539.773 155.924 541.039C155.777 543.576 155.704 546.876 155.704 550.244C155.704 553.613 155.777 557.058 155.924 559.884C155.997 561.297 156.089 562.56 156.2 563.584C156.31 564.593 156.442 565.417 156.61 565.921C156.73 566.284 156.995 566.593 157.296 566.854C157.604 567.121 157.999 567.378 158.452 567.624C159.36 568.117 160.57 568.602 161.963 569.06C164.755 569.976 168.364 570.805 171.965 571.357C175.562 571.908 179.186 572.188 182.002 571.992C183.406 571.894 184.649 571.676 185.596 571.289C186.534 570.906 187.306 570.304 187.513 569.371C187.597 568.992 187.667 568.292 187.731 567.36C187.796 566.412 187.856 565.181 187.912 563.711C188.024 560.772 188.12 556.865 188.202 552.328C188.366 543.254 188.475 531.651 188.548 520.214C188.621 508.776 188.658 497.504 188.676 489.09C188.685 484.884 188.69 481.392 188.692 478.951C188.693 477.731 188.694 476.774 188.694 476.122L188.694 475.133Z" fill="white"/>
<path fill-rule="evenodd" clip-rule="evenodd" d="M173.56 468.106C170.318 467.962 166.914 468.401 164.984 469.229C164.632 469.38 164.283 469.712 163.956 470.29C163.629 470.866 163.35 471.643 163.121 472.604C162.662 474.525 162.425 477.081 162.339 479.996C162.167 485.821 162.603 492.955 163.001 499.053L161.836 499.129C161.438 493.041 160.998 485.852 161.172 479.962C161.258 477.02 161.499 474.37 161.985 472.332C162.228 471.313 162.539 470.42 162.94 469.713C163.34 469.008 163.854 468.442 164.524 468.154C166.682 467.229 170.284 466.79 173.612 466.938C175.284 467.013 176.92 467.237 178.301 467.637C179.662 468.032 180.862 468.623 181.559 469.496C181.781 469.773 181.95 470.201 182.093 470.673C182.242 471.167 182.385 471.788 182.522 472.51C182.797 473.957 183.056 475.856 183.299 478.054C183.784 482.453 184.204 488.092 184.533 493.796C184.862 499.502 185.099 505.281 185.218 509.965C185.336 514.627 185.339 518.253 185.187 519.617C185.029 521.044 184.507 522.12 183.776 522.874C183.047 523.624 182.14 524.024 181.259 524.15C180.385 524.275 179.508 524.135 178.828 523.766C178.145 523.397 177.6 522.753 177.6 521.891C177.6 520.75 177.31 515.218 176.8 509.594C176.545 506.786 176.236 503.968 175.883 501.674C175.706 500.527 175.52 499.519 175.325 498.713C175.127 497.889 174.933 497.336 174.764 497.054C174.582 496.751 174.413 496.599 174.274 496.522C174.141 496.449 173.996 496.422 173.816 496.439C173.409 496.479 172.917 496.733 172.276 497.111C172.207 497.151 172.136 497.194 172.063 497.237C171.52 497.56 170.894 497.932 170.269 498.132C169.523 498.37 168.689 498.392 167.907 497.805C167.663 497.622 167.479 497.358 167.335 497.081C167.188 496.798 167.063 496.461 166.955 496.089C166.738 495.345 166.571 494.402 166.446 493.341C166.196 491.215 166.104 488.538 166.141 485.856C166.178 483.173 166.343 480.466 166.611 478.276C166.744 477.182 166.905 476.206 167.091 475.422C167.27 474.667 167.492 474.001 167.791 473.602C168.794 472.263 170.625 471.43 172.542 471.847C174.48 472.269 176.354 473.927 177.565 477.261C178.818 480.711 177.708 483.828 176.345 486.027C175.661 487.129 174.904 488.019 174.319 488.634C174.025 488.942 173.774 489.182 173.594 489.346C173.504 489.428 173.432 489.491 173.382 489.535C173.357 489.557 173.337 489.574 173.323 489.585L173.306 489.599L173.301 489.603L173.3 489.605C173.3 489.605 173.299 489.605 172.929 489.153C172.559 488.7 172.559 488.701 172.559 488.701L172.561 488.699L172.572 488.69C172.582 488.681 172.598 488.668 172.619 488.649C172.662 488.613 172.725 488.557 172.807 488.483C172.969 488.334 173.201 488.113 173.474 487.827C174.02 487.254 174.722 486.427 175.352 485.41C176.617 483.371 177.55 480.641 176.468 477.661C175.343 474.563 173.713 473.299 172.294 472.99C170.854 472.676 169.473 473.305 168.725 474.304C168.586 474.489 168.406 474.938 168.227 475.692C168.055 476.418 167.901 477.347 167.77 478.418C167.508 480.557 167.345 483.221 167.309 485.872C167.272 488.525 167.364 491.147 167.606 493.204C167.727 494.235 167.884 495.105 168.076 495.761C168.171 496.089 168.271 496.349 168.372 496.542C168.475 496.741 168.56 496.834 168.608 496.87C168.994 497.16 169.401 497.182 169.914 497.018C170.403 496.862 170.904 496.565 171.466 496.232C171.538 496.189 171.61 496.146 171.684 496.103C172.283 495.75 172.996 495.345 173.702 495.276C174.078 495.239 174.467 495.294 174.838 495.499C175.204 495.701 175.509 496.024 175.765 496.452C176.034 496.9 176.26 497.608 176.46 498.439C176.665 499.289 176.858 500.332 177.037 501.496C177.395 503.824 177.707 506.67 177.963 509.488C178.474 515.118 178.768 520.694 178.768 521.891C178.768 522.198 178.952 522.504 179.383 522.738C179.816 522.972 180.435 523.087 181.094 522.993C181.746 522.9 182.408 522.606 182.938 522.059C183.466 521.515 183.893 520.692 184.027 519.488C184.167 518.221 184.169 514.686 184.051 509.994C183.932 505.324 183.695 499.558 183.367 493.863C183.039 488.168 182.62 482.553 182.138 478.183C181.897 475.996 181.641 474.132 181.375 472.729C181.242 472.026 181.108 471.45 180.975 471.012C180.836 470.552 180.718 470.314 180.648 470.226C180.177 469.637 179.261 469.133 177.976 468.76C176.71 468.393 175.171 468.178 173.56 468.106Z" fill="white"/>
<path fill-rule="evenodd" clip-rule="evenodd" d="M182.624 528.952C183.097 529.679 183.554 530.764 183.999 532.246C184.462 533.793 184.68 536.312 184.717 539.221C184.753 542.149 184.606 545.53 184.313 548.835C184.02 552.138 183.579 555.378 183.025 558.019C182.749 559.34 182.442 560.521 182.107 561.491C181.777 562.446 181.403 563.25 180.968 563.773C180.116 564.797 178.76 565.385 177.25 565.689C175.729 565.995 173.973 566.03 172.223 565.881C168.744 565.584 165.13 564.547 163.263 563.3C162.187 562.582 161.563 561.102 161.176 559.498C160.78 557.855 160.595 555.911 160.522 554.068C160.448 552.22 160.485 550.449 160.54 549.142C160.568 548.488 160.6 547.949 160.625 547.572C160.638 547.384 160.649 547.236 160.657 547.136L160.666 547.02L160.668 546.99L160.669 546.98C160.669 546.979 160.669 546.979 161.251 547.029L161.833 547.08L161.832 547.088L161.83 547.116L161.821 547.226C161.813 547.323 161.803 547.467 161.79 547.651C161.766 548.019 161.734 548.549 161.707 549.192C161.652 550.479 161.616 552.215 161.689 554.021C161.761 555.832 161.941 557.688 162.311 559.224C162.691 560.799 163.235 561.876 163.911 562.327C165.547 563.419 168.939 564.428 172.322 564.716C174.002 564.859 175.64 564.821 177.02 564.543C178.411 564.262 179.464 563.754 180.071 563.024C180.366 562.669 180.685 562.03 181.003 561.109C181.317 560.201 181.612 559.072 181.883 557.779C182.424 555.196 182.859 552.005 183.15 548.731C183.44 545.459 183.585 542.118 183.549 539.236C183.512 536.335 183.293 533.959 182.88 532.582C182.448 531.142 182.03 530.18 181.646 529.591C181.247 528.979 180.98 528.907 180.885 528.907C180.782 528.907 180.551 528.989 180.224 529.46C179.914 529.905 179.606 530.576 179.322 531.43C179.046 532.259 178.761 533.711 178.43 535.516C178.373 535.824 178.316 536.142 178.257 536.466C177.974 538.023 177.66 539.75 177.295 541.452C176.856 543.507 176.337 545.551 175.701 547.236C175.078 548.887 174.296 550.327 173.253 551.023C171.344 552.298 169.564 552.307 168.262 551.981C167.752 551.853 167.318 551.675 166.979 551.506C166.945 552.042 166.946 552.759 167.081 553.502C167.349 554.979 168.119 556.476 170.151 556.985C172.374 557.541 173.848 557.253 174.743 556.869C175.194 556.675 175.511 556.452 175.709 556.284C175.808 556.2 175.877 556.13 175.92 556.084C175.941 556.061 175.955 556.045 175.963 556.036L175.968 556.028L175.967 556.03L175.966 556.031C175.966 556.031 175.965 556.032 176.433 556.383C176.9 556.734 176.899 556.734 176.899 556.735L176.897 556.737L176.894 556.741L176.886 556.752C176.879 556.76 176.871 556.77 176.861 556.783C176.84 556.807 176.812 556.84 176.777 556.878C176.705 556.956 176.601 557.06 176.463 557.176C176.187 557.411 175.773 557.699 175.203 557.943C174.054 558.437 172.316 558.732 169.868 558.119C167.229 557.459 166.247 555.449 165.932 553.711C165.775 552.846 165.776 552.028 165.814 551.431C165.833 551.131 165.862 550.883 165.887 550.709C165.899 550.622 165.91 550.552 165.919 550.504C165.923 550.479 165.926 550.46 165.929 550.447L165.932 550.43L165.933 550.425L165.933 550.424C165.933 550.423 165.934 550.422 166.506 550.537L165.934 550.422L166.122 549.48L166.869 550.079L166.87 550.08L166.872 550.081L166.888 550.094C166.905 550.106 166.932 550.125 166.968 550.15C167.042 550.201 167.154 550.273 167.301 550.355C167.595 550.519 168.022 550.716 168.545 550.847C169.579 551.105 171.011 551.115 172.605 550.051C173.314 549.577 173.991 548.46 174.609 546.823C175.214 545.22 175.718 543.244 176.153 541.207C176.514 539.525 176.824 537.818 177.107 536.263C177.166 535.936 177.224 535.616 177.281 535.305C177.607 533.529 177.906 531.985 178.214 531.06C178.514 530.16 178.864 529.369 179.265 528.792C179.65 528.239 180.185 527.737 180.885 527.737C181.593 527.737 182.165 528.249 182.624 528.952ZM175.968 556.028C175.969 556.028 175.969 556.028 175.968 556.028V556.028Z" fill="white"/>
<path fill-rule="evenodd" clip-rule="evenodd" d="M118.042 202.696C126.749 202.696 133.808 195.629 133.808 186.912C133.808 178.194 126.749 171.127 118.042 171.127C109.335 171.127 102.277 178.194 102.277 186.912C102.277 195.629 109.335 202.696 118.042 202.696ZM118.042 203.865C127.394 203.865 134.975 196.275 134.975 186.912C134.975 177.548 127.394 169.958 118.042 169.958C108.69 169.958 101.109 177.548 101.109 186.912C101.109 196.275 108.69 203.865 118.042 203.865Z" fill="#597DFF"/>
<path fill-rule="evenodd" clip-rule="evenodd" d="M142.566 176.973C146.758 176.973 150.157 173.571 150.157 169.374C150.157 165.176 146.758 161.774 142.566 161.774C138.374 161.774 134.975 165.176 134.975 169.374C134.975 173.571 138.374 176.973 142.566 176.973ZM142.566 178.143C147.403 178.143 151.325 174.217 151.325 169.374C151.325 164.531 147.403 160.604 142.566 160.604C137.729 160.604 133.808 164.531 133.808 169.374C133.808 174.217 137.729 178.143 142.566 178.143Z" fill="#597DFF"/>
<path fill-rule="evenodd" clip-rule="evenodd" d="M81.0726 163.618C82.0947 162.501 83.245 160.755 84.2438 158.642C85.2426 156.529 85.8614 154.532 86.0759 153.032C86.1842 152.275 86.1793 151.713 86.11 151.351C86.0963 151.279 86.0819 151.222 86.0685 151.179C86.0266 151.196 85.9742 151.221 85.9099 151.256C85.586 151.432 85.1487 151.785 84.6327 152.348C83.6107 153.465 82.4603 155.211 81.4615 157.324C80.4627 159.437 79.8439 161.435 79.6294 162.934C79.5212 163.691 79.526 164.253 79.5953 164.616C79.609 164.688 79.6235 164.744 79.6369 164.787C79.6787 164.77 79.7312 164.745 79.7955 164.711C80.1193 164.534 80.5566 164.182 81.0726 163.618ZM79.5026 164.825C79.5026 164.825 79.5053 164.824 79.5103 164.825C79.505 164.825 79.5025 164.825 79.5026 164.825ZM79.6879 164.909C79.6913 164.913 79.6927 164.915 79.6926 164.915C79.6925 164.915 79.6909 164.913 79.6879 164.909ZM86.2028 151.141C86.2027 151.141 86.2 151.142 86.195 151.142C86.2003 151.141 86.2028 151.141 86.2028 151.141ZM86.0174 151.057C86.0141 151.054 86.0126 151.051 86.0127 151.051C86.0128 151.051 86.0145 151.053 86.0174 151.057ZM79.1063 165.909C80.4576 166.55 83.2303 163.52 85.2994 159.142C87.3685 154.765 87.9504 150.697 86.5991 150.057C85.2478 149.416 82.475 152.446 80.4059 156.824C78.3368 161.201 77.7549 165.269 79.1063 165.909Z" fill="#597DFF"/>
<path d="M82.9406 158.066C81.6821 160.729 80.2721 162.703 79.7913 162.475C79.3106 162.247 79.941 159.904 81.1996 157.241C82.4581 154.578 83.8681 152.605 84.3489 152.832C84.8296 153.06 84.1992 155.403 82.9406 158.066Z" fill="#597DFF"/>
<path d="M62.4662 181.476C61.9045 183.297 60.9261 184.611 60.2808 184.412C59.6355 184.212 59.5677 182.574 60.1294 180.754C60.6911 178.933 61.6695 177.619 62.3148 177.818C62.9601 178.018 63.0279 179.656 62.4662 181.476Z" fill="#597DFF"/>
<path d="M331.678 353.137C330.367 354.518 328.907 355.26 328.417 354.794C327.928 354.328 328.594 352.831 329.906 351.45C331.217 350.069 332.677 349.327 333.167 349.793C333.656 350.259 332.99 351.756 331.678 353.137Z" fill="#597DFF"/>
<path d="M215.289 216.008C214.807 217.851 213.887 219.207 213.233 219.036C212.58 218.864 212.441 217.231 212.923 215.388C213.405 213.544 214.326 212.189 214.979 212.36C215.632 212.531 215.771 214.164 215.289 216.008Z" fill="#597DFF"/>
<path fill-rule="evenodd" clip-rule="evenodd" d="M168.778 400.296C169.877 400.263 170.705 398.155 170.627 395.588C170.55 393.021 169.596 390.967 168.497 391C167.999 391.015 167.317 391.456 166.727 392.172C166.787 392.152 166.844 392.141 166.896 392.139C167.439 392.123 167.91 393.136 167.948 394.403C167.986 395.67 167.578 396.71 167.035 396.726C166.582 396.74 165.778 396.036 165.502 395.067C165.481 395.277 165.472 395.491 165.479 395.709C165.557 398.275 167.678 400.329 168.778 400.296Z" fill="#597DFF"/>
<path fill-rule="evenodd" clip-rule="evenodd" d="M236.332 272.618C236.66 272.931 237.517 272.565 238.247 271.799C238.709 271.315 239.009 270.787 239.084 270.385C239.385 270.393 239.638 270.48 239.821 270.656C240.617 271.416 239.826 273.538 238.055 275.396C236.284 277.254 234.203 278.143 233.408 277.383C232.612 276.623 233.403 274.5 235.174 272.643C235.584 272.213 236.009 271.836 236.432 271.518C236.179 271.996 236.125 272.42 236.332 272.618Z" fill="#597DFF"/>
<path d="M234.534 288.418C233.572 289.426 232.399 289.867 231.913 289.403C231.427 288.938 231.813 287.745 232.774 286.736C233.736 285.728 234.909 285.287 235.395 285.751C235.881 286.215 235.495 287.409 234.534 288.418Z" fill="#597DFF"/>
<path fill-rule="evenodd" clip-rule="evenodd" d="M161.994 528.973C163.196 528.937 164.099 526.549 164.011 523.64C163.923 520.731 162.877 518.402 161.675 518.439C161.46 518.445 161.253 518.528 161.061 518.675C161.471 519.076 161.778 520.024 161.812 521.137C161.857 522.628 161.394 523.852 160.778 523.871C160.318 523.885 159.903 523.223 159.703 522.266C159.659 522.744 159.643 523.25 159.659 523.772C159.747 526.681 160.792 529.01 161.994 528.973Z" fill="#597DFF"/>
<path fill-rule="evenodd" clip-rule="evenodd" d="M232.893 281.605C234.711 280.61 236.951 278.873 239.146 276.611C241.341 274.35 243.012 272.059 243.953 270.211C244.426 269.281 244.683 268.524 244.761 267.975C244.823 267.53 244.753 267.369 244.733 267.334C244.698 267.316 244.535 267.25 244.093 267.325C243.547 267.418 242.799 267.697 241.883 268.198C240.065 269.192 237.826 270.93 235.631 273.191C233.436 275.452 231.765 277.743 230.824 279.591C230.35 280.521 230.093 281.279 230.016 281.827C229.953 282.272 230.024 282.433 230.043 282.468C230.079 282.486 230.241 282.552 230.684 282.477C231.229 282.384 231.978 282.105 232.893 281.605ZM229.228 283.308C230.661 284.702 235.477 282.069 239.983 277.426C244.49 272.783 246.981 267.889 245.548 266.495C244.115 265.1 239.3 267.733 234.793 272.376C230.287 277.019 227.795 281.913 229.228 283.308Z" fill="#597DFF"/>
<path fill-rule="evenodd" clip-rule="evenodd" d="M230.314 291.347C230.901 290.195 231.956 288.743 233.359 287.298C234.761 285.853 236.181 284.755 237.314 284.136C237.855 283.84 238.278 283.683 238.568 283.624C238.518 283.916 238.373 284.344 238.093 284.893C237.507 286.045 236.451 287.497 235.048 288.942C233.646 290.387 232.226 291.485 231.093 292.105C230.552 292.401 230.13 292.558 229.839 292.617C229.889 292.324 230.034 291.897 230.314 291.347ZM229.823 292.88C229.823 292.88 229.823 292.876 229.821 292.87C229.822 292.877 229.823 292.881 229.823 292.88ZM229.587 292.642C229.58 292.64 229.577 292.64 229.576 292.64C229.576 292.64 229.58 292.641 229.587 292.642ZM238.584 283.36C238.584 283.361 238.584 283.364 238.586 283.371C238.585 283.364 238.584 283.36 238.584 283.36ZM238.82 283.599C238.827 283.6 238.831 283.601 238.831 283.601C238.831 283.6 238.828 283.599 238.82 283.599ZM228.914 293.57C227.985 292.666 229.6 289.493 232.521 286.484C235.443 283.474 238.564 281.767 239.494 282.671C240.423 283.575 238.807 286.747 235.886 289.757C232.964 292.767 229.843 294.474 228.914 293.57Z" fill="#597DFF"/>
<path fill-rule="evenodd" clip-rule="evenodd" d="M148.405 202.696C153.887 202.696 158.331 198.247 158.331 192.758C158.331 187.269 153.887 182.82 148.405 182.82C142.923 182.82 138.479 187.269 138.479 192.758C138.479 198.247 142.923 202.696 148.405 202.696ZM148.405 203.865C154.532 203.865 159.499 198.892 159.499 192.758C159.499 186.623 154.532 181.65 148.405 181.65C142.278 181.65 137.311 186.623 137.311 192.758C137.311 198.892 142.278 203.865 148.405 203.865Z" fill="#597DFF"/>
<path fill-rule="evenodd" clip-rule="evenodd" d="M233.655 168.789C239.137 168.789 243.581 164.339 243.581 158.851C243.581 153.362 239.137 148.912 233.655 148.912C228.172 148.912 223.728 153.362 223.728 158.851C223.728 164.339 228.172 168.789 233.655 168.789ZM233.655 169.958C239.782 169.958 244.749 164.985 244.749 158.851C244.749 152.716 239.782 147.743 233.655 147.743C227.528 147.743 222.561 152.716 222.561 158.851C222.561 164.985 227.528 169.958 233.655 169.958Z" fill="#597DFF"/>
<path fill-rule="evenodd" clip-rule="evenodd" d="M279.199 99.8056C284.681 99.8056 289.125 95.3561 289.125 89.8673C289.125 84.3785 284.681 79.929 279.199 79.929C273.717 79.929 269.273 84.3785 269.273 89.8673C269.273 95.3561 273.717 99.8056 279.199 99.8056ZM279.199 100.975C285.326 100.975 290.293 96.0018 290.293 89.8673C290.293 83.7328 285.326 78.7598 279.199 78.7598C273.072 78.7598 268.105 83.7328 268.105 89.8673C268.105 96.0018 273.072 100.975 279.199 100.975Z" fill="#597DFF"/>
<path fill-rule="evenodd" clip-rule="evenodd" d="M294.964 112.667C298.834 112.667 301.971 109.526 301.971 105.651C301.971 101.777 298.834 98.636 294.964 98.636C291.094 98.636 287.957 101.777 287.957 105.651C287.957 109.526 291.094 112.667 294.964 112.667ZM294.964 113.836C299.479 113.836 303.139 110.171 303.139 105.651C303.139 101.131 299.479 97.4668 294.964 97.4668C290.45 97.4668 286.79 101.131 286.79 105.651C286.79 110.171 290.45 113.836 294.964 113.836Z" fill="#597DFF"/>
<path fill-rule="evenodd" clip-rule="evenodd" d="M355.69 231.926C366.654 231.926 375.543 223.027 375.543 212.05C375.543 201.072 366.654 192.173 355.69 192.173C344.726 192.173 335.837 201.072 335.837 212.05C335.837 223.027 344.726 231.926 355.69 231.926ZM355.69 233.096C367.299 233.096 376.71 223.673 376.71 212.05C376.71 200.426 367.299 191.004 355.69 191.004C344.081 191.004 334.669 200.426 334.669 212.05C334.669 223.673 344.081 233.096 355.69 233.096Z" fill="#597DFF"/>
<path fill-rule="evenodd" clip-rule="evenodd" d="M216.721 502.015C223.171 502.015 228.4 496.781 228.4 490.323C228.4 483.866 223.171 478.631 216.721 478.631C210.272 478.631 205.043 483.866 205.043 490.323C205.043 496.781 210.272 502.015 216.721 502.015ZM216.721 503.185C223.816 503.185 229.567 497.426 229.567 490.323C229.567 483.22 223.816 477.462 216.721 477.462C209.627 477.462 203.876 483.22 203.876 490.323C203.876 497.426 209.627 503.185 216.721 503.185Z" fill="#597DFF"/>
<path fill-rule="evenodd" clip-rule="evenodd" d="M166.222 531.712C167.102 529.557 167.674 526.499 167.674 523.061C167.674 519.622 167.102 516.564 166.222 514.409C165.78 513.328 165.284 512.531 164.793 512.023C164.305 511.518 163.897 511.368 163.586 511.368C163.276 511.368 162.868 511.518 162.38 512.023C161.889 512.531 161.393 513.328 160.951 514.409C160.071 516.564 159.499 519.622 159.499 523.061C159.499 526.499 160.071 529.557 160.951 531.712C161.393 532.793 161.889 533.59 162.38 534.098C162.868 534.603 163.276 534.753 163.586 534.753C163.897 534.753 164.305 534.603 164.793 534.098C165.284 533.59 165.78 532.793 166.222 531.712ZM163.586 535.922C166.489 535.922 168.842 530.164 168.842 523.061C168.842 515.957 166.489 510.199 163.586 510.199C160.684 510.199 158.331 515.957 158.331 523.061C158.331 530.164 160.684 535.922 163.586 535.922Z" fill="#597DFF"/>
<path fill-rule="evenodd" clip-rule="evenodd" d="M171.227 402.634C171.902 400.896 172.345 398.415 172.345 395.617C172.345 392.818 171.902 390.338 171.227 388.6C170.888 387.727 170.513 387.1 170.157 386.712C169.801 386.325 169.553 386.263 169.426 386.263C169.298 386.263 169.05 386.325 168.694 386.712C168.338 387.1 167.963 387.727 167.624 388.6C166.949 390.338 166.506 392.818 166.506 395.617C166.506 398.415 166.949 400.896 167.624 402.634C167.963 403.506 168.338 404.133 168.694 404.521C169.05 404.909 169.298 404.97 169.426 404.97C169.553 404.97 169.801 404.909 170.157 404.521C170.513 404.133 170.888 403.506 171.227 402.634ZM169.426 406.14C171.683 406.14 173.513 401.428 173.513 395.617C173.513 389.805 171.683 385.094 169.426 385.094C167.168 385.094 165.338 389.805 165.338 395.617C165.338 401.428 167.168 406.14 169.426 406.14Z" fill="#597DFF"/>
<path fill-rule="evenodd" clip-rule="evenodd" d="M229.567 514.877C232.792 514.877 235.406 512.26 235.406 509.031C235.406 505.802 232.792 503.185 229.567 503.185C226.343 503.185 223.728 505.802 223.728 509.031C223.728 512.26 226.343 514.877 229.567 514.877ZM229.567 516.046C233.437 516.046 236.574 512.905 236.574 509.031C236.574 505.156 233.437 502.016 229.567 502.016C225.698 502.016 222.561 505.156 222.561 509.031C222.561 512.905 225.698 516.046 229.567 516.046Z" fill="#597DFF"/>
<path fill-rule="evenodd" clip-rule="evenodd" d="M289.125 552.291C292.35 552.291 294.964 549.674 294.964 546.445C294.964 543.216 292.35 540.599 289.125 540.599C285.9 540.599 283.286 543.216 283.286 546.445C283.286 549.674 285.9 552.291 289.125 552.291ZM289.125 553.46C292.995 553.46 296.132 550.319 296.132 546.445C296.132 542.571 292.995 539.43 289.125 539.43C285.255 539.43 282.118 542.571 282.118 546.445C282.118 550.319 285.255 553.46 289.125 553.46Z" fill="#597DFF"/>
<path fill-rule="evenodd" clip-rule="evenodd" d="M278.031 328.971C284.158 328.971 289.125 323.998 289.125 317.864C289.125 311.729 284.158 306.756 278.031 306.756C271.904 306.756 266.937 311.729 266.937 317.864C266.937 323.998 271.904 328.971 278.031 328.971ZM278.031 330.14C284.803 330.14 290.293 324.644 290.293 317.864C290.293 311.083 284.803 305.587 278.031 305.587C271.259 305.587 265.769 311.083 265.769 317.864C265.769 324.644 271.259 330.14 278.031 330.14Z" fill="#597DFF"/>
<path fill-rule="evenodd" clip-rule="evenodd" d="M297.884 319.617C301.431 319.617 304.307 316.738 304.307 313.187C304.307 309.635 301.431 306.756 297.884 306.756C294.336 306.756 291.461 309.635 291.461 313.187C291.461 316.738 294.336 319.617 297.884 319.617ZM297.884 320.787C302.076 320.787 305.474 317.384 305.474 313.187C305.474 308.99 302.076 305.587 297.884 305.587C293.691 305.587 290.293 308.99 290.293 313.187C290.293 317.384 293.691 320.787 297.884 320.787Z" fill="#597DFF"/>
<path fill-rule="evenodd" clip-rule="evenodd" d="M225.48 414.325C229.027 414.325 231.903 411.445 231.903 407.894C231.903 404.342 229.027 401.463 225.48 401.463C221.933 401.463 219.057 404.342 219.057 407.894C219.057 411.445 221.933 414.325 225.48 414.325ZM225.48 415.494C229.672 415.494 233.071 412.091 233.071 407.894C233.071 403.697 229.672 400.294 225.48 400.294C221.288 400.294 217.889 403.697 217.889 407.894C217.889 412.091 221.288 415.494 225.48 415.494Z" fill="#597DFF"/>
<path fill-rule="evenodd" clip-rule="evenodd" d="M290.293 411.986C292.228 411.986 293.796 410.416 293.796 408.479C293.796 406.541 292.228 404.971 290.293 404.971C288.358 404.971 286.79 406.541 286.79 408.479C286.79 410.416 288.358 411.986 290.293 411.986ZM290.293 413.155C292.873 413.155 294.964 411.062 294.964 408.479C294.964 405.896 292.873 403.802 290.293 403.802C287.713 403.802 285.622 405.896 285.622 408.479C285.622 411.062 287.713 413.155 290.293 413.155Z" fill="#597DFF"/>
<path fill-rule="evenodd" clip-rule="evenodd" d="M282.118 403.801C284.698 403.801 286.79 401.707 286.79 399.124C286.79 396.541 284.698 394.448 282.118 394.448C279.539 394.448 277.447 396.541 277.447 399.124C277.447 401.707 279.539 403.801 282.118 403.801ZM282.118 404.97C285.343 404.97 287.957 402.353 287.957 399.124C287.957 395.896 285.343 393.278 282.118 393.278C278.894 393.278 276.279 395.896 276.279 399.124C276.279 402.353 278.894 404.97 282.118 404.97Z" fill="#597DFF"/>
<path fill-rule="evenodd" clip-rule="evenodd" d="M328.313 355.023C329.414 354.76 330.631 354.06 331.676 352.96C332.721 351.86 333.358 350.607 333.565 349.493C333.773 348.373 333.54 347.474 332.972 346.933L333.777 346.086C334.726 346.99 334.966 348.348 334.713 349.708C334.459 351.074 333.699 352.526 332.522 353.765C331.345 355.005 329.935 355.837 328.585 356.16C327.241 356.482 325.874 356.31 324.925 355.406L325.729 354.559C326.298 355.1 327.206 355.288 328.313 355.023Z" fill="#597DFF"/>
<path fill-rule="evenodd" clip-rule="evenodd" d="M62.9791 178.179C62.1202 178.916 61.3565 180.096 60.9288 181.552C60.5011 183.009 60.5054 184.414 60.829 185.5C61.1544 186.592 61.7722 187.285 62.5243 187.506L62.1949 188.628C60.9377 188.258 60.1051 187.16 59.7099 185.834C59.3129 184.502 59.3264 182.864 59.8084 181.222C60.2904 179.581 61.1649 178.196 62.2189 177.291C63.2679 176.391 64.5617 175.919 65.8188 176.289L65.4894 177.411C64.7372 177.189 63.8431 177.437 62.9791 178.179Z" fill="#597DFF"/>
<path fill-rule="evenodd" clip-rule="evenodd" d="M212.793 219.532C213.547 218.738 214.22 217.507 214.598 216.021C214.976 214.535 214.972 213.131 214.69 212.073C214.402 210.994 213.87 210.406 213.291 210.258L213.579 209.125C214.751 209.424 215.481 210.507 215.818 211.771C216.161 213.056 216.147 214.666 215.729 216.309C215.312 217.952 214.555 219.373 213.64 220.337C212.74 221.285 211.582 221.888 210.41 221.589L210.698 220.456C211.277 220.603 212.025 220.341 212.793 219.532Z" fill="#597DFF"/>
<path fill-rule="evenodd" clip-rule="evenodd" d="M113.371 195.681C117.563 195.681 120.962 192.279 120.962 188.082C120.962 183.884 117.563 180.482 113.371 180.482C109.179 180.482 105.78 183.884 105.78 188.082C105.78 192.279 109.179 195.681 113.371 195.681ZM113.371 196.851C118.208 196.851 122.13 192.925 122.13 188.082C122.13 183.239 118.208 179.312 113.371 179.312C108.534 179.312 104.612 183.239 104.612 188.082C104.612 192.925 108.534 196.851 113.371 196.851Z" fill="#597DFF"/>
<path fill-rule="evenodd" clip-rule="evenodd" d="M356.619 227.165C363.069 227.165 368.297 221.93 368.297 215.473C368.297 209.015 363.069 203.781 356.619 203.781C350.17 203.781 344.941 209.015 344.941 215.473C344.941 221.93 350.17 227.165 356.619 227.165ZM356.619 228.334C363.714 228.334 369.465 222.576 369.465 215.473C369.465 208.37 363.714 202.611 356.619 202.611C349.525 202.611 343.773 208.37 343.773 215.473C343.773 222.576 349.525 228.334 356.619 228.334Z" fill="#597DFF"/>
<path fill-rule="evenodd" clip-rule="evenodd" d="M148.989 199.189C151.569 199.189 153.66 197.095 153.66 194.512C153.66 191.929 151.569 189.835 148.989 189.835C146.409 189.835 144.318 191.929 144.318 194.512C144.318 197.095 146.409 199.189 148.989 199.189ZM148.989 200.358C152.214 200.358 154.828 197.741 154.828 194.512C154.828 191.283 152.214 188.666 148.989 188.666C145.764 188.666 143.15 191.283 143.15 194.512C143.15 197.741 145.764 200.358 148.989 200.358Z" fill="#597DFF"/>
<path fill-rule="evenodd" clip-rule="evenodd" d="M208.901 491.565C210.526 492.504 213.078 491.793 214.468 489.382C215.858 486.972 215.198 484.404 213.572 483.464C211.946 482.524 209.395 483.236 208.005 485.646C206.615 488.057 207.275 490.625 208.901 491.565ZM208.317 492.577C210.66 493.932 213.867 492.763 215.479 489.967C217.092 487.171 216.499 483.806 214.156 482.452C211.813 481.097 208.606 482.266 206.994 485.062C205.381 487.858 205.974 491.223 208.317 492.577Z" fill="#597DFF"/>
<path fill-rule="evenodd" clip-rule="evenodd" d="M234.239 164.113C236.818 164.113 238.91 162.019 238.91 159.436C238.91 156.853 236.818 154.759 234.239 154.759C231.659 154.759 229.567 156.853 229.567 159.436C229.567 162.019 231.659 164.113 234.239 164.113ZM234.239 165.282C237.463 165.282 240.078 162.665 240.078 159.436C240.078 156.207 237.463 153.59 234.239 153.59C231.014 153.59 228.4 156.207 228.4 159.436C228.4 162.665 231.014 165.282 234.239 165.282Z" fill="#597DFF"/>
<path fill-rule="evenodd" clip-rule="evenodd" d="M277.447 91.6216C280.027 91.6216 282.118 89.5277 282.118 86.9447C282.118 84.3617 280.027 82.2678 277.447 82.2678C274.867 82.2678 272.776 84.3617 272.776 86.9447C272.776 89.5277 274.867 91.6216 277.447 91.6216ZM277.447 92.7908C280.672 92.7908 283.286 90.1734 283.286 86.9447C283.286 83.716 280.672 81.0986 277.447 81.0986C274.222 81.0986 271.608 83.716 271.608 86.9447C271.608 90.1734 274.222 92.7908 277.447 92.7908Z" fill="#597DFF"/>
<path fill-rule="evenodd" clip-rule="evenodd" d="M298.176 111.106C299.817 110.158 300.124 108.639 299.688 107.884C299.252 107.128 297.785 106.635 296.144 107.584C294.503 108.532 294.196 110.051 294.632 110.807C295.067 111.562 296.535 112.055 298.176 111.106ZM298.76 112.119C300.715 110.989 301.583 108.831 300.7 107.299C299.816 105.767 297.515 105.441 295.56 106.571C293.605 107.701 292.737 109.859 293.62 111.391C294.504 112.923 296.805 113.249 298.76 112.119Z" fill="#597DFF"/>
<path fill-rule="evenodd" clip-rule="evenodd" d="M113.371 193.342C116.273 193.342 118.626 190.987 118.626 188.081C118.626 185.175 116.273 182.819 113.371 182.819C112.751 182.819 112.157 182.927 111.605 183.124C112.311 183.526 112.787 184.286 112.787 185.158C112.787 186.449 111.741 187.496 110.452 187.496C109.581 187.496 108.822 187.019 108.42 186.312C108.223 186.865 108.116 187.46 108.116 188.081C108.116 190.987 110.469 193.342 113.371 193.342Z" fill="#597DFF"/>
<path d="M357.747 215.775C356.579 220.142 355.126 223.546 354.503 223.378C353.881 223.211 354.323 219.536 355.491 215.17C356.66 210.804 358.112 207.4 358.735 207.567C359.358 207.734 358.916 211.409 357.747 215.775Z" fill="#597DFF"/>
<path fill-rule="evenodd" clip-rule="evenodd" d="M275.112 326.634C278.336 326.634 280.951 324.016 280.951 320.787C280.951 317.559 278.336 314.941 275.112 314.941C274.344 314.941 273.612 315.09 272.94 315.359C273.547 315.781 273.944 316.484 273.944 317.28C273.944 318.571 272.898 319.618 271.608 319.618C270.813 319.618 270.111 319.221 269.69 318.614C269.421 319.286 269.273 320.019 269.273 320.787C269.273 324.016 271.887 326.634 275.112 326.634Z" fill="#597DFF"/>
<path fill-rule="evenodd" clip-rule="evenodd" d="M300.219 316.11C301.832 316.11 303.139 314.801 303.139 313.187C303.139 311.572 301.832 310.264 300.219 310.264C299.836 310.264 299.469 310.338 299.134 310.472C299.437 310.684 299.635 311.035 299.635 311.433C299.635 312.079 299.113 312.602 298.468 312.602C298.07 312.602 297.719 312.403 297.508 312.1C297.374 312.436 297.3 312.803 297.3 313.187C297.3 314.801 298.607 316.11 300.219 316.11Z" fill="#597DFF"/>
<path fill-rule="evenodd" clip-rule="evenodd" d="M290.293 410.817C291.583 410.817 292.629 409.77 292.629 408.478C292.629 407.187 291.583 406.14 290.293 406.14C290.054 406.14 289.823 406.176 289.605 406.243C290.011 406.426 290.293 406.834 290.293 407.309C290.293 407.955 289.77 408.478 289.125 408.478C288.651 408.478 288.243 408.196 288.06 407.789C287.993 408.007 287.957 408.238 287.957 408.478C287.957 409.77 289.003 410.817 290.293 410.817Z" fill="#597DFF"/>
<path fill-rule="evenodd" clip-rule="evenodd" d="M280.951 400.294C282.241 400.294 283.286 399.247 283.286 397.956C283.286 396.664 282.241 395.617 280.951 395.617C280.711 395.617 280.48 395.653 280.263 395.72C280.668 395.904 280.951 396.312 280.951 396.786C280.951 397.432 280.428 397.956 279.783 397.956C279.309 397.956 278.901 397.673 278.718 397.267C278.651 397.485 278.615 397.716 278.615 397.956C278.615 399.247 279.661 400.294 280.951 400.294Z" fill="#597DFF"/>
<path fill-rule="evenodd" clip-rule="evenodd" d="M225.48 410.817C227.092 410.817 228.4 409.508 228.4 407.894C228.4 406.279 227.092 404.971 225.48 404.971C225.253 404.971 225.032 404.997 224.82 405.046C225.54 405.264 226.064 405.933 226.064 406.725C226.064 407.693 225.28 408.478 224.312 408.478C223.521 408.478 222.853 407.954 222.635 407.233C222.586 407.446 222.561 407.667 222.561 407.894C222.561 409.508 223.868 410.817 225.48 410.817Z" fill="#597DFF"/>
<path fill-rule="evenodd" clip-rule="evenodd" d="M289.709 551.122C291.322 551.122 292.629 550.075 292.629 548.784C292.629 547.492 291.322 546.445 289.709 546.445C289.309 546.445 288.928 546.51 288.582 546.626C288.908 546.833 289.125 547.199 289.125 547.615C289.125 548.26 288.602 548.784 287.957 548.784C287.496 548.784 287.096 548.515 286.907 548.126C286.831 548.334 286.79 548.555 286.79 548.784C286.79 550.075 288.097 551.122 289.709 551.122Z" fill="#597DFF"/>
<path d="M232.388 508.159C232.805 509.718 232.911 511.044 232.625 511.121C232.339 511.198 231.769 509.996 231.352 508.437C230.935 506.877 230.828 505.551 231.114 505.474C231.4 505.398 231.97 506.6 232.388 508.159Z" fill="#597DFF"/>
<path fill-rule="evenodd" clip-rule="evenodd" d="M144.318 169.959C146.253 169.959 147.821 168.388 147.821 166.451C147.821 164.514 146.253 162.943 144.318 162.943C143.959 162.943 143.612 162.997 143.286 163.098C143.894 163.373 144.318 163.986 144.318 164.697C144.318 165.666 143.534 166.451 142.566 166.451C141.855 166.451 141.243 166.027 140.969 165.418C140.868 165.745 140.814 166.092 140.814 166.451C140.814 168.388 142.383 169.959 144.318 169.959Z" fill="#597DFF"/>
<path fill-rule="evenodd" clip-rule="evenodd" d="M150.157 199.189C152.092 199.189 153.66 197.619 153.66 195.681C153.66 193.744 152.092 192.174 150.157 192.174C149.798 192.174 149.451 192.228 149.125 192.328C149.733 192.603 150.157 193.216 150.157 193.928C150.157 194.896 149.373 195.681 148.405 195.681C147.694 195.681 147.082 195.258 146.808 194.649C146.707 194.975 146.653 195.322 146.653 195.681C146.653 197.619 148.222 199.189 150.157 199.189Z" fill="#597DFF"/>
<path fill-rule="evenodd" clip-rule="evenodd" d="M209.209 485.041C209.767 485.364 210.534 485.081 210.921 484.409C211.16 483.995 211.199 483.53 211.063 483.158C211.433 483.186 211.794 483.292 212.126 483.484C213.521 484.291 213.868 486.304 212.9 487.982C211.933 489.66 210.018 490.366 208.623 489.56C207.228 488.753 206.881 486.739 207.848 485.062C208.078 484.663 208.362 484.319 208.679 484.037C208.68 484.459 208.864 484.842 209.209 485.041Z" fill="#597DFF"/>
<path fill-rule="evenodd" clip-rule="evenodd" d="M234.238 162.943C236.173 162.943 237.742 161.373 237.742 159.435C237.742 157.498 236.173 155.928 234.238 155.928C233.879 155.928 233.533 155.982 233.207 156.082C233.815 156.357 234.238 156.97 234.238 157.682C234.238 158.65 233.454 159.435 232.487 159.435C231.776 159.435 231.164 159.012 230.889 158.402C230.789 158.729 230.735 159.076 230.735 159.435C230.735 161.373 232.304 162.943 234.238 162.943Z" fill="#597DFF"/>
<path fill-rule="evenodd" clip-rule="evenodd" d="M276.605 84.9321C277.289 84.2472 277.264 83.1113 276.548 82.3951C276.446 82.2925 276.335 82.204 276.217 82.1298C277.008 82.0681 277.764 82.3008 278.308 82.8457C279.428 83.9675 279.227 85.9873 277.859 87.3571C276.491 88.7269 274.474 88.928 273.353 87.8063C272.316 86.7673 272.411 84.9578 273.518 83.608C273.532 84.0629 273.717 84.5206 274.071 84.8754C274.786 85.5916 275.921 85.617 276.605 84.9321Z" fill="#597DFF"/>
<path fill-rule="evenodd" clip-rule="evenodd" d="M221.492 152.694C220.06 155.648 219.931 159.294 220.801 164.602L219.649 164.792C218.767 159.414 218.848 155.47 220.441 152.184C222.034 148.898 225.085 146.381 229.868 143.725L230.434 144.747C225.712 147.37 222.924 149.741 221.492 152.694Z" fill="#597DFF"/>
<path fill-rule="evenodd" clip-rule="evenodd" d="M275.222 105.86C272.888 105.219 270.792 103.991 268.324 102.016L269.053 101.103C271.455 103.025 273.408 104.149 275.531 104.732C277.659 105.317 280.01 105.372 283.232 105.069L283.341 106.233C280.064 106.541 277.55 106.499 275.222 105.86Z" fill="#597DFF"/>
<path fill-rule="evenodd" clip-rule="evenodd" d="M297.295 94.9766C295.966 94.7352 294.585 94.8055 292.726 95.121L292.531 93.9682C294.451 93.6424 295.984 93.5502 297.504 93.8262C299.023 94.1023 300.482 94.738 302.268 95.7951L301.674 96.8016C299.947 95.7798 298.624 95.2181 297.295 94.9766Z" fill="#597DFF"/>
<path fill-rule="evenodd" clip-rule="evenodd" d="M356.518 240.184C344.465 240.708 332.108 232.31 328.842 216.259L329.986 216.026C333.144 231.544 345.019 239.514 356.467 239.016C367.88 238.519 379.071 229.584 380.8 210.827L381.963 210.935C380.189 230.177 368.607 239.658 356.518 240.184Z" fill="#597DFF"/>
<path fill-rule="evenodd" clip-rule="evenodd" d="M232.608 401.871C231.526 400.559 229.972 399.565 227.576 398.489L228.055 397.422C230.506 398.524 232.255 399.607 233.509 401.126C234.767 402.65 235.478 404.554 235.98 407.2L234.833 407.418C234.348 404.862 233.688 403.178 232.608 401.871Z" fill="#597DFF"/>
<path fill-rule="evenodd" clip-rule="evenodd" d="M283.029 538.928C281.957 539.915 281.153 541.208 280.32 543.167L279.246 542.709C280.11 540.676 280.994 539.213 282.239 538.067C283.482 536.923 285.04 536.135 287.177 535.372L287.57 536.473C285.493 537.215 284.104 537.938 283.029 538.928Z" fill="#597DFF"/>
<path fill-rule="evenodd" clip-rule="evenodd" d="M147.684 552.769C63.9678 556.751 4.95337 566.351 4.95337 577.562V589.455C4.95338 604.234 107.501 616.214 234 616.214C360.499 616.214 463.047 604.234 463.047 589.455L463.047 589.441V577.576L463.047 577.562C463.047 565.738 397.395 555.704 306.353 552.166V553.654C340.447 554.98 370.965 557.218 395.788 560.118C416.486 562.536 433.169 565.408 444.651 568.579C450.403 570.168 454.764 571.809 457.655 573.46C459.102 574.286 460.11 575.075 460.741 575.801C461.365 576.518 461.559 577.098 461.559 577.562L461.559 577.572C461.556 578.035 461.36 578.611 460.741 579.323C460.11 580.05 459.102 580.839 457.655 581.664C456.513 582.317 455.141 582.968 453.544 583.614C455.251 582.631 456.136 581.624 456.136 580.599C456.136 580.199 456.001 579.801 455.735 579.407C456.001 578.961 456.136 578.512 456.136 578.06C456.136 568.325 393.513 560.053 306.353 557.052V558.287C338.539 559.396 367.364 561.224 390.907 563.579C410.98 565.586 427.16 567.971 438.296 570.603C443.874 571.922 448.103 573.285 450.908 574.655C452.31 575.34 453.288 575.995 453.901 576.598C454.505 577.194 454.694 577.675 454.694 578.06C454.694 578.143 454.685 578.231 454.665 578.323C444.757 570.705 385.73 564.412 306.353 561.991V563.085C338.539 564.068 367.364 565.687 390.906 567.772C410.98 569.55 427.16 571.662 438.295 573.994C443.874 575.162 448.103 576.369 450.908 577.583C452.31 578.19 453.288 578.77 453.9 579.304C453.94 579.339 453.978 579.373 454.014 579.407C453.978 579.445 453.94 579.483 453.901 579.522C453.288 580.125 452.31 580.78 450.908 581.466C448.103 582.836 443.874 584.198 438.296 585.517C427.16 588.15 410.98 590.535 390.907 592.542C350.779 596.555 295.303 599.04 234 599.04C172.697 599.04 117.221 596.555 77.0935 592.542C57.02 590.535 40.8396 588.15 29.7046 585.517C24.1259 584.198 19.8966 582.836 17.0923 581.466C15.6898 580.78 14.7122 580.125 14.0995 579.522C14.0599 579.483 14.0221 579.445 13.986 579.407C14.022 579.373 14.0598 579.339 14.0994 579.304C14.7121 578.77 15.6897 578.19 17.0921 577.583C19.8965 576.369 24.1257 575.162 29.7045 573.994C40.8395 571.662 57.0198 569.55 77.0934 567.772C97.177 565.994 121.105 564.554 147.684 563.559V562.465C75.4122 565.167 22.6536 571.159 13.3347 578.322C13.315 578.23 13.3063 578.143 13.3063 578.06C13.3063 577.675 13.4951 577.194 14.0995 576.598C14.7122 575.995 15.6898 575.34 17.0923 574.655C19.8966 573.285 24.1259 571.922 29.7046 570.603C40.8396 567.971 57.02 565.586 77.0935 563.579C97.177 561.57 121.105 559.945 147.684 558.822V557.586C67.8766 560.955 11.8638 568.853 11.8638 578.06C11.8638 578.512 11.9988 578.961 12.265 579.406C11.9987 579.801 11.8637 580.199 11.8637 580.599C11.8637 581.624 12.7492 582.631 14.4561 583.614C12.8593 582.968 11.4872 582.317 10.3445 581.664C8.89836 580.839 7.89036 580.05 7.25864 579.323C6.63534 578.606 6.44068 578.026 6.44068 577.562C6.44068 577.098 6.63534 576.518 7.25864 575.801C7.89036 575.075 8.89836 574.286 10.3445 573.46C13.2361 571.809 17.5969 570.168 23.3491 568.579C34.8306 565.408 51.5142 562.536 72.2122 560.118C93.5947 557.619 119.204 555.613 147.684 554.257V552.769ZM72.2122 595.007C58.5151 593.407 46.576 591.608 36.7391 589.655C73.7353 595.964 148.185 600.274 234 600.274C319.815 600.274 394.265 595.964 431.261 589.654C421.424 591.608 409.485 593.407 395.788 595.007C354.412 599.841 297.21 602.835 234 602.835C170.789 602.835 113.588 599.841 72.2122 595.007ZM14.0994 581.894C13.4988 581.37 13.3086 580.946 13.3062 580.606C17.4891 584.272 30.6005 587.668 50.4126 590.57C42.3101 589.515 35.3572 588.388 29.7045 587.204C24.1257 586.036 19.8965 584.829 17.0921 583.615C15.6897 583.008 14.7121 582.428 14.0994 581.894ZM438.295 587.204C432.643 588.387 425.691 589.514 417.589 590.57C437.4 587.668 450.511 584.272 454.694 580.606C454.691 580.946 454.501 581.37 453.9 581.894C453.288 582.428 452.31 583.008 450.908 583.615C448.103 584.829 443.874 586.036 438.295 587.204ZM461.559 580.629C448.539 593.963 351.623 604.321 234 604.321C116.377 604.321 19.4613 593.963 6.44068 580.629L6.44069 586.389V589.455C6.44069 589.919 6.63535 590.499 7.25864 591.216C7.89036 591.943 8.89837 592.731 10.3445 593.557C13.2361 595.208 17.5969 596.849 23.3492 598.438C34.8306 601.609 51.5143 604.482 72.2122 606.9C113.588 611.734 170.789 614.727 234 614.727C297.21 614.727 354.412 611.734 395.788 606.9C416.486 604.482 433.169 601.609 444.651 598.438C450.403 596.849 454.764 595.208 457.655 593.557C459.102 592.731 460.11 591.943 460.741 591.216C461.365 590.499 461.559 589.919 461.559 589.455L461.559 589.441V586.389L461.559 580.629Z" fill="white"/>
</svg>
