<svg width="364" height="528" viewBox="0 0 364 528" fill="none" xmlns="http://www.w3.org/2000/svg">
<path fill-rule="evenodd" clip-rule="evenodd" d="M318.716 153.804V153.763C318.716 150.325 316.261 126.822 299.497 103.826C282.774 80.8869 251.745 58.3576 194.408 56.8538C134.882 55.2927 102.071 82.1389 85.5032 110.192C77.2054 124.242 72.9757 138.608 71.523 149.888C70.7964 155.53 70.7683 160.371 71.2592 163.997C71.5048 165.811 71.8767 167.293 72.3387 168.408C72.808 169.541 73.3304 170.199 73.8125 170.505C74.1216 170.7 74.7099 170.966 75.6056 171.289C76.4836 171.606 77.6019 171.96 78.9316 172.343C81.59 173.11 85.0566 173.984 89.061 174.91C97.0678 176.762 107.19 178.812 117.223 180.609C127.259 182.406 137.19 183.946 144.818 184.781C148.636 185.199 151.854 185.437 154.211 185.447C155.393 185.451 156.327 185.398 156.999 185.291C157.335 185.237 157.578 185.174 157.743 185.111C157.855 185.068 157.902 185.037 157.913 185.029C159.469 183.169 160.002 181.348 160.701 177.901C160.805 177.39 160.912 176.846 161.026 176.264C161.685 172.914 162.587 168.318 164.53 161.592C166.632 154.317 169.986 147.604 175.525 142.501C181.075 137.387 188.746 133.956 199.35 133.128C208.2 132.437 216.929 135.199 223.619 140.086C230.306 144.972 235.018 152.03 235.706 159.967C236.4 167.976 235.011 174.307 232.273 179.896C229.547 185.46 225.501 190.251 220.958 195.194C218.711 197.639 214.604 201.623 209.566 206.511L209.278 206.791C204.096 211.817 197.937 217.797 191.737 224.098C179.303 236.734 166.818 250.548 161.674 260.502C156.526 270.464 153.823 282.574 152.411 293.242C151.001 303.898 150.887 313.052 150.887 317.072C150.887 318.461 151.078 319.385 151.366 320.009C151.641 320.607 152.019 320.965 152.498 321.212C153.006 321.474 153.658 321.626 154.499 321.735C154.985 321.797 155.455 321.838 155.962 321.882C156.384 321.918 156.832 321.957 157.338 322.013C157.784 322.062 159.187 322.085 161.395 322.078C163.571 322.072 166.463 322.039 169.832 321.987C176.569 321.881 185.198 321.699 193.788 321.503C202.043 321.314 210.269 321.112 216.737 320.954C223.715 320.782 228.645 320.661 229.359 320.661C230.5 320.661 231.298 320.292 231.862 319.778C232.441 319.249 232.82 318.521 233.015 317.752C233.112 317.365 233.274 316.231 233.513 314.491L233.588 313.946C233.809 312.329 234.084 310.328 234.415 308.135C235.152 303.253 236.179 297.378 237.555 292.61C239.557 284.939 246.234 277.24 254.753 268.899C257.862 265.854 261.22 262.72 264.718 259.456C270.9 253.688 277.519 247.511 283.978 240.693C304.143 219.406 322.314 192.282 318.72 153.846L318.716 153.804ZM238.431 292.845C236.46 299.667 235.203 308.842 234.487 314.067C234.214 316.057 234.02 317.474 233.895 317.97C233.441 319.764 232.08 321.559 229.359 321.559C228.655 321.559 223.764 321.679 216.828 321.849C196.947 322.337 160.264 323.237 157.238 322.905C156.785 322.855 156.344 322.816 155.917 322.779C152.491 322.478 149.98 322.258 149.98 317.072C149.98 308.997 150.434 280.283 160.867 260.093C168.735 244.866 193.374 220.962 208.903 205.897C213.964 200.987 218.057 197.016 220.287 194.59C229.359 184.72 236.163 175.747 234.802 160.044C233.48 144.79 216.658 132.676 199.422 134.022C178.557 135.652 169.55 147.482 165.403 161.839C163.471 168.525 162.575 173.085 161.917 176.434C161.03 180.948 160.576 183.261 158.599 185.617C155.155 189.72 79.7021 175.298 73.3235 171.26C61.9836 164.082 74.6842 52.8163 194.432 55.9568C309.645 58.9784 319.624 146.585 319.624 153.763C324.413 204.982 290.882 236.274 265.305 260.143C252.123 272.444 241.053 282.774 238.431 292.845Z" fill="white"/>
<path fill-rule="evenodd" clip-rule="evenodd" d="M134.465 192.786L46.0277 177.085L46.188 176.202L134.652 191.907L134.665 191.911L134.674 191.913L134.702 191.919L134.814 191.945C134.912 191.968 135.057 192.001 135.245 192.043C135.619 192.127 136.161 192.244 136.829 192.379C138.165 192.649 140.002 192.988 142.007 193.268C144.014 193.547 146.181 193.765 148.179 193.794C150.188 193.823 151.984 193.661 153.271 193.205C155.801 192.309 157.326 189.785 158.22 187.364C158.662 186.168 158.939 185.027 159.104 184.184C159.187 183.764 159.242 183.419 159.276 183.18C159.293 183.061 159.305 182.968 159.312 182.906C159.316 182.875 159.319 182.852 159.32 182.836L159.322 182.819L159.323 182.816C159.323 182.816 159.323 182.815 159.774 182.86C160.225 182.904 160.225 182.904 160.225 182.904L160.225 182.907L160.224 182.913L160.222 182.934C160.22 182.952 160.217 182.978 160.213 183.012C160.205 183.081 160.192 183.18 160.174 183.306C160.138 183.558 160.081 183.918 159.995 184.356C159.823 185.23 159.535 186.419 159.072 187.672C158.156 190.152 156.506 193.012 153.577 194.05C152.134 194.561 150.206 194.721 148.166 194.692C146.116 194.662 143.908 194.439 141.88 194.156C139.852 193.874 137.996 193.531 136.647 193.258C135.973 193.122 135.425 193.003 135.045 192.919C134.855 192.876 134.707 192.842 134.607 192.819C134.556 192.807 134.518 192.798 134.492 192.792L134.465 192.786Z" fill="white"/>
<path fill-rule="evenodd" clip-rule="evenodd" d="M155.006 443.142C150.669 443.484 148.249 443.385 144.009 442.689L144.158 441.804C148.324 442.488 150.67 442.584 154.934 442.248L155.006 443.142Z" fill="white"/>
<path fill-rule="evenodd" clip-rule="evenodd" d="M159.545 352.963C153.205 353.512 149.726 353.558 144.001 352.508L144.166 351.626C149.782 352.655 153.172 352.614 159.466 352.069L159.545 352.963Z" fill="white"/>
<path fill-rule="evenodd" clip-rule="evenodd" d="M220.61 349.649C214.78 348.697 207.331 347.806 200.798 348.029C199.216 348.082 197.006 348.156 194.326 348.245C185.862 348.526 172.723 348.962 159.976 349.431C143.179 350.048 127.104 350.72 123.271 351.166L123.165 350.275C127.044 349.824 143.174 349.15 159.942 348.534C172.691 348.065 185.833 347.629 194.297 347.348C196.976 347.259 199.186 347.186 200.767 347.132C207.389 346.906 214.908 347.809 220.758 348.764C223.686 349.242 226.201 349.734 227.985 350.106C228.878 350.293 229.587 350.449 230.074 350.559C230.317 350.614 230.505 350.658 230.632 350.687C230.696 350.702 230.744 350.714 230.777 350.721L230.814 350.73L230.826 350.733C230.826 350.733 230.827 350.733 230.72 351.169C230.612 351.605 230.612 351.605 230.612 351.605L230.601 351.603L230.565 351.594C230.534 351.587 230.486 351.575 230.424 351.561C230.298 351.532 230.113 351.489 229.872 351.434C229.389 351.325 228.685 351.17 227.798 350.984C226.024 350.614 223.522 350.125 220.61 349.649Z" fill="white"/>
<path fill-rule="evenodd" clip-rule="evenodd" d="M156.762 322.904L147.69 322.456L147.735 321.56L156.807 322.008L156.762 322.904Z" fill="white"/>
<path fill-rule="evenodd" clip-rule="evenodd" d="M79.6033 173.498C72.8117 172.443 69.219 172.132 63.9456 173.928L63.6503 173.079C69.1441 171.208 72.9231 171.552 79.744 172.612L79.6033 173.498Z" fill="white"/>
<path fill-rule="evenodd" clip-rule="evenodd" d="M152.683 186.125C151.301 185.93 149.631 185.774 147.675 185.616L147.749 184.722C149.707 184.88 151.401 185.038 152.811 185.237C154.216 185.435 155.368 185.678 156.23 186.017C157.083 186.353 157.741 186.818 158.008 187.517C158.276 188.219 158.097 189.011 157.638 189.866L156.837 189.445C157.248 188.679 157.291 188.179 157.16 187.835C157.027 187.488 156.661 187.153 155.894 186.851C155.135 186.552 154.069 186.321 152.683 186.125Z" fill="white"/>
<path fill-rule="evenodd" clip-rule="evenodd" d="M182.099 138.949C182.099 138.949 182.099 138.949 182.185 138.509C182.271 138.068 182.271 138.068 182.272 138.068L182.273 138.069L182.277 138.069L182.289 138.072L182.334 138.081C182.373 138.089 182.429 138.101 182.501 138.118C182.646 138.152 182.855 138.204 183.121 138.279C183.653 138.428 184.409 138.668 185.317 139.032C187.135 139.761 189.567 140.988 192.034 142.985C196.982 146.989 202.034 154.061 202.596 166.305C202.825 171.282 202.597 175.741 199.657 181.556C196.732 187.342 191.133 194.45 180.692 204.778C178.413 207.031 175.405 209.826 171.988 213.001C171.143 213.786 170.274 214.593 169.385 215.422C164.892 219.606 159.879 224.326 154.953 229.283C145.087 239.21 135.615 250.04 131.343 259.381L131.339 259.389L131.335 259.397C126.831 268.308 121.404 284.39 121.404 307.651C121.404 309.675 121.404 311.784 121.572 313.553C121.656 314.438 121.78 315.221 121.961 315.857C122.145 316.502 122.373 316.948 122.632 317.204C123.246 317.811 123.967 318.228 125.222 318.606C126.492 318.988 128.277 319.321 131.004 319.77C136.434 320.665 146.386 321.559 148.166 321.559C148.768 321.559 149.228 321.033 149.563 320.26C149.72 319.899 149.826 319.533 149.893 319.254C149.927 319.115 149.95 319 149.965 318.921C149.972 318.881 149.977 318.85 149.981 318.83L149.984 318.808L149.985 318.804C149.985 318.804 149.985 318.803 150.434 318.867C150.655 318.898 150.767 318.914 150.824 318.922C150.883 318.93 150.883 318.93 150.883 318.931L150.882 318.935L150.881 318.943L150.876 318.974C150.872 319 150.866 319.037 150.857 319.083C150.84 319.175 150.813 319.306 150.776 319.461C150.701 319.771 150.581 320.19 150.397 320.614C150.052 321.411 149.378 322.456 148.166 322.456C146.317 322.456 136.311 321.555 130.855 320.655C128.138 320.208 126.295 319.867 124.957 319.464C123.603 319.057 122.737 318.577 121.99 317.838C121.569 317.421 121.287 316.801 121.088 316.1C120.886 315.39 120.755 314.547 120.669 313.637C120.497 311.822 120.497 309.674 120.497 307.664V307.651C120.497 284.258 125.953 268.04 130.52 259.003C134.867 249.503 144.444 238.577 154.306 228.654C159.245 223.684 164.268 218.954 168.763 214.768C169.655 213.937 170.527 213.127 171.373 212.342C174.788 209.168 177.783 206.386 180.05 204.143C190.474 193.833 195.988 186.808 198.846 181.154C201.69 175.528 201.915 171.239 201.69 166.346C201.139 154.362 196.213 147.526 191.46 143.679C189.077 141.75 186.728 140.566 184.977 139.864C184.102 139.513 183.377 139.283 182.873 139.142C182.621 139.071 182.425 139.022 182.293 138.992C182.227 138.976 182.177 138.965 182.145 138.959L182.109 138.951L182.101 138.95L182.099 138.949Z" fill="white"/>
<path fill-rule="evenodd" clip-rule="evenodd" d="M49.6741 176.216C49.8675 176.069 50.1368 175.929 50.458 175.786L50.829 176.605C50.5833 176.714 50.4124 176.804 50.2994 176.877C50.4144 176.946 50.584 177.029 50.8208 177.129L50.4663 177.954C50.1685 177.829 49.908 177.704 49.7148 177.57C49.5438 177.452 49.3 177.242 49.2828 176.917C49.265 176.579 49.4997 176.348 49.6741 176.216ZM50.1613 176.986C50.1611 176.986 50.1622 176.985 50.165 176.981C50.1629 176.985 50.1615 176.986 50.1613 176.986Z" fill="white"/>
<path fill-rule="evenodd" clip-rule="evenodd" d="M83.379 87.7136C61.0763 106.569 49.2706 133.921 44.2897 169.527L44.2897 169.527C43.8753 172.487 43.8727 173.857 44.6641 175.039C44.983 175.458 45.2539 175.717 45.5134 175.879C45.7672 176.037 46.033 176.117 46.3672 176.141C46.7134 176.165 47.127 176.129 47.6751 176.053C47.9317 176.017 48.2107 175.973 48.5209 175.925L48.5768 175.916C48.9082 175.864 49.2725 175.808 49.6729 175.751C52.2166 175.392 58.2865 174.161 61.7457 173.46C62.5813 173.29 63.2645 173.152 63.709 173.064C65.0902 172.79 66.1924 171.666 67.076 169.881C67.9553 168.105 68.5701 165.767 69.0212 163.252C69.4713 160.742 69.7535 158.085 69.9801 155.683C70.028 155.175 70.0734 154.678 70.1175 154.196C70.2812 152.406 70.4263 150.819 70.6071 149.657L71.5037 149.793C71.3277 150.925 71.1861 152.472 71.0229 154.257C70.9784 154.743 70.9322 155.248 70.8834 155.766C70.6564 158.172 70.3715 160.86 69.9145 163.409C69.4584 165.952 68.8258 168.387 67.8908 170.276C66.96 172.156 65.6808 173.589 63.8869 173.944C63.4524 174.029 62.78 174.166 61.9547 174.333C58.5028 175.033 52.3767 176.276 49.8012 176.64C49.4079 176.695 49.0493 176.751 48.7181 176.803L48.6538 176.813C48.3484 176.86 48.0644 176.905 47.8018 176.941C47.2442 177.019 46.7504 177.067 46.3026 177.036C45.8428 177.003 45.4281 176.886 45.0297 176.638C44.6392 176.395 44.2886 176.04 43.9306 175.567L43.9231 175.557L43.9161 175.547C42.9007 174.04 42.9818 172.327 43.3911 169.404C48.3892 133.675 60.2569 106.081 82.7896 87.0315C105.317 67.9869 138.433 57.5426 185.799 55.957L185.83 56.8538C138.569 58.4359 105.687 68.8539 83.379 87.7136Z" fill="white"/>
<path fill-rule="evenodd" clip-rule="evenodd" d="M181.107 351.169C195.535 350.645 213.345 350.196 228.453 350.272C228.453 350.272 228.454 350.272 228.454 350.272L228.452 350.721V350.272C228.452 350.272 228.453 350.272 228.453 350.272C230.186 350.273 231.88 351.125 233.13 352.303C234.376 353.476 235.255 355.043 235.256 356.552C235.256 356.551 235.256 356.551 234.802 356.553L234.348 356.556L234.348 356.553C234.348 355.37 233.64 354.022 232.505 352.953C231.374 351.888 229.893 351.17 228.452 351.17L228.449 351.17C213.36 351.093 195.563 351.542 181.14 352.065C166.7 352.59 155.684 353.188 154.127 353.408C153.389 353.513 152.836 353.727 152.409 354.023C151.983 354.318 151.659 354.709 151.403 355.2C150.878 356.206 150.658 357.582 150.43 359.303C150.378 359.697 150.329 361.209 150.286 363.61C150.244 365.992 150.209 369.213 150.18 372.99C150.124 380.544 150.095 390.321 150.095 400.061C150.095 409.802 150.123 419.506 150.179 426.914C150.208 430.618 150.243 433.748 150.285 436.02C150.306 437.157 150.329 438.077 150.354 438.747C150.366 439.082 150.379 439.353 150.392 439.555C150.406 439.768 150.418 439.879 150.425 439.915C150.6 440.78 150.834 441.281 151.162 441.602C151.481 441.915 151.949 442.116 152.733 442.245C152.719 442.245 152.704 442.246 152.69 442.246L152.702 442.694L152.774 442.251C152.76 442.249 152.746 442.247 152.733 442.245C168.091 441.85 187 440.73 202.36 439.652C210.047 439.113 216.843 438.584 221.859 438.162C224.367 437.951 226.428 437.767 227.933 437.621C229.453 437.475 230.375 437.37 230.631 437.319C231.695 437.109 232.515 436.695 233.121 436.096C233.726 435.497 234.144 434.686 234.357 433.633C234.364 433.599 234.376 433.489 234.389 433.276C234.401 433.075 234.413 432.805 234.423 432.471C234.445 431.803 234.463 430.886 234.479 429.756C234.51 427.495 234.529 424.386 234.54 420.716C234.561 413.378 234.547 403.803 234.519 394.298C234.49 384.792 234.448 375.357 234.412 368.298C234.395 364.768 234.379 361.833 234.367 359.78C234.361 358.753 234.357 357.947 234.353 357.398L234.348 356.556C234.348 356.555 234.348 356.556 234.802 356.553H235.256L235.261 357.393C235.264 357.942 235.268 358.748 235.274 359.775C235.286 361.828 235.302 364.763 235.319 368.293C235.355 375.353 235.397 384.789 235.426 394.295C235.454 403.801 235.468 413.378 235.447 420.719C235.436 424.389 235.417 427.502 235.386 429.768C235.37 430.9 235.352 431.823 235.33 432.499C235.319 432.837 235.308 433.116 235.295 433.329C235.283 433.532 235.268 433.704 235.247 433.809C235.006 435 234.518 435.983 233.762 436.731C233.007 437.478 232.013 437.961 230.809 438.199C230.497 438.261 229.517 438.37 228.022 438.514C226.511 438.66 224.445 438.845 221.935 439.056C216.915 439.478 210.115 440.007 202.424 440.547C187.045 441.627 168.099 442.749 152.714 443.143L152.672 443.144L152.63 443.137C151.746 442.997 151.045 442.751 150.523 442.239C150.004 441.731 149.724 441.02 149.536 440.091C149.515 439.986 149.5 439.814 149.487 439.612C149.473 439.398 149.46 439.119 149.447 438.78C149.423 438.102 149.399 437.175 149.378 436.037C149.336 433.759 149.3 430.626 149.272 426.921C149.216 419.509 149.188 409.803 149.188 400.061C149.188 390.319 149.217 380.54 149.273 372.983C149.301 369.205 149.337 365.981 149.379 363.594C149.421 361.226 149.47 359.645 149.531 359.187C149.754 357.499 149.986 355.959 150.597 354.789C150.908 354.192 151.322 353.68 151.889 353.288C152.454 352.896 153.149 352.64 153.999 352.52C155.616 352.291 166.697 351.692 181.107 351.169ZM235.256 356.553C235.256 356.553 235.256 356.552 235.256 356.552V356.553Z" fill="white"/>
<path fill-rule="evenodd" clip-rule="evenodd" d="M134.879 350.667C139.69 351.059 144.605 351.622 146.462 352.081C148.547 352.596 149.369 354.409 149.69 356.258C149.941 357.704 149.907 359.301 149.88 360.55C149.873 360.896 149.866 361.214 149.866 361.496C149.866 361.497 149.866 361.497 149.866 361.497L149.871 362.337C149.874 362.886 149.879 363.692 149.885 364.719C149.896 366.772 149.912 369.708 149.93 373.237C149.965 380.297 150.008 389.733 150.036 399.239C150.064 408.745 150.079 418.322 150.057 425.663C150.047 429.333 150.027 432.446 149.996 434.712C149.981 435.844 149.962 436.767 149.94 437.443C149.93 437.781 149.918 438.06 149.905 438.273C149.893 438.476 149.878 438.648 149.857 438.754C149.629 439.88 149.298 441.014 148.479 441.789C147.634 442.589 146.369 442.925 144.481 442.692C144.221 442.659 143.956 442.627 143.682 442.594C140.138 442.163 135.221 441.566 121.31 438.647L121.285 438.642L121.261 438.634C119.675 438.111 118.996 436.739 118.674 435.366C118.512 434.674 118.433 433.954 118.378 433.292C118.359 433.057 118.342 432.832 118.327 432.618C118.298 432.217 118.272 431.855 118.232 431.533C118.213 431.38 118.197 430.962 118.181 430.352C118.165 429.728 118.148 428.872 118.131 427.82C118.098 425.714 118.065 422.813 118.034 419.38C117.973 412.513 117.921 403.513 117.896 394.476C117.872 385.438 117.875 376.361 117.925 369.341C117.949 365.831 117.986 362.833 118.036 360.611C118.061 359.5 118.089 358.58 118.122 357.886C118.153 357.207 118.19 356.709 118.237 356.468C118.561 354.826 119.031 353.398 119.866 352.318C120.716 351.219 121.915 350.516 123.608 350.277C124.449 350.158 126.078 350.161 128.063 350.238C130.062 350.315 132.465 350.47 134.879 350.667ZM149.412 361.497L148.959 361.5L148.959 361.497C148.959 361.182 148.966 360.839 148.973 360.476C148.999 359.234 149.03 357.761 148.796 356.41C148.493 354.665 147.785 353.333 146.241 352.951C144.47 352.513 139.632 351.954 134.804 351.561C132.399 351.365 130.01 351.211 128.027 351.135C126.028 351.057 124.482 351.06 123.736 351.166C122.254 351.375 121.278 351.969 120.586 352.863C119.88 353.777 119.443 355.042 119.128 356.64C119.096 356.803 119.06 357.229 119.028 357.928C118.996 358.611 118.968 359.523 118.943 360.631C118.893 362.846 118.857 365.839 118.832 369.347C118.782 376.363 118.779 385.437 118.803 394.473C118.828 403.509 118.88 412.507 118.941 419.372C118.972 422.804 119.005 425.703 119.038 427.806C119.055 428.857 119.072 429.709 119.088 430.328C119.105 430.962 119.121 431.325 119.133 431.424C119.175 431.768 119.204 432.169 119.234 432.586C119.249 432.795 119.265 433.008 119.282 433.219C119.336 433.868 119.411 434.536 119.558 435.163C119.852 436.416 120.404 437.395 121.524 437.775C135.381 440.682 140.272 441.276 143.794 441.704C144.068 441.737 144.333 441.769 144.593 441.801C146.334 442.016 147.279 441.683 147.852 441.141C148.449 440.575 148.742 439.695 148.968 438.578C148.975 438.543 148.987 438.433 148.999 438.22C149.012 438.019 149.023 437.749 149.034 437.415C149.055 436.747 149.074 435.83 149.089 434.7C149.12 432.439 149.14 429.33 149.15 425.66C149.171 418.322 149.157 408.747 149.129 399.242C149.101 389.736 149.058 380.301 149.023 373.242C149.005 369.712 148.989 366.777 148.977 364.724C148.972 363.697 148.967 362.891 148.964 362.342L148.959 361.5C148.959 361.5 148.959 361.5 149.412 361.497Z" fill="white"/>
<path fill-rule="evenodd" clip-rule="evenodd" d="M67.9734 109.972C81.9118 91.9195 91.7325 84.4743 111.208 73.958L111.715 74.6967C94.7977 88.6193 84.0153 100.862 76.863 115.221C69.708 129.586 66.1674 146.105 63.7955 168.615L63.7604 168.948L48.913 171.702L48.7458 170.82L62.9284 168.189C65.3041 145.811 68.859 129.26 76.0492 114.825C82.765 101.342 92.6364 89.7362 107.615 76.9554C90.95 86.2645 81.6676 93.7714 68.9382 110.201C72.4737 113.767 72.5905 119.431 70.5104 124.38C68.4015 129.398 63.9745 133.849 58.24 134.869C54.001 146.735 52.1028 153.528 51.1426 165.326L59.7712 163.7L64.0372 137.117C63.4091 137.705 62.8169 138.174 62.1846 138.529C61.2988 139.027 60.3581 139.291 59.1674 139.384C58.9174 140.361 58.6738 141.296 58.4382 142.2C56.6546 149.046 55.3301 154.129 55.1796 162.296L54.2726 162.279C54.4251 154.003 55.7755 148.821 57.5608 141.972C57.8216 140.971 58.0916 139.935 58.3686 138.848L58.4505 138.527L58.7852 138.51C60.0319 138.446 60.9193 138.209 61.7363 137.749C62.5668 137.282 63.3527 136.572 64.3766 135.508L65.3817 134.463L60.5672 164.464L50.1461 166.427L50.1915 165.842C51.1512 153.493 53.0864 146.581 57.4737 134.321L57.5636 134.07L57.8296 134.028C63.3053 133.162 67.6185 128.923 69.6727 124.036C71.7321 119.136 71.4594 113.757 68.0236 110.571L67.7245 110.294L67.9734 109.972Z" fill="white"/>
<path fill-rule="evenodd" clip-rule="evenodd" d="M61.2117 177.521L61.0764 177.093C60.9411 176.664 60.9412 176.664 60.9413 176.664L60.947 176.663L60.9632 176.658L61.0256 176.639C61.0803 176.622 61.1604 176.598 61.2633 176.567C61.4688 176.506 61.7651 176.42 62.1289 176.318C62.8562 176.113 63.8552 175.845 64.9408 175.59C66.0253 175.336 67.2027 175.095 68.2852 174.945C69.3558 174.797 70.3775 174.731 71.13 174.855C72.4928 175.08 92.1133 178.445 111.389 181.754C121.028 183.408 130.582 185.049 137.726 186.276L149.603 188.315C149.604 188.315 149.604 188.315 149.527 188.758L149.603 188.315L149.654 189.188C144.029 190.821 140.945 191.273 135.854 190.548L135.846 190.546L70.5213 178.88L70.6824 177.997L135.992 189.661C140.31 190.275 143.108 190.023 147.483 188.862L137.571 187.16C130.427 185.933 120.873 184.292 111.234 182.638C91.9548 179.329 72.3397 175.965 70.9809 175.741C70.3726 175.64 69.4665 175.687 68.411 175.833C67.3672 175.978 66.22 176.213 65.1499 176.464C64.081 176.714 63.0955 176.979 62.377 177.181C62.0179 177.282 61.7259 177.367 61.5239 177.427C61.423 177.457 61.3446 177.48 61.2916 177.496L61.2315 177.515L61.2164 177.519L61.2117 177.521Z" fill="white"/>
<path fill-rule="evenodd" clip-rule="evenodd" d="M57.4497 158.655C58.1061 151.903 58.8531 148.261 60.6397 141.977L61.513 142.219C59.7395 148.458 59.0035 152.047 58.3527 158.741L57.4497 158.655Z" fill="white"/>
<path fill-rule="evenodd" clip-rule="evenodd" d="M73.8523 108.922C74.2194 109.603 74.5013 110.211 74.7077 110.916C74.9375 111.702 75.068 112.587 75.137 113.808L74.2312 113.858C74.1643 112.674 74.04 111.862 73.8363 111.166C73.633 110.472 73.3449 109.872 72.9253 109.113L72.7937 108.875L72.9459 108.649C77.6272 101.703 81.0556 98.2685 87.5323 92.415L88.1776 93.0439C82.6877 99.1672 79.7749 102.596 76.4497 109.1L75.6401 108.695C77.6213 104.82 79.4641 102.014 81.7581 99.1194C78.9335 102.011 76.6101 104.852 73.8523 108.922Z" fill="white"/>
<path fill-rule="evenodd" clip-rule="evenodd" d="M197.911 135.926L199.519 136.276C211.923 138.978 220.311 143.242 225.173 148.794C230.054 154.367 231.329 161.179 229.632 168.833C227.939 176.467 223.288 184.955 216.302 193.959C209.312 202.969 199.963 212.523 188.837 222.294L187.936 223.084L189.008 214.604L189.082 214.507C192.3 210.34 193.952 207.519 194.328 205.325C194.513 204.249 194.389 203.328 193.988 202.466C193.582 201.593 192.88 200.752 191.863 199.861L191.543 199.581L191.808 199.248C200.172 188.739 206.009 177.16 206.737 166.519C207.101 161.207 206.191 156.134 203.693 151.536C201.195 146.938 197.093 142.789 191.031 139.347L191.483 138.568C197.668 142.08 201.901 146.343 204.492 151.111C207.082 155.879 208.015 161.125 207.642 166.58C206.904 177.362 201.062 188.982 192.781 199.474C193.691 200.315 194.382 201.166 194.812 202.091C195.295 203.129 195.436 204.234 195.223 205.475C194.807 207.895 193.04 210.849 189.878 214.955L189.135 220.828C199.838 211.36 208.827 202.12 215.582 193.413C222.53 184.457 227.093 176.092 228.746 168.641C230.394 161.208 229.146 154.701 224.487 149.381C220.012 144.271 212.344 140.202 200.907 137.511C207.735 144.24 211.679 151.767 211.952 161.041C212.237 170.75 208.495 182.309 199.968 196.798C200.461 197.447 200.803 198.079 200.998 198.746C201.218 199.499 201.244 200.267 201.121 201.115C200.956 202.262 200.511 203.595 199.884 205.275C212.45 190.288 219.68 179.945 221.946 171.094C223.123 166.494 222.958 162.299 221.492 158.055C220.082 153.974 217.462 149.828 213.633 145.223L212.615 147.909C217.352 157.668 218.217 165.148 216.354 172.55C214.49 179.956 209.9 187.248 203.887 196.625L203.121 196.145C209.157 186.732 213.652 179.57 215.474 172.334C217.285 165.137 216.456 157.829 211.714 148.126L211.629 147.953L213.331 143.463L213.831 144.053C217.965 148.937 220.829 153.362 222.35 157.765C223.876 162.18 224.044 166.552 222.825 171.315C220.398 180.793 212.465 191.82 198.862 207.889L198.09 207.443C198.191 207.178 198.289 206.922 198.384 206.673C199.362 204.113 200.021 202.389 200.223 200.988C200.332 200.237 200.303 199.6 200.127 198.996C199.949 198.389 199.614 197.786 199.068 197.115L198.872 196.874L199.03 196.607C207.63 182.057 211.325 170.591 211.045 161.067C210.766 151.567 206.53 143.935 199.111 137.041L197.911 135.926Z" fill="white"/>
<path fill-rule="evenodd" clip-rule="evenodd" d="M139.299 254.403C146.543 242.413 157.146 231.07 173.727 217.13L174.314 217.814C157.769 231.725 147.249 242.994 140.078 254.863C133.085 266.438 129.261 278.613 126.164 294.423C128.294 292.756 130.179 291.467 131.802 290.799C132.739 290.414 133.625 290.219 134.442 290.303C135.275 290.388 136.001 290.759 136.602 291.434C137.193 292.097 137.656 293.041 138.011 294.27C138.368 295.502 138.624 297.047 138.786 298.936C139.103 302.627 139.062 307.681 138.668 314.381H144.081C143.974 294.228 147.401 279.313 153.787 266.112C159.934 253.405 168.815 242.31 179.864 229.683C179.289 229.93 178.752 230.116 178.249 230.238C177.17 230.5 176.214 230.473 175.366 230.071C174.525 229.672 173.857 228.935 173.29 227.911C172.805 227.036 172.378 225.927 171.974 224.58C160.214 235.425 152.407 242.896 146.611 251.315C140.864 259.663 137.082 268.964 133.429 283.451C135.188 282.574 136.644 282.184 137.945 282.563C139.221 282.934 140.226 284.006 141.2 285.731C141.217 285.659 141.234 285.588 141.251 285.517C143.968 274.063 145.951 265.705 149.612 258.055C153.427 250.081 159.054 242.897 169.179 233.741L169.791 234.403C159.72 243.51 154.181 250.604 150.432 258.439C146.813 266.001 144.851 274.271 142.121 285.776C142.017 286.218 141.911 286.664 141.804 287.115L141.512 288.345L140.954 287.209C139.798 284.854 138.806 283.748 137.689 283.424C136.567 283.097 135.145 283.506 132.965 284.712L132.055 285.216L132.303 284.214C136.047 269.112 139.901 259.467 145.861 250.81C151.812 242.165 159.849 234.527 171.897 223.425L172.444 222.92L172.644 223.634C173.103 225.279 173.568 226.546 174.085 227.479C174.602 228.411 175.15 228.973 175.759 229.262C176.361 229.548 177.089 229.596 178.033 229.367C178.983 229.136 180.121 228.631 181.507 227.85L182.074 228.534C170.317 241.887 160.975 253.332 154.605 266.5C148.24 279.656 144.831 294.557 144.991 314.826L144.994 315.278H137.705L137.734 314.802C138.154 307.879 138.201 302.724 137.883 299.012C137.723 297.156 137.474 295.673 137.139 294.517C136.804 293.358 136.39 292.553 135.922 292.027C135.463 291.513 134.944 291.256 134.349 291.195C133.738 291.133 133.011 291.274 132.151 291.628C130.423 292.339 128.305 293.845 125.773 295.885L124.81 296.661L125.041 295.454C128.189 279.008 132.054 266.397 139.299 254.403Z" fill="white"/>
<path fill-rule="evenodd" clip-rule="evenodd" d="M127.791 356.104C126.144 356.284 125.268 356.693 124.728 357.344C124.166 358.022 123.893 359.043 123.669 360.648C122.306 372.458 122.562 378.724 123.56 389.039C124.615 387.75 125.599 386.794 126.731 386.122C128.121 385.297 129.693 384.923 131.814 384.819L132.091 384.806L132.229 385.043C135.278 390.258 136.833 397.323 136.371 402.357C136.318 402.933 136.272 403.504 136.227 404.071C135.889 408.323 135.567 412.369 132.203 416.937L132.054 417.14L131.802 417.121L131.837 416.673C131.802 417.121 131.802 417.121 131.802 417.121L131.801 417.12L131.795 417.12L131.78 417.119C131.767 417.118 131.748 417.116 131.724 417.113C131.677 417.109 131.608 417.101 131.519 417.09C131.343 417.068 131.09 417.032 130.776 416.974C130.148 416.859 129.274 416.657 128.284 416.311C126.493 415.686 124.301 414.583 122.503 412.648C122.49 412.729 122.476 412.816 122.463 412.911C122.38 413.5 122.31 414.306 122.254 415.269C122.141 417.192 122.085 419.707 122.085 422.281C122.085 424.856 122.141 427.483 122.254 429.633C122.31 430.708 122.381 431.659 122.465 432.422C122.55 433.198 122.645 433.743 122.742 434.029C122.761 434.087 122.829 434.197 123.007 434.35C123.18 434.497 123.426 434.659 123.745 434.83C124.383 435.172 125.265 435.525 126.322 435.868C128.434 436.553 131.187 437.179 133.947 437.597C136.709 438.015 139.45 438.22 141.543 438.076C142.593 438.004 143.449 437.846 144.056 437.601C144.671 437.353 144.936 437.059 145.002 436.765C145.05 436.551 145.101 436.082 145.152 435.355C145.201 434.64 145.247 433.706 145.291 432.582C145.377 430.336 145.452 427.344 145.515 423.865C145.643 416.906 145.728 408.005 145.785 399.229C145.841 390.453 145.87 381.803 145.884 375.347C145.891 372.119 145.895 369.44 145.896 367.567C145.897 366.631 145.898 365.897 145.898 365.396L145.898 364.63C145.898 364.63 145.898 364.63 146.352 364.63L145.898 364.63V364.621L145.898 364.613C145.996 361.998 145.992 360.189 145.753 358.959C145.634 358.35 145.463 357.916 145.243 357.608C145.036 357.316 144.772 357.117 144.418 356.988C137.946 355.795 134.31 355.759 127.791 356.104ZM146.805 364.638C146.902 362.045 146.906 360.135 146.644 358.789C146.511 358.11 146.305 357.541 145.985 357.091C145.657 356.631 145.226 356.318 144.688 356.131L144.655 356.119L144.621 356.113C138.03 354.895 134.315 354.86 127.73 355.209L127.718 355.209L127.705 355.211C125.955 355.4 124.79 355.855 124.027 356.775C123.285 357.67 122.993 358.93 122.769 360.53L122.768 360.541C121.346 372.857 121.676 379.209 122.767 390.246L122.88 391.391L123.581 390.473C124.899 388.746 125.972 387.619 127.198 386.891C128.359 386.202 129.695 385.848 131.582 385.731C134.452 390.773 135.905 397.515 135.467 402.276C135.413 402.863 135.367 403.44 135.321 404.009C134.986 408.189 134.685 411.933 131.623 416.199C131.463 416.179 131.231 416.145 130.942 416.092C130.351 415.983 129.523 415.792 128.586 415.465C126.707 414.809 124.41 413.614 122.666 411.458L122.349 411.066L121.991 411.421C121.901 411.509 121.846 411.617 121.811 411.699C121.773 411.788 121.741 411.889 121.713 411.995C121.657 412.207 121.608 412.477 121.564 412.787C121.477 413.411 121.405 414.245 121.348 415.217C121.234 417.164 121.177 419.697 121.177 422.281C121.177 424.867 121.234 427.51 121.348 429.679C121.405 430.763 121.476 431.733 121.563 432.519C121.648 433.293 121.751 433.925 121.881 434.312C121.975 434.59 122.18 434.828 122.414 435.028C122.654 435.233 122.96 435.43 123.312 435.619C124.018 435.997 124.957 436.37 126.04 436.721C128.209 437.424 131.012 438.06 133.809 438.484C136.603 438.907 139.419 439.122 141.606 438.972C142.697 438.896 143.662 438.729 144.398 438.432C145.127 438.138 145.726 437.676 145.887 436.96C145.953 436.669 146.007 436.132 146.057 435.416C146.107 434.689 146.154 433.744 146.197 432.617C146.284 430.361 146.359 427.362 146.422 423.881C146.55 416.917 146.635 408.012 146.692 399.235C146.749 390.457 146.777 381.806 146.791 375.349C146.798 372.121 146.802 369.441 146.804 367.568C146.804 366.632 146.805 365.897 146.805 365.397L146.805 364.638Z" fill="white"/>
<path fill-rule="evenodd" clip-rule="evenodd" d="M135.048 359.245C132.53 359.135 129.886 359.471 128.387 360.107C128.113 360.223 127.842 360.477 127.588 360.921C127.334 361.363 127.117 361.959 126.939 362.697C126.583 364.171 126.398 366.133 126.332 368.37C126.198 372.84 126.537 378.315 126.846 382.995L125.941 383.054C125.632 378.381 125.29 372.864 125.425 368.344C125.492 366.086 125.679 364.052 126.057 362.488C126.246 361.706 126.487 361.021 126.798 360.478C127.109 359.937 127.509 359.503 128.029 359.282C129.705 358.572 132.504 358.235 135.089 358.349C136.388 358.406 137.659 358.578 138.731 358.885C139.788 359.188 140.721 359.641 141.263 360.311C141.435 360.524 141.566 360.853 141.677 361.215C141.793 361.594 141.904 362.07 142.011 362.625C142.224 363.735 142.425 365.193 142.614 366.88C142.991 370.256 143.317 374.583 143.573 378.961C143.828 383.339 144.012 387.775 144.105 391.369C144.197 394.947 144.198 397.73 144.081 398.777C143.958 399.872 143.553 400.698 142.984 401.276C142.419 401.852 141.714 402.159 141.029 402.256C140.351 402.352 139.669 402.244 139.14 401.961C138.61 401.677 138.187 401.184 138.187 400.522C138.187 399.646 137.962 395.4 137.565 391.085C137.367 388.929 137.127 386.767 136.853 385.006C136.715 384.126 136.571 383.353 136.42 382.734C136.265 382.102 136.115 381.677 135.984 381.46C135.843 381.228 135.711 381.112 135.603 381.053C135.5 380.996 135.387 380.976 135.247 380.989C134.931 381.02 134.549 381.214 134.051 381.504C133.997 381.536 133.942 381.568 133.886 381.601C133.464 381.849 132.977 382.135 132.492 382.288C131.912 382.471 131.264 382.487 130.657 382.037C130.468 381.896 130.325 381.694 130.213 381.481C130.099 381.264 130.002 381.006 129.917 380.72C129.749 380.149 129.619 379.426 129.522 378.611C129.328 376.98 129.257 374.926 129.285 372.867C129.314 370.808 129.442 368.73 129.65 367.05C129.754 366.21 129.879 365.461 130.023 364.86C130.162 364.28 130.334 363.769 130.567 363.463C131.346 362.435 132.768 361.796 134.258 362.116C135.763 362.44 137.219 363.713 138.16 366.271C139.133 368.919 138.271 371.31 137.212 372.998C136.681 373.844 136.092 374.527 135.638 374.999C135.41 375.235 135.215 375.419 135.075 375.545C135.005 375.608 134.949 375.657 134.91 375.69C134.89 375.707 134.875 375.72 134.864 375.729L134.851 375.74L134.847 375.743L134.846 375.744C134.846 375.744 134.845 375.744 134.558 375.397C134.271 375.05 134.271 375.05 134.271 375.05L134.272 375.049L134.281 375.042C134.289 375.035 134.301 375.025 134.318 375.011C134.351 374.983 134.4 374.94 134.463 374.883C134.589 374.769 134.77 374.599 134.981 374.379C135.405 373.94 135.951 373.305 136.441 372.525C137.423 370.96 138.148 368.865 137.307 366.577C136.433 364.201 135.168 363.23 134.065 362.993C132.946 362.752 131.874 363.235 131.292 364.001C131.184 364.144 131.045 364.488 130.906 365.067C130.772 365.624 130.652 366.337 130.55 367.159C130.347 368.801 130.22 370.845 130.192 372.88C130.164 374.915 130.235 376.927 130.423 378.506C130.517 379.297 130.639 379.965 130.788 380.469C130.862 380.72 130.94 380.919 131.018 381.068C131.098 381.221 131.164 381.292 131.202 381.319C131.502 381.542 131.818 381.559 132.216 381.433C132.596 381.313 132.985 381.085 133.422 380.83C133.477 380.797 133.534 380.764 133.591 380.731C134.057 380.46 134.61 380.15 135.159 380.096C135.451 380.068 135.753 380.11 136.042 380.267C136.325 380.422 136.562 380.67 136.761 380.999C136.97 381.343 137.146 381.886 137.302 382.524C137.461 383.176 137.61 383.977 137.749 384.87C138.028 386.657 138.27 388.84 138.469 391.003C138.866 395.324 139.094 399.603 139.094 400.522C139.094 400.757 139.237 400.992 139.572 401.172C139.908 401.351 140.389 401.44 140.901 401.367C141.407 401.296 141.922 401.07 142.334 400.651C142.744 400.233 143.075 399.601 143.179 398.678C143.288 397.705 143.29 394.992 143.198 391.392C143.106 387.808 142.922 383.382 142.667 379.012C142.412 374.641 142.086 370.332 141.712 366.978C141.525 365.3 141.326 363.869 141.119 362.792C141.016 362.253 140.912 361.811 140.809 361.475C140.701 361.122 140.609 360.94 140.554 360.872C140.189 360.42 139.477 360.033 138.479 359.747C137.496 359.465 136.3 359.3 135.048 359.245Z" fill="white"/>
<path fill-rule="evenodd" clip-rule="evenodd" d="M142.089 405.94C142.457 406.498 142.812 407.33 143.157 408.468C143.517 409.655 143.687 411.589 143.715 413.821C143.744 416.068 143.629 418.663 143.402 421.199C143.174 423.734 142.831 426.22 142.401 428.248C142.187 429.261 141.948 430.167 141.688 430.912C141.432 431.645 141.141 432.262 140.803 432.663C140.141 433.449 139.088 433.9 137.915 434.133C136.733 434.369 135.369 434.395 134.009 434.281C131.307 434.053 128.5 433.257 127.049 432.3C126.214 431.749 125.729 430.613 125.428 429.382C125.12 428.121 124.977 426.63 124.92 425.215C124.862 423.797 124.891 422.438 124.934 421.435C124.955 420.933 124.98 420.519 125 420.23C125.01 420.086 125.019 419.972 125.025 419.895L125.032 419.806L125.034 419.783L125.034 419.775C125.034 419.775 125.035 419.774 125.486 419.813L125.938 419.852L125.938 419.859L125.936 419.88L125.929 419.964C125.923 420.039 125.915 420.149 125.905 420.29C125.886 420.573 125.861 420.979 125.84 421.473C125.798 422.46 125.77 423.793 125.826 425.179C125.882 426.569 126.023 427.993 126.31 429.172C126.605 430.381 127.027 431.207 127.552 431.554C128.823 432.392 131.459 433.165 134.086 433.387C135.392 433.497 136.664 433.467 137.736 433.254C138.817 433.039 139.635 432.649 140.106 432.088C140.336 431.816 140.584 431.326 140.831 430.618C141.074 429.922 141.303 429.055 141.514 428.063C141.934 426.081 142.272 423.632 142.498 421.12C142.724 418.608 142.836 416.044 142.808 413.832C142.78 411.606 142.609 409.782 142.288 408.726C141.953 407.62 141.628 406.883 141.33 406.431C141.02 405.961 140.812 405.905 140.739 405.905C140.658 405.905 140.479 405.969 140.225 406.33C139.984 406.672 139.745 407.187 139.524 407.842C139.31 408.478 139.089 409.592 138.832 410.977C138.788 411.214 138.743 411.458 138.697 411.707C138.477 412.901 138.233 414.227 137.95 415.533C137.608 417.11 137.206 418.678 136.712 419.972C136.228 421.239 135.62 422.344 134.81 422.879C133.327 423.856 131.944 423.864 130.933 423.613C130.536 423.515 130.199 423.379 129.936 423.249C129.91 423.66 129.91 424.21 130.015 424.78C130.223 425.914 130.821 427.063 132.4 427.454C134.127 427.881 135.272 427.659 135.967 427.365C136.318 427.216 136.564 427.044 136.717 426.916C136.795 426.851 136.849 426.797 136.881 426.762C136.898 426.745 136.909 426.732 136.915 426.725L136.919 426.72L136.918 426.721L136.918 426.722C136.917 426.722 136.917 426.723 137.28 426.992C137.643 427.261 137.642 427.261 137.642 427.262L137.641 427.263L137.638 427.267L137.632 427.275C137.627 427.281 137.621 427.289 137.613 427.298C137.597 427.317 137.575 427.342 137.547 427.372C137.491 427.432 137.411 427.511 137.303 427.601C137.089 427.78 136.767 428.002 136.324 428.189C135.432 428.568 134.082 428.795 132.18 428.324C130.13 427.817 129.368 426.275 129.123 424.941C129 424.277 129.001 423.65 129.031 423.191C129.046 422.961 129.069 422.771 129.088 422.637C129.097 422.57 129.106 422.517 129.112 422.48C129.116 422.461 129.118 422.446 129.12 422.436L129.123 422.423L129.124 422.419L129.124 422.418C129.124 422.418 129.124 422.417 129.569 422.505L129.124 422.417L129.27 421.694L129.851 422.154L129.851 422.154L129.853 422.155L129.866 422.165C129.878 422.174 129.899 422.189 129.928 422.209C129.985 422.247 130.072 422.303 130.186 422.365C130.415 422.491 130.746 422.642 131.153 422.743C131.956 422.941 133.068 422.949 134.307 422.132C134.857 421.769 135.383 420.911 135.863 419.655C136.333 418.425 136.724 416.908 137.063 415.345C137.343 414.054 137.584 412.745 137.804 411.55C137.85 411.3 137.895 411.054 137.939 410.815C138.192 409.453 138.425 408.267 138.664 407.558C138.897 406.867 139.168 406.26 139.48 405.817C139.779 405.393 140.195 405.008 140.739 405.008C141.289 405.008 141.733 405.4 142.089 405.94ZM136.919 426.72C136.919 426.719 136.92 426.719 136.919 426.72V426.72Z" fill="white"/>
<path fill-rule="evenodd" clip-rule="evenodd" d="M91.9206 155.557C98.6844 155.557 104.168 150.134 104.168 143.444C104.168 136.753 98.6844 131.33 91.9206 131.33C85.1568 131.33 79.6737 136.753 79.6737 143.444C79.6737 150.134 85.1568 155.557 91.9206 155.557ZM91.9206 156.454C99.1855 156.454 105.075 150.629 105.075 143.444C105.075 136.258 99.1855 130.433 91.9206 130.433C84.6558 130.433 78.7665 136.258 78.7665 143.444C78.7665 150.629 84.6558 156.454 91.9206 156.454Z" fill="#597DFF"/>
<path fill-rule="evenodd" clip-rule="evenodd" d="M110.971 135.817C114.228 135.817 116.868 133.206 116.868 129.985C116.868 126.763 114.228 124.152 110.971 124.152C107.715 124.152 105.075 126.763 105.075 129.985C105.075 133.206 107.715 135.817 110.971 135.817ZM110.971 136.714C114.729 136.714 117.775 133.701 117.775 129.985C117.775 126.268 114.729 123.255 110.971 123.255C107.214 123.255 104.168 126.268 104.168 129.985C104.168 133.701 107.214 136.714 110.971 136.714Z" fill="#597DFF"/>
<path fill-rule="evenodd" clip-rule="evenodd" d="M63.2015 125.567C63.9954 124.71 64.8891 123.371 65.665 121.749C66.4409 120.127 66.9215 118.594 67.0882 117.444C67.1723 116.863 67.1685 116.431 67.1147 116.153C67.104 116.098 67.0928 116.055 67.0824 116.022C67.0499 116.035 67.0091 116.053 66.9592 116.08C66.7076 116.216 66.3679 116.486 65.967 116.919C65.1731 117.776 64.2795 119.116 63.5036 120.737C62.7276 122.359 62.247 123.892 62.0804 125.043C61.9963 125.624 62 126.055 62.0538 126.333C62.0645 126.389 62.0757 126.432 62.0861 126.465C62.1186 126.452 62.1594 126.433 62.2093 126.406C62.4609 126.271 62.8006 126 63.2015 125.567ZM61.9818 126.494C61.9819 126.494 61.9839 126.494 61.9878 126.494C61.9837 126.494 61.9817 126.494 61.9818 126.494ZM62.1258 126.558C62.1284 126.561 62.1295 126.563 62.1295 126.563C62.1294 126.563 62.1281 126.562 62.1258 126.558ZM67.1867 115.993C67.1867 115.993 67.1846 115.993 67.1807 115.993C67.1848 115.992 67.1868 115.992 67.1867 115.993ZM67.0427 115.928C67.0401 115.925 67.039 115.924 67.0391 115.923C67.0391 115.923 67.0405 115.925 67.0427 115.928ZM61.6739 127.326C62.7237 127.818 64.8776 125.492 66.485 122.133C68.0923 118.773 68.5443 115.652 67.4946 115.16C66.4448 114.669 64.2909 116.994 62.6836 120.354C61.0762 123.713 60.6242 126.835 61.6739 127.326Z" fill="#597DFF"/>
<path d="M64.6526 121.307C63.675 123.35 62.5796 124.865 62.2062 124.69C61.8327 124.515 62.3224 122.717 63.3001 120.674C64.2778 118.63 65.3731 117.115 65.7466 117.29C66.1201 117.465 65.6303 119.263 64.6526 121.307Z" fill="#597DFF"/>
<path d="M48.7474 139.272C48.3111 140.669 47.551 141.678 47.0497 141.525C46.5484 141.372 46.4958 140.115 46.9321 138.717C47.3685 137.32 48.1285 136.312 48.6298 136.465C49.1311 136.618 49.1837 137.875 48.7474 139.272Z" fill="#597DFF"/>
<path d="M257.879 271.012C256.861 272.071 255.726 272.641 255.346 272.283C254.966 271.926 255.484 270.777 256.502 269.717C257.521 268.657 258.655 268.088 259.036 268.445C259.416 268.803 258.898 269.952 257.879 271.012Z" fill="#597DFF"/>
<path d="M167.465 165.774C167.09 167.189 166.375 168.229 165.868 168.097C165.36 167.966 165.252 166.713 165.627 165.298C166.001 163.883 166.716 162.843 167.224 162.974C167.732 163.106 167.839 164.359 167.465 165.774Z" fill="#597DFF"/>
<path fill-rule="evenodd" clip-rule="evenodd" d="M131.333 307.203C132.187 307.178 132.831 305.56 132.77 303.59C132.71 301.62 131.969 300.044 131.115 300.07C130.728 300.081 130.199 300.419 129.741 300.969C129.787 300.953 129.831 300.945 129.872 300.943C130.293 300.931 130.659 301.709 130.689 302.681C130.719 303.653 130.401 304.451 129.98 304.464C129.628 304.475 129.003 303.934 128.789 303.19C128.772 303.351 128.766 303.516 128.771 303.683C128.831 305.653 130.48 307.229 131.333 307.203Z" fill="#597DFF"/>
<path fill-rule="evenodd" clip-rule="evenodd" d="M183.812 209.219C184.066 209.459 184.732 209.178 185.299 208.591C185.658 208.219 185.891 207.813 185.949 207.505C186.183 207.511 186.38 207.578 186.522 207.713C187.14 208.296 186.526 209.925 185.15 211.351C183.774 212.776 182.158 213.459 181.54 212.875C180.922 212.292 181.536 210.663 182.912 209.238C183.23 208.908 183.561 208.618 183.889 208.375C183.693 208.742 183.651 209.067 183.812 209.219Z" fill="#597DFF"/>
<path d="M182.414 221.343C181.667 222.117 180.756 222.456 180.379 222.099C180.001 221.743 180.301 220.827 181.048 220.053C181.795 219.279 182.706 218.94 183.083 219.297C183.461 219.653 183.161 220.569 182.414 221.343Z" fill="#597DFF"/>
<path fill-rule="evenodd" clip-rule="evenodd" d="M126.064 405.956C126.997 405.928 127.699 404.095 127.63 401.863C127.562 399.631 126.75 397.843 125.816 397.871C125.648 397.876 125.488 397.94 125.339 398.053C125.657 398.361 125.896 399.088 125.922 399.942C125.957 401.087 125.598 402.026 125.119 402.04C124.762 402.051 124.439 401.543 124.284 400.808C124.25 401.175 124.237 401.563 124.249 401.964C124.318 404.197 125.13 405.984 126.064 405.956Z" fill="#597DFF"/>
<path fill-rule="evenodd" clip-rule="evenodd" d="M181.14 216.115C182.553 215.352 184.292 214.018 185.997 212.283C187.703 210.547 189.001 208.789 189.732 207.371C190.1 206.657 190.299 206.076 190.359 205.655C190.408 205.313 190.353 205.19 190.338 205.163C190.311 205.149 190.184 205.098 189.841 205.156C189.417 205.227 188.835 205.441 188.124 205.826C186.712 206.589 184.972 207.922 183.267 209.658C181.562 211.393 180.264 213.151 179.533 214.569C179.165 215.284 178.965 215.865 178.905 216.286C178.856 216.627 178.911 216.751 178.926 216.777C178.954 216.792 179.08 216.842 179.424 216.784C179.848 216.713 180.429 216.499 181.14 216.115ZM178.293 217.422C179.407 218.492 183.147 216.471 186.648 212.908C190.149 209.345 192.084 205.589 190.971 204.519C189.858 203.449 186.117 205.469 182.616 209.032C179.115 212.596 177.18 216.351 178.293 217.422Z" fill="#597DFF"/>
<path fill-rule="evenodd" clip-rule="evenodd" d="M179.137 223.592C179.592 222.708 180.412 221.594 181.502 220.485C182.591 219.376 183.694 218.533 184.575 218.057C184.995 217.83 185.323 217.71 185.549 217.665C185.51 217.889 185.397 218.217 185.18 218.639C184.724 219.523 183.904 220.637 182.814 221.746C181.725 222.855 180.622 223.698 179.742 224.174C179.321 224.401 178.993 224.521 178.768 224.566C178.807 224.342 178.919 224.014 179.137 223.592ZM178.755 224.769C178.755 224.768 178.755 224.765 178.753 224.76C178.754 224.766 178.755 224.769 178.755 224.769ZM178.572 224.586C178.567 224.584 178.564 224.584 178.563 224.584C178.563 224.584 178.566 224.585 178.572 224.586ZM185.561 217.462C185.561 217.463 185.561 217.466 185.563 217.471C185.562 217.465 185.561 217.462 185.561 217.462ZM185.744 217.645C185.75 217.647 185.753 217.647 185.753 217.647C185.753 217.647 185.75 217.646 185.744 217.645ZM178.049 225.298C177.327 224.604 178.582 222.169 180.851 219.859C183.121 217.55 185.546 216.24 186.267 216.933C186.989 217.627 185.734 220.062 183.465 222.372C181.195 224.681 178.771 225.992 178.049 225.298Z" fill="#597DFF"/>
<path fill-rule="evenodd" clip-rule="evenodd" d="M115.507 155.558C119.766 155.558 123.218 152.143 123.218 147.931C123.218 143.718 119.766 140.304 115.507 140.304C111.249 140.304 107.796 143.718 107.796 147.931C107.796 152.143 111.249 155.558 115.507 155.558ZM115.507 156.455C120.267 156.455 124.126 152.639 124.126 147.931C124.126 143.223 120.267 139.406 115.507 139.406C110.748 139.406 106.889 143.223 106.889 147.931C106.889 152.639 110.748 156.455 115.507 156.455Z" fill="#597DFF"/>
<path fill-rule="evenodd" clip-rule="evenodd" d="M181.732 129.535C185.99 129.535 189.443 126.12 189.443 121.908C189.443 117.696 185.99 114.281 181.732 114.281C177.473 114.281 174.021 117.696 174.021 121.908C174.021 126.12 177.473 129.535 181.732 129.535ZM181.732 130.433C186.491 130.433 190.35 126.616 190.35 121.908C190.35 117.2 186.491 113.384 181.732 113.384C176.972 113.384 173.113 117.2 173.113 121.908C173.113 126.616 176.972 130.433 181.732 130.433Z" fill="#597DFF"/>
<path fill-rule="evenodd" clip-rule="evenodd" d="M217.112 76.5948C221.371 76.5948 224.823 73.1801 224.823 68.9677C224.823 64.7554 221.371 61.3407 217.112 61.3407C212.853 61.3407 209.401 64.7554 209.401 68.9677C209.401 73.1801 212.853 76.5948 217.112 76.5948ZM217.112 77.4921C221.872 77.4921 225.73 73.6756 225.73 68.9677C225.73 64.2599 221.872 60.4434 217.112 60.4434C212.352 60.4434 208.494 64.2599 208.494 68.9677C208.494 73.6756 212.352 77.4921 217.112 77.4921Z" fill="#597DFF"/>
<path fill-rule="evenodd" clip-rule="evenodd" d="M229.359 86.4648C232.365 86.4648 234.802 84.0543 234.802 81.0809C234.802 78.1075 232.365 75.6971 229.359 75.6971C226.353 75.6971 223.916 78.1075 223.916 81.0809C223.916 84.0543 226.353 86.4648 229.359 86.4648ZM229.359 87.3621C232.866 87.3621 235.709 84.5499 235.709 81.0809C235.709 77.612 232.866 74.7998 229.359 74.7998C225.852 74.7998 223.009 77.612 223.009 81.0809C223.009 84.5499 225.852 87.3621 229.359 87.3621Z" fill="#597DFF"/>
<path fill-rule="evenodd" clip-rule="evenodd" d="M276.532 177.991C285.05 177.991 291.954 171.161 291.954 162.736C291.954 154.312 285.05 147.482 276.532 147.482C268.015 147.482 261.11 154.312 261.11 162.736C261.11 171.161 268.015 177.991 276.532 177.991ZM276.532 178.888C285.551 178.888 292.861 171.657 292.861 162.736C292.861 153.816 285.551 146.585 276.532 146.585C267.514 146.585 260.203 153.816 260.203 162.736C260.203 171.657 267.514 178.888 276.532 178.888Z" fill="#597DFF"/>
<path fill-rule="evenodd" clip-rule="evenodd" d="M168.578 385.267C173.588 385.267 177.649 381.25 177.649 376.294C177.649 371.338 173.588 367.321 168.578 367.321C163.567 367.321 159.506 371.338 159.506 376.294C159.506 381.25 163.567 385.267 168.578 385.267ZM168.578 386.165C174.089 386.165 178.557 381.745 178.557 376.294C178.557 370.843 174.089 366.424 168.578 366.424C163.066 366.424 158.599 370.843 158.599 376.294C158.599 381.745 163.066 386.165 168.578 386.165Z" fill="#597DFF"/>
<path fill-rule="evenodd" clip-rule="evenodd" d="M129.348 408.059C130.032 406.405 130.476 404.058 130.476 401.419C130.476 398.781 130.032 396.434 129.348 394.78C129.005 393.95 128.619 393.339 128.238 392.948C127.859 392.561 127.542 392.446 127.301 392.446C127.059 392.446 126.743 392.561 126.364 392.948C125.982 393.339 125.597 393.95 125.254 394.78C124.57 396.434 124.126 398.781 124.126 401.419C124.126 404.058 124.57 406.405 125.254 408.059C125.597 408.888 125.982 409.5 126.364 409.89C126.743 410.278 127.059 410.392 127.301 410.392C127.542 410.392 127.859 410.278 128.238 409.89C128.619 409.5 129.005 408.888 129.348 408.059ZM127.301 411.29C129.555 411.29 131.383 406.87 131.383 401.419C131.383 395.968 129.555 391.549 127.301 391.549C125.046 391.549 123.218 395.968 123.218 401.419C123.218 406.87 125.046 411.29 127.301 411.29Z" fill="#597DFF"/>
<path fill-rule="evenodd" clip-rule="evenodd" d="M133.236 308.998C133.761 307.664 134.105 305.761 134.105 303.613C134.105 301.465 133.761 299.561 133.236 298.228C132.973 297.558 132.682 297.077 132.405 296.779C132.128 296.482 131.935 296.434 131.837 296.434C131.738 296.434 131.545 296.482 131.269 296.779C130.991 297.077 130.7 297.558 130.437 298.228C129.913 299.561 129.569 301.465 129.569 303.613C129.569 305.761 129.913 307.664 130.437 308.998C130.7 309.668 130.991 310.149 131.269 310.447C131.545 310.744 131.738 310.791 131.837 310.791C131.935 310.791 132.128 310.744 132.405 310.447C132.682 310.149 132.973 309.668 133.236 308.998ZM131.837 311.689C133.59 311.689 135.012 308.073 135.012 303.613C135.012 299.153 133.59 295.537 131.837 295.537C130.083 295.537 128.661 299.153 128.661 303.613C128.661 308.073 130.083 311.689 131.837 311.689Z" fill="#597DFF"/>
<path fill-rule="evenodd" clip-rule="evenodd" d="M178.556 395.138C181.062 395.138 183.092 393.129 183.092 390.651C183.092 388.174 181.062 386.165 178.556 386.165C176.051 386.165 174.021 388.174 174.021 390.651C174.021 393.129 176.051 395.138 178.556 395.138ZM178.556 396.035C181.563 396.035 184 393.625 184 390.651C184 387.678 181.563 385.268 178.556 385.268C175.55 385.268 173.113 387.678 173.113 390.651C173.113 393.625 175.55 396.035 178.556 396.035Z" fill="#597DFF"/>
<path fill-rule="evenodd" clip-rule="evenodd" d="M224.823 423.852C227.328 423.852 229.359 421.843 229.359 419.365C229.359 416.887 227.328 414.879 224.823 414.879C222.318 414.879 220.287 416.887 220.287 419.365C220.287 421.843 222.318 423.852 224.823 423.852ZM224.823 424.749C227.829 424.749 230.266 422.339 230.266 419.365C230.266 416.392 227.829 413.981 224.823 413.981C221.817 413.981 219.38 416.392 219.38 419.365C219.38 422.339 221.817 424.749 224.823 424.749Z" fill="#597DFF"/>
<path fill-rule="evenodd" clip-rule="evenodd" d="M216.205 252.467C220.964 252.467 224.823 248.65 224.823 243.942C224.823 239.234 220.964 235.418 216.205 235.418C211.445 235.418 207.586 239.234 207.586 243.942C207.586 248.65 211.445 252.467 216.205 252.467ZM216.205 253.364C221.465 253.364 225.73 249.146 225.73 243.942C225.73 238.739 221.465 234.521 216.205 234.521C210.944 234.521 206.679 238.739 206.679 243.942C206.679 249.146 210.944 253.364 216.205 253.364Z" fill="#597DFF"/>
<path fill-rule="evenodd" clip-rule="evenodd" d="M231.627 245.288C234.382 245.288 236.616 243.079 236.616 240.353C236.616 237.627 234.382 235.418 231.627 235.418C228.871 235.418 226.637 237.627 226.637 240.353C226.637 243.079 228.871 245.288 231.627 245.288ZM231.627 246.185C234.883 246.185 237.523 243.574 237.523 240.353C237.523 237.132 234.883 234.521 231.627 234.521C228.37 234.521 225.73 237.132 225.73 240.353C225.73 243.574 228.37 246.185 231.627 246.185Z" fill="#597DFF"/>
<path fill-rule="evenodd" clip-rule="evenodd" d="M175.381 317.97C178.137 317.97 180.371 315.76 180.371 313.035C180.371 310.309 178.137 308.099 175.381 308.099C172.626 308.099 170.392 310.309 170.392 313.035C170.392 315.76 172.626 317.97 175.381 317.97ZM175.381 318.867C178.638 318.867 181.278 316.256 181.278 313.035C181.278 309.813 178.638 307.202 175.381 307.202C172.125 307.202 169.485 309.813 169.485 313.035C169.485 316.256 172.125 318.867 175.381 318.867Z" fill="#597DFF"/>
<path fill-rule="evenodd" clip-rule="evenodd" d="M225.73 316.175C227.233 316.175 228.452 314.969 228.452 313.483C228.452 311.996 227.233 310.791 225.73 310.791C224.227 310.791 223.009 311.996 223.009 313.483C223.009 314.969 224.227 316.175 225.73 316.175ZM225.73 317.072C227.734 317.072 229.359 315.465 229.359 313.483C229.359 311.501 227.734 309.894 225.73 309.894C223.726 309.894 222.101 311.501 222.101 313.483C222.101 315.465 223.726 317.072 225.73 317.072Z" fill="#597DFF"/>
<path fill-rule="evenodd" clip-rule="evenodd" d="M219.38 309.894C221.384 309.894 223.008 308.287 223.008 306.305C223.008 304.323 221.384 302.716 219.38 302.716C217.376 302.716 215.751 304.323 215.751 306.305C215.751 308.287 217.376 309.894 219.38 309.894ZM219.38 310.791C221.885 310.791 223.916 308.783 223.916 306.305C223.916 303.827 221.885 301.818 219.38 301.818C216.875 301.818 214.844 303.827 214.844 306.305C214.844 308.783 216.875 310.791 219.38 310.791Z" fill="#597DFF"/>
<path fill-rule="evenodd" clip-rule="evenodd" d="M255.265 272.46C256.12 272.258 257.066 271.721 257.877 270.876C258.689 270.032 259.184 269.071 259.345 268.216C259.507 267.356 259.326 266.666 258.884 266.251L259.509 265.601C260.247 266.295 260.434 267.337 260.237 268.38C260.039 269.429 259.449 270.543 258.535 271.495C257.62 272.446 256.525 273.085 255.476 273.333C254.432 273.579 253.371 273.448 252.633 272.754L253.258 272.104C253.7 272.519 254.405 272.663 255.265 272.46Z" fill="#597DFF"/>
<path fill-rule="evenodd" clip-rule="evenodd" d="M49.1459 136.742C48.4787 137.308 47.8855 138.214 47.5532 139.331C47.2209 140.449 47.2243 141.528 47.4757 142.361C47.7285 143.199 48.2084 143.731 48.7927 143.901L48.5368 144.761C47.5602 144.477 46.9133 143.635 46.6064 142.617C46.2979 141.595 46.3085 140.338 46.6829 139.078C47.0573 137.819 47.7366 136.756 48.5554 136.061C49.3703 135.37 50.3753 135.008 51.3519 135.292L51.096 136.153C50.5117 135.983 49.8171 136.173 49.1459 136.742Z" fill="#597DFF"/>
<path fill-rule="evenodd" clip-rule="evenodd" d="M165.526 168.478C166.111 167.868 166.634 166.924 166.928 165.783C167.221 164.643 167.219 163.566 166.999 162.754C166.776 161.926 166.362 161.474 165.913 161.361L166.137 160.491C167.047 160.721 167.614 161.552 167.876 162.522C168.142 163.508 168.131 164.744 167.807 166.005C167.482 167.265 166.895 168.356 166.184 169.096C165.485 169.824 164.585 170.286 163.675 170.057L163.898 169.187C164.348 169.3 164.929 169.099 165.526 168.478Z" fill="#597DFF"/>
<path fill-rule="evenodd" clip-rule="evenodd" d="M88.2919 150.174C91.5486 150.174 94.1886 147.562 94.1886 144.341C94.1886 141.12 91.5486 138.509 88.2919 138.509C85.0353 138.509 82.3952 141.12 82.3952 144.341C82.3952 147.562 85.0353 150.174 88.2919 150.174ZM88.2919 151.071C92.0496 151.071 95.0958 148.058 95.0958 144.341C95.0958 140.624 92.0496 137.611 88.2919 137.611C84.5342 137.611 81.488 140.624 81.488 144.341C81.488 148.058 84.5342 151.071 88.2919 151.071Z" fill="#597DFF"/>
<path fill-rule="evenodd" clip-rule="evenodd" d="M277.254 174.336C282.264 174.336 286.326 170.318 286.326 165.363C286.326 160.407 282.264 156.389 277.254 156.389C272.244 156.389 268.182 160.407 268.182 165.363C268.182 170.318 272.244 174.336 277.254 174.336ZM277.254 175.233C282.765 175.233 287.233 170.814 287.233 165.363C287.233 159.911 282.765 155.492 277.254 155.492C271.743 155.492 267.275 159.911 267.275 165.363C267.275 170.814 271.743 175.233 277.254 175.233Z" fill="#597DFF"/>
<path fill-rule="evenodd" clip-rule="evenodd" d="M115.961 152.866C117.965 152.866 119.59 151.259 119.59 149.277C119.59 147.294 117.965 145.687 115.961 145.687C113.957 145.687 112.332 147.294 112.332 149.277C112.332 151.259 113.957 152.866 115.961 152.866ZM115.961 153.763C118.466 153.763 120.497 151.754 120.497 149.277C120.497 146.799 118.466 144.79 115.961 144.79C113.456 144.79 111.425 146.799 111.425 149.277C111.425 151.754 113.456 153.763 115.961 153.763Z" fill="#597DFF"/>
<path fill-rule="evenodd" clip-rule="evenodd" d="M162.502 377.247C163.765 377.968 165.747 377.422 166.827 375.572C167.907 373.722 167.394 371.752 166.131 371.03C164.868 370.309 162.886 370.855 161.806 372.705C160.726 374.555 161.239 376.526 162.502 377.247ZM162.049 378.024C163.869 379.064 166.36 378.167 167.612 376.021C168.865 373.875 168.405 371.293 166.584 370.253C164.764 369.214 162.273 370.111 161.021 372.257C159.768 374.402 160.228 376.985 162.049 378.024Z" fill="#597DFF"/>
<path fill-rule="evenodd" clip-rule="evenodd" d="M182.185 125.947C184.189 125.947 185.814 124.34 185.814 122.358C185.814 120.375 184.189 118.768 182.185 118.768C180.181 118.768 178.556 120.375 178.556 122.358C178.556 124.34 180.181 125.947 182.185 125.947ZM182.185 126.844C184.69 126.844 186.721 124.835 186.721 122.358C186.721 119.88 184.69 117.871 182.185 117.871C179.68 117.871 177.649 119.88 177.649 122.358C177.649 124.835 179.68 126.844 182.185 126.844Z" fill="#597DFF"/>
<path fill-rule="evenodd" clip-rule="evenodd" d="M215.751 70.314C217.755 70.314 219.38 68.7071 219.38 66.7248C219.38 64.7425 217.755 63.1356 215.751 63.1356C213.747 63.1356 212.122 64.7425 212.122 66.7248C212.122 68.7071 213.747 70.314 215.751 70.314ZM215.751 71.2113C218.256 71.2113 220.287 69.2026 220.287 66.7248C220.287 64.247 218.256 62.2383 215.751 62.2383C213.246 62.2383 211.215 64.247 211.215 66.7248C211.215 69.2026 213.246 71.2113 215.751 71.2113Z" fill="#597DFF"/>
<path fill-rule="evenodd" clip-rule="evenodd" d="M231.853 85.2668C233.128 84.5388 233.367 83.3735 233.029 82.7934C232.69 82.2133 231.55 81.8352 230.275 82.5633C229.001 83.2913 228.762 84.4566 229.1 85.0367C229.439 85.6167 230.579 85.9949 231.853 85.2668ZM232.307 86.0439C233.826 85.1767 234.5 83.5205 233.814 82.3448C233.128 81.169 231.34 80.9189 229.822 81.7862C228.303 82.6534 227.628 84.3096 228.315 85.4853C229.001 86.6611 230.788 86.9112 232.307 86.0439Z" fill="#597DFF"/>
<path fill-rule="evenodd" clip-rule="evenodd" d="M88.2918 148.379C90.5464 148.379 92.3741 146.572 92.3741 144.342C92.3741 142.112 90.5464 140.304 88.2918 140.304C87.8105 140.304 87.3486 140.386 86.9198 140.537C87.4683 140.846 87.8382 141.429 87.8382 142.098C87.8382 143.089 87.0259 143.893 86.0238 143.893C85.3476 143.893 84.7578 143.527 84.4458 142.985C84.2928 143.409 84.2095 143.865 84.2095 144.342C84.2095 146.572 86.0372 148.379 88.2918 148.379Z" fill="#597DFF"/>
<path d="M278.13 165.595C277.223 168.946 276.095 171.558 275.611 171.43C275.127 171.302 275.47 168.481 276.378 165.131C277.286 161.78 278.414 159.167 278.898 159.296C279.382 159.424 279.038 162.244 278.13 165.595Z" fill="#597DFF"/>
<path fill-rule="evenodd" clip-rule="evenodd" d="M213.937 250.672C216.442 250.672 218.472 248.664 218.472 246.186C218.472 243.708 216.442 241.699 213.937 241.699C213.341 241.699 212.771 241.813 212.25 242.02C212.721 242.344 213.029 242.883 213.029 243.494C213.029 244.485 212.217 245.288 211.215 245.288C210.598 245.288 210.052 244.983 209.725 244.517C209.516 245.033 209.401 245.596 209.401 246.186C209.401 248.664 211.431 250.672 213.937 250.672Z" fill="#597DFF"/>
<path fill-rule="evenodd" clip-rule="evenodd" d="M233.441 242.596C234.694 242.596 235.709 241.592 235.709 240.353C235.709 239.114 234.694 238.109 233.441 238.109C233.143 238.109 232.858 238.166 232.598 238.27C232.833 238.432 232.987 238.701 232.987 239.007C232.987 239.502 232.581 239.904 232.08 239.904C231.772 239.904 231.499 239.751 231.335 239.519C231.231 239.776 231.173 240.058 231.173 240.353C231.173 241.592 232.188 242.596 233.441 242.596Z" fill="#597DFF"/>
<path fill-rule="evenodd" clip-rule="evenodd" d="M225.73 315.278C226.732 315.278 227.544 314.474 227.544 313.483C227.544 312.492 226.732 311.688 225.73 311.688C225.544 311.688 225.365 311.716 225.196 311.768C225.511 311.908 225.73 312.222 225.73 312.586C225.73 313.081 225.324 313.483 224.823 313.483C224.455 313.483 224.138 313.266 223.995 312.955C223.944 313.122 223.916 313.299 223.916 313.483C223.916 314.474 224.728 315.278 225.73 315.278Z" fill="#597DFF"/>
<path fill-rule="evenodd" clip-rule="evenodd" d="M218.473 307.202C219.475 307.202 220.287 306.398 220.287 305.407C220.287 304.416 219.475 303.612 218.473 303.612C218.287 303.612 218.107 303.64 217.938 303.691C218.253 303.832 218.473 304.146 218.473 304.51C218.473 305.005 218.066 305.407 217.565 305.407C217.197 305.407 216.88 305.19 216.738 304.878C216.686 305.046 216.658 305.223 216.658 305.407C216.658 306.398 217.471 307.202 218.473 307.202Z" fill="#597DFF"/>
<path fill-rule="evenodd" clip-rule="evenodd" d="M175.381 315.278C176.634 315.278 177.649 314.273 177.649 313.034C177.649 311.795 176.634 310.791 175.381 310.791C175.205 310.791 175.034 310.811 174.869 310.849C175.428 311.016 175.835 311.529 175.835 312.137C175.835 312.88 175.226 313.483 174.474 313.483C173.86 313.483 173.341 313.08 173.172 312.527C173.134 312.69 173.113 312.86 173.113 313.034C173.113 314.273 174.129 315.278 175.381 315.278Z" fill="#597DFF"/>
<path fill-rule="evenodd" clip-rule="evenodd" d="M225.277 422.954C226.529 422.954 227.544 422.151 227.544 421.16C227.544 420.169 226.529 419.365 225.277 419.365C224.966 419.365 224.67 419.415 224.401 419.504C224.654 419.663 224.823 419.943 224.823 420.263C224.823 420.758 224.417 421.16 223.916 421.16C223.557 421.16 223.247 420.954 223.1 420.655C223.04 420.815 223.009 420.984 223.009 421.16C223.009 422.151 224.024 422.954 225.277 422.954Z" fill="#597DFF"/>
<path d="M180.748 389.983C181.072 391.18 181.154 392.197 180.932 392.256C180.71 392.315 180.267 391.393 179.943 390.196C179.619 388.999 179.536 387.982 179.758 387.923C179.98 387.864 180.423 388.786 180.748 389.983Z" fill="#597DFF"/>
<path fill-rule="evenodd" clip-rule="evenodd" d="M112.332 130.433C113.835 130.433 115.054 129.227 115.054 127.741C115.054 126.254 113.835 125.049 112.332 125.049C112.053 125.049 111.784 125.09 111.531 125.167C112.003 125.378 112.332 125.849 112.332 126.395C112.332 127.138 111.723 127.741 110.971 127.741C110.419 127.741 109.944 127.415 109.731 126.948C109.653 127.199 109.611 127.465 109.611 127.741C109.611 129.227 110.829 130.433 112.332 130.433Z" fill="#597DFF"/>
<path fill-rule="evenodd" clip-rule="evenodd" d="M116.868 152.865C118.371 152.865 119.59 151.66 119.59 150.173C119.59 148.687 118.371 147.481 116.868 147.481C116.589 147.481 116.32 147.523 116.067 147.6C116.539 147.811 116.868 148.281 116.868 148.827C116.868 149.571 116.259 150.173 115.507 150.173C114.955 150.173 114.48 149.848 114.267 149.381C114.189 149.631 114.147 149.897 114.147 150.173C114.147 151.66 115.365 152.865 116.868 152.865Z" fill="#597DFF"/>
<path fill-rule="evenodd" clip-rule="evenodd" d="M162.741 372.241C163.175 372.489 163.771 372.272 164.072 371.756C164.257 371.438 164.288 371.081 164.182 370.796C164.47 370.817 164.75 370.899 165.008 371.046C166.091 371.665 166.361 373.21 165.609 374.498C164.858 375.785 163.37 376.327 162.286 375.709C161.202 375.09 160.933 373.544 161.685 372.257C161.863 371.951 162.084 371.687 162.33 371.47C162.33 371.794 162.474 372.088 162.741 372.241Z" fill="#597DFF"/>
<path fill-rule="evenodd" clip-rule="evenodd" d="M182.185 125.049C183.688 125.049 184.907 123.844 184.907 122.357C184.907 120.87 183.688 119.665 182.185 119.665C181.906 119.665 181.637 119.707 181.384 119.784C181.856 119.995 182.185 120.465 182.185 121.011C182.185 121.754 181.576 122.357 180.824 122.357C180.272 122.357 179.797 122.032 179.584 121.564C179.506 121.815 179.464 122.081 179.464 122.357C179.464 123.844 180.682 125.049 182.185 125.049Z" fill="#597DFF"/>
<path fill-rule="evenodd" clip-rule="evenodd" d="M215.097 65.1805C215.628 64.6548 215.609 63.7832 215.053 63.2335C214.973 63.1547 214.887 63.0868 214.796 63.0299C215.41 62.9825 215.997 63.1612 216.42 63.5793C217.29 64.4402 217.134 65.9903 216.071 67.0415C215.008 68.0928 213.441 68.2471 212.571 67.3863C211.765 66.5889 211.839 65.2002 212.699 64.1643C212.709 64.5134 212.853 64.8647 213.128 65.137C213.684 65.6866 214.565 65.7061 215.097 65.1805Z" fill="#597DFF"/>
<path fill-rule="evenodd" clip-rule="evenodd" d="M172.283 117.184C171.171 119.45 171.071 122.248 171.747 126.322L170.851 126.468C170.167 122.341 170.23 119.313 171.467 116.792C172.704 114.27 175.075 112.339 178.79 110.3L179.23 111.084C175.561 113.098 173.396 114.917 172.283 117.184Z" fill="#597DFF"/>
<path fill-rule="evenodd" clip-rule="evenodd" d="M214.022 81.2416C212.209 80.7496 210.581 79.8079 208.664 78.2917L209.23 77.5908C211.096 79.0659 212.613 79.9287 214.262 80.3763C215.916 80.825 217.741 80.8674 220.244 80.6351L220.329 81.5285C217.784 81.7647 215.831 81.7325 214.022 81.2416Z" fill="#597DFF"/>
<path fill-rule="evenodd" clip-rule="evenodd" d="M231.169 72.8889C230.137 72.7037 229.064 72.7576 227.62 72.9997L227.469 72.115C228.96 71.865 230.151 71.7942 231.331 72.006C232.512 72.2179 233.645 72.7058 235.033 73.5171L234.571 74.2895C233.23 73.5053 232.202 73.0742 231.169 72.8889Z" fill="#597DFF"/>
<path fill-rule="evenodd" clip-rule="evenodd" d="M277.176 184.327C267.812 184.73 258.213 178.284 255.676 165.967L256.565 165.787C259.018 177.697 268.243 183.813 277.136 183.431C286.002 183.05 294.695 176.193 296.039 161.798L296.942 161.88C295.564 176.648 286.567 183.923 277.176 184.327Z" fill="#597DFF"/>
<path fill-rule="evenodd" clip-rule="evenodd" d="M180.919 308.412C180.078 307.405 178.871 306.643 177.01 305.817L177.382 304.998C179.286 305.844 180.644 306.675 181.618 307.841C182.596 309.011 183.148 310.472 183.538 312.502L182.647 312.669C182.27 310.708 181.757 309.416 180.919 308.412Z" fill="#597DFF"/>
<path fill-rule="evenodd" clip-rule="evenodd" d="M220.087 413.595C219.254 414.353 218.63 415.345 217.983 416.848L217.148 416.497C217.819 414.937 218.506 413.814 219.473 412.934C220.439 412.056 221.649 411.452 223.31 410.866L223.614 411.711C222.001 412.28 220.922 412.835 220.087 413.595Z" fill="#597DFF"/>
<path fill-rule="evenodd" clip-rule="evenodd" d="M114.947 431.659C52.9504 433.949 9.43799 439.318 9.43799 445.576C9.43799 453.915 86.6966 460.676 182 460.676C277.303 460.676 354.562 453.915 354.562 445.576C354.562 438.959 305.914 433.336 238.206 431.296V432.135C263.209 432.889 285.601 434.132 303.89 435.733C319.483 437.097 332.053 438.718 340.703 440.507C345.036 441.404 348.322 442.33 350.5 443.262C351.59 443.727 352.349 444.173 352.825 444.583C353.295 444.987 353.441 445.314 353.441 445.576C353.441 445.838 353.295 446.165 352.825 446.57C352.349 446.98 351.59 447.425 350.5 447.891C348.322 448.822 345.036 449.748 340.703 450.645C332.053 452.434 319.483 454.055 303.89 455.42C272.717 458.147 229.622 459.837 182 459.837C134.378 459.837 91.2826 458.147 60.1103 455.42C44.5166 454.055 31.9473 452.434 23.2972 450.645C18.9635 449.748 15.6781 448.822 13.4996 447.891C12.4101 447.425 11.6507 446.98 11.1748 446.57C10.7052 446.165 10.5585 445.838 10.5585 445.576C10.5585 445.314 10.7052 444.987 11.1748 444.583C11.6507 444.173 12.4101 443.727 13.4996 443.262C15.6781 442.33 18.9635 441.404 23.2972 440.507C31.9473 438.718 44.5166 437.097 60.1103 435.733C75.7118 434.367 94.2999 433.262 114.947 432.499V431.659ZM359.93 443.246H358.775V452.373H359.93V443.246Z" fill="white"/>
</svg>
