<svg width="20" height="19" viewBox="0 0 20 19" fill="none" xmlns="http://www.w3.org/2000/svg">
<path fill-rule="evenodd" clip-rule="evenodd" d="M7.5 1.49947L18 7.56165C19.3333 8.33145 19.3333 10.2559 18 11.0257L7.5 17.0879C6.16667 17.8577 4.5 16.8955 4.5 15.3559L4.5 3.23152C4.5 1.69192 6.16666 0.729669 7.5 1.49947ZM18.5 6.69562C20.5 7.85032 20.5 10.7371 18.5 11.8918L8 17.954C6 19.1087 3.5 17.6653 3.5 15.3559L3.5 3.23152C3.5 0.922119 6 -0.521256 8 0.633445L18.5 6.69562Z" fill="white"/>
<path fill-rule="evenodd" clip-rule="evenodd" d="M1 15.5868L1 3.00013C1 1.84321 1.97868 0.927608 3.13304 1.00457L6.51167 1.22981C6.6422 1.23851 6.77089 1.25994 6.89602 1.29346L6.99998 1.29346L6.99998 0.293494L7.0143 0.293494C6.87122 0.262472 6.72548 0.24184 6.57818 0.23202L3.19956 0.00677975C1.46801 -0.108657 2.35563e-06 1.26474 2.58319e-06 3.00013L6.81321e-07 15.5868C7.57178e-07 17.3222 1.46801 18.6956 3.19956 18.5802L6.57818 18.3549C6.72543 18.3451 6.87111 18.3245 7.01413 18.2935L6.99999 18.2935L6.99999 17.2935L6.89615 17.2935C6.77098 17.327 6.64224 17.3484 6.51166 17.3571L3.13304 17.5824C1.97868 17.6593 1 16.7437 1 15.5868Z" fill="white"/>
</svg>
