<svg width="304" height="364" viewBox="0 0 304 364" fill="none" xmlns="http://www.w3.org/2000/svg">
<g clip-path="url(#clip0_5136_35660)">
<path fill-rule="evenodd" clip-rule="evenodd" d="M136.792 245.077C137.718 244.877 138.47 244.596 138.47 244.596C138.029 244.984 137.591 245.377 137.155 245.773C114.345 266.533 98.936 298.137 98.1903 301.487C97.7528 303.451 100.085 303.154 102.143 302.548C103.661 302.102 105.03 301.487 105.03 301.487C104.181 302.053 103.33 302.638 102.48 303.24C87.7503 313.669 73.4281 328.898 72.3502 330.691C71.7806 331.638 72.5393 332.302 73.4411 332.728C74.344 333.156 75.3902 333.346 75.3902 333.346C74.6604 333.39 73.9683 333.442 73.3092 333.502C68.7065 333.916 65.714 334.693 62.7163 335.954C61.1871 336.597 59.6566 337.365 57.9102 338.276C59.442 337.27 60.919 336.277 62.3477 335.286C74.3867 326.932 82.9971 318.729 92.1102 304.521L165.83 180.119C165.618 180.927 165.448 181.704 165.352 182.417C165.042 184.707 165.488 186.328 167.697 186.146C168.141 186.109 168.656 186 169.25 185.808C168.825 186.165 168.415 186.52 168.021 186.874C160.768 193.368 158.591 199.181 158.23 200.979C157.894 202.657 159.006 202.877 163.246 201.832C163.8 201.696 164.406 201.538 165.07 201.358C164.572 201.744 164.08 202.134 163.593 202.528C144.588 217.915 134.642 239.38 133.53 243.079C132.791 245.537 135.086 245.446 136.792 245.077ZM135.783 246.003C135.73 246.008 135.678 246.012 135.625 246.016C134.908 246.065 134 246.019 133.353 245.513C132.591 244.918 132.473 243.955 132.802 242.861C133.401 240.868 136.336 234.231 141.604 226.174C146.404 218.831 153.171 210.263 161.935 202.911C161.844 202.93 161.756 202.948 161.67 202.965C160.714 203.153 159.929 203.25 159.314 203.219C158.715 203.19 158.088 203.028 157.71 202.495C157.347 201.983 157.38 201.354 157.485 200.83C157.87 198.909 160.023 193.244 166.878 186.888C166.745 186.87 166.616 186.846 166.492 186.813C165.619 186.586 165.056 186.007 164.766 185.247C164.603 184.82 164.526 184.342 164.508 183.841L92.7576 304.919L92.7503 304.93C88.8227 311.053 84.985 316.071 80.9308 320.466C81.5169 319.897 82.124 319.315 82.7502 318.721C87.7948 313.936 94.0901 308.412 100.557 303.688C99.9199 303.781 99.2791 303.801 98.7439 303.66C98.3166 303.547 97.8758 303.309 97.6079 302.846C97.3442 302.391 97.3293 301.857 97.4483 301.322C97.5619 300.812 97.9262 299.861 98.4783 298.607C99.0412 297.328 99.8264 295.674 100.818 293.727C102.802 289.833 105.618 284.751 109.147 279.128C115.763 268.588 124.904 256.115 135.783 246.003ZM75.9928 325.425C72.6271 328.558 69.0518 331.424 65.1172 334.258C65.2076 334.229 65.2984 334.201 65.3896 334.173C67.3603 333.569 69.5112 333.139 72.1979 332.849C72.0166 332.7 71.8507 332.529 71.7171 332.334C71.5337 332.066 71.4034 331.742 71.3938 331.369C71.3843 330.996 71.4965 330.637 71.6986 330.3C71.8807 329.997 72.2998 329.476 72.8677 328.821C73.4525 328.146 74.2377 327.281 75.1923 326.268C75.4471 325.997 75.7141 325.716 75.9928 325.425Z" fill="#FF00C7"/>
<path fill-rule="evenodd" clip-rule="evenodd" d="M58.2902 306.796C57.3992 300.743 55.6537 297.534 50.8433 293.15C50.4348 292.777 50.0042 292.396 49.5502 292.005C49.7685 292.539 49.9876 293.07 50.2059 293.596C50.2941 293.809 50.3822 294.021 50.47 294.233C52.7442 299.711 54.8253 304.724 54.4902 309.072C54.4534 309.55 54.4007 310.123 54.3405 310.777C53.8061 316.588 52.6847 328.78 56.8891 337.437C57.0904 337.852 57.3039 338.258 57.5302 338.655C57.5752 338.202 57.6209 337.75 57.6673 337.298C58.948 324.832 60.8099 312.83 65.5197 300.806C65.7491 300.22 65.9853 299.634 66.2285 299.048C66.32 298.828 66.4125 298.608 66.506 298.387C67.1397 296.893 67.8196 295.398 68.5502 293.901C70.1251 290.9 72.3648 286.873 74.9853 282.23C75.2302 281.796 75.4785 281.356 75.7298 280.912C75.7415 280.891 75.7532 280.87 75.765 280.85C76.6653 279.258 77.605 277.601 78.5736 275.896C79.0286 275.095 79.4899 274.283 79.9565 273.462C83.1201 267.894 86.5257 261.9 89.8302 255.974L99.3302 239.286L106.93 225.632C102.843 221.519 103.027 217.834 112.928 212.43C113.201 212.28 113.482 212.13 113.77 211.978C113.466 211.845 113.179 211.712 112.909 211.577C109.302 209.78 108.63 207.717 110.423 202.909C110.519 202.653 110.621 202.389 110.73 202.117C110.926 202.339 111.118 202.543 111.306 202.727C114.248 205.625 116.232 204.017 119.85 200.979C120.014 195.84 119.383 192.919 114.354 188.238C114.166 188.063 113.971 187.885 113.77 187.705C114.001 187.566 114.225 187.428 114.444 187.29C121.622 182.778 122.753 178.691 120.07 167.372C119.999 167.075 119.926 166.773 119.85 166.465C120.14 166.577 120.431 166.698 120.721 166.828C124.475 168.508 128.074 171.641 126.31 174.809C124.41 178.223 127.223 181.122 131.25 182.395L135.05 175.568C134.579 172.734 133.425 170.723 132.243 168.662C130.41 165.467 128.508 162.152 128.97 155.466C129.545 147.154 126.646 145.774 125.196 145.595C124.728 145.537 124.41 145.605 124.41 145.605C124.478 145.33 124.548 145.068 124.62 144.819C125.239 142.697 126.084 141.493 128.295 140.27C128.507 140.152 128.732 140.035 128.97 139.916C128.833 139.697 128.698 139.482 128.564 139.271C123.759 131.722 120.979 130.022 116.81 135.365C122.513 146.687 116.424 155.128 104.27 152.432C103.795 152.327 103.337 152.244 102.893 152.164C99.0748 151.476 96.2467 150.966 91.7302 137.641C86.7792 123.033 69.9659 119.745 46.6635 134.53C46.2346 134.802 45.8035 135.081 45.3702 135.365C45.8923 135.331 46.4029 135.302 46.9022 135.278C66.6895 134.317 68.8863 140.889 71.587 148.967C73.385 154.345 75.4063 160.391 82.9902 165.328C91.7302 171.017 95.5302 177.844 96.2902 182.016C96.8396 185.031 96.5948 187.848 96.4169 189.179C96.3486 189.689 96.2902 189.98 96.2902 189.98C96.0591 189.846 95.8247 189.716 95.5877 189.59C93.9557 188.72 92.1973 188.025 90.4938 187.351C86.9274 185.94 83.602 184.624 82.1833 182.008C81.7706 181.247 81.5193 180.376 81.4702 179.361C81.44 180.341 81.4239 181.285 81.4228 182.196C81.4098 192.898 83.4673 199.128 89.0702 208.565C89.4175 209.149 89.8837 209.823 90.4055 210.578C94.4519 216.427 101.84 227.105 82.9902 238.527C63.4206 250.386 54.9039 227.694 54.4317 209.432C54.3904 207.836 54.4106 206.274 54.4902 204.772C54.3286 206.378 54.038 207.89 53.6695 209.348C53.113 211.548 52.3788 213.624 51.6422 215.706C48.6279 224.227 45.5728 232.863 54.4902 250.664C54.6911 266.255 61.1982 269.255 75.3902 272.283C77.6455 272.868 78.2844 273.902 77.8627 275.61C77.549 276.879 76.6487 278.521 75.3902 280.627C75.3902 280.627 74.9992 281.09 74.3658 281.782C72.5018 283.818 68.5392 287.833 66.2702 287.833C64.1075 287.833 61.5601 282.842 60.2699 279.961C59.7467 278.793 59.4302 277.972 59.4302 277.972C59.4531 278.724 59.482 279.446 59.5181 280.141C59.9297 288.049 61.2913 292.485 65.6391 298.488C65.7217 298.602 65.8054 298.716 65.8902 298.832C65.5262 299.398 65.1762 299.94 64.8402 300.457C60.7137 306.814 58.6863 309.46 58.2902 306.796ZM63.6611 303.623C62.6063 305.184 61.7243 306.4 61.0086 307.213C60.6828 307.584 60.3699 307.896 60.0717 308.125C59.7909 308.341 59.4343 308.553 59.0308 308.581C58.5406 308.615 58.1515 308.371 57.9104 308.012C57.7018 307.702 57.5976 307.306 57.5385 306.908L57.5383 306.907C57.0635 303.681 56.3509 301.34 55.0795 299.202C54.2177 297.753 53.0853 296.374 51.5561 294.868C52.4035 296.916 53.2129 298.914 53.8556 300.83C54.8253 303.72 55.4496 306.514 55.248 309.13C55.2102 309.62 55.1567 310.202 55.0959 310.864C54.8459 313.584 54.4732 317.64 54.5702 322.086C54.6715 326.729 55.2864 331.707 57.0457 335.934C58.2134 324.961 59.8973 314.293 63.6611 303.623ZM65.9865 297.669C66.5735 296.304 67.1992 294.937 67.867 293.569L67.8719 293.559L67.877 293.549C69.1601 291.104 70.8847 287.978 72.8964 284.393C72.7644 284.521 72.63 284.65 72.4937 284.78C71.5298 285.694 70.4508 286.626 69.4045 287.334C68.3941 288.019 67.2776 288.591 66.2702 288.591C65.6834 288.591 65.1426 288.355 64.6744 288.035C64.2034 287.713 63.7558 287.274 63.3388 286.782C62.505 285.798 61.7158 284.512 61.0411 283.262C60.8166 282.846 60.6029 282.43 60.4026 282.026C60.6234 284.788 61.0024 287.088 61.644 289.218C62.506 292.079 63.8535 294.669 65.9865 297.669ZM78.6945 274.145C78.8977 273.787 79.1019 273.428 79.3072 273.067C82.4697 267.5 85.871 261.514 89.1662 255.605L89.1694 255.599L98.6659 238.917L98.6694 238.911L105.993 225.753C104.085 223.703 103.04 221.509 104.048 219.052C104.561 217.803 105.576 216.574 107.1 215.317C108.371 214.268 110.026 213.175 112.107 212.016C110.515 211.152 109.407 210.136 108.944 208.69C108.376 206.915 108.865 204.72 110.025 201.835L110.485 200.691L111.301 201.616C112.082 202.501 112.736 203.009 113.307 203.267C113.855 203.514 114.356 203.546 114.891 203.414C115.452 203.275 116.074 202.948 116.824 202.421C117.504 201.944 118.244 201.335 119.1 200.618C119.162 198.151 119.007 196.301 118.259 194.509C117.476 192.631 116.007 190.735 113.262 188.269L112.5 187.584L113.378 187.055C117.311 184.687 119.389 182.599 120.213 179.714C121.056 176.763 120.636 172.834 119.112 166.646L118.764 165.233L120.124 165.758C122.21 166.563 124.414 167.851 125.866 169.429C126.595 170.221 127.167 171.121 127.408 172.104C127.654 173.108 127.544 174.155 126.975 175.178C126.563 175.918 126.425 176.592 126.472 177.198C126.519 177.805 126.755 178.394 127.169 178.954C127.922 179.973 129.243 180.86 130.895 181.471L134.255 175.434C133.784 172.884 132.745 171.07 131.613 169.094C131.281 168.514 130.94 167.92 130.603 167.288C129.085 164.44 127.821 161.08 128.212 155.414C128.587 149.994 127.439 147.833 126.472 146.979C125.987 146.552 125.495 146.4 125.129 146.351C124.943 146.326 124.79 146.328 124.688 146.335C124.637 146.338 124.6 146.343 124.58 146.346C124.571 146.347 124.566 146.348 124.563 146.349C124.562 146.349 124.562 146.349 124.562 146.349C124.562 146.349 124.562 146.349 124.562 146.349L123.382 146.601L123.672 145.424C124.033 143.965 124.45 142.796 125.221 141.792C125.866 140.953 126.722 140.277 127.89 139.627C126.81 137.934 125.847 136.561 124.958 135.507C123.943 134.304 123.074 133.578 122.298 133.242C121.568 132.925 120.89 132.936 120.142 133.302C119.425 133.653 118.624 134.343 117.705 135.462C120.41 141.09 120.346 146.185 117.851 149.602C115.279 153.123 110.353 154.558 104.105 153.173C103.686 153.08 103.263 153.004 102.839 152.929C101.125 152.623 99.3823 152.312 97.6769 150.803C95.5787 148.947 93.533 145.327 91.0103 137.884C88.5843 130.726 83.241 126.429 75.5847 125.778C68.3874 125.167 59.0769 127.777 48.1991 134.466C55.3774 134.231 60.2215 135.039 63.6211 136.638C67.508 138.467 69.4178 141.288 70.7747 144.497C71.3629 145.888 71.8491 147.339 72.3455 148.82C74.1381 154.168 76.0638 159.913 83.4054 164.692C92.2802 170.469 96.2328 177.46 97.038 181.88C97.4324 184.045 97.4312 186.102 97.3337 187.611C97.2848 188.368 97.2113 188.991 97.1497 189.428C97.1188 189.647 97.0909 189.819 97.0704 189.938C97.0601 189.997 97.0517 190.044 97.0457 190.076L97.0386 190.113L97.0365 190.124L97.0356 190.128C97.0356 190.129 97.0355 190.129 96.2902 189.98L97.0355 190.129L96.8271 191.169L95.9083 190.636C94.4287 189.778 92.8004 189.088 91.1522 188.429C90.8442 188.305 90.5348 188.183 90.2254 188.061C88.8971 187.535 87.5701 187.01 86.3676 186.426C84.732 185.632 83.2345 184.684 82.1903 183.383C82.2509 187.691 82.6814 191.242 83.5803 194.615C84.7431 198.979 86.7012 203.087 89.7241 208.178C90.057 208.739 90.5078 209.39 91.035 210.153C91.0828 210.222 91.1312 210.292 91.1802 210.362C91.7626 211.205 92.4154 212.159 93.0458 213.201C94.3045 215.282 95.5016 217.759 95.9024 220.522C96.3062 223.305 95.8964 226.344 93.9976 229.515C92.1087 232.668 88.7705 235.912 83.3847 239.176C77.9425 242.473 73.2171 243.227 69.2059 242.049C65.2105 240.877 62.0869 237.835 59.7353 233.882C56.158 227.868 54.2548 219.564 53.774 211.776C53.4831 212.719 53.1706 213.643 52.8521 214.557C52.6873 215.03 52.5211 215.5 52.3555 215.968C51.4607 218.498 50.5813 220.985 50.0048 223.719C48.6544 230.122 48.9621 237.933 55.17 250.325L55.2479 250.48L55.2502 250.654C55.3494 258.357 57.0046 262.749 60.2019 265.621C63.4559 268.543 68.4303 270.022 75.5491 271.541L75.5654 271.544L75.5816 271.548C76.6224 271.819 77.4618 272.207 78.0202 272.806C78.3905 273.202 78.605 273.655 78.6945 274.145Z" fill="#FF00C7"/>
<path fill-rule="evenodd" clip-rule="evenodd" d="M57.9102 250.284C58.6914 262.559 62.8166 266.303 73.8104 268.968C74.2016 269.062 74.6015 269.156 75.0102 269.248C74.7436 268.921 74.4884 268.602 74.2449 268.292C70.7331 263.815 69.6383 260.976 71.5902 255.974C70.5679 252.588 70.6391 250.619 72.6614 247.53C72.8016 247.316 72.9511 247.097 73.1102 246.871C72.851 246.796 72.5954 246.72 72.3432 246.643C60.3761 242.999 56.2352 237.637 52.6615 225.335C52.5103 224.814 52.36 224.281 52.2103 223.735C52.0836 224.285 51.9747 224.833 51.883 225.379C50.4329 234.013 53.2842 242.195 57.9102 250.284ZM52.4097 227.139C51.592 234.931 54.2804 242.406 58.5703 249.908L58.6576 250.061L58.6687 250.236C59.0692 256.529 60.3506 260.379 62.853 263.001C65.0598 265.314 68.3058 266.771 73.061 267.998C71.7149 266.208 70.7431 264.601 70.2476 262.939C69.6032 260.779 69.7852 258.611 70.7884 255.943C70.2808 254.205 70.0438 252.74 70.2678 251.257C70.4635 249.962 71.0014 248.715 71.9044 247.302C65.8342 245.428 61.6785 243.074 58.592 239.518C55.8811 236.395 54.0442 232.399 52.4097 227.139Z" fill="#FF00C7"/>
<path fill-rule="evenodd" clip-rule="evenodd" d="M95.9102 214.633C95.6073 213.681 95.3307 212.777 95.0824 211.911C93.0671 204.888 92.9102 200.432 95.5903 194.126C95.6928 193.884 95.7994 193.641 95.9102 193.394C95.6388 193.371 95.3757 193.34 95.12 193.3C93.1377 192.996 91.5973 192.217 89.9813 191.401C88.5032 190.653 86.9618 189.874 84.961 189.397C84.6927 189.333 84.4161 189.274 84.1302 189.222C84.2013 189.497 84.2725 189.768 84.344 190.036C86.7314 198.992 89.4113 204.301 94.3813 212.223C94.8683 212.999 95.3774 213.801 95.9102 214.633ZM93.7058 209.688C93.1681 207.456 92.8558 205.439 92.8172 203.476C92.7561 200.366 93.3814 197.434 94.8108 194.019C92.8801 193.689 91.3526 192.942 89.8601 192.189C89.7915 192.155 89.7228 192.12 89.6543 192.085C88.2755 191.389 86.9041 190.696 85.1844 190.236C87.299 198.044 89.6603 203.046 93.7058 209.688Z" fill="#FF00C7"/>
<path fill-rule="evenodd" clip-rule="evenodd" d="M92.1102 145.985C85.9334 128.578 77.1696 127.449 61.6128 131.712C60.8997 131.907 60.1723 132.114 59.4302 132.331C60.2161 132.348 60.963 132.399 61.6733 132.482C72.4193 133.742 74.7717 142.341 76.8048 149.773C77.691 153.012 78.5166 156.03 79.9502 158.122C81.7377 160.729 84.4911 162.527 87.378 164.413C92.1189 167.509 97.2197 170.841 98.9929 178.377C99.124 178.934 99.237 179.515 99.3302 180.12C99.4805 179.512 99.628 178.937 99.7761 178.391C101.034 173.754 102.341 171.193 105.79 168.362C102.474 162.24 103.164 159.621 108.687 157.633C109.279 157.42 109.927 157.214 110.631 157.012C110.664 157.003 110.697 156.993 110.73 156.984L110.633 156.979C109.916 156.941 109.231 156.904 108.577 156.867C98.6899 156.306 95.6643 155.563 92.1102 145.985ZM106.933 157.527C105.6 157.438 104.395 157.335 103.302 157.19C101.28 156.924 99.583 156.51 98.1154 155.756C95.1349 154.223 93.3059 151.391 91.3976 146.248L91.3957 146.243L91.3938 146.238C88.1944 137.222 84.3728 132.84 79.4549 131.194C75.2433 129.783 70.0758 130.315 63.4773 132.003C66.1093 132.541 68.2258 133.555 69.9476 134.912C72.4618 136.895 74.0699 139.56 75.2375 142.376C76.2141 144.732 76.901 147.244 77.5412 149.585C77.6632 150.031 77.7834 150.47 77.9037 150.902C78.6677 153.642 79.4241 156.011 80.5775 157.693C81.7361 159.383 83.345 160.737 85.2019 162.043C86.0327 162.628 86.9008 163.195 87.7947 163.779C87.8995 163.847 88.0046 163.916 88.1101 163.985C89.1106 164.639 90.1371 165.316 91.1443 166.048C94.5813 168.544 97.8179 171.694 99.3972 176.948C99.8554 175.423 100.351 174.106 100.976 172.913C101.903 171.143 103.1 169.671 104.832 168.177C104.052 166.678 103.505 165.355 103.231 164.178C102.921 162.85 102.947 161.657 103.423 160.595C103.897 159.536 104.772 158.713 105.954 158.031C106.257 157.856 106.583 157.688 106.933 157.527Z" fill="#FF00C7"/>
<path fill-rule="evenodd" clip-rule="evenodd" d="M121.336 135.507C121.106 135.556 120.865 135.636 120.61 135.744C120.718 135.983 120.818 136.215 120.91 136.441C121.712 138.415 121.937 139.966 121.9 141.903C121.885 142.679 121.829 143.516 121.75 144.468C122.057 143.536 122.335 142.758 122.656 142.077C123.282 140.752 124.07 139.793 125.55 138.778C123.798 136.057 122.753 135.202 121.336 135.507ZM121.641 136.223C122.162 137.52 122.452 138.664 122.581 139.858C122.606 140.091 122.625 140.325 122.638 140.562C123.125 139.836 123.723 139.206 124.517 138.592C123.704 137.392 123.112 136.743 122.603 136.433C122.335 136.269 122.1 136.207 121.862 136.207C121.793 136.207 121.719 136.212 121.641 136.223Z" fill="#FF00C7"/>
<path fill-rule="evenodd" clip-rule="evenodd" d="M60.1902 249.147C60.3141 253.411 60.7223 256 61.7226 259.334C61.9422 260.066 62.1903 260.834 62.4702 261.663C62.461 260.797 62.4645 259.989 62.4857 259.233C62.6214 254.405 63.4833 251.663 66.4111 248.939C66.608 248.755 66.8142 248.572 67.0302 248.388C66.7725 248.27 66.5213 248.153 66.2765 248.037C61.7537 245.882 59.3755 243.918 56.8163 240.646C56.3075 239.995 55.7916 239.293 55.2502 238.527C55.5647 239.432 55.8533 240.246 56.1456 241.021C57.1072 243.57 58.1074 245.688 60.1902 249.147ZM57.7357 242.919C58.4811 244.615 59.3959 246.355 60.8417 248.756L60.9442 248.926L60.9499 249.125C61.0436 252.35 61.3 254.589 61.8607 256.942C61.9845 255.676 62.1932 254.547 62.5252 253.51C63.1291 251.623 64.127 250.082 65.6752 248.59C63.1844 247.385 61.3131 246.214 59.687 244.819C58.998 244.228 58.3575 243.6 57.7357 242.919Z" fill="#FF00C7"/>
<path fill-rule="evenodd" clip-rule="evenodd" d="M70.8059 132.218C70.3207 132.245 69.8225 132.283 69.3102 132.33C69.7747 132.535 70.2142 132.755 70.6303 132.988C76.4208 136.243 77.6808 142.225 78.8851 147.943C79.9194 152.855 80.9125 157.571 84.6998 160.195C84.9988 160.402 85.3151 160.596 85.6502 160.776C85.5485 160.416 85.4515 160.065 85.3594 159.723C83.1851 151.638 83.7482 148.222 89.4559 146.565C89.698 146.495 89.9494 146.428 90.2102 146.363C90.085 146.131 89.9604 145.901 89.8365 145.675C83.8049 134.673 79.3056 131.753 70.8059 132.218ZM71.9909 132.934C76.8772 136.212 78.2871 141.537 79.3633 146.536C79.4546 146.96 79.5433 147.381 79.6313 147.799C80.1468 150.244 80.6358 152.564 81.452 154.611C82.1434 156.344 83.0538 157.836 84.3818 158.988C84.0049 157.5 83.728 156.166 83.572 154.969C83.3496 153.263 83.3656 151.789 83.7203 150.528C84.3911 148.143 86.1938 146.754 89.0844 145.884C86.0101 140.302 83.3916 136.953 80.5059 135.062C78.0945 133.481 75.4283 132.876 71.9909 132.934Z" fill="#FF00C7"/>
<path fill-rule="evenodd" clip-rule="evenodd" d="M141.971 181.717L142.53 179.452C142.777 178.45 142.961 177.656 143.078 176.927L82.1016 282.34C78.6584 288.293 77.7676 293.545 77.7281 297.291C77.7082 299.167 77.9018 300.668 78.0979 301.693C78.1654 302.047 78.2332 302.343 78.2926 302.579C78.5269 302.512 78.8181 302.423 79.1583 302.304C80.1462 301.961 81.5456 301.378 83.163 300.423C86.3939 298.516 90.5057 295.12 93.9489 289.167L154.926 183.754C154.352 184.221 153.755 184.776 153.009 185.491L151.324 187.106L151.734 184.81C152.375 181.229 152.424 179.139 151.685 175.703C148.334 176.782 146.545 177.869 143.758 180.214L141.971 181.717ZM151.518 174.96C151.753 174.885 151.995 174.81 152.245 174.734C152.305 174.988 152.361 175.235 152.413 175.476C153.099 178.638 153.143 180.716 152.689 183.702C152.629 184.098 152.56 184.511 152.483 184.944C152.811 184.629 153.114 184.342 153.4 184.079C154.267 183.281 154.985 182.696 155.841 182.173C156.229 181.935 156.646 181.71 157.117 181.483L94.607 289.546C87.577 301.7 77.7652 303.491 77.7652 303.491C77.7652 303.491 74.4135 294.114 81.4435 281.961L143.953 173.898C143.993 174.418 144.005 174.891 143.993 175.346C143.967 176.347 143.819 177.26 143.56 178.409C143.474 178.788 143.377 179.192 143.268 179.634C143.605 179.35 143.928 179.085 144.242 178.834C146.606 176.949 148.431 175.948 151.518 174.96Z" fill="white"/>
<path fill-rule="evenodd" clip-rule="evenodd" d="M241.735 20.0286C241.735 20.0286 237.406 18.4099 235.506 21.6945C233.606 24.9791 236.985 28.2401 236.985 28.2401C236.985 28.2401 241.504 29.5303 243.404 26.2457C245.304 22.9611 241.735 20.0286 241.735 20.0286ZM237.381 27.556C237.492 27.5806 237.647 27.6116 237.837 27.6406C238.253 27.7045 238.82 27.7572 239.433 27.7177C240.668 27.6382 241.974 27.202 242.746 25.8665C243.511 24.5443 243.202 23.2932 242.622 22.2818C242.332 21.7751 241.985 21.3529 241.708 21.0555C241.57 20.9079 241.451 20.7937 241.369 20.7181C241.362 20.7112 241.355 20.7047 241.348 20.6985C241.339 20.6957 241.33 20.6928 241.32 20.6898C241.213 20.6568 241.055 20.6115 240.858 20.566C240.461 20.4745 239.921 20.3857 239.337 20.3883C238.169 20.3935 236.929 20.7515 236.164 22.0737C235.392 23.4092 235.666 24.7562 236.215 25.8628C236.487 26.4131 236.816 26.8768 237.08 27.2044C237.2 27.3536 237.304 27.4724 237.381 27.556ZM241.47 20.7394C241.47 20.7395 241.47 20.7395 241.47 20.7395L241.47 20.7394ZM241.251 20.6132C241.251 20.613 241.251 20.613 241.251 20.6132L241.251 20.6132Z" fill="white"/>
<path fill-rule="evenodd" clip-rule="evenodd" d="M240.785 21.6714C240.785 21.6714 238.153 20.1543 236.823 22.4535C235.493 24.7527 238.125 26.2698 238.125 26.2698C238.125 26.2698 240.758 27.7869 242.088 25.4877C243.418 23.1885 240.785 21.6714 240.785 21.6714ZM238.505 25.6129L238.495 25.6067C238.483 25.5991 238.462 25.5862 238.435 25.5682C238.38 25.532 238.3 25.4759 238.206 25.4016C238.014 25.2504 237.781 25.0363 237.587 24.7741C237.394 24.5122 237.258 24.2263 237.219 23.9234C237.182 23.6329 237.226 23.2731 237.481 22.8328C237.735 22.3925 238.025 22.1741 238.296 22.0611C238.578 21.9433 238.894 21.918 239.218 21.9541C239.543 21.9902 239.845 22.0849 240.072 22.175C240.184 22.2194 240.273 22.2609 240.331 22.29C240.361 22.3045 240.382 22.3158 240.395 22.3226L240.405 22.3284L240.416 22.3346C240.428 22.3421 240.448 22.355 240.476 22.3731C240.53 22.4092 240.611 22.4653 240.705 22.5397C240.897 22.6908 241.13 22.9049 241.323 23.1672C241.517 23.4291 241.653 23.715 241.692 24.0179C241.729 24.3083 241.685 24.6682 241.43 25.1084C241.175 25.5487 240.885 25.7671 240.615 25.8801C240.332 25.9979 240.016 26.0232 239.692 25.9871C239.368 25.951 239.066 25.8564 238.838 25.7662C238.727 25.7218 238.638 25.6804 238.579 25.6512C238.55 25.6367 238.529 25.6254 238.516 25.6186L238.505 25.6129Z" fill="white"/>
<path fill-rule="evenodd" clip-rule="evenodd" d="M247.885 17.0439C248.054 14.5533 248.021 12.8555 247.867 10.3387C247.851 10.0748 247.834 9.80201 247.815 9.51831C247.56 9.64406 247.314 9.76543 247.077 9.88344C244.817 11.0092 243.327 11.8293 241.251 13.2212C241.036 13.3654 240.814 13.5157 240.585 13.6731L240.168 12.1188C239.928 12.2376 239.697 12.3524 239.474 12.4643C237.157 13.6278 235.716 14.4708 233.457 16.1347L230.634 14.9461C229.279 16.5257 228.542 17.5265 228.014 19.1034C227.933 19.345 227.857 19.6001 227.784 19.873L224.683 17.6481L223.493 20.4654C221.645 20.6324 220.868 21.1562 219.491 22.0861L219.479 22.0941C221.748 26.9324 221.925 29.3272 220.184 33.0114L217.867 34.7417C218.048 34.935 218.217 35.1245 218.373 35.3111C220.357 37.6803 220.334 39.5803 218.396 42.9296L199.396 75.7756C198.066 78.0749 196.819 78.8803 194.053 79.7036L190.141 79.6391C190.226 79.9087 190.303 80.1619 190.372 80.4016C190.801 81.9012 190.906 82.8732 190.787 84.0178C190.777 84.1132 190.766 84.2097 190.753 84.3079C190.733 84.4575 190.71 84.6108 190.683 84.7693L179.379 83.0725L183.342 82.2904C182.887 82.1045 182.451 81.9333 182.031 81.7758C178.408 80.4168 175.94 80.081 172.142 80.1879C171.894 80.1949 171.639 80.2037 171.379 80.2144L171.532 77.6747C167.615 77.2472 166.008 78.1966 164.117 80.7792C163.962 80.9918 163.804 81.2154 163.644 81.4502C163.488 81.2093 163.343 80.9743 163.208 80.7448C160.936 76.8851 161.498 74.5776 164.371 71.7077C164.949 71.1302 165.621 70.5299 166.382 69.8896C165.478 70.3043 164.656 70.694 163.914 71.0909C160.816 72.7466 159.099 74.5262 158.568 78.7574C158.527 79.0836 158.493 79.4243 158.466 79.7806C158.202 79.5034 157.973 79.2396 157.776 78.984C156.862 77.7932 156.663 76.7812 156.978 75.4279C157.083 74.9771 157.244 74.4885 157.455 73.9427C157.017 74.333 156.63 74.6973 156.291 75.0413C154.357 77.0001 153.965 78.2988 154.517 79.9627C154.601 80.2163 154.707 80.4783 154.833 80.7524C154.538 80.7237 154.253 80.7015 153.976 80.6862C150.388 80.4888 148.118 81.4446 145.056 84.2978C144.604 84.7194 144.134 85.1824 143.64 85.6893C144.283 85.4163 144.888 85.17 145.465 84.9547C149.119 83.593 151.679 83.475 155.894 85.7437C156.242 86.7053 156.092 87.1003 155.274 87.5757L149.665 87.4096C149.899 87.6822 150.118 87.9408 150.323 88.188C151.963 90.1629 152.723 91.4074 152.892 93.2103C152.976 94.5961 152.467 95.074 151.043 95.6483C149.801 97.8776 149.507 99.2869 150.262 101.468C150.366 101.77 150.491 102.086 150.635 102.421C150.793 102.097 150.943 101.8 151.091 101.524C151.753 100.287 152.358 99.4912 153.346 98.673C153.534 98.5177 153.735 98.3616 153.954 98.2016C154.081 98.43 154.204 98.6527 154.325 98.8708C155.499 100.987 156.421 102.669 157.661 104.95C158.029 105.626 158.424 106.354 158.863 107.162L157.434 99.7695C157.813 95.8165 158.757 93.9515 161.197 90.9891C162.551 89.5546 163.667 90.0817 165.767 91.4328C165.886 94.3148 165.144 95.7434 163.103 97.5215C162.854 97.7386 162.585 97.9609 162.296 98.1917C162.674 98.2413 163.024 98.2791 163.355 98.3051C165.143 98.4453 166.369 98.2406 168.284 97.7008C168.823 99.3341 169.534 100.173 171.803 101.48C171.179 103.709 170.319 104.649 168.294 106.028C167.782 109.498 166.839 111.284 163.863 113.567C163.657 113.725 163.441 113.886 163.215 114.049C163.455 114.21 163.684 114.354 163.907 114.484C165.037 115.143 166.013 115.432 167.441 115.616C167.737 115.654 168.053 115.688 168.393 115.719C168.165 115.962 167.941 116.194 167.721 116.413C164.318 119.806 161.714 120.395 156.895 118.962C156.645 118.888 156.388 118.808 156.124 118.722C156.134 119.008 156.151 119.278 156.176 119.535C156.336 121.167 156.831 122.284 157.961 123.782C158.127 124.003 158.307 124.232 158.503 124.472C158.198 124.517 157.905 124.555 157.623 124.588C155.089 124.876 153.341 124.625 150.612 123.015C150.392 122.885 150.166 122.747 149.933 122.599L149.261 125.278L147.615 124.33C145.445 126.286 145.161 127.652 145.541 129.855C145.586 130.115 145.64 130.387 145.702 130.672C145.421 130.605 145.15 130.544 144.887 130.488C141.736 129.828 139.788 130.056 137.051 131.403C136.798 131.528 136.538 131.662 136.27 131.806C136.525 131.965 136.768 132.123 137 132.279C141.066 135.023 141.577 137.398 139.086 142.073C138.901 142.42 138.699 142.78 138.482 143.154C138.903 142.97 139.276 142.811 139.624 142.676C140.671 142.268 141.482 142.072 142.634 142.043C144.247 147.262 142.658 150.803 138.33 156.728C137.983 157.204 137.618 157.694 137.236 158.202L143.048 154.982C143.048 154.982 143.125 155.267 143.176 155.778C143.308 157.092 143.276 159.898 141.362 163.207C141.362 163.207 84.728 264.146 70.288 289.109C59.1041 308.443 56.9139 329.293 57.2083 338.131C57.218 338.422 57.2304 338.7 57.2453 338.964C57.4821 338.845 57.7294 338.716 57.9866 338.579C65.8027 334.415 82.7986 322.097 93.9825 302.763C108.422 277.8 167.689 178.378 167.689 178.378C169.603 175.069 172.022 173.638 173.227 173.095C173.697 172.884 173.982 172.808 173.982 172.808L174.094 179.441C174.344 178.857 174.587 178.297 174.826 177.759C177.804 171.056 180.082 167.911 185.416 166.696C185.967 167.706 186.203 168.505 186.372 169.614C186.429 169.982 186.478 170.385 186.529 170.84C186.744 170.466 186.955 170.112 187.164 169.778C189.976 165.287 192.291 164.541 196.705 166.684C196.957 166.806 197.215 166.938 197.481 167.079C197.471 166.775 197.458 166.483 197.44 166.202C197.241 163.163 196.464 161.365 194.315 158.971C194.136 158.772 193.948 158.568 193.749 158.359C194.027 158.269 194.29 158.18 194.538 158.089C196.64 157.317 197.682 156.388 198.295 153.534L196.65 152.586L198.638 150.666C198.393 150.538 198.16 150.411 197.938 150.286C195.176 148.732 194.085 147.347 193.068 145.013C192.954 144.752 192.842 144.48 192.728 144.194C193.034 144.243 193.323 144.284 193.598 144.318C195.463 144.545 196.679 144.415 198.175 143.737C198.41 143.63 198.653 143.51 198.906 143.375C198.7 143.19 198.502 143.008 198.312 142.829C194.659 139.38 193.869 136.835 195.111 132.197C195.192 131.897 195.281 131.588 195.378 131.269C195.575 131.547 195.762 131.803 195.943 132.04C196.817 133.182 197.556 133.882 198.692 134.529C198.916 134.657 199.156 134.783 199.415 134.909C199.444 134.632 199.476 134.365 199.51 134.108C200.003 130.395 201.081 128.686 203.836 126.508C204.021 124.069 204.406 122.856 206.028 121.202C208.296 122.51 209.38 122.705 211.066 122.354C211.555 124.279 211.991 125.441 213.006 126.916C213.194 127.19 213.402 127.473 213.634 127.775C213.69 127.41 213.749 127.067 213.812 126.743C214.335 124.089 215.203 122.734 217.763 121.395C219.986 122.535 221.001 123.236 220.433 125.124C219.083 128.715 217.937 130.462 214.696 132.766L207.568 135.228C208.488 135.203 209.318 135.181 210.088 135.16C212.687 135.092 214.608 135.048 217.031 135.004C217.28 135 217.535 134.996 217.797 134.991C217.767 135.26 217.732 135.512 217.692 135.752C217.476 137.015 217.088 137.936 216.345 139.127C216.18 139.392 215.997 139.67 215.795 139.969C216.158 139.926 216.494 139.876 216.808 139.815C219.079 139.377 220.154 138.419 221.468 136.231C221.254 134.712 221.414 134.033 222.659 133.413C224.307 132.658 225.768 132.693 228.301 133.123C228.618 133.176 228.952 133.236 229.305 133.302L226.357 128.537C226.36 127.592 226.628 127.265 227.636 127.085C231.712 129.594 232.89 131.866 233.535 135.705C233.637 136.311 233.726 136.957 233.811 137.65C234.003 136.969 234.17 136.332 234.31 135.73C235.254 131.657 234.949 129.217 232.984 126.214C232.832 125.982 232.67 125.747 232.498 125.507C232.799 125.478 233.079 125.439 233.341 125.385C235.061 125.03 235.992 124.042 236.724 121.391C236.853 120.925 236.975 120.408 237.095 119.835C236.727 120.29 236.384 120.674 236.045 120.99C235.028 121.939 234.051 122.273 232.56 122.078C232.24 122.036 231.897 121.97 231.524 121.88C231.82 121.678 232.099 121.479 232.361 121.28C235.767 118.706 236.453 116.332 236.34 112.826C236.314 111.986 236.241 111.081 236.149 110.093C235.974 111.07 235.789 111.951 235.577 112.74C234.523 116.658 232.802 118.297 228.317 118.263C228.05 118.261 227.774 118.253 227.487 118.24C227.61 117.983 227.726 117.735 227.832 117.495C229.128 114.569 229.148 112.706 226.819 109.534L224.692 110.935C224.57 110.705 224.451 110.481 224.333 110.263C222.527 106.927 221.002 104.961 218.011 102.509C217.664 102.224 217.298 101.934 216.909 101.633L218.212 105.45L211.087 96.5268C211.211 96.4246 211.333 96.3278 211.453 96.236C211.531 96.1757 211.609 96.1175 211.687 96.0613C212.621 95.3862 213.517 94.9915 215.033 94.6125C215.275 94.5519 215.533 94.4917 215.81 94.4308L213.798 91.0818C213.129 88.2789 213.204 86.7982 214.534 84.4989L233.534 51.6529C235.472 48.3036 237.109 47.3334 240.156 47.8635C240.396 47.9053 240.645 47.9563 240.903 48.0162L241.246 45.1481C243.573 41.8015 245.739 40.7574 251.072 40.2993L251.073 40.2849C251.191 38.6292 251.257 37.6965 250.478 36.0157L252.327 33.5776L248.846 32.0097C249.047 31.8106 249.23 31.6173 249.399 31.4266C250.503 30.1818 251.003 29.0438 251.696 27.0828L249.253 25.2372C249.567 22.4524 249.579 20.7856 249.43 18.2013C249.415 17.9528 249.4 17.6958 249.383 17.4286L247.825 17.8451C247.847 17.5683 247.867 17.3018 247.885 17.0439ZM248.68 18.4018L246.982 18.8558L247.068 17.785C247.289 14.996 247.278 13.2774 247.128 10.7064C244.822 11.8622 243.325 12.7116 241.016 14.2979L240.13 14.9069L239.675 13.2127C237.47 14.325 236.079 15.1462 233.908 16.7451L233.56 17.0014L230.853 15.8615C229.574 17.3861 228.981 18.3287 228.519 20.0675L228.236 21.1313L225.013 18.819L224.015 21.1799L223.561 21.2209C222.705 21.2982 222.134 21.4539 221.627 21.6815C221.242 21.8542 220.881 22.0736 220.44 22.3641C221.418 24.5286 221.983 26.2758 222.093 27.9354C222.215 29.7696 221.776 31.4209 220.872 33.3349L220.791 33.5057L218.983 34.8561C219.94 36.0076 220.52 37.1385 220.604 38.4241C220.703 39.9195 220.119 41.4679 219.054 43.3089L200.054 76.1549C199.356 77.363 198.646 78.2346 197.707 78.9088C196.779 79.5749 195.679 80.011 194.27 80.4305L194.157 80.4639L191.164 80.4146C191.362 81.1342 191.489 81.7568 191.55 82.3521C191.639 83.2182 191.584 83.994 191.433 84.8943L191.31 85.6304L179.266 83.8226L179.232 82.3284L180.574 82.0634C179.388 81.668 178.322 81.3964 177.26 81.218C175.51 80.9243 173.738 80.8774 171.41 80.9723L170.57 81.0065L170.729 78.3646C169.091 78.2546 168.009 78.4504 167.144 78.9029C166.142 79.4267 165.318 80.3504 164.271 81.8783L163.624 82.8224L163.004 81.8605C161.317 79.2426 160.669 77.1166 161.26 75.0506C161.456 74.3628 161.785 73.705 162.229 73.0563C161.886 73.3266 161.576 73.6106 161.297 73.9171C160.149 75.1764 159.447 76.8944 159.224 79.8377L159.095 81.5408L157.916 80.3035C156.917 79.256 156.298 78.2929 156.127 77.1779C156.088 76.9197 156.073 76.6605 156.081 76.3981C155.636 76.9366 155.359 77.3969 155.205 77.8186C154.923 78.5893 155.017 79.3327 155.524 80.4365L156.074 81.6357L154.759 81.5073C152.511 81.2879 150.881 81.4718 149.336 82.166C148.553 82.5181 147.774 83.0092 146.937 83.672C147.867 83.4145 148.765 83.2551 149.677 83.2234C151.719 83.1523 153.741 83.7229 156.255 85.0761L156.511 85.2137L156.61 85.4866C156.793 85.9958 156.926 86.5503 156.739 87.0897C156.549 87.6394 156.097 87.9748 155.656 88.2312L155.468 88.3403L151.328 88.2177C152.721 89.9552 153.475 91.2827 153.648 93.1398L153.65 93.152L153.65 93.1643C153.698 93.9505 153.587 94.6378 153.124 95.21C152.747 95.6768 152.197 95.9824 151.581 96.2465C150.977 97.364 150.679 98.1939 150.62 99.0052C150.586 99.4769 150.632 99.9698 150.775 100.538C150.993 100.172 151.216 99.8379 151.459 99.5234C152.015 98.8048 152.65 98.2164 153.504 97.5904L154.199 97.0801L154.618 97.8336C155.572 99.5502 156.34 100.943 157.186 102.491L156.668 99.806L156.678 99.6974C156.872 97.6716 157.215 96.1308 157.847 94.7016C158.477 93.2776 159.374 92.0083 160.61 90.5073L160.626 90.4876L160.644 90.4689C161.032 90.0584 161.443 89.7437 161.904 89.5592C162.376 89.3703 162.852 89.337 163.331 89.4187C164.222 89.5709 165.158 90.1385 166.179 90.7953L166.51 91.0085L166.527 91.4017C166.596 93.099 166.385 94.4086 165.745 95.5902C165.357 96.3079 164.825 96.9487 164.158 97.5871C165.464 97.6144 166.52 97.4099 168.078 96.9708L168.779 96.7733L169.006 97.4637C169.254 98.2147 169.521 98.727 169.956 99.2011C170.405 99.692 171.07 100.182 172.182 100.823L172.693 101.117L172.535 101.684C172.205 102.863 171.796 103.756 171.169 104.544C170.606 105.251 169.895 105.838 168.996 106.466C168.715 108.215 168.298 109.611 167.503 110.883C166.814 111.988 165.867 112.959 164.565 113.983C164.989 114.211 165.388 114.379 165.806 114.509C166.522 114.733 167.327 114.859 168.463 114.964L170.007 115.106L168.948 116.237C166.947 118.374 165.167 119.712 163.083 120.219C161.273 120.66 159.332 120.45 156.969 119.774C157.05 120.383 157.187 120.898 157.397 121.395C157.724 122.171 158.245 122.95 159.093 123.995L159.934 125.03L158.612 125.223C156.957 125.464 155.577 125.557 154.147 125.278C152.964 125.048 151.79 124.572 150.42 123.781L149.753 126.438L147.725 125.269C146.847 126.131 146.439 126.819 146.267 127.493C146.066 128.283 146.156 129.17 146.445 130.513L146.698 131.691L145.524 131.41C143.585 130.945 142.18 130.792 140.871 130.95C139.884 131.069 138.914 131.37 137.78 131.896C139.701 133.25 140.926 134.639 141.264 136.387C141.569 137.958 141.124 139.671 140.137 141.688C140.915 141.442 141.662 141.309 142.615 141.285L143.191 141.27L143.361 141.819C144.278 144.787 144.217 147.288 143.231 149.935C142.542 151.784 141.405 153.691 139.879 155.87L143.53 153.847L143.782 154.785L143.048 154.982C143.782 154.785 143.782 154.786 143.782 154.786L143.783 154.787L143.783 154.789L143.784 154.794L143.788 154.808C143.791 154.819 143.794 154.833 143.798 154.851C143.807 154.887 143.818 154.937 143.83 154.999C143.855 155.125 143.886 155.304 143.913 155.53C143.968 155.981 144.009 156.624 143.961 157.415C143.866 158.999 143.416 161.171 142.022 163.582L142.02 163.586L142.014 163.596L141.385 164.717C140.967 165.463 140.351 166.559 139.563 167.964C137.986 170.773 135.718 174.813 132.95 179.74C127.415 189.593 119.884 202.99 111.902 217.168C95.94 245.522 78.169 277.002 70.9462 289.488C59.9998 308.412 57.7393 328.808 57.9572 337.733C65.8101 333.459 82.3778 321.307 93.3243 302.383C100.547 289.897 118.976 258.796 135.597 230.822C143.908 216.834 151.768 203.626 157.55 193.915C160.44 189.06 162.812 185.078 164.461 182.311C164.857 181.646 165.212 181.05 165.522 180.53L167.025 178.008L167.031 177.999L167.033 177.995C168.428 175.584 170.088 174.11 171.414 173.235C172.077 172.799 172.655 172.512 173.075 172.334C173.284 172.244 173.455 172.182 173.576 172.14C173.637 172.12 173.685 172.104 173.721 172.094C173.738 172.088 173.753 172.084 173.764 172.081L173.777 172.077L173.782 172.076L173.784 172.075L173.785 172.075C173.785 172.075 173.786 172.075 173.982 172.808L173.786 172.075L174.726 171.823L174.796 175.991C175.924 173.583 177.01 171.646 178.27 170.127C180.074 167.951 182.214 166.647 185.247 165.956L185.808 165.828L186.084 166.333C186.54 167.169 186.797 167.881 186.973 168.677C188.229 166.815 189.493 165.575 191.009 165.052C192.695 164.471 194.512 164.835 196.648 165.818C196.537 164.575 196.313 163.586 195.923 162.673C195.405 161.463 194.57 160.325 193.198 158.881L192.367 158.007L193.515 157.637C194.825 157.215 195.64 156.849 196.224 156.281C196.723 155.795 197.116 155.099 197.426 153.909L195.397 152.74L197.369 150.836C195.998 150.046 194.998 149.269 194.206 148.363C193.249 147.266 192.64 146.026 192.022 144.475L191.528 143.236L192.847 143.445C194.177 143.656 195.114 143.717 195.951 143.611C196.487 143.544 197.003 143.405 197.571 143.171C195.803 141.466 194.651 139.894 194.128 138.109C193.526 136.053 193.797 133.847 194.651 131.048L195.103 129.568L195.998 130.831C196.657 131.76 197.169 132.393 197.721 132.9C198.043 133.196 198.388 133.457 198.798 133.71C199.036 132.072 199.404 130.768 200.018 129.62C200.725 128.297 201.728 127.239 203.105 126.121C203.201 125.03 203.354 124.122 203.686 123.282C204.056 122.346 204.627 121.546 205.485 120.672L205.897 120.251L206.408 120.545C207.52 121.187 208.278 121.516 208.929 121.659C209.557 121.797 210.135 121.773 210.911 121.611L211.624 121.463L211.803 122.167C212.201 123.733 212.551 124.748 213.228 125.863C213.448 124.968 213.739 124.188 214.167 123.493C214.872 122.349 215.903 121.512 217.411 120.723L217.76 120.541L218.111 120.721C219.191 121.275 220.152 121.8 220.729 122.494C221.039 122.867 221.248 123.295 221.32 123.797C221.391 124.288 221.324 124.801 221.161 125.342L221.154 125.366L221.145 125.39C220.461 127.21 219.808 128.619 218.887 129.876C217.963 131.136 216.798 132.204 215.137 133.384L215.048 133.447L212.459 134.342C214.225 134.299 215.817 134.266 217.784 134.233L218.647 134.218L218.552 135.075C218.436 136.125 218.243 136.969 217.897 137.808C217.746 138.175 217.567 138.536 217.359 138.907C217.924 138.746 218.374 138.539 218.766 138.274C219.441 137.818 220.012 137.145 220.68 136.064C220.601 135.4 220.591 134.772 220.807 134.212C221.072 133.526 221.613 133.086 222.319 132.735L222.33 132.729L222.342 132.724C224.04 131.946 225.568 131.933 227.772 132.268L225.596 128.751L225.597 128.534C225.599 128.025 225.664 127.467 226.046 127.027C226.42 126.596 226.968 126.434 227.502 126.338L227.788 126.287L228.035 126.439C230.466 127.936 231.972 129.398 232.932 131.199C233.36 132.002 233.671 132.859 233.912 133.791C234.069 132.736 234.106 131.818 234.019 130.964C233.85 129.282 233.194 127.781 231.88 125.948L231.111 124.875L232.426 124.751C233.638 124.637 234.33 124.347 234.857 123.718C235.146 123.374 235.407 122.904 235.652 122.251C235.428 122.389 235.196 122.506 234.952 122.6C233.899 123.01 232.754 122.957 231.346 122.617L229.682 122.216L231.096 121.253C233.538 119.589 234.678 118.123 235.197 116.501C235.323 116.107 235.415 115.697 235.478 115.266C235.137 115.974 234.73 116.587 234.232 117.1C232.734 118.644 230.565 119.146 227.451 118.997L226.306 118.943L226.802 117.911C227.604 116.243 227.994 115.068 227.947 113.941C227.907 112.966 227.536 111.933 226.622 110.573L224.409 112.031L224.018 111.288C222.937 109.228 222.01 107.72 220.88 106.354C220.194 105.525 219.426 104.74 218.49 103.912L218.931 105.205L217.617 105.922L210.027 96.4159L210.604 95.9413C211.31 95.3609 211.955 94.9253 212.751 94.5689C213.298 94.324 213.902 94.1228 214.625 93.9337L213.086 91.3714L213.059 91.2575C212.718 89.8295 212.546 88.6604 212.66 87.5257C212.776 86.3771 213.177 85.3277 213.876 84.1197L232.876 51.2736C233.941 49.4326 234.993 48.154 236.34 47.4914C237.497 46.9218 238.768 46.8573 240.246 47.1093L240.514 44.8708L240.622 44.7157C241.83 42.9771 243.044 41.7719 244.696 40.96C246.191 40.2253 247.99 39.8408 250.357 39.6038C250.389 39.0775 250.398 38.6553 250.356 38.2362C250.3 37.6842 250.149 37.1126 249.788 36.3342L249.597 35.9209L251.146 33.8779L247.528 32.2484L248.31 31.472C249.588 30.203 250.109 29.2194 250.792 27.3514L248.45 25.5815L248.498 25.1524C248.8 22.4764 248.817 20.8641 248.68 18.4018Z" fill="white"/>
<path fill-rule="evenodd" clip-rule="evenodd" d="M232.045 36.7805C235.172 38.6816 237.188 40.3472 239.354 42.9553C239.861 43.5663 240.377 44.2289 240.917 44.9585C240.631 44.0881 240.333 43.294 240.008 42.5547C238.629 39.4173 236.774 37.2684 233.375 34.4813C229.258 32.9373 226.465 32.408 223.054 32.785C222.25 32.8738 221.412 33.013 220.514 33.201C221.417 33.3032 222.249 33.4176 223.033 33.5507C226.379 34.119 228.832 35.0282 232.045 36.7805ZM226.138 33.461C228.23 34.0474 230.139 34.8766 232.41 36.1148L232.425 36.1234L232.441 36.1327C234.65 37.4761 236.324 38.7118 237.879 40.2267C237.77 40.0642 237.658 39.9036 237.543 39.7445C236.441 38.2247 235.014 36.8143 232.99 35.1473C230.532 34.2316 228.594 33.7029 226.725 33.5105C226.529 33.4904 226.334 33.4739 226.138 33.461Z" fill="white"/>
<path fill-rule="evenodd" clip-rule="evenodd" d="M203.545 86.0493L205.825 82.1077C205.578 82.0212 205.334 81.9378 205.092 81.8575C200.108 80.2008 196.203 79.8408 192.383 79.7026C191.635 79.6755 190.89 79.657 190.141 79.6388C190.876 79.9246 191.569 80.1963 192.225 80.4561C197.61 82.5889 200.459 83.9139 202.923 85.6079C203.133 85.7521 203.34 85.899 203.545 86.0493ZM194.548 80.5712C198.643 82.2436 201.118 83.4539 203.304 84.949L204.704 82.5283C200.822 81.2523 197.61 80.7782 194.548 80.5712Z" fill="white"/>
<path fill-rule="evenodd" clip-rule="evenodd" d="M203.545 86.0496L205.825 82.1081C206.024 82.2782 206.218 82.4476 206.409 82.6163C210.338 86.0961 212.603 89.2915 214.633 92.5245C215.031 93.1577 215.419 93.7923 215.81 94.4308C215.194 93.9385 214.612 93.475 214.059 93.038C209.515 89.4496 206.941 87.65 204.239 86.3668C204.009 86.2576 203.778 86.1521 203.545 86.0496ZM212.797 91.0879C209.299 88.3842 207.011 86.8499 204.621 85.7079L206.021 83.2871C209.069 86.0054 211.087 88.5444 212.797 91.0879Z" fill="white"/>
<path fill-rule="evenodd" clip-rule="evenodd" d="M143.447 179.388C145.673 167.572 145.598 161.982 143.798 154.239L143.058 154.41C144.875 162.227 144.917 167.796 142.515 180.218L142.326 181.193L143.118 180.592C143.281 180.469 143.439 180.348 143.594 180.231C146.444 178.063 148.037 176.85 151.664 175.558L151.408 174.844C147.805 176.128 146.12 177.357 143.447 179.388Z" fill="white"/>
<path fill-rule="evenodd" clip-rule="evenodd" d="M152.606 184.667C161.745 176.834 166.634 174.104 174.252 171.788L174.473 172.514C166.782 174.852 161.929 177.6 152.351 185.887L151.6 186.538L151.726 185.553C151.751 185.351 151.777 185.154 151.801 184.961C152.258 181.414 152.513 179.43 151.821 175.649L152.568 175.513C153.256 179.269 153.032 181.34 152.606 184.667Z" fill="white"/>
<path fill-rule="evenodd" clip-rule="evenodd" d="M185.475 123.954C188.206 123.356 190.294 123.333 193.621 123.687C198.79 123.777 200.998 121.381 204.776 116.539C205.76 110.827 207.689 108.975 212.35 107.585C212.611 107.507 212.881 107.431 213.16 107.356C212.971 107.141 212.785 106.93 212.603 106.722C207.29 100.661 204.709 97.0251 200.885 90.6476C193.44 90.5313 188.994 90.118 181.079 88.5568C180.807 88.5032 180.531 88.4482 180.251 88.3918C180.325 88.6705 180.393 88.9419 180.456 89.2067C181.581 93.9299 180.938 96.5242 176.474 100.23C174.163 105.917 173.188 109.024 175.85 113.446C177.82 116.145 178.844 117.961 179.691 120.621C179.88 121.214 180.06 121.849 180.24 122.545C179.806 121.972 179.401 121.459 179.011 120.99C177.62 119.318 176.421 118.213 174.803 116.989C174.393 116.678 173.956 116.36 173.482 116.023C173.737 116.534 173.975 117.018 174.197 117.483C175.639 120.501 176.385 122.675 176.653 125.841C176.687 126.241 176.713 126.657 176.732 127.093C176.444 126.753 176.175 126.443 175.916 126.156C174.866 124.997 173.967 124.215 172.611 123.398C172.331 123.229 172.032 123.059 171.707 122.884C171.791 123.231 171.87 123.564 171.945 123.886C172.765 127.423 173.025 129.539 172.983 132.816C166.645 133.98 158.337 133.606 152.085 133.324C148.356 133.156 145.359 133.021 143.947 133.265C143.542 133.335 143.267 133.436 143.144 133.577C143.345 133.747 143.543 133.919 143.738 134.093C154.339 143.573 154.967 159.331 154.912 169.251C154.91 169.551 154.908 169.846 154.905 170.135C155.155 169.988 155.41 169.839 155.669 169.687C164.249 164.68 178.235 157.343 191.762 161.767C192.01 161.848 192.259 161.933 192.507 162.022C192.567 161.845 192.518 161.557 192.376 161.172C191.882 159.83 190.266 157.306 188.256 154.167C184.885 148.904 180.406 141.91 178.248 135.85C181.07 134.175 183.037 133.342 186.515 132.282C186.831 132.186 187.16 132.087 187.503 131.986C187.189 131.794 186.892 131.62 186.605 131.462C185.219 130.699 184.091 130.312 182.56 129.985C182.181 129.904 181.777 129.826 181.339 129.748C181.726 129.546 182.101 129.361 182.465 129.19C185.345 127.838 187.605 127.397 190.945 127.134C191.459 127.093 191.998 127.057 192.569 127.022C192.04 126.781 191.545 126.562 191.071 126.363C189.199 125.576 187.641 125.093 185.495 124.726C184.893 124.624 184.245 124.53 183.531 124.442C184.225 124.249 184.866 124.087 185.475 123.954ZM189.388 126.517C187.636 125.882 185.969 125.508 183.437 125.195L183.327 123.711C187.225 122.629 189.535 122.492 193.667 122.929C196.092 122.966 197.763 122.427 199.278 121.345C200.812 120.249 202.218 118.577 204.06 116.222C204.59 113.25 205.405 111.188 206.84 109.694C208.078 108.405 209.711 107.61 211.801 106.959C206.712 101.133 204.125 97.5023 200.451 91.399C193.318 91.2746 188.874 90.854 181.274 89.3682C181.754 91.5003 181.881 93.3089 181.382 95.0242C180.803 97.0107 179.421 98.7461 177.108 100.69C175.985 103.46 175.237 105.512 175.053 107.386C174.872 109.236 175.24 110.95 176.484 113.027C178.929 116.38 179.966 118.446 180.976 122.356L179.633 123.003C178.096 120.971 176.937 119.717 175.511 118.52C176.737 121.306 177.34 123.592 177.491 127.06L177.588 129.281L176.151 127.582C174.94 126.151 174.088 125.28 172.852 124.45C173.552 127.608 173.783 129.709 173.743 132.825L173.735 133.449L173.12 133.562C166.697 134.742 158.322 134.365 152.101 134.084L152.051 134.082C149.643 133.973 147.57 133.88 146.029 133.891C145.51 133.895 145.065 133.911 144.695 133.94C149.922 138.826 152.673 145.213 154.114 151.567C155.517 157.751 155.69 163.955 155.674 168.806C159.875 166.367 165.345 163.414 171.412 161.535C177.646 159.603 184.563 158.788 191.416 160.862C191.257 160.529 191.048 160.136 190.792 159.686C190.031 158.348 188.913 156.602 187.615 154.576L187.588 154.533C184.234 149.296 179.719 142.246 177.532 136.104L177.323 135.517L177.86 135.198C180.543 133.605 182.482 132.754 185.572 131.78C184.234 131.127 183.052 130.825 181.205 130.495L179.013 130.102L180.988 129.075C184.073 127.471 186.358 126.85 189.388 126.517Z" fill="white"/>
<path fill-rule="evenodd" clip-rule="evenodd" d="M184.576 101.395C186.575 102.547 189.132 101.864 190.286 99.8681C191.44 97.8727 190.755 95.3211 188.756 94.1691C186.757 93.017 184.2 93.7007 183.046 95.6961C181.892 97.6916 182.577 100.243 184.576 101.395ZM184.196 102.052C186.559 103.414 189.58 102.606 190.944 100.247C192.309 97.8892 191.499 94.8737 189.136 93.5122C186.773 92.1506 183.752 92.9586 182.388 95.3169C181.024 97.6751 181.833 100.691 184.196 102.052Z" fill="white"/>
<path fill-rule="evenodd" clip-rule="evenodd" d="M199.714 110.119C197.715 108.967 197.03 106.415 198.184 104.42C199.339 102.424 201.895 101.741 203.894 102.893C205.894 104.045 206.579 106.596 205.424 108.592C204.27 110.587 201.714 111.271 199.714 110.119ZM199.334 110.776C196.972 109.414 196.162 106.399 197.526 104.041C198.89 101.682 201.912 100.874 204.274 102.236C206.637 103.597 207.447 106.613 206.082 108.971C204.718 111.329 201.697 112.137 199.334 110.776Z" fill="white"/>
<path fill-rule="evenodd" clip-rule="evenodd" d="M185.336 100.081C186.608 100.814 188.235 100.379 188.97 99.1095C189.704 97.8396 189.268 96.2159 187.996 95.4828C186.724 94.7497 185.097 95.1847 184.363 96.4546C183.628 97.7244 184.064 99.3481 185.336 100.081ZM184.956 100.738C186.592 101.681 188.684 101.121 189.628 99.4887C190.572 97.8561 190.012 95.7685 188.376 94.8259C186.74 93.8833 184.649 94.4427 183.704 96.0753C182.76 97.7079 183.32 99.7956 184.956 100.738Z" fill="white"/>
<path fill-rule="evenodd" clip-rule="evenodd" d="M200.474 108.805C199.202 108.072 198.766 106.449 199.501 105.179C200.235 103.909 201.862 103.474 203.134 104.207C204.407 104.94 204.842 106.564 204.108 107.834C203.373 109.104 201.747 109.539 200.474 108.805ZM200.094 109.462C198.459 108.52 197.898 106.432 198.843 104.8C199.787 103.167 201.879 102.608 203.514 103.55C205.15 104.493 205.711 106.58 204.766 108.213C203.822 109.846 201.73 110.405 200.094 109.462Z" fill="white"/>
<path fill-rule="evenodd" clip-rule="evenodd" d="M180.573 111.351C182.208 112.293 184.3 111.734 185.244 110.101C186.189 108.468 185.628 106.381 183.993 105.438C182.357 104.496 180.265 105.055 179.321 106.688C178.376 108.32 178.937 110.408 180.573 111.351ZM180.193 112.007C182.192 113.16 184.748 112.476 185.903 110.48C187.057 108.485 186.372 105.933 184.373 104.781C182.373 103.629 179.817 104.313 178.663 106.308C177.508 108.304 178.193 110.855 180.193 112.007Z" fill="white"/>
<path fill-rule="evenodd" clip-rule="evenodd" d="M193.078 118.557C191.442 117.615 190.882 115.527 191.826 113.895C192.771 112.262 194.862 111.703 196.498 112.645C198.134 113.588 198.694 115.675 197.75 117.308C196.805 118.941 194.714 119.5 193.078 118.557ZM192.698 119.214C190.699 118.062 190.014 115.511 191.168 113.515C192.322 111.52 194.879 110.836 196.878 111.988C198.877 113.14 199.562 115.692 198.408 117.687C197.254 119.683 194.697 120.366 192.698 119.214Z" fill="white"/>
<path fill-rule="evenodd" clip-rule="evenodd" d="M158.356 146.724C159.992 147.666 162.084 147.107 163.028 145.474C163.972 143.842 163.412 141.754 161.776 140.811C160.14 139.869 158.049 140.428 157.104 142.061C156.16 143.693 156.72 145.781 158.356 146.724ZM157.976 147.38C159.976 148.533 162.532 147.849 163.686 145.853C164.841 143.858 164.156 141.306 162.156 140.154C160.157 139.002 157.601 139.686 156.446 141.681C155.292 143.677 155.977 146.228 157.976 147.38Z" fill="white"/>
<path fill-rule="evenodd" clip-rule="evenodd" d="M173.494 155.446C171.859 154.503 171.298 152.416 172.243 150.783C173.187 149.151 175.279 148.591 176.914 149.534C178.55 150.476 179.111 152.564 178.166 154.197C177.222 155.829 175.13 156.389 173.494 155.446ZM173.114 156.103C171.115 154.951 170.43 152.399 171.584 150.404C172.739 148.409 175.295 147.725 177.294 148.877C179.294 150.029 179.979 152.581 178.824 154.576C177.67 156.571 175.114 157.255 173.114 156.103Z" fill="white"/>
<path fill-rule="evenodd" clip-rule="evenodd" d="M179.813 112.664C182.175 114.026 185.197 113.218 186.561 110.86C187.925 108.502 187.115 105.486 184.753 104.125C182.39 102.763 179.369 103.571 178.004 105.929C176.64 108.287 177.45 111.303 179.813 112.664ZM179.433 113.321C182.159 114.892 185.645 113.96 187.219 111.239C188.793 108.518 187.859 105.039 185.133 103.468C182.406 101.897 178.92 102.829 177.346 105.55C175.772 108.271 176.706 111.75 179.433 113.321Z" fill="white"/>
<path fill-rule="evenodd" clip-rule="evenodd" d="M192.318 119.871C189.955 118.509 189.146 115.494 190.51 113.136C191.874 110.777 194.895 109.969 197.258 111.331C199.621 112.692 200.43 115.708 199.066 118.066C197.702 120.424 194.681 121.232 192.318 119.871ZM191.938 120.528C189.212 118.957 188.278 115.477 189.852 112.756C191.426 110.035 194.912 109.103 197.638 110.674C200.364 112.245 201.298 115.724 199.724 118.445C198.15 121.167 194.664 122.099 191.938 120.528Z" fill="white"/>
<path fill-rule="evenodd" clip-rule="evenodd" d="M157.596 148.037C159.959 149.398 162.98 148.59 164.344 146.232C165.709 143.874 164.899 140.858 162.536 139.497C160.173 138.135 157.152 138.943 155.788 141.301C154.424 143.66 155.233 146.675 157.596 148.037ZM157.216 148.693C159.943 150.264 163.429 149.332 165.003 146.611C166.577 143.89 165.643 140.411 162.916 138.84C160.19 137.269 156.704 138.201 155.13 140.922C153.556 143.643 154.49 147.122 157.216 148.693Z" fill="white"/>
<path fill-rule="evenodd" clip-rule="evenodd" d="M172.734 156.761C170.372 155.399 169.562 152.384 170.926 150.025C172.29 147.667 175.312 146.859 177.674 148.221C180.037 149.582 180.847 152.598 179.483 154.956C178.118 157.314 175.097 158.122 172.734 156.761ZM172.354 157.417C169.628 155.846 168.694 152.367 170.268 149.646C171.842 146.925 175.328 145.993 178.054 147.564C180.781 149.135 181.715 152.614 180.141 155.335C178.567 158.056 175.081 158.988 172.354 157.417Z" fill="white"/>
<path fill-rule="evenodd" clip-rule="evenodd" d="M145.37 151.376C147.132 159.809 147.488 164.932 146.422 173.49C146.386 173.782 146.348 174.078 146.308 174.378C146.601 174.24 146.87 174.119 147.122 174.015C148.267 173.543 149.072 173.425 150.271 173.596L152.931 168.998C152.241 154.216 150.707 146.422 143.486 136.16C143.235 135.803 142.977 135.444 142.713 135.081C142.726 135.564 142.734 135.991 142.72 136.392C142.691 137.201 142.573 137.904 142.234 138.749C142.106 139.069 141.947 139.408 141.749 139.781L143.496 139.036C143.59 139.278 143.679 139.515 143.765 139.747C145.374 144.098 145.648 146.819 144.189 150.394C143.964 150.944 143.699 151.514 143.391 152.114L145.189 150.522C145.251 150.811 145.311 151.095 145.37 151.376ZM145.371 149.347L145.66 149.092L145.932 150.364C147.835 159.241 148.276 164.476 147.228 173.159C147.559 173.038 147.877 172.944 148.196 172.878C148.748 172.763 149.279 172.739 149.862 172.786L152.161 168.811C151.804 161.286 151.221 155.643 149.78 150.564C148.587 146.357 146.799 142.514 144.028 138.305L144.205 138.763C145.27 141.522 145.889 143.72 145.902 145.858C145.909 147.033 145.733 148.167 145.371 149.347ZM143.863 138.055C143.711 137.826 143.555 137.596 143.397 137.364C143.388 137.427 143.378 137.489 143.367 137.552C143.321 137.816 143.259 138.079 143.18 138.346L143.863 138.055Z" fill="white"/>
<path fill-rule="evenodd" clip-rule="evenodd" d="M175.95 168.998C167.752 171.691 163.129 173.945 156.236 179.146C156.001 179.323 155.763 179.504 155.523 179.688C155.497 179.366 155.467 179.073 155.431 178.803C155.268 177.577 154.967 176.823 154.22 175.872L156.88 171.274C170.05 164.479 177.58 161.908 190.095 163.018C190.53 163.057 190.971 163.1 191.418 163.147C190.992 163.377 190.618 163.584 190.277 163.797C189.59 164.226 189.038 164.68 188.474 165.395C188.261 165.665 188.046 165.973 187.822 166.33L187.594 164.448C187.338 164.488 187.088 164.529 186.844 164.571C182.263 165.356 179.766 166.479 177.393 169.528C177.028 169.997 176.666 170.512 176.3 171.078L176.782 168.728C176.5 168.818 176.223 168.909 175.95 168.998ZM177.71 167.983L177.787 167.606L176.548 168.006C167.894 170.8 163.131 173.036 156.12 178.283C156.06 177.937 155.983 177.615 155.881 177.307C155.704 176.772 155.46 176.301 155.127 175.821L157.427 171.846C164.134 168.392 169.323 166.074 174.45 164.78C178.697 163.708 182.925 163.332 187.963 163.622L187.476 163.698C184.551 164.157 182.334 164.721 180.472 165.779C179.449 166.361 178.553 167.08 177.71 167.983ZM188.262 163.64C188.537 163.657 188.815 163.676 189.095 163.697C189.045 163.737 188.996 163.776 188.947 163.817C188.741 163.989 188.543 164.174 188.351 164.376L188.262 163.64Z" fill="white"/>
<path fill-rule="evenodd" clip-rule="evenodd" d="M177.479 83.6336L177.492 83.9397C177.525 84.6918 177.613 85.1284 177.762 85.4207C177.9 85.6915 178.111 85.875 178.497 86.0685L178.689 86.1643L178.706 86.3776C178.975 89.7636 178.935 92.0948 178.487 93.8977C178.033 95.7232 177.168 96.9843 175.852 98.2421L175.695 98.3923L175.485 98.333C174.06 97.9293 173.022 97.4126 172.136 96.5976C171.344 95.8687 170.693 94.9186 169.991 93.6515L168.55 94.9264L167.948 94.4962C168.322 93.6036 168.555 92.9253 168.656 92.2306C168.753 91.5691 168.733 90.8724 168.58 89.9433C167.742 89.1695 167.086 88.6364 166.386 88.2719C165.68 87.9038 164.907 87.6973 163.828 87.6186C161.76 88.0022 160.485 88.6347 159.517 89.5863C158.527 90.5596 157.825 91.8947 156.958 93.7623L156.264 93.4534C157.234 91.197 157.916 89.4873 158.205 87.8563C158.49 86.2428 158.391 84.6932 157.762 82.7659L157.348 81.4977L158.369 82.3587C158.984 82.878 159.399 83.1154 159.788 83.1527C160.163 83.1886 160.606 83.0445 161.293 82.5451L161.579 82.3366L164.241 85.5002C164.612 84.5018 164.995 83.6999 165.509 82.9951C166.128 82.1441 166.921 81.4569 168.059 80.7277L168.541 80.419L169.078 83.5168C172.339 82.8791 174.149 83.0661 177.177 83.5821L177.479 83.6336ZM176.75 84.2793C173.845 83.7932 172.12 83.6567 168.847 84.3372L168.462 84.4172L167.99 81.6862C167.164 82.2609 166.585 82.8069 166.123 83.4412C165.574 84.196 165.173 85.098 164.736 86.3742L164.545 86.9302C165.389 87.0449 166.082 87.2579 166.738 87.5994C167.561 88.0278 168.302 88.6477 169.192 89.4755L169.285 89.5624L169.307 89.6879C169.489 90.7317 169.524 91.5459 169.408 92.3401C169.358 92.6811 169.281 93.0143 169.179 93.3561L170.204 92.4486L170.431 92.8724C171.215 94.3348 171.87 95.3213 172.651 96.0399C173.383 96.7136 174.247 97.171 175.483 97.5421C176.63 96.4122 177.356 95.2994 177.749 93.7151C178.157 92.0718 178.214 89.9001 177.965 86.6441C177.587 86.4292 177.29 86.1662 177.085 85.7653C176.889 85.3812 176.794 84.9005 176.75 84.2793ZM164.439 86.9164L161.448 83.3602C160.833 83.7617 160.282 83.962 159.715 83.9078C159.395 83.8771 159.092 83.7665 158.791 83.5977C159.176 85.1712 159.207 86.5557 158.953 87.9882C158.869 88.4663 158.753 88.9487 158.608 89.444C158.729 89.306 158.854 89.1733 158.984 89.0458C160.1 87.9492 161.544 87.2646 163.738 86.8638L163.785 86.8552L163.832 86.8585C164.044 86.873 164.245 86.8922 164.439 86.9164Z" fill="white"/>
<path fill-rule="evenodd" clip-rule="evenodd" d="M218.674 107.372L218.402 107.514C217.733 107.862 217.311 108.004 216.982 108.021C216.678 108.037 216.414 107.947 216.052 107.71L215.874 107.592L215.68 107.684C212.607 109.144 210.605 110.345 209.265 111.633C207.907 112.938 207.245 114.316 206.812 116.083L206.761 116.294L206.917 116.445C207.98 117.476 208.947 118.115 210.097 118.473C211.126 118.793 212.276 118.88 213.726 118.854L213.34 120.737L214.015 121.042C214.602 120.272 215.074 119.732 215.626 119.297C216.152 118.883 216.766 118.551 217.649 118.22C218.739 118.556 219.53 118.857 220.196 119.28C220.869 119.706 221.434 120.271 222.042 121.165C222.743 123.143 222.832 124.562 222.49 125.875C222.141 127.217 221.333 128.491 220.146 130.174L220.761 130.62C222.235 128.654 223.377 127.209 224.648 126.144C225.905 125.09 227.299 124.401 229.286 123.981L230.593 123.705L229.336 123.253C228.577 122.981 228.164 122.741 227.937 122.424C227.718 122.117 227.622 121.663 227.712 120.819L227.75 120.467L223.674 119.749C224.355 118.929 224.859 118.196 225.214 117.4C225.642 116.439 225.842 115.41 225.906 114.062L225.932 113.49L222.976 114.576C221.899 111.438 220.832 109.967 218.87 107.608L218.674 107.372ZM218.479 108.325C220.353 110.593 221.334 112.016 222.38 115.185L222.503 115.558L225.109 114.601C225.023 115.602 224.839 116.375 224.519 117.092C224.139 117.944 223.557 118.741 222.668 119.757L222.281 120.2C221.76 119.528 221.228 119.036 220.604 118.639C219.821 118.143 218.912 117.812 217.749 117.457L217.627 117.419L217.507 117.463C216.51 117.828 215.786 118.204 215.155 118.702C214.884 118.915 214.634 119.149 214.388 119.408L214.663 118.068L214.182 118.083C212.521 118.138 211.338 118.064 210.324 117.749C209.373 117.453 208.544 116.935 207.604 116.052C208.011 114.495 208.614 113.312 209.792 112.18C211.014 111.005 212.869 109.87 215.819 108.458C216.195 108.677 216.572 108.802 217.022 108.779C217.453 108.756 217.918 108.598 218.479 108.325ZM222.346 120.285L226.927 121.092C226.886 121.824 226.988 122.401 227.318 122.864C227.505 123.126 227.753 123.332 228.05 123.508C226.492 123.962 225.275 124.627 224.159 125.563C223.786 125.875 223.426 126.216 223.068 126.589C223.127 126.415 223.18 126.241 223.226 126.065C223.619 124.552 223.491 122.962 222.742 120.865L222.726 120.82L222.699 120.78C222.581 120.605 222.464 120.44 222.346 120.285Z" fill="white"/>
<path fill-rule="evenodd" clip-rule="evenodd" d="M174.432 114.381C174.138 113.914 173.886 113.479 173.67 113.066C172.663 111.14 172.453 109.689 172.597 107.657C172.617 107.383 172.643 107.098 172.674 106.8L170.927 107.544C170.455 109.907 169.87 111.153 168.336 112.571C168.14 112.753 167.927 112.938 167.697 113.128C167.98 113.247 168.242 113.353 168.495 113.447C169.309 113.752 170.032 113.946 171.078 114.113C171.12 114.12 171.162 114.126 171.204 114.133C171.417 114.165 171.644 114.197 171.887 114.229C171.749 114.474 171.611 114.71 171.473 114.939C171.356 115.131 171.24 115.319 171.123 115.501C170.327 116.74 169.519 117.735 168.631 118.572C168.518 118.678 168.403 118.782 168.288 118.883C166.53 120.425 164.443 121.416 161.542 122.481C161.307 122.567 161.066 122.654 160.82 122.742C160.945 122.978 161.066 123.202 161.185 123.417C161.865 124.644 162.49 125.592 163.536 126.967C163.71 127.197 163.897 127.439 164.097 127.696C163.781 127.713 163.474 127.73 163.175 127.746C159.124 127.959 156.573 127.959 153.137 126.892C152.9 126.819 152.659 126.74 152.413 126.656L151.741 129.334C151.574 129.296 151.421 129.26 151.266 129.216C151.181 129.192 151.096 129.166 151.007 129.136C150.725 129.042 150.411 128.913 149.98 128.705C149.768 128.603 149.527 128.481 149.247 128.335C149.218 128.645 149.204 128.917 149.208 129.169C149.221 129.89 149.381 130.449 149.753 131.254C157.839 131.647 162.327 131.601 170.211 130.781C170.149 126.986 169.905 124.582 169.312 120.58C169.269 120.287 169.223 119.985 169.176 119.674L173.644 121.811C173.469 121.436 173.307 121.079 173.157 120.737C172.334 118.847 171.91 117.389 171.884 115.719C171.877 115.256 171.9 114.776 171.954 114.266C171.968 114.132 171.984 113.996 172.003 113.858C172.019 113.736 172.037 113.612 172.056 113.486C172.078 113.344 172.102 113.201 172.128 113.054L174.432 114.381ZM171.303 113.38C171.327 113.23 171.352 113.077 171.38 112.922L171.569 111.856L172.518 112.403C172.287 111.847 172.116 111.309 171.999 110.764C171.807 109.864 171.766 108.973 171.816 107.991L171.591 108.086C171.334 109.268 171.024 110.222 170.53 111.085C170.162 111.729 169.704 112.3 169.126 112.868C169.779 113.09 170.415 113.243 171.303 113.38ZM171.189 116.759C170.607 117.578 170.006 118.29 169.362 118.922L172.128 120.244C171.751 119.3 171.475 118.428 171.309 117.55C171.259 117.286 171.219 117.023 171.189 116.759ZM168.421 119.765C168.229 119.922 168.033 120.073 167.833 120.22C166.203 121.413 164.3 122.272 161.909 123.154C162.657 124.493 163.353 125.506 164.697 127.23L165.587 128.372L164.14 128.453C159.54 128.711 156.761 128.804 152.952 127.629L152.297 130.239L151.572 130.074C151.044 129.954 150.639 129.839 149.995 129.549C150.001 129.602 150.009 129.654 150.018 129.704C150.062 129.955 150.137 130.21 150.262 130.519C157.784 130.874 162.175 130.829 169.437 130.098C169.352 126.472 169.073 124.063 168.425 119.787L168.421 119.765Z" fill="white"/>
<path fill-rule="evenodd" clip-rule="evenodd" d="M193.519 125.381C194.071 125.401 194.574 125.402 195.041 125.382C197.216 125.289 198.58 124.745 200.27 123.604C200.499 123.45 200.733 123.285 200.976 123.109L201.203 124.991C199.389 126.581 198.601 127.709 198.137 129.744C198.078 130.005 198.024 130.281 197.973 130.575C197.729 130.39 197.506 130.216 197.298 130.045C196.626 129.494 196.096 128.966 195.428 128.145C195.402 128.113 195.375 128.08 195.349 128.046C195.213 127.878 195.072 127.698 194.923 127.504C194.78 127.746 194.644 127.983 194.515 128.217C194.406 128.414 194.302 128.608 194.202 128.8C193.524 130.108 193.065 131.304 192.783 132.49C192.748 132.641 192.715 132.792 192.684 132.942C192.226 135.233 192.409 137.532 192.936 140.572C192.979 140.819 193.024 141.07 193.071 141.326C192.803 141.336 192.548 141.344 192.302 141.348C190.898 141.374 189.763 141.308 188.046 141.092C187.76 141.056 187.457 141.015 187.133 140.971C187.276 141.253 187.415 141.527 187.551 141.793C189.391 145.401 190.667 147.606 193.311 150.043C193.493 150.211 193.682 150.38 193.878 150.551L191.89 152.471C192.006 152.596 192.115 152.71 192.23 152.821C192.293 152.883 192.359 152.944 192.429 153.006C192.651 153.202 192.92 153.409 193.316 153.678C193.511 153.81 193.737 153.958 194.003 154.126C193.75 154.306 193.52 154.454 193.299 154.577C192.668 154.927 192.103 155.068 191.218 155.149C186.834 148.356 184.629 144.453 181.4 137.229C184.723 135.385 186.932 134.394 190.7 132.905C190.976 132.796 191.261 132.685 191.554 132.57L187.466 129.776C187.879 129.74 188.27 129.702 188.642 129.66C190.693 129.426 192.17 129.064 193.632 128.252C194.038 128.026 194.442 127.766 194.857 127.465C194.967 127.386 195.077 127.304 195.188 127.218C195.286 127.143 195.384 127.066 195.484 126.986C195.595 126.897 195.708 126.804 195.823 126.708L193.519 125.381ZM195.951 127.584C196.07 127.489 196.19 127.39 196.312 127.289L197.142 126.592L196.193 126.046C196.79 125.968 197.342 125.846 197.874 125.674C198.751 125.391 199.545 124.981 200.372 124.447L200.401 124.689C199.505 125.501 198.832 126.247 198.33 127.105C197.955 127.745 197.689 128.426 197.485 129.21C196.965 128.757 196.514 128.283 195.951 127.584ZM193.077 129.372C192.658 130.285 192.341 131.161 192.114 132.033L189.584 130.304C190.591 130.157 191.486 129.96 192.331 129.664C192.585 129.576 192.833 129.479 193.077 129.372ZM191.853 133.268C191.813 133.512 191.779 133.757 191.752 134.004C191.532 136.009 191.738 138.083 192.168 140.592C190.633 140.614 189.406 140.519 187.238 140.219L185.802 140.021L186.455 141.313C188.531 145.418 189.84 147.866 192.764 150.571L190.827 152.442L191.332 152.986C191.701 153.382 192.002 153.675 192.576 154.087C192.527 154.108 192.479 154.127 192.43 154.145C192.191 154.232 191.932 154.294 191.601 154.342C187.532 148.017 185.376 144.199 182.379 137.556C185.568 135.817 187.797 134.854 191.832 133.276L191.853 133.268Z" fill="white"/>
<path fill-rule="evenodd" clip-rule="evenodd" d="M188.719 91.9581C189.24 92.2916 189.743 92.6297 190.223 92.9767C192.31 94.4864 193.954 96.1667 194.652 98.389C194.761 98.7343 194.846 99.0927 194.907 99.4655L198.327 93.5532L188.719 91.9581ZM191.805 93.2394C193.261 94.448 194.463 95.8273 195.15 97.528L197.121 94.1219L191.805 93.2394Z" fill="white"/>
<path fill-rule="evenodd" clip-rule="evenodd" d="M205.832 101.819C205.282 101.536 204.737 101.27 204.196 101.029C201.842 99.9793 199.562 99.3984 197.285 99.9063C196.931 99.9853 196.577 100.09 196.223 100.224L199.643 94.312L205.832 101.819ZM203.177 99.7928C201.4 99.1387 199.603 98.7894 197.783 99.0453L199.753 95.6392L203.177 99.7928Z" fill="white"/>
<path fill-rule="evenodd" clip-rule="evenodd" d="M181.444 116.67C181.599 116.934 181.745 117.214 181.882 117.506C182.355 118.515 182.716 119.663 182.912 120.746C182.96 121.01 182.998 121.27 183.025 121.523C183.259 121.42 183.503 121.323 183.756 121.232C184.794 120.86 185.971 120.598 187.083 120.503C187.404 120.475 187.72 120.462 188.026 120.463C187.826 120.238 187.638 119.987 187.463 119.717C186.935 118.903 186.527 117.922 186.256 117.003C186.182 116.752 186.118 116.505 186.065 116.267C185.833 116.34 185.587 116.409 185.332 116.47C184.399 116.696 183.343 116.834 182.373 116.784C182.052 116.768 181.74 116.731 181.444 116.67ZM182.736 117.553C183.137 118.483 183.446 119.498 183.634 120.471C184.572 120.146 185.607 119.907 186.615 119.788C186.138 118.972 185.773 118.056 185.523 117.205C184.66 117.414 183.682 117.557 182.736 117.553Z" fill="white"/>
<path fill-rule="evenodd" clip-rule="evenodd" d="M148.76 135.368C148.448 135.373 148.129 135.379 147.802 135.386C148.009 135.643 148.207 135.891 148.396 136.133C150.101 138.313 151.092 139.926 152.238 142.357C152.408 142.718 152.582 143.098 152.762 143.499C152.846 143.07 152.939 142.666 153.043 142.284C153.944 138.961 155.647 137.389 159.511 136.458C160.367 136.251 161.328 136.077 162.411 135.921C161.347 135.836 160.371 135.76 159.449 135.692C155.763 135.423 152.931 135.301 148.76 135.368ZM149.344 136.118C150.703 137.897 151.61 139.354 152.557 141.27C153.083 139.729 153.848 138.521 155.037 137.591C155.698 137.073 156.473 136.656 157.378 136.312C154.766 136.151 152.413 136.081 149.344 136.118Z" fill="white"/>
<path fill-rule="evenodd" clip-rule="evenodd" d="M188.146 158.063C188.297 158.335 188.451 158.614 188.609 158.901C188.282 158.85 187.968 158.803 187.664 158.761C184.919 158.376 183.024 158.326 180.342 158.552C179.943 158.585 179.528 158.625 179.089 158.67C179.419 158.382 179.724 158.1 180.003 157.82C182.436 155.379 182.948 153.121 181.824 149.315C181.575 148.472 181.246 147.554 180.84 146.541C181.445 147.418 182 148.223 182.519 148.987C184.596 152.038 186.118 154.425 188.146 158.063ZM187.202 157.933C184.98 157.648 183.262 157.592 181.125 157.732C182.2 156.507 182.866 155.242 183.078 153.749C183.197 152.919 183.171 152.041 183.017 151.087C184.463 153.264 185.7 155.262 187.202 157.933Z" fill="white"/>
<path fill-rule="evenodd" clip-rule="evenodd" d="M163.778 135.833C164.088 136.107 164.399 136.364 164.707 136.612C165.005 136.851 165.3 137.081 165.589 137.306C167.4 138.713 168.963 139.928 169.356 142.12C169.431 142.535 169.463 142.986 169.447 143.479L173.627 136.253C173.323 136.279 173.02 136.297 172.718 136.308C171.065 136.369 169.446 136.224 167.824 136.078C166.883 135.994 165.941 135.909 164.99 135.865C164.588 135.846 164.184 135.835 163.778 135.833ZM166.032 136.689C166.04 136.694 166.047 136.7 166.054 136.705C166.152 136.781 166.25 136.858 166.347 136.934C167.021 137.46 167.69 137.995 168.269 138.589C168.987 139.325 169.568 140.152 169.902 141.176L172.272 137.079C171.029 137.097 169.815 137.013 168.627 136.911C168.331 136.886 168.037 136.859 167.744 136.833C167.169 136.781 166.6 136.73 166.032 136.689Z" fill="white"/>
<path fill-rule="evenodd" clip-rule="evenodd" d="M180.233 145.315C179.841 145.184 179.461 145.044 179.092 144.901C178.736 144.763 178.389 144.623 178.049 144.485C175.922 143.624 174.087 142.88 171.989 143.636C171.591 143.78 171.184 143.977 170.764 144.238L174.944 137.011C175.073 137.288 175.209 137.559 175.35 137.825C176.124 139.284 177.06 140.611 177.997 141.94C178.541 142.712 179.085 143.484 179.599 144.283C179.816 144.621 180.028 144.964 180.233 145.315ZM178.363 143.794C178.355 143.79 178.346 143.787 178.338 143.784C178.223 143.737 178.108 143.69 177.993 143.644C177.199 143.324 176.4 143.014 175.596 142.81C174.598 142.558 173.59 142.469 172.535 142.693L174.905 138.595C175.51 139.679 176.191 140.687 176.873 141.662C177.043 141.906 177.213 142.147 177.382 142.386C177.714 142.858 178.043 143.324 178.363 143.794Z" fill="white"/>
<path fill-rule="evenodd" clip-rule="evenodd" d="M157.212 165.284C157.206 165.593 157.198 165.897 157.185 166.194C157.437 166.035 157.696 165.875 157.962 165.716C161.714 163.467 166.774 161.256 171.231 160.176C171.558 160.097 171.882 160.024 172.202 159.957C171.934 159.771 171.677 159.568 171.429 159.35C168.871 157.099 167.365 153.266 167.105 149.955C167.082 149.67 167.069 149.39 167.065 149.114C166.824 149.249 166.574 149.378 166.316 149.501C163.313 150.931 159.234 151.546 156.002 150.46C155.689 150.355 155.384 150.234 155.089 150.096C155.191 150.406 155.29 150.722 155.384 151.044C156.676 155.437 157.287 160.916 157.212 165.284ZM157.977 164.825C161.594 162.711 166.292 160.664 170.545 159.566C169.36 158.411 168.421 156.954 167.735 155.412C167.001 153.766 166.539 151.988 166.373 150.311C164.835 151.006 163.061 151.495 161.266 151.685C159.585 151.862 157.851 151.779 156.257 151.332C157.431 155.558 158.003 160.642 157.977 164.825Z" fill="white"/>
<path fill-rule="evenodd" clip-rule="evenodd" d="M178.009 102.179C178.071 102.034 178.153 101.878 178.259 101.696C178.973 101.09 179.443 100.636 179.931 100.041C180.151 99.7718 180.375 99.4737 180.627 99.1196C180.629 99.5418 180.659 99.8883 180.742 100.241C180.799 100.483 180.88 100.728 180.994 101.002C181.083 101.216 181.191 101.448 181.323 101.71C181.045 101.763 180.793 101.819 180.559 101.879C179.825 102.071 179.266 102.314 178.634 102.687C178.382 102.836 178.119 103.005 177.828 103.2C177.824 102.802 177.861 102.522 178.009 102.179ZM179.807 101.311C179.948 101.264 180.094 101.22 180.246 101.178C180.214 101.098 180.185 101.02 180.157 100.942C180.044 101.067 179.928 101.189 179.807 101.311Z" fill="white"/>
<path fill-rule="evenodd" clip-rule="evenodd" d="M202.319 116.187C202.413 116.061 202.508 115.912 202.612 115.729C202.781 114.809 202.94 114.176 203.212 113.457C203.336 113.132 203.482 112.789 203.663 112.394C203.296 112.604 202.98 112.751 202.633 112.855C202.395 112.927 202.142 112.979 201.847 113.018C201.617 113.049 201.362 113.071 201.068 113.088C201.161 113.355 201.239 113.6 201.303 113.833C201.504 114.563 201.573 115.168 201.565 115.901C201.562 116.193 201.546 116.505 201.523 116.854C201.87 116.659 202.094 116.486 202.319 116.187ZM202.172 114.199C202.142 114.053 202.108 113.906 202.068 113.753C202.153 113.741 202.236 113.727 202.318 113.711C202.265 113.872 202.217 114.034 202.172 114.199Z" fill="white"/>
<path fill-rule="evenodd" clip-rule="evenodd" d="M189.764 104.24L189.742 104.244C189.441 104.299 189.154 104.351 188.881 104.404C189.184 104.769 189.514 105.182 189.832 105.603C190.159 106.038 190.478 106.492 190.743 106.919C190.873 107.13 190.997 107.346 191.103 107.559C191.341 107.544 191.59 107.543 191.838 107.551C192.342 107.565 192.895 107.615 193.436 107.68C193.96 107.744 194.483 107.823 194.952 107.902C194.862 107.64 194.763 107.365 194.66 107.078L194.653 107.057C194.354 106.226 194.023 105.303 193.811 104.402C193.72 104.018 193.647 103.623 193.609 103.227C193.247 103.392 192.867 103.526 192.489 103.64C191.6 103.907 190.634 104.082 189.764 104.24ZM193.585 102.394C192.477 102.977 190.984 103.248 189.607 103.498C189.16 103.579 188.725 103.657 188.32 103.744C188.025 103.807 187.745 103.874 187.487 103.949C187.638 104.116 187.829 104.334 188.042 104.586C188.974 105.683 190.331 107.419 190.625 108.385C191.611 108.157 193.796 108.462 195.214 108.718C195.538 108.777 195.823 108.833 196.043 108.88C195.98 108.619 195.898 108.344 195.805 108.057C195.677 107.663 195.528 107.248 195.375 106.822C194.903 105.506 194.392 104.081 194.343 102.831C194.33 102.476 194.353 102.136 194.425 101.816C194.184 102.038 193.9 102.229 193.585 102.394Z" fill="white"/>
<path fill-rule="evenodd" clip-rule="evenodd" d="M171.891 90.7073C172.444 93.1866 173.164 94.3187 174.442 95.4174C174.627 95.5765 174.823 95.7349 175.033 95.8966C175.186 95.6835 175.327 95.4746 175.458 95.2662C176.545 93.5393 176.895 91.8534 176.858 88.1895C175.714 87.3445 175.327 86.71 174.985 85.3586C172.268 85.2749 170.628 85.4364 168.334 85.8475C167.947 85.9167 167.543 85.9929 167.111 86.0763C167.513 86.2664 167.873 86.4528 168.196 86.6433C169.538 87.4352 170.235 88.2992 170.661 89.8003C170.755 90.1311 170.836 90.4928 170.907 90.8916L171.667 89.5778C171.739 89.9833 171.814 90.3586 171.891 90.7073ZM171.17 88.921L172.051 87.3968L172.416 89.4452C172.74 91.2674 173.098 92.3907 173.563 93.2181C173.901 93.8202 174.312 94.2946 174.866 94.7806C175.28 94.1078 175.563 93.452 175.755 92.6615C176.001 91.6543 176.105 90.3974 176.101 88.5647C175.638 88.194 175.274 87.8216 174.984 87.3777C174.731 86.9899 174.553 86.5734 174.405 86.1028C172.393 86.0647 170.986 86.1794 169.288 86.4538C169.691 86.751 170.041 87.0768 170.341 87.4517C170.691 87.8886 170.959 88.3726 171.17 88.921Z" fill="white"/>
<path fill-rule="evenodd" clip-rule="evenodd" d="M215.331 115.739C212.904 116.501 211.561 116.445 209.969 115.89C209.739 115.81 209.503 115.719 209.258 115.619C209.366 115.38 209.477 115.153 209.592 114.935C210.547 113.133 211.835 111.987 215.033 110.187C216.338 110.753 217.082 110.771 218.425 110.39C219.857 112.698 220.536 114.195 221.327 116.385C221.46 116.753 221.596 117.141 221.74 117.556C221.374 117.303 221.032 117.085 220.705 116.901C219.347 116.138 218.249 115.967 216.734 116.349C216.4 116.433 216.045 116.544 215.663 116.682L216.423 115.368C216.035 115.509 215.673 115.632 215.331 115.739ZM217.242 115.47L218.124 113.946L216.164 114.655C214.421 115.286 213.267 115.538 212.317 115.55C211.625 115.559 211.008 115.441 210.31 115.205C210.687 114.511 211.114 113.938 211.704 113.376C212.455 112.661 213.493 111.942 215.086 111.03C215.639 111.244 216.144 111.373 216.674 111.401C217.137 111.426 217.588 111.372 218.07 111.264C219.109 112.985 219.713 114.258 220.324 115.862C219.864 115.663 219.407 115.524 218.931 115.451C218.377 115.367 217.823 115.378 217.242 115.47Z" fill="white"/>
<path fill-rule="evenodd" clip-rule="evenodd" d="M193.924 87.5119L182.568 86.6617C184.153 87.0782 185.57 87.4353 186.919 87.7482C190.77 88.6408 194.08 89.1735 199.24 89.6995C199.902 88.3882 200.251 87.6325 200.811 86.2253C198.607 84.9548 197.153 84.2678 194.711 83.3923C194.437 83.2941 194.15 83.1935 193.849 83.0895C193.933 83.405 194.005 83.6951 194.063 83.9674C194.344 85.2813 194.316 86.1806 193.924 87.5119ZM194.895 84.2661C194.96 84.6464 194.999 85.0083 195.007 85.3686C195.026 86.1434 194.905 86.8702 194.653 87.7258L194.479 88.3142L193.59 88.2476C195.15 88.4788 196.838 88.6862 198.795 88.891C199.212 88.0521 199.502 87.4213 199.858 86.5557C198.131 85.5845 196.828 84.9768 194.895 84.2661ZM148.636 153.32C148.238 151.904 147.784 150.458 147.278 148.847L147.263 148.801C147.219 148.661 147.175 148.519 147.13 148.377C147.1 148.28 147.069 148.182 147.038 148.084L147.086 148.384C147.382 150.227 147.65 151.903 147.892 153.48C148.73 158.948 149.241 163.211 149.403 169.027C149.417 169.503 149.428 169.989 149.436 170.487L150.576 168.516C150.496 161.413 149.811 157.498 148.636 153.32Z" fill="white"/>
<path fill-rule="evenodd" clip-rule="evenodd" d="M207.087 95.0977L213.502 104.488C212.348 103.326 211.331 102.28 210.384 101.27C207.685 98.3883 205.567 95.7936 202.531 91.5962C203.338 90.3686 203.819 89.6889 204.76 88.5013C206.964 89.7709 208.287 90.6839 210.268 92.3575C210.49 92.5452 210.721 92.7425 210.962 92.9509C210.646 93.0359 210.358 93.1192 210.093 93.205C208.812 93.6193 208.046 94.0932 207.087 95.0977ZM209.418 92.6355C209.055 92.7694 208.722 92.9166 208.405 93.0891C207.723 93.4602 207.153 93.9288 206.537 94.5744L206.113 95.0183L206.615 95.7539C205.635 94.5208 204.611 93.166 203.455 91.5763C203.974 90.7967 204.376 90.2305 204.95 89.4901C206.655 90.4968 207.834 91.3196 209.418 92.6355ZM172.63 167.147C174.058 166.783 175.54 166.453 177.19 166.084L177.237 166.074C177.381 166.042 177.526 166.01 177.672 165.977C177.772 165.955 177.872 165.932 177.972 165.91L177.688 166.018C175.941 166.685 174.352 167.291 172.864 167.87C167.7 169.88 163.746 171.57 158.618 174.337C158.198 174.564 157.771 174.797 157.334 175.039L158.474 173.068C164.678 169.586 168.418 168.221 172.63 167.147Z" fill="white"/>
<path fill-rule="evenodd" clip-rule="evenodd" d="M233.823 18.5359L231.14 17.8653C230.555 18.7552 230.24 19.3713 229.964 20.2702C229.894 20.4963 229.827 20.7404 229.759 21.0111C230.034 21.0397 230.285 21.0724 230.518 21.1106C231.666 21.299 232.38 21.6217 233.43 22.2506C235.345 19.4364 237.51 19.0017 240.799 18.6139L241.661 15.6069L239.723 16.6803L238.787 15.2649C236.942 16.3281 235.858 17.0428 233.823 18.5359ZM238.549 16.2819C237.085 17.1457 236.051 17.8432 234.274 19.147L233.986 19.3583L231.487 18.7341C231.143 19.2994 230.923 19.7665 230.727 20.3766C231.184 20.4555 231.591 20.5576 231.984 20.6948C232.409 20.8433 232.804 21.0281 233.217 21.2528C234.136 20.0731 235.14 19.3206 236.3 18.825C237.47 18.3253 238.769 18.1017 240.207 17.9216L240.425 17.159L239.477 17.6845L238.549 16.2819Z" fill="white"/>
<path fill-rule="evenodd" clip-rule="evenodd" d="M246.987 26.121L248.911 28.1054C248.431 29.056 248.054 29.6359 247.412 30.3242C247.25 30.4974 247.072 30.6774 246.872 30.8719C246.709 30.6485 246.555 30.448 246.406 30.2658C245.668 29.3675 245.031 28.9113 243.961 28.3186C245.445 25.256 244.74 23.1677 243.432 20.1307L245.61 17.8823L245.647 20.0935L247.343 20.1951C247.343 22.3212 247.265 23.6157 246.987 26.121ZM246.58 20.9093C246.562 22.6065 246.475 23.8497 246.232 26.0375L246.192 26.3921L247.983 28.2394C247.665 28.82 247.37 29.2435 246.938 29.718C246.641 29.3623 246.349 29.062 246.034 28.7909C245.692 28.4973 245.334 28.2481 244.933 28.0039C245.497 26.6199 245.648 25.3758 245.498 24.1248C245.346 22.8637 244.891 21.6289 244.328 20.2963L244.881 19.7261L244.899 20.8086L246.58 20.9093Z" fill="white"/>
<path fill-rule="evenodd" clip-rule="evenodd" d="M242.305 19.0436L245.522 16.5175C245.915 15.3203 246.061 14.506 246.096 13.3415C246.105 13.0739 246.107 12.7878 246.105 12.4744C245.827 12.6216 245.576 12.7601 245.345 12.8956C244.327 13.4921 243.698 14.0302 242.889 15.0004L242.305 19.0436ZM243.328 17.2748L244.869 16.0648C245.132 15.2289 245.26 14.5914 245.313 13.8054C244.652 14.2334 244.177 14.6628 243.61 15.3235L243.328 17.2748Z" fill="white"/>
<path fill-rule="evenodd" clip-rule="evenodd" d="M225.036 23.1063C224.264 22.8287 223.727 22.8247 223.022 23.0306C222.803 23.0948 222.566 23.1793 222.302 23.2823C222.413 23.5219 222.515 23.7529 222.609 23.9769C223.551 26.2186 223.672 27.756 223.334 30.0512C223.298 30.296 223.257 30.5495 223.211 30.8133C223.47 30.8052 223.727 30.8034 223.983 30.8076C227.184 30.8606 230.19 31.8547 233.287 33.1162L235.567 29.1747C235.298 28.6358 234.946 28.0932 234.595 27.5505C233.881 26.4481 233.166 25.3451 233.138 24.2714C231.31 23.4888 230.253 23.2495 228.239 23.638L225.986 21.464L225.036 23.1063ZM226.158 22.6847L225.377 24.0349L224.779 23.82C224.347 23.6648 224.053 23.6272 223.771 23.651C223.637 23.6624 223.495 23.6883 223.33 23.7321C223.812 24.8878 224.097 25.8966 224.209 26.9314C224.318 27.9298 224.263 28.921 224.102 30.0513C227.19 30.1218 230.08 31.0249 232.959 32.1665L234.699 29.1588C234.487 28.7805 234.245 28.4081 233.989 28.0137C233.803 27.7261 233.608 27.4269 233.413 27.1051C232.993 26.4157 232.574 25.6294 232.43 24.7978C231.736 24.5167 231.191 24.3456 230.648 24.266C230.013 24.173 229.335 24.1993 228.383 24.3828L227.995 24.4577L226.158 22.6847Z" fill="white"/>
<path fill-rule="evenodd" clip-rule="evenodd" d="M247.414 36.0016C248.041 36.5304 248.313 36.9921 248.487 37.7045C248.541 37.9266 248.586 38.1729 248.629 38.4532C248.366 38.4771 248.114 38.5042 247.873 38.5348C245.456 38.8412 244.062 39.5055 242.239 40.9452C242.045 41.0988 241.846 41.2612 241.64 41.433C241.518 41.2052 241.39 40.9819 241.259 40.7627C239.612 38.0226 237.247 35.9208 234.604 33.8747L236.884 29.9332C237.486 29.8967 238.132 29.9291 238.779 29.9616C240.093 30.0275 241.407 30.0935 242.353 29.5812C243.946 30.7701 244.682 31.5638 245.352 33.4991L248.364 34.3593L247.414 36.0016ZM247.22 34.8214L246.438 36.1716L246.924 36.581C247.275 36.8767 247.454 37.1116 247.574 37.3676C247.632 37.4891 247.68 37.6252 247.724 37.789C246.481 37.9502 245.463 38.2087 244.509 38.6288C243.588 39.0341 242.756 39.5772 241.855 40.2815C240.25 37.6477 238.022 35.6013 235.592 33.6835L237.331 30.6759C237.766 30.6701 238.21 30.6927 238.68 30.7167C239.023 30.7341 239.379 30.7523 239.756 30.7607C240.565 30.7787 241.456 30.748 242.25 30.4567C242.841 30.916 243.262 31.3016 243.602 31.7309C244.001 32.2336 244.317 32.8326 244.633 33.7468L244.762 34.1199L247.22 34.8214Z" fill="white"/>
<path fill-rule="evenodd" clip-rule="evenodd" d="M229.085 26.2119C228.863 27.2385 228.831 27.9899 228.915 29.0832C229.858 29.2538 230.779 29.6088 231.584 29.9927L232.182 28.9582C232.085 28.7278 231.978 28.507 231.863 28.2714C231.772 28.0831 231.676 27.8853 231.577 27.6656C231.398 27.27 231.223 26.8241 231.143 26.3385C230.386 26.1803 229.831 26.1419 229.085 26.2119ZM231.859 25.7241C230.534 25.4004 229.791 25.339 228.466 25.5209C228.064 27.124 228.044 28.0567 228.212 29.7537C229.488 29.8607 230.806 30.4224 231.883 30.9931L233.023 29.0223C232.883 28.6325 232.702 28.2587 232.524 27.8922C232.172 27.1643 231.834 26.4648 231.859 25.7241Z" fill="white"/>
<path fill-rule="evenodd" clip-rule="evenodd" d="M242.696 34.0555C241.916 34.7604 241.28 35.1635 240.289 35.6377C239.669 34.9077 238.901 34.2892 238.166 33.7857L238.764 32.7513C239.012 32.7201 239.258 32.7023 239.519 32.6833C239.728 32.6682 239.948 32.6523 240.188 32.6281C240.621 32.5845 241.095 32.5134 241.557 32.3398C242.073 32.9151 242.383 33.3753 242.696 34.0555ZM241.732 31.4136C242.675 32.3965 243.1 33.0082 243.604 34.2445C242.415 35.3939 241.615 35.8772 240.059 36.5809C239.328 35.5316 238.181 34.6724 237.148 34.0276L238.288 32.0569C238.696 31.9827 239.111 31.9522 239.518 31.9223C240.325 31.8629 241.102 31.8059 241.732 31.4136Z" fill="white"/>
<path fill-rule="evenodd" clip-rule="evenodd" d="M225.403 25.5076L224.744 25.1283C224.838 25.4958 224.914 25.826 224.972 26.1356C225.126 26.9508 225.159 27.6226 225.092 28.4529C225.073 28.6936 225.045 28.9476 225.009 29.2223C225.305 29.1921 225.543 29.1841 225.778 29.1962C225.833 29.199 225.888 29.2029 225.943 29.2079C226.172 29.2286 226.41 29.2679 226.705 29.3239C226.7 29.0467 226.697 28.7932 226.7 28.5513C226.711 27.624 226.801 26.8682 227.099 25.6092L226.163 24.1937L225.403 25.5076ZM226.206 25.6359L225.783 26.3673C225.89 27.0689 225.911 27.701 225.855 28.4407C225.884 28.4424 225.913 28.4444 225.942 28.4466C225.957 27.5914 226.04 26.8508 226.285 25.7559L226.206 25.6359Z" fill="white"/>
<path fill-rule="evenodd" clip-rule="evenodd" d="M245.148 36.8857L245.806 37.265C245.44 37.3675 245.116 37.4672 244.818 37.5716C244.034 37.8464 243.434 38.1534 242.748 38.6266C242.548 38.7638 242.342 38.9149 242.122 39.0833C242 38.8124 241.887 38.6022 241.76 38.4052C241.73 38.3592 241.699 38.3139 241.667 38.2688C241.534 38.081 241.382 37.8952 241.185 37.6679C241.429 37.5341 241.65 37.4095 241.858 37.2861C242.657 36.813 243.268 36.3576 244.212 35.4703L245.908 35.5719L245.148 36.8857ZM244.635 36.2555L244.212 36.9869C243.549 37.2449 242.991 37.5432 242.377 37.9609C242.361 37.9369 242.345 37.913 242.328 37.8893C243.063 37.4486 243.664 37.006 244.491 36.2469L244.635 36.2555Z" fill="white"/>
<path fill-rule="evenodd" clip-rule="evenodd" d="M155.538 151.144L156.235 150.842L160.462 160.53L170.982 159.339L171.067 160.093L159.989 161.347L155.538 151.144Z" fill="white"/>
<path fill-rule="evenodd" clip-rule="evenodd" d="M179.84 125.819L179.91 126.908L180.891 126.425L180.82 125.335L179.84 125.819ZM179.049 125.363L179.225 128.093L181.682 126.88L181.505 124.151L179.049 125.363Z" fill="white"/>
<path fill-rule="evenodd" clip-rule="evenodd" d="M177.325 131.377L175.073 129.203L175.425 134.662L180.338 132.237L177.325 131.377ZM178.239 132.427L176.934 132.054L175.958 131.112L176.11 133.477L178.239 132.427Z" fill="white"/>
<path fill-rule="evenodd" clip-rule="evenodd" d="M148.26 177.072L83.3907 289.214C81.5336 292.425 81.4561 294.917 81.7485 296.604C83.3589 296.013 85.4827 294.7 87.3398 291.49L152.209 179.348L152.207 179.313C152.146 177.941 152.108 177.081 151.719 175.644C150.278 176.026 149.512 176.423 148.291 177.056L148.26 177.072ZM152.245 174.734C152.852 176.704 152.895 177.679 152.967 179.286L152.978 179.536L87.998 291.869C86.0042 295.316 83.6827 296.724 81.9115 297.352C81.6572 297.442 81.4143 297.516 81.1853 297.578C81.1244 297.349 81.0672 297.102 81.0183 296.837C80.6778 294.992 80.7388 292.282 82.7326 288.835L147.713 176.501L147.935 176.386C149.365 175.644 150.232 175.195 152.245 174.734Z" fill="white"/>
<path fill-rule="evenodd" clip-rule="evenodd" d="M228.627 41.1736C228.87 41.2367 229.122 41.3053 229.385 41.3789C229.581 41.57 229.767 41.7536 229.943 41.9321C230.63 42.6277 231.177 43.2459 231.645 43.9313C232.222 44.7758 232.679 45.7222 233.131 47.0408C232.557 46.0099 231.876 45.1658 231.066 44.4298C230.356 43.7854 229.547 43.224 228.625 42.6928C227.703 42.1616 226.812 41.7433 225.898 41.4521C224.854 41.1195 223.781 40.9526 222.6 40.9724C223.97 40.7032 225.019 40.6252 226.041 40.7017C226.869 40.7637 227.679 40.9276 228.627 41.1736Z" fill="white"/>
<path fill-rule="evenodd" clip-rule="evenodd" d="M224.066 49.0564C224.309 49.1195 224.562 49.1881 224.825 49.2617C225.021 49.4529 225.207 49.6364 225.383 49.8149C226.07 50.5105 226.617 51.1287 227.085 51.8141C227.662 52.6586 228.119 53.605 228.571 54.9236C227.997 53.8927 227.316 53.0486 226.505 52.3127C225.796 51.6682 224.987 51.1068 224.065 50.5756C223.143 50.0444 222.252 49.6261 221.338 49.3349C220.294 49.0023 219.221 48.8354 218.04 48.8552C219.41 48.586 220.459 48.508 221.481 48.5845C222.309 48.6465 223.119 48.8104 224.066 49.0564Z" fill="white"/>
<path fill-rule="evenodd" clip-rule="evenodd" d="M219.507 56.9402C219.75 57.0033 220.002 57.0719 220.265 57.1455C220.461 57.3366 220.647 57.5202 220.823 57.6987C221.51 58.3943 222.057 59.0125 222.525 59.6979C223.102 60.5424 223.559 61.4888 224.011 62.8074C223.437 61.7765 222.756 60.9324 221.946 60.1964C221.236 59.552 220.427 58.9906 219.505 58.4594C218.583 57.9282 217.692 57.5099 216.778 57.2187C215.734 56.8861 214.661 56.7192 213.48 56.739C214.85 56.4698 215.899 56.3918 216.921 56.4683C217.749 56.5303 218.559 56.6942 219.507 56.9402Z" fill="white"/>
<path fill-rule="evenodd" clip-rule="evenodd" d="M214.946 64.823C215.189 64.8861 215.442 64.9547 215.705 65.0283C215.901 65.2195 216.087 65.403 216.263 65.5816C216.95 66.2771 217.497 66.8953 217.965 67.5807C218.542 68.4252 218.999 69.3716 219.451 70.6902C218.877 69.6593 218.196 68.8152 217.385 68.0793C216.676 67.4348 215.867 66.8734 214.945 66.3422C214.023 65.811 213.132 65.3927 212.218 65.1015C211.174 64.7689 210.101 64.602 208.92 64.6218C210.29 64.3526 211.339 64.2746 212.361 64.3511C213.189 64.4131 213.999 64.577 214.946 64.823Z" fill="white"/>
<path fill-rule="evenodd" clip-rule="evenodd" d="M210.387 72.7058C210.63 72.769 210.882 72.8375 211.145 72.9111C211.341 73.1023 211.527 73.2859 211.703 73.4644C212.39 74.1599 212.937 74.7782 213.405 75.4635C213.982 76.308 214.439 77.2544 214.891 78.573C214.317 77.5421 213.636 76.698 212.826 75.9621C212.116 75.3176 211.307 74.7562 210.385 74.225C209.463 73.6938 208.572 73.2755 207.658 72.9843C206.614 72.6517 205.541 72.4848 204.36 72.5046C205.73 72.2354 206.779 72.1574 207.801 72.2339C208.629 72.296 209.439 72.4598 210.387 72.7058Z" fill="white"/>
<path fill-rule="evenodd" clip-rule="evenodd" d="M292.509 339.475C292.889 339.038 293.01 338.684 293.012 338.4L293.012 338.392C293.012 338.107 292.892 337.75 292.509 337.309C292.12 336.862 291.499 336.376 290.609 335.868C288.829 334.853 286.144 333.843 282.602 332.866C275.534 330.915 265.263 329.147 252.52 327.66C227.047 324.686 191.831 322.844 152.916 322.844C127.974 322.844 104.552 323.601 84.241 324.927V324.011C104.563 322.685 127.984 321.93 152.916 321.93C230.794 321.93 293.928 329.3 293.928 338.392L293.928 338.403V345.698L293.928 345.709C293.928 354.801 230.794 362.171 152.916 362.171C75.0369 362.171 11.9036 354.801 11.9036 345.709V345.709V338.392C11.9036 334.188 25.4018 330.352 47.6145 327.443V328.365C37.4875 329.695 29.2112 331.214 23.2289 332.866C19.6876 333.843 17.0028 334.853 15.2226 335.868C14.3324 336.376 13.7118 336.862 13.3229 337.309C12.9391 337.75 12.8193 338.107 12.8193 338.392C12.8193 338.677 12.9391 339.034 13.3229 339.475C13.7118 339.922 14.3324 340.408 15.2226 340.916C16.9865 341.922 19.6384 342.922 23.1317 343.891L23.1327 343.892L23.2289 343.918C30.2975 345.869 40.5687 347.637 53.3114 349.124C78.7844 352.098 114 353.94 152.916 353.94C191.831 353.94 227.047 352.098 252.52 349.124C261.512 348.074 269.273 346.886 275.546 345.591L23.1327 343.892L275.581 345.584C278.184 345.046 280.531 344.49 282.602 343.918C286.144 342.941 288.829 341.931 290.609 340.916C291.499 340.408 292.12 339.922 292.509 339.475ZM279.68 345.611C286.558 343.969 291.161 342.172 293.012 340.278V343.822V345.701L279.68 345.611ZM279.65 345.619L293.012 345.709C293.012 345.994 292.892 346.351 292.509 346.792C292.12 347.239 291.499 347.724 290.609 348.232C288.829 349.248 286.144 350.258 282.602 351.235C275.534 353.186 265.263 354.953 252.52 356.441C227.047 359.415 191.831 361.256 152.916 361.256C114 361.256 78.7844 359.415 53.3114 356.441C40.5687 354.953 30.2975 353.186 23.2289 351.235C19.6876 350.258 17.0028 349.248 15.2226 348.232C14.3324 347.724 13.7118 347.239 13.3229 346.792C12.9391 346.351 12.8193 345.994 12.8193 345.709L12.8193 345.709L12.8193 343.822L19.8988 343.87C39.2338 350.269 91.4878 354.854 152.916 354.854C208.588 354.854 256.724 351.088 279.65 345.619ZM12.8193 343.822L12.8193 340.278C14.0354 341.523 16.4403 342.725 19.8982 343.87L12.8193 343.822Z" fill="white"/>
</g>
<defs>
<clipPath id="clip0_5136_35660">
<rect width="304" height="364" fill="white"/>
</clipPath>
</defs>
</svg>
