<svg width="300" height="467" viewBox="0 0 300 467" fill="none" xmlns="http://www.w3.org/2000/svg">
<path fill-rule="evenodd" clip-rule="evenodd" d="M134.886 295.107C135.799 294.909 136.541 294.631 136.541 294.631C136.106 295.015 135.674 295.402 135.244 295.794C112.752 316.29 97.5576 347.491 96.8222 350.798C96.3909 352.738 98.6904 352.445 100.72 351.847C102.217 351.405 103.567 350.798 103.567 350.798C102.729 351.357 101.89 351.935 101.053 352.529C86.5277 362.826 72.405 377.861 71.3422 379.631C70.7805 380.566 71.5286 381.221 72.4178 381.643C73.3081 382.064 74.3399 382.252 74.3399 382.252C73.6202 382.296 72.9377 382.347 72.2878 382.406C67.7492 382.815 64.7984 383.582 61.8425 384.827C60.3346 385.461 58.8254 386.22 57.1034 387.12C58.6139 386.127 60.0702 385.146 61.479 384.167C73.3503 375.92 81.8407 367.821 90.8269 353.794L163.52 230.976C163.31 231.773 163.143 232.54 163.048 233.244C162.742 235.505 163.182 237.105 165.36 236.926C165.798 236.889 166.306 236.781 166.892 236.592C166.473 236.945 166.069 237.295 165.68 237.644C158.528 244.056 156.381 249.794 156.026 251.57C155.694 253.226 156.79 253.444 160.972 252.412C161.518 252.277 162.116 252.121 162.77 251.945C162.279 252.325 161.794 252.71 161.314 253.099C142.574 268.29 132.766 289.483 131.67 293.134C130.941 295.561 133.204 295.471 134.886 295.107ZM133.891 296.021C133.839 296.026 133.787 296.03 133.735 296.034C133.028 296.083 132.133 296.036 131.495 295.537C130.744 294.95 130.628 293.999 130.952 292.918C131.543 290.951 134.437 284.399 139.631 276.444C144.364 269.195 151.037 260.736 159.678 253.477C159.59 253.496 159.502 253.513 159.417 253.53C158.475 253.716 157.701 253.812 157.094 253.782C156.504 253.752 155.885 253.593 155.513 253.067C155.154 252.561 155.187 251.94 155.291 251.423C155.671 249.526 157.794 243.934 164.553 237.658C164.422 237.641 164.295 237.616 164.172 237.584C163.311 237.36 162.756 236.788 162.47 236.038C162.309 235.617 162.234 235.145 162.216 234.65L91.4652 354.187L91.4581 354.198C87.5852 360.243 83.801 365.197 79.8032 369.536C80.3811 368.975 80.9798 368.4 81.5972 367.813C86.5716 363.089 92.7792 357.636 99.156 352.972C98.5278 353.064 97.8959 353.084 97.3681 352.944C96.9468 352.833 96.5122 352.597 96.248 352.141C95.9879 351.691 95.9733 351.164 96.0906 350.636C96.2027 350.132 96.5618 349.193 97.1062 347.955C97.6613 346.693 98.4356 345.06 99.4134 343.138C101.369 339.293 104.146 334.276 107.626 328.725C114.15 318.319 123.164 306.004 133.891 296.021ZM74.934 374.432C71.6152 377.525 68.0897 380.354 64.2099 383.152C64.2991 383.124 64.3886 383.096 64.4786 383.069C66.4218 382.473 68.5427 382.048 71.192 381.762C71.0132 381.614 70.8496 381.445 70.7179 381.253C70.5371 380.989 70.4086 380.668 70.3991 380.3C70.3897 379.932 70.5003 379.577 70.6996 379.245C70.8792 378.946 71.2924 378.432 71.8525 377.785C72.4291 377.118 73.2033 376.264 74.1447 375.264C74.3959 374.997 74.6592 374.72 74.934 374.432Z" fill="#FF00C7"/>
<path fill-rule="evenodd" clip-rule="evenodd" d="M57.4782 356.04C56.5995 350.064 54.8783 346.896 50.1349 342.567C49.7322 342.2 49.3076 341.824 48.8599 341.437C49.0751 341.965 49.2912 342.488 49.5064 343.008C49.5934 343.218 49.6803 343.428 49.7669 343.637C52.0094 349.045 54.0615 353.995 53.7311 358.287C53.6948 358.759 53.6428 359.325 53.5835 359.97C53.0565 365.707 51.9507 377.744 56.0965 386.291C56.295 386.7 56.5055 387.102 56.7287 387.494C56.7731 387.047 56.8181 386.6 56.8639 386.154C58.1267 373.846 59.9628 361.997 64.6069 350.126C64.8331 349.548 65.066 348.969 65.3058 348.391C65.396 348.173 65.4872 347.956 65.5795 347.738C66.2043 346.263 66.8748 344.787 67.5952 343.309C69.1481 340.347 71.3567 336.371 73.9407 331.786C74.1821 331.358 74.4269 330.924 74.6747 330.485C74.6863 330.465 74.6979 330.444 74.7094 330.424C75.5972 328.852 76.5239 327.217 77.479 325.533C77.9276 324.742 78.3825 323.941 78.8426 323.13C81.9621 317.633 85.3202 311.715 88.5787 305.865L97.9464 289.389L105.441 275.909C101.41 271.848 101.591 268.21 111.355 262.875C111.624 262.727 111.901 262.579 112.185 262.429C111.886 262.298 111.602 262.166 111.336 262.033C107.779 260.259 107.117 258.222 108.885 253.475C108.979 253.222 109.08 252.962 109.188 252.693C109.381 252.913 109.57 253.113 109.755 253.296C112.656 256.156 114.613 254.569 118.181 251.57C118.342 246.496 117.72 243.612 112.761 238.991C112.575 238.818 112.383 238.643 112.185 238.464C112.412 238.327 112.634 238.191 112.85 238.055C119.928 233.6 121.043 229.566 118.397 218.391C118.327 218.097 118.255 217.799 118.181 217.495C118.466 217.606 118.753 217.725 119.039 217.853C122.741 219.512 126.29 222.605 124.551 225.733C122.677 229.103 125.45 231.966 129.422 233.222L133.169 226.482C132.704 223.684 131.566 221.699 130.4 219.664C128.593 216.51 126.718 213.237 127.173 206.636C127.74 198.43 124.882 197.067 123.452 196.891C122.99 196.834 122.677 196.901 122.677 196.901C122.744 196.629 122.813 196.37 122.884 196.124C123.494 194.029 124.327 192.841 126.508 191.633C126.717 191.517 126.939 191.401 127.173 191.284C127.038 191.067 126.905 190.855 126.772 190.647C122.035 183.194 119.294 181.516 115.183 186.791C120.806 197.969 114.802 206.302 102.818 203.641C102.349 203.537 101.897 203.455 101.459 203.376C97.6945 202.697 94.9058 202.193 90.4523 189.037C85.5702 174.616 68.9912 171.37 46.0134 185.967C45.5905 186.235 45.1654 186.51 44.7382 186.791C45.2529 186.757 45.7564 186.729 46.2488 186.705C65.7604 185.757 67.9266 192.244 70.5897 200.219C72.3626 205.529 74.3558 211.498 81.834 216.372C90.4523 221.989 94.1993 228.729 94.9487 232.848C95.4904 235.825 95.2491 238.606 95.0736 239.92C95.0063 240.423 94.9487 240.711 94.9487 240.711C94.7208 240.579 94.4897 240.45 94.256 240.326C92.6468 239.467 90.9128 238.78 89.2331 238.115C85.7163 236.722 82.4372 235.423 81.0383 232.84C80.6314 232.089 80.3836 231.229 80.3352 230.226C80.3054 231.195 80.2895 232.126 80.2884 233.026C80.2756 243.592 82.3044 249.742 87.8293 259.059C88.1717 259.636 88.6315 260.302 89.146 261.046C93.136 266.821 100.421 277.363 81.834 288.64C62.537 300.348 54.139 277.945 53.6734 259.915C53.6327 258.34 53.6526 256.798 53.7311 255.314C53.5717 256.9 53.2852 258.393 52.9218 259.832C52.3731 262.004 51.6491 264.053 50.9227 266.109C47.9504 274.522 44.9379 283.048 53.7311 300.622C53.9291 316.015 60.3456 318.976 74.3399 321.966C76.5637 322.544 77.1938 323.565 76.7779 325.25C76.4686 326.504 75.5809 328.124 74.3399 330.204C74.3399 330.204 73.9543 330.661 73.3297 331.344C71.4917 333.355 67.5844 337.318 65.347 337.318C63.2144 337.318 60.7024 332.39 59.4303 329.547C58.9143 328.393 58.6023 327.582 58.6023 327.582C58.6248 328.325 58.6533 329.038 58.6889 329.724C59.0948 337.531 60.4374 341.911 64.7246 347.837C64.8061 347.95 64.8887 348.063 64.9723 348.177C64.6133 348.736 64.2682 349.271 63.9369 349.782C59.8679 356.057 57.8687 358.67 57.4782 356.04ZM62.7742 352.907C61.7341 354.448 60.8644 355.649 60.1587 356.452C59.8374 356.817 59.5288 357.126 59.2348 357.352C58.9579 357.565 58.6063 357.775 58.2084 357.802C57.7251 357.835 57.3414 357.595 57.1036 357.241C56.8979 356.934 56.7952 356.543 56.7369 356.15L56.7367 356.149C56.2685 352.965 55.5659 350.653 54.3122 348.542C53.4623 347.112 52.3458 345.751 50.8378 344.264C51.6734 346.285 52.4716 348.259 53.1053 350.15C54.0615 353.003 54.6771 355.761 54.4783 358.344C54.4411 358.828 54.3883 359.403 54.3284 360.056C54.0818 362.742 53.7143 366.746 53.8099 371.135C53.9099 375.719 54.5162 380.634 56.251 384.807C57.4023 373.974 59.0629 363.441 62.7742 352.907ZM65.0671 347.029C65.646 345.681 66.263 344.332 66.9215 342.981L66.9263 342.971L66.9314 342.962C68.1965 340.548 69.8971 337.461 71.8808 333.922C71.7507 334.049 71.6182 334.176 71.4837 334.304C70.5333 335.206 69.4693 336.126 68.4376 336.826C67.4412 337.502 66.3403 338.067 65.347 338.067C64.7683 338.067 64.235 337.833 63.7733 337.518C63.3089 337.2 62.8676 336.766 62.4564 336.281C61.6342 335.309 60.8559 334.04 60.1907 332.805C59.9693 332.394 59.7586 331.984 59.5611 331.585C59.7789 334.312 60.1526 336.583 60.7852 338.686C61.6352 341.51 62.9639 344.067 65.0671 347.029ZM77.5982 323.804C77.7985 323.451 77.9999 323.096 78.2023 322.74C81.3208 317.244 84.6747 311.334 87.9239 305.5L87.9271 305.495L97.2913 289.025L97.2948 289.019L104.517 276.029C102.635 274.004 101.605 271.839 102.599 269.413C103.104 268.18 104.106 266.966 105.608 265.726C106.862 264.69 108.494 263.611 110.545 262.466C108.976 261.614 107.882 260.611 107.426 259.183C106.866 257.43 107.348 255.263 108.492 252.414L108.945 251.285L109.75 252.198C110.52 253.072 111.166 253.574 111.729 253.828C112.268 254.072 112.763 254.104 113.29 253.974C113.843 253.837 114.457 253.514 115.197 252.994C115.867 252.522 116.597 251.921 117.441 251.213C117.502 248.777 117.349 246.951 116.611 245.182C115.839 243.328 114.391 241.456 111.684 239.021L110.932 238.345L111.798 237.823C115.676 235.485 117.726 233.423 118.538 230.575C119.37 227.662 118.955 223.782 117.453 217.674L117.109 216.278L118.451 216.797C120.507 217.592 122.681 218.863 124.113 220.421C124.832 221.203 125.396 222.092 125.633 223.063C125.876 224.053 125.767 225.087 125.206 226.097C124.799 226.828 124.664 227.493 124.71 228.091C124.756 228.691 124.989 229.273 125.397 229.825C126.14 230.831 127.442 231.707 129.071 232.31L132.385 226.35C131.92 223.832 130.896 222.042 129.78 220.091C129.452 219.518 129.116 218.931 128.784 218.308C127.286 215.496 126.04 212.179 126.426 206.585C126.795 201.233 125.663 199.1 124.71 198.257C124.232 197.835 123.747 197.686 123.385 197.637C123.203 197.613 123.051 197.614 122.951 197.621C122.901 197.624 122.865 197.629 122.844 197.632C122.836 197.633 122.83 197.634 122.827 197.635C122.827 197.635 122.827 197.635 122.826 197.635C122.826 197.635 122.827 197.635 122.826 197.635L121.663 197.884L121.949 196.722C122.305 195.281 122.716 194.127 123.477 193.136C124.113 192.308 124.956 191.641 126.108 190.999C125.044 189.327 124.094 187.971 123.217 186.931C122.216 185.743 121.359 185.027 120.594 184.694C119.875 184.382 119.205 184.393 118.468 184.754C117.761 185.101 116.972 185.782 116.065 186.887C118.732 192.443 118.67 197.473 116.209 200.847C113.673 204.323 108.816 205.74 102.655 204.372C102.241 204.28 101.825 204.206 101.406 204.131C99.7162 203.829 97.9977 203.523 96.3161 202.033C94.2471 200.2 92.23 196.626 89.7424 189.277C87.3501 182.211 82.0813 177.968 74.5317 177.326C67.4346 176.723 58.2538 179.3 47.5276 185.903C54.6059 185.671 59.3825 186.469 62.7348 188.048C66.5675 189.853 68.4507 192.638 69.7887 195.806C70.3687 197.18 70.8481 198.612 71.3376 200.074C73.1052 205.354 75.0041 211.027 82.2434 215.745C90.9946 221.448 94.8921 228.35 95.6861 232.714C96.075 234.851 96.0738 236.882 95.9776 238.372C95.9294 239.119 95.857 239.735 95.7962 240.166C95.7658 240.382 95.7383 240.552 95.718 240.669C95.7079 240.728 95.6996 240.774 95.6937 240.805L95.6867 240.842L95.6846 240.853L95.6838 240.857C95.6837 240.857 95.6836 240.858 94.9487 240.711L95.6836 240.858L95.4781 241.885L94.5721 241.358C93.1131 240.511 91.5076 239.83 89.8822 239.179C89.5786 239.057 89.2735 238.936 88.9684 238.816C87.6586 238.297 86.3501 237.779 85.1644 237.202C83.5516 236.418 82.0749 235.482 81.0452 234.198C81.105 238.45 81.5296 241.957 82.4159 245.287C83.5625 249.595 85.4933 253.651 88.474 258.677C88.8024 259.231 89.2469 259.874 89.7667 260.626C89.8139 260.695 89.8616 260.764 89.9099 260.834C90.4842 261.666 91.1279 262.607 91.7496 263.636C92.9907 265.69 94.1711 268.136 94.5663 270.864C94.9645 273.612 94.5604 276.612 92.688 279.742C90.8255 282.855 87.5338 286.058 82.223 289.28C76.8566 292.536 72.1971 293.28 68.2417 292.117C64.302 290.96 61.222 287.957 58.9031 284.054C55.3757 278.117 53.4989 269.918 53.0249 262.229C52.738 263.16 52.4299 264.072 52.1158 264.975C51.9533 265.442 51.7894 265.906 51.6261 266.368C50.7438 268.866 49.8766 271.321 49.3081 274.02C47.9766 280.342 48.28 288.053 54.4014 300.287L54.4782 300.441L54.4804 300.613C54.5783 308.218 56.2105 312.553 59.3632 315.389C62.5718 318.274 67.477 319.734 74.4966 321.233L74.5127 321.237L74.5286 321.241C75.555 321.508 76.3826 321.892 76.9332 322.482C77.2984 322.874 77.5099 323.321 77.5982 323.804Z" fill="#FF00C7"/>
<path fill-rule="evenodd" clip-rule="evenodd" d="M57.1035 300.248C57.8738 312.366 61.9415 316.063 72.7822 318.694C73.1679 318.787 73.5622 318.879 73.9652 318.971C73.7023 318.647 73.4507 318.333 73.2105 318.026C69.7477 313.606 68.6681 310.804 70.5929 305.865C69.5848 302.522 69.655 300.579 71.6492 297.529C71.7873 297.318 71.9348 297.101 72.0917 296.878C71.8361 296.804 71.584 296.729 71.3354 296.653C59.535 293.055 55.4518 287.762 51.9279 275.616C51.7787 275.102 51.6306 274.576 51.4829 274.037C51.358 274.58 51.2506 275.12 51.1602 275.659C49.7303 284.184 52.5419 292.261 57.1035 300.248ZM51.6796 277.397C50.8732 285.091 53.5242 292.47 57.7544 299.877L57.8404 300.028L57.8514 300.201C58.2463 306.414 59.5098 310.214 61.9774 312.803C64.1534 315.087 67.3542 316.525 72.0431 317.737C70.7158 315.969 69.7575 314.382 69.2689 312.742C68.6336 310.609 68.813 308.469 69.8022 305.835C69.3017 304.119 69.068 302.673 69.2888 301.209C69.4818 299.93 70.0122 298.699 70.9027 297.304C64.9171 295.454 60.8193 293.13 57.7757 289.619C55.1026 286.536 53.2913 282.59 51.6796 277.397Z" fill="#FF00C7"/>
<path fill-rule="evenodd" clip-rule="evenodd" d="M94.574 265.05C94.2753 264.11 94.0026 263.217 93.7577 262.363C91.7705 255.428 91.6158 251.03 94.2585 244.803C94.3596 244.565 94.4647 244.325 94.574 244.081C94.3063 244.059 94.0469 244.028 93.7948 243.989C91.8401 243.688 90.3212 242.919 88.7277 242.113C87.2701 241.375 85.7502 240.606 83.7773 240.135C83.5127 240.072 83.24 240.014 82.9581 239.962C83.0282 240.233 83.0984 240.501 83.1689 240.766C85.523 249.608 88.1656 254.85 93.0664 262.67C93.5466 263.437 94.0485 264.228 94.574 265.05ZM92.4003 260.168C91.8701 257.964 91.5621 255.973 91.524 254.034C91.4638 250.965 92.0804 248.07 93.4899 244.698C91.5861 244.373 90.0799 243.635 88.6082 242.892C88.5405 242.858 88.4728 242.823 88.4052 242.789C87.0457 242.102 85.6933 241.417 83.9976 240.963C86.0827 248.672 88.4111 253.61 92.4003 260.168Z" fill="#FF00C7"/>
<path fill-rule="evenodd" clip-rule="evenodd" d="M90.827 197.275C84.7362 180.089 76.0945 178.975 60.7545 183.183C60.0513 183.376 59.334 183.58 58.6023 183.795C59.3772 183.811 60.1137 183.862 60.8141 183.944C71.4104 185.188 73.73 193.677 75.7348 201.014C76.6086 204.213 77.4227 207.192 78.8364 209.257C80.599 211.831 83.3141 213.607 86.1607 215.468C90.8356 218.525 95.8652 221.814 97.6138 229.254C97.7431 229.805 97.8545 230.378 97.9464 230.975C98.0945 230.375 98.24 229.808 98.3861 229.269C99.6268 224.69 100.915 222.162 104.316 219.367C101.046 213.322 101.727 210.737 107.173 208.775C107.757 208.564 108.396 208.361 109.09 208.162C109.123 208.152 109.155 208.143 109.188 208.134L109.092 208.129C108.385 208.091 107.71 208.055 107.064 208.018C97.315 207.465 94.3315 206.73 90.827 197.275ZM105.443 208.67C104.129 208.582 102.941 208.48 101.863 208.338C99.869 208.074 98.1957 207.666 96.7485 206.921C93.8095 205.408 92.006 202.612 90.1242 197.535L90.1224 197.53L90.1206 197.525C86.9657 188.623 83.1974 184.298 78.348 182.672C74.195 181.279 69.0996 181.804 62.593 183.47C65.1883 184.002 67.2753 185.003 68.9731 186.343C71.4523 188.3 73.038 190.932 74.1893 193.712C75.1524 196.038 75.8297 198.517 76.461 200.829C76.5812 201.269 76.6998 201.703 76.8184 202.129C77.5718 204.835 78.3176 207.173 79.4549 208.834C80.5974 210.503 82.1839 211.839 84.015 213.129C84.8341 213.706 85.6901 214.266 86.5716 214.842C86.6749 214.91 86.7786 214.977 86.8826 215.045C87.8691 215.691 88.8813 216.36 89.8745 217.082C93.2637 219.547 96.4551 222.656 98.0124 227.843C98.4643 226.338 98.9529 225.038 99.5691 223.86C100.484 222.112 101.664 220.659 103.371 219.184C102.602 217.704 102.063 216.398 101.792 215.236C101.487 213.925 101.513 212.747 101.982 211.699C102.45 210.653 103.313 209.84 104.478 209.167C104.776 208.994 105.098 208.829 105.443 208.67Z" fill="#FF00C7"/>
<path fill-rule="evenodd" clip-rule="evenodd" d="M119.646 186.931C119.419 186.98 119.181 187.059 118.93 187.165C119.036 187.401 119.134 187.63 119.225 187.854C120.016 189.802 120.238 191.334 120.202 193.245C120.187 194.011 120.131 194.838 120.054 195.778C120.357 194.857 120.631 194.09 120.947 193.418C121.564 192.109 122.342 191.163 123.801 190.161C122.073 187.474 121.043 186.63 119.646 186.931ZM119.946 187.637C120.46 188.918 120.746 190.048 120.873 191.227C120.898 191.457 120.916 191.688 120.929 191.921C121.41 191.204 121.999 190.583 122.782 189.976C121.98 188.792 121.396 188.151 120.895 187.845C120.63 187.683 120.399 187.623 120.164 187.622C120.096 187.622 120.023 187.627 119.946 187.637Z" fill="#FF00C7"/>
<path fill-rule="evenodd" clip-rule="evenodd" d="M59.3516 299.124C59.4738 303.334 59.8763 305.89 60.8627 309.181C61.0792 309.904 61.3239 310.662 61.5999 311.481C61.5908 310.625 61.5942 309.828 61.6151 309.082C61.7489 304.315 62.5988 301.608 65.4858 298.918C65.68 298.737 65.8834 298.557 66.0964 298.375C65.8422 298.259 65.5945 298.143 65.3531 298.028C60.8933 295.901 58.5483 293.962 56.0247 290.731C55.523 290.089 55.0143 289.396 54.4805 288.64C54.7905 289.532 55.0752 290.337 55.3633 291.101C56.3115 293.618 57.2978 295.709 59.3516 299.124ZM56.9313 292.976C57.6663 294.65 58.5684 296.368 59.994 298.738L60.0951 298.906L60.1007 299.102C60.1931 302.286 60.4459 304.497 60.9989 306.819C61.1209 305.57 61.3267 304.455 61.6541 303.431C62.2495 301.569 63.2336 300.047 64.7602 298.574C62.3041 297.384 60.4589 296.228 58.8554 294.851C58.176 294.268 57.5444 293.648 56.9313 292.976Z" fill="#FF00C7"/>
<path fill-rule="evenodd" clip-rule="evenodd" d="M69.8194 183.685C69.341 183.711 68.8497 183.748 68.3446 183.795C68.8026 183.997 69.236 184.214 69.6462 184.445C75.3561 187.658 76.5986 193.564 77.786 199.21C78.8059 204.058 79.7853 208.714 83.5198 211.305C83.8146 211.509 84.1265 211.701 84.457 211.879C84.3566 211.524 84.261 211.177 84.1702 210.839C82.0262 202.857 82.5814 199.484 88.2096 197.849C88.4483 197.779 88.6962 197.713 88.9534 197.65C88.8299 197.42 88.7071 197.193 88.5849 196.97C82.6373 186.108 78.2007 183.225 69.8194 183.685ZM70.9879 184.391C75.8061 187.627 77.1964 192.885 78.2576 197.82C78.3476 198.239 78.4351 198.654 78.5219 199.066C79.0302 201.481 79.5124 203.772 80.3172 205.792C80.999 207.503 81.8967 208.976 83.2062 210.113C82.8345 208.645 82.5615 207.327 82.4076 206.145C82.1884 204.462 82.2041 203.006 82.5539 201.761C83.2153 199.406 84.993 198.035 87.8433 197.176C84.8118 191.666 82.2298 188.359 79.3843 186.492C77.0064 184.932 74.3774 184.334 70.9879 184.391Z" fill="#FF00C7"/>
<path fill-rule="evenodd" clip-rule="evenodd" d="M139.993 232.551L140.544 230.316C140.788 229.327 140.969 228.542 141.085 227.823L80.9579 331.894C77.5627 337.771 76.6842 342.956 76.6452 346.655C76.6257 348.506 76.8166 349.988 77.0099 351.001C77.0765 351.35 77.1433 351.642 77.2019 351.875C77.433 351.809 77.7201 351.721 78.0555 351.604C79.0297 351.265 80.4096 350.689 82.0044 349.747C85.1903 347.864 89.2448 344.511 92.64 338.634L152.767 234.563C152.202 235.023 151.613 235.572 150.877 236.277L149.216 237.872L149.62 235.606C150.252 232.07 150.3 230.006 149.572 226.614C146.268 227.68 144.504 228.753 141.755 231.068L139.993 232.551ZM149.407 225.881C149.638 225.806 149.877 225.732 150.124 225.658C150.183 225.908 150.238 226.152 150.29 226.39C150.966 229.511 151.009 231.564 150.562 234.511C150.503 234.903 150.435 235.31 150.358 235.737C150.682 235.426 150.98 235.143 151.263 234.883C152.118 234.096 152.826 233.518 153.67 233.001C154.052 232.767 154.463 232.544 154.928 232.321L93.2891 339.009C86.357 351.007 76.6819 352.775 76.6819 352.775C76.6819 352.775 73.3768 343.518 80.3089 331.52L141.948 224.832C141.986 225.346 141.999 225.812 141.987 226.261C141.961 227.25 141.815 228.151 141.56 229.285C141.476 229.659 141.38 230.059 141.272 230.495C141.604 230.215 141.923 229.953 142.233 229.706C144.563 227.845 146.364 226.856 149.407 225.881Z" fill="white"/>
<path fill-rule="evenodd" clip-rule="evenodd" d="M238.367 72.9225C238.367 72.9225 234.099 71.3243 232.225 74.5671C230.352 77.8099 233.684 81.0295 233.684 81.0295C233.684 81.0295 238.14 82.3033 240.013 79.0605C241.887 75.8177 238.367 72.9225 238.367 72.9225ZM234.074 80.3541C234.183 80.3783 234.336 80.4089 234.523 80.4376C234.933 80.5007 235.492 80.5527 236.098 80.5137C237.315 80.4352 238.602 80.0045 239.364 78.686C240.118 77.3807 239.813 76.1456 239.242 75.147C238.956 74.6468 238.614 74.23 238.34 73.9363C238.204 73.7906 238.087 73.6779 238.006 73.6032C237.999 73.5964 237.992 73.59 237.985 73.5839C237.977 73.5811 237.968 73.5783 237.958 73.5753C237.853 73.5427 237.697 73.498 237.502 73.4531C237.111 73.3627 236.579 73.2751 236.002 73.2776C234.851 73.2828 233.628 73.6362 232.874 74.9416C232.112 76.2601 232.383 77.5899 232.924 78.6824C233.192 79.2257 233.517 79.6835 233.777 80.007C233.895 80.1542 233.998 80.2715 234.074 80.3541ZM238.106 73.6243C238.106 73.6244 238.106 73.6244 238.106 73.6243L238.106 73.6243ZM237.89 73.4996C237.89 73.4995 237.89 73.4995 237.89 73.4997L237.89 73.4996Z" fill="white"/>
<path fill-rule="evenodd" clip-rule="evenodd" d="M237.431 74.5437C237.431 74.5437 234.835 73.0459 233.523 75.3159C232.212 77.5858 234.808 79.0836 234.808 79.0836C234.808 79.0836 237.404 80.5814 238.715 78.3114C240.027 76.0415 237.431 74.5437 237.431 74.5437ZM235.183 78.435L235.172 78.4289C235.16 78.4214 235.14 78.4087 235.113 78.3909C235.059 78.3551 234.98 78.2998 234.887 78.2264C234.698 78.0772 234.468 77.8658 234.277 77.6069C234.087 77.3483 233.952 77.066 233.914 76.767C233.877 76.4802 233.921 76.125 234.172 75.6903C234.423 75.2556 234.709 75.04 234.976 74.9285C235.255 74.8121 235.566 74.7872 235.886 74.8228C236.205 74.8585 236.504 74.9519 236.728 75.0409C236.838 75.0847 236.925 75.1257 236.983 75.1544C237.012 75.1687 237.033 75.1799 237.046 75.1866L237.056 75.1923L237.066 75.1984C237.078 75.2059 237.098 75.2186 237.125 75.2364C237.179 75.2721 237.258 75.3275 237.351 75.4009C237.541 75.5501 237.771 75.7615 237.961 76.0204C238.152 76.279 238.286 76.5612 238.325 76.8603C238.361 77.147 238.317 77.5023 238.066 77.937C237.815 78.3716 237.529 78.5873 237.262 78.6988C236.984 78.8151 236.672 78.8401 236.353 78.8045C236.033 78.7688 235.735 78.6754 235.511 78.5864C235.401 78.5426 235.313 78.5016 235.255 78.4729C235.227 78.4585 235.205 78.4474 235.193 78.4407L235.183 78.435Z" fill="white"/>
<path fill-rule="evenodd" clip-rule="evenodd" d="M244.431 69.9749C244.598 67.5159 244.566 65.8398 244.414 63.355C244.398 63.0945 244.381 62.8251 244.363 62.5451C244.111 62.6692 243.869 62.789 243.635 62.9055C241.406 64.017 239.937 64.8266 237.89 66.2008C237.678 66.3431 237.459 66.4915 237.234 66.6469L236.822 65.1124C236.585 65.2297 236.357 65.3431 236.138 65.4535C233.853 66.6023 232.433 67.4345 230.205 69.0772L227.421 67.9037C226.085 69.4633 225.358 70.4514 224.837 72.0081C224.757 72.2467 224.683 72.4986 224.611 72.7679L221.553 70.5714L220.379 73.3529C218.557 73.5177 217.791 74.0348 216.433 74.9528L216.421 74.9608C218.658 79.7375 218.833 82.1018 217.117 85.7391L214.832 87.4474C215.011 87.6383 215.177 87.8254 215.331 88.0096C217.287 90.3486 217.264 92.2244 215.354 95.5311L196.618 127.959C195.307 130.229 194.077 131.024 191.349 131.837L187.492 131.773C187.576 132.039 187.652 132.289 187.719 132.526C188.142 134.007 188.247 134.966 188.129 136.096C188.12 136.19 188.108 136.286 188.096 136.383C188.076 136.53 188.053 136.682 188.027 136.838L176.88 135.163L180.787 134.391C180.339 134.207 179.909 134.038 179.495 133.883C175.922 132.541 173.489 132.21 169.744 132.315C169.499 132.322 169.248 132.331 168.991 132.341L169.142 129.834C165.28 129.412 163.695 130.349 161.831 132.899C161.678 133.109 161.522 133.33 161.364 133.561C161.211 133.324 161.068 133.092 160.934 132.865C158.694 129.054 159.248 126.776 162.081 123.943C162.651 123.373 163.313 122.78 164.064 122.148C163.173 122.557 162.362 122.942 161.63 123.334C158.576 124.969 156.883 126.726 156.359 130.903C156.319 131.225 156.285 131.561 156.259 131.913C155.998 131.639 155.772 131.379 155.578 131.127C154.677 129.951 154.481 128.952 154.791 127.616C154.894 127.171 155.054 126.688 155.262 126.149C154.83 126.535 154.448 126.894 154.113 127.234C152.206 129.168 151.82 130.45 152.364 132.093C152.447 132.343 152.552 132.602 152.676 132.872C152.386 132.844 152.104 132.822 151.831 132.807C148.293 132.612 146.055 133.556 143.035 136.373C142.589 136.789 142.126 137.246 141.639 137.747C142.273 137.477 142.869 137.234 143.439 137.021C147.041 135.677 149.566 135.56 153.723 137.8C154.065 138.75 153.917 139.14 153.11 139.609L147.58 139.445C147.81 139.714 148.026 139.969 148.229 140.213C149.846 142.163 150.595 143.392 150.762 145.172C150.845 146.54 150.343 147.012 148.938 147.579C147.714 149.78 147.424 151.171 148.169 153.325C148.272 153.622 148.394 153.934 148.537 154.265C148.692 153.945 148.841 153.652 148.986 153.38C149.639 152.159 150.235 151.373 151.21 150.565C151.395 150.412 151.594 150.258 151.809 150.1C151.934 150.325 152.056 150.545 152.175 150.76C153.333 152.849 154.242 154.51 155.465 156.762C155.827 157.429 156.217 158.148 156.649 158.946L155.241 151.648C155.615 147.745 156.545 145.904 158.951 142.979C160.287 141.563 161.387 142.083 163.458 143.417C163.575 146.262 162.844 147.673 160.831 149.428C160.585 149.642 160.32 149.862 160.035 150.09C160.408 150.139 160.753 150.176 161.08 150.202C162.842 150.34 164.051 150.138 165.94 149.605C166.471 151.218 167.172 152.046 169.409 153.336C168.794 155.537 167.946 156.464 165.95 157.826C165.444 161.252 164.514 163.015 161.58 165.27C161.377 165.426 161.164 165.584 160.942 165.746C161.178 165.904 161.403 166.047 161.623 166.175C162.737 166.825 163.7 167.111 165.109 167.292C165.4 167.33 165.711 167.363 166.047 167.394C165.822 167.634 165.601 167.863 165.384 168.08C162.028 171.429 159.462 172.011 154.71 170.596C154.462 170.523 154.209 170.443 153.949 170.359C153.959 170.642 153.976 170.908 154 171.162C154.158 172.773 154.646 173.875 155.76 175.354C155.924 175.572 156.102 175.798 156.294 176.036C155.994 176.08 155.706 176.118 155.427 176.15C152.928 176.434 151.205 176.187 148.514 174.597C148.297 174.469 148.074 174.333 147.844 174.187L147.181 176.831L145.559 175.895C143.419 177.827 143.138 179.175 143.514 181.35C143.558 181.607 143.611 181.875 143.672 182.157C143.395 182.09 143.128 182.03 142.869 181.976C139.761 181.324 137.84 181.548 135.142 182.879C134.892 183.002 134.636 183.134 134.371 183.277C134.623 183.434 134.863 183.589 135.091 183.744C139.101 186.452 139.604 188.797 137.148 193.413C136.966 193.755 136.767 194.111 136.552 194.479C136.968 194.298 137.336 194.141 137.679 194.008C138.711 193.605 139.511 193.411 140.647 193.383C142.237 198.535 140.67 202.031 136.403 207.881C136.061 208.351 135.701 208.835 135.324 209.336L141.055 206.157C141.055 206.157 141.131 206.438 141.181 206.944C141.312 208.24 141.28 211.01 139.392 214.278C139.392 214.278 83.5477 313.932 69.3089 338.577C58.2807 357.665 56.1211 378.249 56.4114 386.975C56.4209 387.262 56.4331 387.537 56.4478 387.798C56.6813 387.68 56.9252 387.553 57.1788 387.418C64.886 383.306 81.6451 371.145 92.6732 352.057C106.912 327.412 165.353 229.255 165.353 229.255C167.24 225.988 169.625 224.575 170.814 224.04C171.277 223.831 171.559 223.756 171.559 223.756L171.669 230.305C171.915 229.729 172.155 229.175 172.39 228.645C175.327 222.026 177.573 218.922 182.833 217.722C183.376 218.72 183.608 219.509 183.776 220.603C183.831 220.967 183.88 221.364 183.93 221.814C184.142 221.444 184.351 221.094 184.557 220.765C187.329 216.331 189.612 215.595 193.965 217.711C194.213 217.831 194.467 217.961 194.729 218.1C194.72 217.8 194.707 217.512 194.689 217.235C194.493 214.234 193.727 212.459 191.608 210.096C191.432 209.899 191.246 209.698 191.05 209.491C191.324 209.403 191.583 209.315 191.827 209.225C193.9 208.462 194.928 207.545 195.533 204.727L193.91 203.791L195.871 201.896C195.629 201.77 195.399 201.645 195.18 201.521C192.457 199.987 191.381 198.62 190.378 196.315C190.266 196.058 190.155 195.789 190.043 195.507C190.345 195.555 190.63 195.596 190.901 195.629C192.74 195.853 193.939 195.725 195.414 195.055C195.646 194.95 195.885 194.831 196.135 194.698C195.932 194.516 195.737 194.336 195.549 194.159C191.947 190.754 191.168 188.241 192.393 183.662C192.472 183.366 192.56 183.061 192.656 182.746C192.851 183.021 193.035 183.274 193.213 183.507C194.075 184.635 194.804 185.326 195.924 185.965C196.145 186.091 196.381 186.215 196.637 186.34C196.666 186.067 196.697 185.803 196.73 185.549C197.217 181.883 198.28 180.196 200.996 178.046C201.178 175.638 201.558 174.44 203.158 172.807C205.394 174.098 206.463 174.291 208.126 173.944C208.608 175.845 209.038 176.993 210.039 178.449C210.224 178.719 210.429 178.999 210.658 179.297C210.713 178.936 210.771 178.597 210.834 178.277C211.349 175.658 212.205 174.32 214.73 172.998C216.921 174.123 217.922 174.815 217.362 176.679C216.031 180.224 214.901 181.95 211.705 184.224L204.676 186.655C205.583 186.63 206.401 186.608 207.161 186.588C209.724 186.521 211.618 186.477 214.007 186.434C214.253 186.43 214.505 186.425 214.763 186.421C214.733 186.686 214.699 186.935 214.659 187.172C214.446 188.419 214.063 189.328 213.331 190.504C213.168 190.766 212.988 191.041 212.789 191.335C213.147 191.293 213.478 191.243 213.788 191.184C216.027 190.751 217.087 189.805 218.382 187.645C218.171 186.145 218.33 185.475 219.557 184.863C221.183 184.117 222.622 184.152 225.12 184.576C225.433 184.629 225.762 184.688 226.111 184.753L223.203 180.049C223.207 179.116 223.471 178.793 224.465 178.615C228.484 181.092 229.645 183.335 230.282 187.125C230.382 187.724 230.47 188.362 230.553 189.046C230.743 188.374 230.908 187.744 231.045 187.15C231.977 183.129 231.676 180.72 229.738 177.756C229.588 177.527 229.428 177.294 229.259 177.057C229.555 177.029 229.832 176.99 230.09 176.937C231.786 176.586 232.704 175.611 233.426 172.994C233.553 172.534 233.674 172.024 233.792 171.457C233.429 171.907 233.091 172.286 232.757 172.598C231.754 173.534 230.79 173.865 229.32 173.672C229.005 173.631 228.666 173.565 228.299 173.477C228.59 173.278 228.865 173.081 229.124 172.885C232.482 170.343 233.158 167.999 233.048 164.538C233.021 163.709 232.95 162.815 232.859 161.839C232.686 162.805 232.504 163.674 232.295 164.453C231.256 168.321 229.558 169.94 225.136 169.906C224.873 169.904 224.6 169.896 224.318 169.883C224.439 169.629 224.553 169.385 224.658 169.147C225.936 166.259 225.956 164.419 223.659 161.287L221.561 162.671C221.442 162.444 221.324 162.223 221.208 162.007C219.427 158.714 217.923 156.773 214.973 154.352C214.631 154.071 214.27 153.784 213.887 153.488L215.172 157.255L208.146 148.446C208.269 148.345 208.388 148.25 208.507 148.159C208.584 148.099 208.661 148.042 208.738 147.986C209.659 147.32 210.543 146.93 212.037 146.556C212.276 146.496 212.53 146.437 212.803 146.377L210.819 143.07C210.16 140.303 210.234 138.841 211.546 136.571L230.281 104.143C232.191 100.837 233.805 99.8788 236.811 100.402C237.047 100.443 237.292 100.494 237.547 100.553L237.885 97.7214C240.179 94.4174 242.316 93.3866 247.574 92.9342L247.575 92.92C247.691 91.2854 247.757 90.3646 246.988 88.7051L248.812 86.2981L245.379 84.7502C245.577 84.5536 245.758 84.3628 245.925 84.1745C247.013 82.9455 247.506 81.822 248.19 79.886L245.781 78.0639C246.091 75.3145 246.101 73.6689 245.955 71.1175C245.941 70.8722 245.925 70.6185 245.908 70.3547L244.373 70.7658C244.394 70.4926 244.414 70.2295 244.431 69.9749ZM245.215 71.3155L243.542 71.7637L243.626 70.7066C243.844 67.953 243.833 66.2563 243.685 63.718C241.411 64.8591 239.935 65.6977 237.658 67.2638L236.784 67.865L236.336 66.1924C234.161 67.2906 232.79 68.1013 230.65 69.6798L230.306 69.9329L227.637 68.8075C226.376 70.3127 225.791 71.2433 225.335 72.96L225.056 74.0102L221.879 71.7274L220.895 74.0582L220.447 74.0987C219.603 74.175 219.039 74.3287 218.539 74.5534C218.16 74.724 217.803 74.9405 217.369 75.2273C218.333 77.3643 218.891 79.0893 218.999 80.7278C219.119 82.5386 218.686 84.1689 217.795 86.0585L217.715 86.2271L215.932 87.5603C216.876 88.6972 217.448 89.8137 217.531 91.0829C217.628 92.5593 217.053 94.088 216.003 95.9055L197.267 128.334C196.578 129.526 195.878 130.387 194.953 131.052C194.038 131.71 192.953 132.141 191.563 132.555L191.452 132.588L188.501 132.539C188.696 133.249 188.822 133.864 188.882 134.452C188.969 135.307 188.915 136.073 188.766 136.962L188.645 137.688L176.769 135.904L176.735 134.428L178.059 134.167C176.889 133.776 175.838 133.508 174.79 133.332C173.065 133.042 171.317 132.996 169.022 133.09L168.194 133.123L168.35 130.515C166.736 130.407 165.669 130.6 164.815 131.047C163.827 131.564 163.015 132.476 161.982 133.984L161.345 134.916L160.733 133.966C159.07 131.382 158.431 129.283 159.013 127.243C159.207 126.564 159.531 125.915 159.969 125.274C159.631 125.541 159.325 125.822 159.05 126.124C157.918 127.367 157.225 129.064 157.006 131.969L156.879 133.651L155.716 132.429C154.731 131.395 154.121 130.444 153.952 129.344C153.913 129.089 153.899 128.833 153.906 128.574C153.468 129.105 153.195 129.56 153.043 129.976C152.764 130.737 152.857 131.471 153.357 132.561L153.9 133.745L152.603 133.618C150.386 133.401 148.779 133.583 147.256 134.268C146.483 134.616 145.715 135.101 144.89 135.755C145.807 135.501 146.693 135.343 147.591 135.312C149.606 135.242 151.599 135.805 154.078 137.141L154.331 137.277L154.428 137.546C154.609 138.049 154.74 138.597 154.556 139.129C154.368 139.672 153.923 140.003 153.487 140.256L153.302 140.364L149.22 140.243C150.594 141.958 151.337 143.269 151.508 145.102L151.509 145.114L151.51 145.126C151.557 145.903 151.447 146.581 150.991 147.146C150.619 147.607 150.077 147.909 149.469 148.169C148.874 149.273 148.579 150.092 148.522 150.893C148.488 151.359 148.533 151.845 148.674 152.406C148.889 152.045 149.11 151.715 149.349 151.405C149.897 150.695 150.523 150.114 151.365 149.496L152.051 148.992L152.464 149.736C153.405 151.431 154.162 152.807 154.996 154.335L154.485 151.684L154.495 151.576C154.687 149.576 155.025 148.055 155.648 146.644C156.269 145.238 157.153 143.985 158.373 142.503L158.389 142.484L158.406 142.465C158.788 142.06 159.194 141.749 159.649 141.567C160.114 141.381 160.584 141.348 161.055 141.428C161.934 141.579 162.857 142.139 163.864 142.788L164.191 142.998L164.207 143.386C164.275 145.062 164.067 146.355 163.436 147.521C163.053 148.23 162.529 148.863 161.871 149.493C163.159 149.52 164.2 149.318 165.736 148.884L166.427 148.689L166.652 149.371C166.896 150.113 167.16 150.618 167.588 151.086C168.031 151.571 168.687 152.055 169.784 152.688L170.287 152.978L170.131 153.538C169.805 154.701 169.403 155.583 168.784 156.361C168.229 157.06 167.528 157.638 166.641 158.259C166.365 159.986 165.953 161.364 165.17 162.62C164.49 163.711 163.556 164.669 162.272 165.68C162.69 165.905 163.084 166.071 163.496 166.2C164.202 166.421 164.996 166.545 166.116 166.648L167.638 166.789L166.594 167.905C164.621 170.015 162.866 171.336 160.811 171.837C159.026 172.272 157.113 172.065 154.782 171.397C154.862 171.998 154.998 172.507 155.204 172.997C155.526 173.764 156.04 174.533 156.877 175.564L157.706 176.587L156.403 176.777C154.77 177.015 153.41 177.107 151.999 176.832C150.833 176.604 149.676 176.134 148.324 175.354L147.667 177.976L145.667 176.822C144.801 177.674 144.399 178.353 144.23 179.018C144.031 179.798 144.12 180.674 144.405 182L144.654 183.163L143.497 182.885C141.585 182.426 140.199 182.275 138.909 182.431C137.935 182.549 136.979 182.845 135.861 183.365C137.755 184.702 138.962 186.073 139.296 187.799C139.596 189.35 139.158 191.041 138.184 193.033C138.952 192.789 139.688 192.658 140.629 192.634L141.196 192.62L141.363 193.162C142.268 196.092 142.208 198.561 141.235 201.175C140.556 203 139.435 204.883 137.93 207.034L141.531 205.037L141.779 205.963L141.055 206.157C141.779 205.963 141.779 205.964 141.779 205.964L141.779 205.965L141.78 205.967L141.781 205.972L141.785 205.985C141.787 205.996 141.791 206.01 141.795 206.028C141.803 206.063 141.814 206.112 141.826 206.175C141.851 206.299 141.881 206.475 141.908 206.698C141.962 207.144 142.002 207.779 141.955 208.56C141.861 210.124 141.418 212.267 140.044 214.648L140.041 214.652L140.036 214.662L139.415 215.769C139.003 216.505 138.396 217.587 137.619 218.974C136.064 221.747 133.827 225.736 131.098 230.6C125.64 240.328 118.214 253.555 110.343 267.552C94.6034 295.545 77.08 326.624 69.9579 338.951C59.1639 357.634 56.935 377.771 57.1498 386.583C64.8933 382.363 81.2302 370.365 92.0242 351.683C99.1463 339.355 117.319 308.65 133.708 281.032C141.903 267.222 149.653 254.182 155.355 244.595C158.205 239.801 160.544 235.871 162.17 233.138C162.561 232.482 162.91 231.894 163.216 231.38L164.698 228.89L164.704 228.881L164.706 228.877C166.082 226.498 167.718 225.041 169.026 224.178C169.68 223.747 170.25 223.465 170.663 223.288C170.87 223.2 171.038 223.138 171.158 223.097C171.218 223.077 171.266 223.062 171.301 223.051C171.318 223.046 171.332 223.042 171.343 223.039L171.356 223.035L171.361 223.034L171.363 223.033L171.364 223.033C171.364 223.033 171.365 223.033 171.559 223.756L171.365 223.033L172.292 222.784L172.361 226.899C173.473 224.521 174.544 222.61 175.787 221.109C177.565 218.961 179.675 217.674 182.666 216.992L183.22 216.866L183.491 217.364C183.941 218.189 184.195 218.892 184.368 219.678C185.607 217.84 186.854 216.615 188.348 216.099C190.011 215.525 191.802 215.885 193.908 216.855C193.799 215.628 193.578 214.652 193.193 213.751C192.683 212.556 191.86 211.432 190.506 210.007L189.687 209.144L190.819 208.779C192.11 208.362 192.914 208.001 193.491 207.44C193.983 206.96 194.37 206.273 194.675 205.098L192.675 203.943L194.619 202.064C193.267 201.284 192.281 200.517 191.501 199.622C190.557 198.539 189.956 197.316 189.347 195.784L188.86 194.561L190.16 194.767C191.472 194.975 192.396 195.036 193.221 194.932C193.75 194.865 194.258 194.728 194.819 194.497C193.075 192.813 191.939 191.261 191.423 189.499C190.83 187.47 191.097 185.291 191.939 182.528L192.385 181.066L193.268 182.314C193.917 183.231 194.422 183.856 194.966 184.356C195.284 184.649 195.624 184.907 196.028 185.156C196.263 183.539 196.626 182.252 197.232 181.118C197.929 179.812 198.917 178.767 200.276 177.664C200.37 176.587 200.521 175.69 200.848 174.861C201.214 173.936 201.776 173.147 202.622 172.284L203.029 171.868L203.532 172.159C204.629 172.792 205.376 173.117 206.018 173.259C206.638 173.395 207.208 173.371 207.973 173.211L208.675 173.064L208.852 173.76C209.245 175.306 209.59 176.308 210.257 177.409C210.475 176.525 210.761 175.755 211.183 175.069C211.879 173.94 212.895 173.113 214.382 172.335L214.726 172.155L215.072 172.332C216.137 172.879 217.084 173.398 217.654 174.083C217.96 174.451 218.166 174.874 218.237 175.37C218.307 175.854 218.24 176.361 218.08 176.894L218.073 176.919L218.064 176.942C217.389 178.738 216.746 180.13 215.838 181.37C214.926 182.615 213.777 183.669 212.14 184.834L212.052 184.897L209.499 185.78C211.24 185.738 212.811 185.705 214.75 185.672L215.601 185.658L215.508 186.503C215.393 187.541 215.203 188.373 214.862 189.202C214.712 189.564 214.536 189.92 214.331 190.287C214.887 190.128 215.332 189.924 215.719 189.662C216.384 189.212 216.947 188.547 217.605 187.48C217.527 186.824 217.518 186.204 217.731 185.652C217.993 184.974 218.526 184.54 219.222 184.193L219.233 184.188L219.244 184.183C220.919 183.414 222.426 183.402 224.599 183.733L222.453 180.26L222.454 180.046C222.456 179.543 222.52 178.992 222.897 178.558C223.266 178.133 223.806 177.972 224.332 177.878L224.614 177.827L224.858 177.977C227.256 179.455 228.74 180.898 229.687 182.677C230.109 183.47 230.416 184.316 230.653 185.236C230.808 184.195 230.844 183.288 230.759 182.445C230.592 180.785 229.945 179.303 228.649 177.493L227.891 176.434L229.188 176.312C230.383 176.199 231.065 175.912 231.585 175.291C231.87 174.951 232.127 174.488 232.369 173.843C232.148 173.979 231.919 174.094 231.679 174.188C230.64 174.592 229.511 174.54 228.123 174.205L226.483 173.809L227.876 172.858C230.285 171.215 231.408 169.768 231.92 168.167C232.044 167.777 232.135 167.373 232.197 166.947C231.861 167.645 231.46 168.251 230.968 168.758C229.492 170.281 227.353 170.778 224.282 170.631L223.153 170.577L223.642 169.559C224.433 167.911 224.817 166.752 224.771 165.638C224.732 164.676 224.366 163.656 223.464 162.313L221.282 163.753L220.897 163.019C219.831 160.986 218.917 159.496 217.803 158.148C217.127 157.33 216.369 156.554 215.446 155.737L215.881 157.014L214.585 157.722L207.101 148.337L207.67 147.868C208.366 147.295 209.002 146.865 209.787 146.513C210.326 146.271 210.922 146.073 211.635 145.886L210.117 143.356L210.09 143.244C209.754 141.834 209.585 140.68 209.698 139.56C209.812 138.426 210.207 137.39 210.897 136.197L229.632 103.769C230.682 101.951 231.719 100.689 233.047 100.035C234.189 99.4725 235.442 99.4088 236.899 99.6576L237.163 97.4476L237.269 97.2945C238.461 95.578 239.658 94.3882 241.287 93.5866C242.761 92.8612 244.535 92.4816 246.869 92.2476C246.9 91.728 246.91 91.3112 246.868 90.8974C246.812 90.3524 246.664 89.7881 246.308 89.0196L246.119 88.6116L247.647 86.5946L244.08 84.9858L244.851 84.2194C246.11 82.9665 246.625 81.9954 247.298 80.1511L244.988 78.4037L245.036 77.9802C245.334 75.3382 245.351 73.7465 245.215 71.3155Z" fill="white"/>
<path fill-rule="evenodd" clip-rule="evenodd" d="M228.812 89.4606C231.896 91.3375 233.883 92.9819 236.019 95.5568C236.519 96.16 237.028 96.8142 237.561 97.5345C237.279 96.6752 236.984 95.8912 236.664 95.1613C235.304 92.0638 233.475 89.9423 230.124 87.1906C226.064 85.6663 223.31 85.1438 219.946 85.5159C219.153 85.6036 218.327 85.741 217.441 85.9266C218.332 86.0275 219.153 86.1405 219.926 86.2719C223.225 86.833 225.644 87.7306 228.812 89.4606ZM222.987 86.1833C225.05 86.7623 226.933 87.5809 229.172 88.8034L229.187 88.8119L229.202 88.821C231.381 90.1474 233.032 91.3673 234.565 92.863C234.458 92.7025 234.347 92.5439 234.233 92.3868C233.147 90.8864 231.739 89.4939 229.744 87.8482C227.32 86.9441 225.409 86.4221 223.566 86.2322C223.373 86.2123 223.18 86.196 222.987 86.1833Z" fill="white"/>
<path fill-rule="evenodd" clip-rule="evenodd" d="M200.71 138.102L202.958 134.211C202.714 134.125 202.474 134.043 202.235 133.964C197.321 132.328 193.47 131.973 189.703 131.836C188.965 131.81 188.231 131.791 187.492 131.773C188.217 132.056 188.9 132.324 189.547 132.58C194.857 134.686 197.666 135.994 200.096 137.667C200.303 137.809 200.507 137.954 200.71 138.102ZM191.837 132.694C195.875 134.345 198.316 135.54 200.472 137.016L201.853 134.626C198.024 133.366 194.857 132.898 191.837 132.694Z" fill="white"/>
<path fill-rule="evenodd" clip-rule="evenodd" d="M200.709 138.102L202.958 134.211C203.153 134.379 203.345 134.546 203.533 134.713C207.408 138.148 209.641 141.303 211.643 144.495C212.035 145.12 212.418 145.747 212.803 146.377C212.196 145.891 211.622 145.433 211.076 145.002C206.596 141.459 204.058 139.682 201.394 138.416C201.167 138.308 200.939 138.204 200.709 138.102ZM209.833 143.076C206.383 140.407 204.127 138.892 201.77 137.765L203.151 135.375C206.157 138.059 208.146 140.565 209.833 143.076Z" fill="white"/>
<path fill-rule="evenodd" clip-rule="evenodd" d="M141.449 230.253C143.644 218.588 143.569 213.068 141.795 205.424L141.065 205.593C142.856 213.31 142.898 218.809 140.529 231.073L140.344 232.035L141.124 231.442C141.284 231.32 141.441 231.201 141.593 231.085C144.403 228.944 145.975 227.747 149.551 226.472L149.299 225.767C145.746 227.034 144.084 228.247 141.449 230.253Z" fill="white"/>
<path fill-rule="evenodd" clip-rule="evenodd" d="M150.48 235.463C159.492 227.731 164.312 225.035 171.824 222.749L172.042 223.465C164.459 225.773 159.673 228.486 150.229 236.668L149.488 237.311L149.612 236.338C149.637 236.139 149.662 235.944 149.687 235.754C150.136 232.252 150.388 230.293 149.705 226.56L150.443 226.426C151.121 230.134 150.9 232.179 150.48 235.463Z" fill="white"/>
<path fill-rule="evenodd" clip-rule="evenodd" d="M182.891 175.525C185.584 174.935 187.643 174.912 190.923 175.261C196.02 175.35 198.197 172.984 201.923 168.204C202.893 162.565 204.796 160.736 209.392 159.365C209.649 159.288 209.915 159.212 210.19 159.138C210.004 158.926 209.821 158.718 209.641 158.512C204.402 152.528 201.857 148.939 198.087 142.642C190.745 142.528 186.361 142.12 178.556 140.578C178.288 140.525 178.016 140.471 177.74 140.415C177.812 140.69 177.88 140.958 177.942 141.22C179.051 145.883 178.418 148.444 174.016 152.103C171.736 157.717 170.775 160.784 173.4 165.151C175.343 167.816 176.353 169.609 177.188 172.234C177.374 172.82 177.552 173.447 177.729 174.134C177.301 173.568 176.902 173.061 176.517 172.599C175.145 170.948 173.963 169.857 172.367 168.648C171.963 168.342 171.532 168.028 171.065 167.695C171.317 168.2 171.552 168.678 171.77 169.136C173.192 172.116 173.928 174.262 174.192 177.388C174.225 177.783 174.251 178.194 174.27 178.624C173.986 178.289 173.721 177.982 173.465 177.699C172.43 176.554 171.543 175.782 170.207 174.976C169.93 174.809 169.635 174.641 169.315 174.468C169.398 174.811 169.476 175.14 169.549 175.458C170.358 178.949 170.614 181.039 170.573 184.274C164.323 185.424 156.131 185.054 149.966 184.776C146.289 184.61 143.333 184.476 141.941 184.717C141.542 184.786 141.271 184.886 141.149 185.025C141.348 185.193 141.544 185.363 141.736 185.535C152.189 194.895 152.808 210.452 152.754 220.245C152.752 220.542 152.75 220.833 152.747 221.118C152.993 220.973 153.244 220.826 153.5 220.676C161.96 215.733 175.752 208.489 189.09 212.856C189.335 212.936 189.58 213.021 189.825 213.109C189.884 212.934 189.836 212.649 189.696 212.269C189.209 210.944 187.615 208.453 185.633 205.353C182.309 200.157 177.893 193.253 175.765 187.269C178.547 185.616 180.486 184.793 183.917 183.747C184.229 183.652 184.553 183.555 184.891 183.455C184.581 183.265 184.288 183.093 184.005 182.937C182.639 182.184 181.526 181.802 180.017 181.479C179.643 181.399 179.245 181.323 178.813 181.245C179.195 181.046 179.564 180.863 179.923 180.694C182.763 179.36 184.991 178.924 188.285 178.664C188.791 178.624 189.323 178.588 189.886 178.554C189.364 178.316 188.877 178.1 188.409 177.903C186.563 177.127 185.027 176.649 182.911 176.287C182.317 176.186 181.678 176.094 180.974 176.006C181.658 175.816 182.29 175.656 182.891 175.525ZM186.75 178.055C185.022 177.429 183.378 177.059 180.882 176.75L180.773 175.285C184.616 174.216 186.895 174.081 190.969 174.513C193.36 174.549 195.008 174.017 196.501 172.949C198.014 171.867 199.401 170.216 201.217 167.891C201.74 164.957 202.544 162.921 203.958 161.447C205.179 160.173 206.789 159.389 208.85 158.747C203.832 152.995 201.281 149.41 197.658 143.384C190.624 143.261 186.242 142.846 178.748 141.379C179.222 143.484 179.348 145.27 178.855 146.963C178.284 148.924 176.921 150.638 174.64 152.557C173.533 155.292 172.796 157.317 172.614 159.168C172.436 160.994 172.798 162.687 174.026 164.737C176.437 168.048 177.459 170.087 178.455 173.947L177.131 174.586C175.615 172.58 174.472 171.342 173.066 170.16C174.274 172.911 174.87 175.167 175.018 178.591L175.113 180.784L173.697 179.107C172.503 177.694 171.662 176.834 170.444 176.014C171.134 179.132 171.362 181.207 171.322 184.283L171.314 184.899L170.708 185.01C164.375 186.176 156.117 185.803 149.982 185.526L149.933 185.524C147.559 185.417 145.514 185.325 143.994 185.336C143.483 185.339 143.044 185.355 142.68 185.383C147.834 190.208 150.546 196.513 151.967 202.786C153.35 208.891 153.521 215.017 153.505 219.806C157.648 217.398 163.042 214.483 169.024 212.627C175.171 210.72 181.992 209.915 188.75 211.964C188.592 211.634 188.386 211.246 188.134 210.802C187.383 209.481 186.281 207.758 185.001 205.757L184.975 205.715C181.668 200.544 177.216 193.584 175.059 187.52L174.852 186.94L175.382 186.626C178.028 185.053 179.94 184.213 182.987 183.251C181.668 182.606 180.502 182.309 178.68 181.982L176.519 181.595L178.466 180.581C181.508 178.997 183.761 178.384 186.75 178.055Z" fill="white"/>
<path fill-rule="evenodd" clip-rule="evenodd" d="M182.005 153.253C183.976 154.39 186.497 153.715 187.635 151.745C188.773 149.775 188.098 147.256 186.126 146.119C184.155 144.981 181.634 145.656 180.496 147.626C179.358 149.596 180.033 152.115 182.005 153.253ZM181.63 153.901C183.96 155.246 186.939 154.448 188.284 152.12C189.629 149.791 188.831 146.814 186.501 145.47C184.171 144.126 181.192 144.924 179.847 147.252C178.502 149.58 179.3 152.557 181.63 153.901Z" fill="white"/>
<path fill-rule="evenodd" clip-rule="evenodd" d="M196.932 161.865C194.961 160.728 194.285 158.209 195.423 156.239C196.561 154.269 199.082 153.594 201.054 154.731C203.025 155.869 203.701 158.388 202.562 160.358C201.424 162.328 198.903 163.003 196.932 161.865ZM196.557 162.514C194.227 161.17 193.429 158.193 194.774 155.864C196.119 153.536 199.099 152.738 201.428 154.083C203.758 155.427 204.557 158.404 203.211 160.732C201.866 163.06 198.887 163.858 196.557 162.514Z" fill="white"/>
<path fill-rule="evenodd" clip-rule="evenodd" d="M182.754 151.956C184.009 152.679 185.613 152.25 186.337 150.996C187.062 149.742 186.632 148.139 185.377 147.416C184.123 146.692 182.518 147.121 181.794 148.375C181.07 149.629 181.5 151.232 182.754 151.956ZM182.379 152.604C183.992 153.535 186.055 152.982 186.986 151.371C187.917 149.759 187.365 147.698 185.752 146.767C184.139 145.836 182.076 146.389 181.145 148.001C180.214 149.612 180.767 151.673 182.379 152.604Z" fill="white"/>
<path fill-rule="evenodd" clip-rule="evenodd" d="M197.681 160.568C196.427 159.844 195.997 158.241 196.721 156.987C197.446 155.734 199.05 155.304 200.304 156.028C201.559 156.752 201.989 158.355 201.264 159.609C200.54 160.862 198.936 161.292 197.681 160.568ZM197.307 161.216C195.694 160.286 195.141 158.225 196.072 156.613C197.004 155.001 199.066 154.449 200.679 155.379C202.292 156.31 202.845 158.371 201.913 159.983C200.982 161.595 198.92 162.147 197.307 161.216Z" fill="white"/>
<path fill-rule="evenodd" clip-rule="evenodd" d="M178.057 163.081C179.67 164.012 181.732 163.46 182.664 161.848C183.595 160.236 183.042 158.175 181.429 157.244C179.816 156.314 177.754 156.866 176.823 158.478C175.891 160.09 176.444 162.151 178.057 163.081ZM177.682 163.73C179.654 164.867 182.174 164.192 183.313 162.222C184.451 160.252 183.775 157.733 181.804 156.596C179.833 155.458 177.312 156.133 176.173 158.103C175.035 160.073 175.711 162.592 177.682 163.73Z" fill="white"/>
<path fill-rule="evenodd" clip-rule="evenodd" d="M190.388 170.196C188.775 169.265 188.222 167.204 189.154 165.592C190.085 163.98 192.147 163.428 193.76 164.359C195.373 165.289 195.926 167.35 194.995 168.962C194.064 170.574 192.001 171.126 190.388 170.196ZM190.013 170.844C188.042 169.707 187.367 167.188 188.505 165.218C189.643 163.248 192.164 162.573 194.135 163.71C196.107 164.847 196.782 167.367 195.644 169.337C194.506 171.307 191.985 171.982 190.013 170.844Z" fill="white"/>
<path fill-rule="evenodd" clip-rule="evenodd" d="M156.15 198.003C157.763 198.934 159.825 198.381 160.757 196.77C161.688 195.158 161.135 193.097 159.522 192.166C157.909 191.235 155.847 191.788 154.916 193.4C153.984 195.011 154.537 197.072 156.15 198.003ZM155.775 198.652C157.747 199.789 160.268 199.114 161.406 197.144C162.544 195.174 161.868 192.655 159.897 191.517C157.926 190.38 155.405 191.055 154.267 193.025C153.128 194.995 153.804 197.514 155.775 198.652Z" fill="white"/>
<path fill-rule="evenodd" clip-rule="evenodd" d="M171.077 206.616C169.464 205.685 168.912 203.624 169.843 202.012C170.774 200.4 172.837 199.848 174.45 200.779C176.063 201.709 176.615 203.77 175.684 205.382C174.753 206.994 172.69 207.546 171.077 206.616ZM170.703 207.264C168.731 206.127 168.056 203.608 169.194 201.638C170.332 199.668 172.853 198.993 174.824 200.13C176.796 201.267 177.471 203.786 176.333 205.757C175.195 207.727 172.674 208.402 170.703 207.264Z" fill="white"/>
<path fill-rule="evenodd" clip-rule="evenodd" d="M177.307 164.378C179.637 165.723 182.616 164.925 183.962 162.597C185.307 160.268 184.509 157.291 182.179 155.947C179.849 154.603 176.87 155.401 175.525 157.729C174.179 160.057 174.978 163.034 177.307 164.378ZM176.933 165.027C179.621 166.578 183.059 165.658 184.611 162.971C186.163 160.285 185.242 156.85 182.553 155.299C179.865 153.748 176.428 154.668 174.875 157.354C173.323 160.041 174.244 163.476 176.933 165.027Z" fill="white"/>
<path fill-rule="evenodd" clip-rule="evenodd" d="M189.639 171.493C187.309 170.149 186.511 167.172 187.856 164.844C189.201 162.515 192.18 161.718 194.51 163.062C196.84 164.406 197.638 167.383 196.293 169.711C194.948 172.04 191.968 172.837 189.639 171.493ZM189.264 172.142C186.576 170.591 185.655 167.156 187.207 164.469C188.759 161.783 192.196 160.862 194.885 162.413C197.573 163.964 198.494 167.399 196.942 170.086C195.39 172.772 191.952 173.693 189.264 172.142Z" fill="white"/>
<path fill-rule="evenodd" clip-rule="evenodd" d="M155.401 199.3C157.73 200.644 160.71 199.847 162.055 197.519C163.4 195.19 162.602 192.213 160.272 190.869C157.942 189.525 154.963 190.323 153.618 192.651C152.273 194.979 153.071 197.956 155.401 199.3ZM155.026 199.949C157.714 201.5 161.152 200.579 162.704 197.893C164.256 195.207 163.335 191.771 160.647 190.22C157.958 188.669 154.521 189.59 152.969 192.276C151.417 194.963 152.338 198.398 155.026 199.949Z" fill="white"/>
<path fill-rule="evenodd" clip-rule="evenodd" d="M170.328 207.913C167.998 206.569 167.2 203.592 168.545 201.264C169.89 198.935 172.869 198.138 175.199 199.482C177.529 200.826 178.327 203.803 176.982 206.131C175.637 208.46 172.658 209.257 170.328 207.913ZM169.953 208.562C167.265 207.011 166.344 203.576 167.896 200.889C169.448 198.203 172.885 197.282 175.574 198.833C178.262 200.384 179.183 203.819 177.631 206.506C176.079 209.192 172.641 210.113 169.953 208.562Z" fill="white"/>
<path fill-rule="evenodd" clip-rule="evenodd" d="M143.344 202.597C145.082 210.923 145.433 215.981 144.382 224.43C144.346 224.718 144.309 225.01 144.27 225.307C144.559 225.17 144.823 225.05 145.072 224.948C146.202 224.482 146.995 224.366 148.177 224.535L150.8 219.995C150.12 205.402 148.607 197.707 141.487 187.575C141.239 187.223 140.985 186.868 140.724 186.51C140.738 186.986 140.745 187.408 140.731 187.804C140.703 188.602 140.586 189.297 140.252 190.131C140.126 190.447 139.969 190.782 139.774 191.15L141.497 190.415C141.589 190.653 141.677 190.887 141.762 191.116C143.348 195.412 143.619 198.098 142.18 201.627C141.959 202.171 141.697 202.734 141.393 203.326L143.166 201.755C143.227 202.039 143.287 202.32 143.344 202.597ZM143.346 200.595L143.63 200.342L143.899 201.598C145.775 210.362 146.21 215.53 145.177 224.103C145.503 223.984 145.816 223.891 146.131 223.825C146.675 223.712 147.199 223.688 147.774 223.735L150.041 219.811C149.689 212.382 149.114 206.81 147.694 201.795C146.517 197.642 144.753 193.848 142.022 189.693L142.196 190.145C143.246 192.869 143.857 195.039 143.869 197.15C143.876 198.309 143.703 199.429 143.346 200.595ZM141.859 189.446C141.708 189.22 141.555 188.992 141.399 188.764C141.39 188.826 141.38 188.887 141.37 188.949C141.324 189.21 141.264 189.469 141.185 189.733L141.859 189.446Z" fill="white"/>
<path fill-rule="evenodd" clip-rule="evenodd" d="M173.499 219.995C165.415 222.654 160.856 224.879 154.06 230.013C153.828 230.188 153.593 230.367 153.356 230.549C153.33 230.231 153.301 229.942 153.266 229.675C153.105 228.465 152.808 227.72 152.071 226.781L154.694 222.241C167.681 215.533 175.106 212.995 187.447 214.091C187.876 214.129 188.31 214.172 188.751 214.219C188.331 214.445 187.962 214.649 187.626 214.86C186.948 215.284 186.405 215.732 185.848 216.438C185.638 216.705 185.426 217.008 185.205 217.361L184.981 215.502C184.728 215.542 184.481 215.583 184.241 215.624C179.724 216.399 177.261 217.508 174.922 220.518C174.562 220.981 174.205 221.489 173.844 222.048L174.319 219.728C174.041 219.818 173.768 219.907 173.499 219.995ZM175.234 218.993L175.31 218.62L174.088 219.015C165.555 221.774 160.858 223.982 153.945 229.162C153.886 228.82 153.81 228.502 153.709 228.198C153.535 227.67 153.294 227.205 152.966 226.731L155.233 222.806C161.847 219.396 166.964 217.108 172.02 215.83C176.207 214.772 180.377 214.401 185.344 214.687L184.864 214.763C181.979 215.216 179.794 215.772 177.958 216.817C176.949 217.391 176.065 218.101 175.234 218.993ZM185.639 214.705C185.911 214.722 186.184 214.741 186.46 214.762C186.411 214.8 186.363 214.84 186.315 214.88C186.111 215.05 185.917 215.232 185.727 215.432L185.639 214.705Z" fill="white"/>
<path fill-rule="evenodd" clip-rule="evenodd" d="M175.007 135.717L175.02 136.019C175.051 136.762 175.138 137.193 175.285 137.482C175.422 137.749 175.629 137.93 176.011 138.121L176.2 138.216L176.216 138.426C176.482 141.769 176.442 144.071 176 145.851C175.553 147.653 174.7 148.898 173.402 150.14L173.247 150.288L173.04 150.23C171.635 149.831 170.611 149.321 169.738 148.516C168.957 147.797 168.315 146.859 167.622 145.608L166.202 146.866L165.608 146.442C165.977 145.56 166.207 144.891 166.307 144.205C166.402 143.552 166.383 142.864 166.231 141.947C165.405 141.183 164.758 140.656 164.068 140.296C163.371 139.933 162.61 139.729 161.545 139.652C159.507 140.03 158.25 140.655 157.295 141.594C156.318 142.555 155.627 143.873 154.772 145.717L154.087 145.412C155.043 143.184 155.716 141.496 156.001 139.886C156.282 138.293 156.185 136.763 155.564 134.861L155.156 133.609L156.163 134.459C156.77 134.971 157.178 135.206 157.562 135.242C157.932 135.278 158.368 135.136 159.046 134.643L159.328 134.437L161.952 137.56C162.318 136.574 162.697 135.783 163.203 135.087C163.814 134.247 164.595 133.568 165.718 132.848L166.193 132.544L166.722 135.602C169.938 134.972 171.723 135.157 174.708 135.666L175.007 135.717ZM174.288 136.355C171.423 135.875 169.722 135.74 166.495 136.412L166.116 136.491L165.649 133.795C164.835 134.362 164.265 134.901 163.809 135.527C163.267 136.272 162.872 137.163 162.441 138.423L162.253 138.972C163.085 139.085 163.768 139.295 164.415 139.633C165.226 140.055 165.957 140.668 166.835 141.485L166.927 141.571L166.948 141.694C167.128 142.725 167.163 143.529 167.048 144.313C166.999 144.65 166.923 144.979 166.822 145.316L167.833 144.42L168.057 144.838C168.83 146.282 169.476 147.256 170.246 147.966C170.968 148.631 171.82 149.082 173.038 149.449C174.17 148.333 174.885 147.235 175.273 145.67C175.675 144.048 175.732 141.904 175.485 138.689C175.113 138.477 174.82 138.218 174.618 137.822C174.424 137.443 174.331 136.968 174.288 136.355ZM162.149 138.958L159.199 135.447C158.593 135.844 158.049 136.042 157.49 135.988C157.174 135.958 156.875 135.848 156.579 135.682C156.959 137.235 156.989 138.602 156.739 140.016C156.655 140.488 156.541 140.965 156.399 141.454C156.518 141.317 156.641 141.186 156.769 141.061C157.869 139.978 159.293 139.302 161.457 138.906L161.503 138.898L161.55 138.901C161.758 138.915 161.957 138.934 162.149 138.958Z" fill="white"/>
<path fill-rule="evenodd" clip-rule="evenodd" d="M215.628 159.154L215.359 159.294C214.7 159.637 214.283 159.778 213.959 159.795C213.659 159.81 213.399 159.721 213.042 159.487L212.866 159.371L212.675 159.461C209.645 160.903 207.671 162.088 206.349 163.361C205.011 164.649 204.358 166.009 203.931 167.754L203.88 167.962L204.034 168.111C205.082 169.129 206.036 169.76 207.17 170.113C208.185 170.429 209.318 170.515 210.749 170.489L210.368 172.348L211.033 172.65C211.612 171.89 212.078 171.356 212.622 170.927C213.141 170.518 213.746 170.19 214.617 169.863C215.692 170.196 216.472 170.492 217.128 170.91C217.792 171.331 218.349 171.888 218.949 172.771C219.64 174.724 219.727 176.125 219.391 177.421C219.046 178.746 218.25 180.004 217.079 181.665L217.686 182.105C219.138 180.164 220.265 178.738 221.518 177.686C222.758 176.646 224.132 175.966 226.091 175.551L227.38 175.278L226.141 174.833C225.393 174.564 224.985 174.327 224.762 174.014C224.546 173.711 224.451 173.262 224.54 172.43L224.577 172.082L220.558 171.373C221.229 170.563 221.726 169.84 222.076 169.054C222.499 168.105 222.696 167.09 222.758 165.758L222.785 165.194L219.87 166.266C218.808 163.168 217.755 161.715 215.821 159.387L215.628 159.154ZM215.435 160.095C217.283 162.334 218.25 163.738 219.282 166.867L219.403 167.235L221.973 166.291C221.888 167.279 221.706 168.042 221.391 168.749C221.017 169.591 220.442 170.378 219.566 171.381L219.184 171.818C218.67 171.155 218.146 170.669 217.531 170.278C216.758 169.787 215.862 169.46 214.715 169.11L214.595 169.073L214.477 169.116C213.494 169.476 212.78 169.848 212.158 170.339C211.891 170.55 211.644 170.78 211.402 171.036L211.672 169.713L211.198 169.729C209.56 169.782 208.393 169.71 207.393 169.398C206.456 169.106 205.639 168.595 204.712 167.723C205.113 166.186 205.708 165.018 206.869 163.9C208.074 162.74 209.904 161.62 212.813 160.226C213.183 160.442 213.554 160.566 213.998 160.543C214.424 160.52 214.882 160.364 215.435 160.095ZM219.248 171.902L223.766 172.699C223.725 173.422 223.825 173.991 224.151 174.448C224.336 174.707 224.58 174.911 224.872 175.084C223.336 175.532 222.137 176.189 221.036 177.113C220.669 177.421 220.313 177.758 219.96 178.126C220.019 177.955 220.071 177.782 220.116 177.609C220.504 176.115 220.378 174.545 219.639 172.475L219.623 172.43L219.597 172.391C219.48 172.218 219.364 172.056 219.248 171.902Z" fill="white"/>
<path fill-rule="evenodd" clip-rule="evenodd" d="M172.002 166.073C171.712 165.612 171.463 165.183 171.25 164.775C170.257 162.873 170.05 161.44 170.193 159.435C170.212 159.164 170.238 158.882 170.269 158.588L168.546 159.323C168.08 161.656 167.504 162.886 165.991 164.286C165.797 164.466 165.588 164.648 165.361 164.836C165.64 164.953 165.898 165.057 166.148 165.151C166.95 165.452 167.664 165.643 168.695 165.808C168.736 165.815 168.777 165.821 168.819 165.828C169.029 165.86 169.252 165.891 169.492 165.923C169.356 166.164 169.22 166.398 169.084 166.623C168.969 166.814 168.854 166.999 168.739 167.178C167.954 168.402 167.157 169.384 166.281 170.21C166.17 170.315 166.057 170.418 165.943 170.518C164.21 172.04 162.152 173.019 159.291 174.07C159.059 174.155 158.822 174.241 158.579 174.327C158.703 174.56 158.822 174.781 158.94 174.994C159.61 176.205 160.226 177.141 161.257 178.499C161.43 178.726 161.613 178.964 161.811 179.218C161.499 179.236 161.197 179.252 160.902 179.268C156.907 179.478 154.392 179.478 151.003 178.425C150.77 178.352 150.532 178.274 150.289 178.191L149.627 180.836C149.462 180.798 149.311 180.762 149.159 180.719C149.075 180.695 148.991 180.669 148.903 180.64C148.625 180.547 148.316 180.42 147.891 180.214C147.681 180.113 147.444 179.994 147.168 179.85C147.139 180.155 147.125 180.424 147.13 180.673C147.142 181.384 147.3 181.936 147.666 182.731C155.64 183.119 160.066 183.074 167.839 182.264C167.778 178.517 167.537 176.144 166.953 172.193C166.91 171.904 166.866 171.606 166.819 171.298L171.225 173.408C171.052 173.038 170.892 172.686 170.745 172.348C169.933 170.482 169.515 169.043 169.489 167.394C169.482 166.936 169.505 166.463 169.558 165.96C169.572 165.827 169.588 165.693 169.606 165.556C169.622 165.436 169.64 165.313 169.659 165.189C169.681 165.049 169.704 164.907 169.73 164.763L172.002 166.073ZM168.917 165.085C168.94 164.936 168.965 164.785 168.992 164.632L169.179 163.58L170.114 164.12C169.886 163.571 169.718 163.04 169.603 162.502C169.413 161.613 169.373 160.733 169.422 159.764L169.2 159.858C168.947 161.025 168.641 161.967 168.154 162.818C167.791 163.455 167.34 164.018 166.77 164.579C167.414 164.799 168.041 164.95 168.917 165.085ZM168.804 168.421C168.23 169.229 167.637 169.932 167.003 170.556L169.73 171.861C169.358 170.929 169.086 170.069 168.922 169.201C168.873 168.941 168.834 168.682 168.804 168.421ZM166.075 171.388C165.886 171.543 165.692 171.693 165.494 171.838C163.887 173.015 162.011 173.864 159.653 174.735C160.39 176.056 161.077 177.056 162.402 178.758L163.281 179.886L161.853 179.966C157.317 180.22 154.577 180.313 150.821 179.152L150.176 181.729L149.46 181.566C148.94 181.447 148.541 181.334 147.905 181.048C147.912 181.1 147.919 181.151 147.928 181.201C147.971 181.448 148.046 181.7 148.168 182.006C155.586 182.356 159.915 182.312 167.076 181.589C166.992 178.01 166.717 175.632 166.078 171.41L166.075 171.388Z" fill="white"/>
<path fill-rule="evenodd" clip-rule="evenodd" d="M190.823 176.933C191.367 176.952 191.864 176.953 192.323 176.934C194.468 176.842 195.814 176.305 197.48 175.179C197.706 175.027 197.937 174.864 198.176 174.69L198.4 176.548C196.612 178.118 195.834 179.232 195.377 181.241C195.318 181.498 195.265 181.771 195.215 182.061C194.974 181.878 194.755 181.707 194.549 181.538C193.887 180.994 193.364 180.472 192.706 179.662C192.68 179.63 192.654 179.597 192.627 179.564C192.494 179.399 192.355 179.221 192.208 179.029C192.067 179.268 191.932 179.502 191.805 179.733C191.697 179.927 191.595 180.119 191.496 180.309C190.828 181.6 190.375 182.781 190.098 183.952C190.062 184.101 190.03 184.249 190 184.398C189.548 186.659 189.729 188.93 190.248 191.931C190.29 192.174 190.334 192.422 190.381 192.675C190.117 192.685 189.866 192.692 189.623 192.697C188.238 192.722 187.119 192.657 185.427 192.444C185.144 192.408 184.845 192.368 184.526 192.324C184.667 192.603 184.804 192.873 184.938 193.136C186.753 196.698 188.011 198.875 190.618 201.281C190.798 201.447 190.984 201.614 191.177 201.782L189.216 203.678C189.331 203.802 189.438 203.914 189.552 204.024C189.614 204.085 189.679 204.145 189.748 204.206C189.967 204.4 190.233 204.604 190.623 204.869C190.815 205 191.038 205.146 191.301 205.312C191.05 205.49 190.824 205.636 190.606 205.757C189.984 206.103 189.426 206.242 188.554 206.322C184.232 199.616 182.057 195.763 178.873 188.63C182.15 186.809 184.328 185.831 188.043 184.361C188.316 184.254 188.596 184.143 188.886 184.03L184.854 181.272C185.262 181.237 185.647 181.199 186.013 181.157C188.036 180.927 189.492 180.569 190.934 179.767C191.334 179.545 191.733 179.288 192.143 178.99C192.251 178.912 192.359 178.831 192.469 178.747C192.565 178.673 192.662 178.597 192.76 178.518C192.87 178.429 192.982 178.338 193.094 178.243L190.823 176.933ZM193.221 179.108C193.339 179.014 193.457 178.917 193.577 178.816L194.395 178.129L193.459 177.589C194.049 177.512 194.593 177.392 195.117 177.222C195.982 176.943 196.765 176.538 197.581 176.01L197.609 176.25C196.725 177.052 196.062 177.788 195.567 178.635C195.197 179.267 194.935 179.939 194.734 180.713C194.221 180.266 193.777 179.798 193.221 179.108ZM190.387 180.873C189.974 181.774 189.661 182.639 189.438 183.5L186.942 181.793C187.936 181.648 188.818 181.454 189.652 181.162C189.902 181.074 190.146 180.978 190.387 180.873ZM189.18 184.719C189.14 184.96 189.107 185.202 189.081 185.446C188.864 187.426 189.066 189.474 189.491 191.95C187.977 191.972 186.767 191.879 184.629 191.582L183.213 191.386L183.857 192.662C185.905 196.715 187.195 199.132 190.078 201.802L188.168 203.649L188.667 204.187C189.03 204.578 189.327 204.867 189.893 205.274C189.845 205.294 189.797 205.313 189.749 205.33C189.514 205.417 189.258 205.478 188.932 205.525C184.919 199.281 182.793 195.512 179.839 188.953C182.983 187.236 185.181 186.285 189.159 184.727L189.18 184.719Z" fill="white"/>
<path fill-rule="evenodd" clip-rule="evenodd" d="M186.09 143.936C186.603 144.265 187.099 144.599 187.573 144.942C189.631 146.432 191.252 148.091 191.94 150.285C192.047 150.626 192.132 150.98 192.192 151.348L195.564 145.511L186.09 143.936ZM189.132 145.201C190.568 146.394 191.753 147.756 192.431 149.435L194.374 146.072L189.132 145.201Z" fill="white"/>
<path fill-rule="evenodd" clip-rule="evenodd" d="M202.964 153.671C202.422 153.392 201.884 153.129 201.351 152.891C199.03 151.855 196.782 151.281 194.536 151.783C194.187 151.861 193.839 151.965 193.49 152.097L196.862 146.26L202.964 153.671ZM200.346 151.671C198.594 151.025 196.822 150.68 195.027 150.933L196.97 147.57L200.346 151.671Z" fill="white"/>
<path fill-rule="evenodd" clip-rule="evenodd" d="M178.917 168.333C179.069 168.594 179.213 168.87 179.348 169.158C179.814 170.154 180.17 171.288 180.364 172.357C180.411 172.618 180.448 172.874 180.475 173.124C180.706 173.023 180.947 172.927 181.196 172.837C182.219 172.47 183.38 172.212 184.476 172.117C184.794 172.09 185.105 172.076 185.407 172.078C185.209 171.856 185.024 171.608 184.851 171.341C184.331 170.538 183.928 169.57 183.661 168.662C183.588 168.414 183.525 168.17 183.473 167.936C183.244 168.008 183.001 168.075 182.75 168.136C181.83 168.359 180.789 168.495 179.832 168.446C179.515 168.43 179.208 168.394 178.917 168.333ZM180.19 169.205C180.585 170.123 180.891 171.125 181.075 172.086C182.001 171.765 183.021 171.529 184.015 171.412C183.545 170.606 183.185 169.701 182.939 168.861C182.087 169.068 181.123 169.209 180.19 169.205Z" fill="white"/>
<path fill-rule="evenodd" clip-rule="evenodd" d="M146.687 186.793C146.38 186.798 146.066 186.804 145.743 186.811C145.947 187.065 146.142 187.31 146.328 187.548C148.01 189.7 148.987 191.293 150.117 193.693C150.285 194.05 150.456 194.424 150.634 194.821C150.717 194.397 150.808 193.998 150.91 193.621C151.799 190.34 153.479 188.788 157.289 187.869C158.133 187.665 159.081 187.493 160.148 187.339C159.099 187.255 158.137 187.18 157.227 187.113C153.593 186.848 150.8 186.726 146.687 186.793ZM147.264 187.533C148.604 189.289 149.498 190.728 150.432 192.62C150.95 191.098 151.705 189.906 152.877 188.987C153.529 188.477 154.293 188.065 155.185 187.725C152.61 187.566 150.29 187.496 147.264 187.533Z" fill="white"/>
<path fill-rule="evenodd" clip-rule="evenodd" d="M185.524 209.2C185.674 209.468 185.826 209.744 185.981 210.026C185.659 209.976 185.349 209.93 185.049 209.888C182.343 209.509 180.474 209.46 177.829 209.682C177.436 209.715 177.026 209.754 176.594 209.799C176.92 209.515 177.22 209.236 177.495 208.959C179.894 206.549 180.4 204.32 179.291 200.563C179.046 199.731 178.721 198.824 178.32 197.824C178.918 198.69 179.464 199.485 179.977 200.239C182.024 203.251 183.525 205.608 185.524 209.2ZM184.594 209.071C182.403 208.79 180.709 208.735 178.602 208.873C179.662 207.663 180.318 206.414 180.528 204.941C180.644 204.121 180.619 203.254 180.467 202.312C181.893 204.461 183.113 206.434 184.594 209.071Z" fill="white"/>
<path fill-rule="evenodd" clip-rule="evenodd" d="M161.496 187.252C161.802 187.522 162.108 187.776 162.412 188.021C162.706 188.257 162.997 188.484 163.283 188.706C165.068 190.095 166.609 191.295 166.997 193.458C167.07 193.868 167.102 194.313 167.086 194.801L171.208 187.666C170.908 187.692 170.609 187.71 170.311 187.721C168.682 187.781 167.085 187.638 165.486 187.494C164.558 187.411 163.629 187.327 162.692 187.283C162.295 187.265 161.897 187.253 161.496 187.252ZM163.719 188.096C163.726 188.102 163.733 188.107 163.74 188.113C163.837 188.188 163.934 188.263 164.03 188.338C164.695 188.858 165.354 189.387 165.925 189.972C166.633 190.699 167.206 191.516 167.535 192.527L169.872 188.481C168.646 188.5 167.449 188.416 166.278 188.316C165.986 188.291 165.696 188.265 165.407 188.239C164.84 188.188 164.279 188.138 163.719 188.096Z" fill="white"/>
<path fill-rule="evenodd" clip-rule="evenodd" d="M177.722 196.613C177.335 196.484 176.961 196.346 176.597 196.205C176.246 196.069 175.903 195.93 175.569 195.794C173.472 194.944 171.661 194.21 169.593 194.956C169.201 195.098 168.799 195.292 168.384 195.55L172.506 188.416C172.634 188.688 172.768 188.956 172.907 189.219C173.67 190.659 174.593 191.969 175.517 193.282C176.053 194.043 176.59 194.805 177.097 195.594C177.311 195.928 177.52 196.267 177.722 196.613ZM175.878 195.112C175.87 195.108 175.862 195.105 175.854 195.102C175.74 195.055 175.627 195.009 175.513 194.964C174.731 194.648 173.943 194.342 173.15 194.141C172.166 193.891 171.172 193.804 170.131 194.025L172.468 189.979C173.065 191.049 173.736 192.044 174.409 193.007C174.577 193.247 174.744 193.485 174.911 193.722C175.239 194.188 175.563 194.648 175.878 195.112Z" fill="white"/>
<path fill-rule="evenodd" clip-rule="evenodd" d="M155.021 216.328C155.016 216.633 155.007 216.933 154.995 217.226C155.244 217.069 155.499 216.912 155.761 216.754C159.461 214.534 164.45 212.351 168.846 211.285C169.168 211.207 169.487 211.134 169.803 211.069C169.539 210.885 169.285 210.684 169.041 210.469C166.519 208.247 165.033 204.463 164.777 201.194C164.755 200.913 164.742 200.636 164.738 200.364C164.5 200.497 164.253 200.624 163.999 200.745C161.038 202.158 157.015 202.765 153.829 201.693C153.52 201.589 153.219 201.469 152.928 201.333C153.029 201.639 153.126 201.951 153.22 202.269C154.493 206.606 155.096 212.016 155.021 216.328ZM155.776 215.875C159.343 213.788 163.975 211.767 168.169 210.682C167 209.542 166.075 208.104 165.398 206.582C164.675 204.956 164.219 203.201 164.055 201.545C162.538 202.232 160.79 202.715 159.019 202.902C157.361 203.077 155.652 202.995 154.08 202.553C155.237 206.725 155.801 211.745 155.776 215.875Z" fill="white"/>
<path fill-rule="evenodd" clip-rule="evenodd" d="M175.529 154.026C175.59 153.883 175.671 153.729 175.776 153.55C176.48 152.952 176.943 152.503 177.424 151.916C177.641 151.65 177.862 151.356 178.111 151.006C178.112 151.423 178.143 151.765 178.224 152.113C178.28 152.352 178.36 152.594 178.472 152.864C178.56 153.076 178.667 153.305 178.796 153.564C178.523 153.616 178.274 153.671 178.043 153.731C177.32 153.92 176.768 154.16 176.145 154.528C175.897 154.675 175.637 154.842 175.351 155.035C175.346 154.642 175.383 154.366 175.529 154.026ZM177.302 153.17C177.441 153.123 177.585 153.08 177.735 153.039C177.703 152.96 177.674 152.882 177.647 152.805C177.535 152.929 177.421 153.05 177.302 153.17Z" fill="white"/>
<path fill-rule="evenodd" clip-rule="evenodd" d="M199.5 167.856C199.593 167.732 199.686 167.585 199.789 167.405C199.956 166.496 200.113 165.871 200.381 165.161C200.503 164.84 200.647 164.502 200.826 164.112C200.464 164.319 200.152 164.464 199.81 164.567C199.575 164.638 199.326 164.69 199.035 164.728C198.808 164.758 198.556 164.78 198.267 164.797C198.359 165.06 198.435 165.303 198.498 165.533C198.697 166.253 198.764 166.851 198.757 167.574C198.754 167.862 198.739 168.171 198.715 168.515C199.058 168.322 199.279 168.152 199.5 167.856ZM199.356 165.893C199.326 165.75 199.292 165.604 199.253 165.454C199.337 165.441 199.419 165.427 199.499 165.412C199.447 165.571 199.4 165.73 199.356 165.893Z" fill="white"/>
<path fill-rule="evenodd" clip-rule="evenodd" d="M187.12 156.061L187.099 156.065C186.802 156.118 186.518 156.17 186.25 156.222C186.549 156.583 186.874 156.99 187.187 157.407C187.509 157.836 187.825 158.283 188.085 158.706C188.214 158.914 188.336 159.127 188.441 159.337C188.675 159.323 188.921 159.322 189.166 159.329C189.662 159.343 190.207 159.393 190.741 159.457C191.258 159.52 191.773 159.598 192.236 159.676C192.147 159.417 192.05 159.146 191.948 158.862L191.941 158.842C191.647 158.022 191.32 157.11 191.11 156.221C191.021 155.841 190.949 155.451 190.912 155.061C190.554 155.223 190.18 155.356 189.807 155.468C188.931 155.732 187.978 155.905 187.12 156.061ZM190.888 154.238C189.795 154.814 188.324 155.081 186.965 155.328C186.525 155.408 186.096 155.485 185.696 155.571C185.405 155.633 185.129 155.699 184.875 155.773C185.024 155.939 185.212 156.154 185.422 156.402C186.341 157.485 187.679 159.199 187.97 160.153C188.941 159.928 191.096 160.229 192.494 160.482C192.814 160.54 193.095 160.595 193.312 160.641C193.249 160.384 193.169 160.112 193.077 159.829C192.951 159.44 192.804 159.031 192.653 158.61C192.188 157.311 191.684 155.904 191.636 154.67C191.622 154.319 191.645 153.983 191.717 153.667C191.478 153.887 191.199 154.075 190.888 154.238Z" fill="white"/>
<path fill-rule="evenodd" clip-rule="evenodd" d="M169.497 142.7C170.041 145.147 170.752 146.265 172.011 147.35C172.194 147.507 172.388 147.663 172.594 147.823C172.745 147.613 172.885 147.406 173.014 147.201C174.085 145.496 174.43 143.831 174.394 140.214C173.266 139.38 172.885 138.753 172.548 137.419C169.868 137.337 168.251 137.496 165.988 137.902C165.608 137.97 165.208 138.045 164.783 138.128C165.18 138.315 165.535 138.499 165.853 138.687C167.176 139.469 167.863 140.322 168.283 141.804C168.376 142.131 168.456 142.488 168.526 142.882L169.276 141.585C169.347 141.985 169.42 142.356 169.497 142.7ZM168.785 140.936L169.654 139.431L170.014 141.454C170.333 143.253 170.686 144.362 171.145 145.179C171.478 145.773 171.884 146.241 172.43 146.721C172.838 146.057 173.117 145.41 173.307 144.629C173.549 143.635 173.652 142.394 173.647 140.584C173.191 140.218 172.832 139.851 172.546 139.413C172.297 139.03 172.121 138.619 171.975 138.154C169.991 138.116 168.604 138.229 166.93 138.5C167.327 138.794 167.672 139.115 167.968 139.486C168.313 139.917 168.577 140.395 168.785 140.936Z" fill="white"/>
<path fill-rule="evenodd" clip-rule="evenodd" d="M212.331 167.413C209.938 168.166 208.614 168.11 207.044 167.562C206.817 167.483 206.584 167.393 206.343 167.294C206.45 167.058 206.558 166.834 206.672 166.62C207.614 164.84 208.884 163.709 212.037 161.932C213.324 162.491 214.057 162.508 215.382 162.133C216.794 164.411 217.464 165.889 218.244 168.05C218.375 168.414 218.509 168.797 218.651 169.207C218.289 168.957 217.952 168.742 217.63 168.56C216.291 167.807 215.208 167.638 213.714 168.016C213.385 168.099 213.035 168.208 212.659 168.344L213.408 167.047C213.026 167.186 212.668 167.307 212.331 167.413ZM214.216 167.147L215.085 165.643L213.153 166.343C211.434 166.966 210.296 167.215 209.359 167.227C208.677 167.235 208.069 167.118 207.38 166.886C207.751 166.201 208.173 165.635 208.754 165.08C209.495 164.374 210.519 163.664 212.089 162.764C212.634 162.975 213.133 163.103 213.655 163.13C214.112 163.155 214.556 163.102 215.032 162.995C216.056 164.694 216.652 165.951 217.254 167.535C216.801 167.338 216.35 167.2 215.881 167.129C215.335 167.046 214.789 167.057 214.216 167.147Z" fill="white"/>
<path fill-rule="evenodd" clip-rule="evenodd" d="M191.222 139.546L180.025 138.707C181.588 139.118 182.984 139.47 184.315 139.779C188.112 140.66 191.376 141.186 196.464 141.706C197.117 140.411 197.461 139.665 198.013 138.276C195.84 137.021 194.407 136.343 191.998 135.479C191.728 135.382 191.445 135.283 191.148 135.18C191.231 135.491 191.302 135.778 191.359 136.047C191.636 137.344 191.608 138.232 191.222 139.546ZM192.179 136.341C192.243 136.717 192.282 137.074 192.291 137.43C192.309 138.195 192.189 138.912 191.941 139.757L191.77 140.338L190.893 140.272C192.431 140.501 194.095 140.705 196.026 140.908C196.436 140.079 196.723 139.457 197.073 138.602C195.371 137.643 194.086 137.043 192.179 136.341ZM146.565 204.517C146.173 203.119 145.725 201.691 145.226 200.1L145.212 200.055C145.168 199.917 145.124 199.777 145.08 199.636C145.05 199.54 145.02 199.444 144.99 199.347L145.037 199.643C145.328 201.463 145.593 203.118 145.831 204.674C146.657 210.073 147.161 214.281 147.322 220.024C147.335 220.493 147.346 220.973 147.354 221.465L148.478 219.519C148.399 212.506 147.723 208.641 146.565 204.517Z" fill="white"/>
<path fill-rule="evenodd" clip-rule="evenodd" d="M204.202 147.036L210.528 156.306C209.39 155.159 208.386 154.127 207.453 153.129C204.791 150.284 202.703 147.723 199.709 143.579C200.505 142.367 200.979 141.696 201.907 140.523C204.081 141.777 205.385 142.678 207.339 144.33C207.558 144.516 207.785 144.71 208.022 144.916C207.711 145 207.428 145.082 207.166 145.167C205.903 145.576 205.148 146.044 204.202 147.036ZM206.5 144.605C206.143 144.737 205.814 144.882 205.501 145.053C204.829 145.419 204.267 145.882 203.659 146.519L203.241 146.957L203.737 147.683C202.77 146.466 201.76 145.128 200.62 143.559C201.132 142.789 201.529 142.23 202.094 141.499C203.776 142.493 204.939 143.306 206.5 144.605ZM170.225 218.168C171.633 217.808 173.094 217.482 174.722 217.119L174.768 217.108C174.91 217.077 175.053 217.045 175.197 217.013C175.295 216.991 175.394 216.969 175.493 216.947L175.213 217.054C173.49 217.711 171.923 218.31 170.455 218.882C165.364 220.866 161.464 222.534 156.408 225.266C155.994 225.49 155.573 225.721 155.142 225.959L156.266 224.013C162.384 220.575 166.071 219.228 170.225 218.168Z" fill="white"/>
<path fill-rule="evenodd" clip-rule="evenodd" d="M230.566 71.4477L227.92 70.7857C227.343 71.6643 227.033 72.2725 226.76 73.16C226.692 73.3833 226.625 73.6242 226.558 73.8915C226.829 73.9197 227.077 73.952 227.306 73.9897C228.438 74.1757 229.143 74.4943 230.178 75.1151C232.066 72.3368 234.201 71.9076 237.444 71.5248L238.294 68.5561L236.384 69.6158L235.46 68.2184C233.641 69.2681 232.572 69.9737 230.566 71.4477ZM235.226 69.2225C233.782 70.0753 232.762 70.7639 231.01 72.0511L230.726 72.2597L228.262 71.6435C227.922 72.2015 227.706 72.6627 227.512 73.265C227.963 73.3429 228.364 73.4437 228.752 73.5792C229.171 73.7258 229.561 73.9082 229.968 74.1301C230.874 72.9654 231.864 72.2225 233.008 71.7331C234.162 71.2399 235.443 71.0191 236.86 70.8412L237.076 70.0884L236.141 70.6072L235.226 69.2225Z" fill="white"/>
<path fill-rule="evenodd" clip-rule="evenodd" d="M243.546 78.9362L245.443 80.8953C244.97 81.8338 244.598 82.4063 243.965 83.0859C243.806 83.2568 243.63 83.4346 243.432 83.6266C243.272 83.406 243.12 83.2081 242.973 83.0282C242.246 82.1413 241.617 81.6909 240.562 81.1058C242.025 78.0822 241.33 76.0204 240.04 73.0221L242.188 70.8023L242.225 72.9854L243.897 73.0857C243.897 75.1847 243.82 76.4627 243.546 78.9362ZM243.145 73.7908C243.127 75.4664 243.041 76.6938 242.801 78.8537L242.762 79.2038L244.528 81.0276C244.214 81.6008 243.923 82.0189 243.498 82.4873C243.205 82.1362 242.917 81.8397 242.606 81.572C242.269 81.2822 241.916 81.0362 241.521 80.7951C242.077 79.4287 242.226 78.2004 242.078 76.9653C241.928 75.7203 241.479 74.5012 240.924 73.1856L241.469 72.6226L241.487 73.6914L243.145 73.7908Z" fill="white"/>
<path fill-rule="evenodd" clip-rule="evenodd" d="M238.93 71.9493L242.101 69.4554C242.489 68.2735 242.632 67.4695 242.668 66.3199C242.676 66.0557 242.678 65.7732 242.677 65.4637C242.402 65.6091 242.155 65.7459 241.927 65.8796C240.923 66.4685 240.303 66.9997 239.505 67.9576L238.93 71.9493ZM239.938 70.203L241.458 69.0084C241.717 68.1832 241.843 67.5538 241.896 66.7778C241.244 67.2003 240.775 67.6243 240.216 68.2766L239.938 70.203Z" fill="white"/>
<path fill-rule="evenodd" clip-rule="evenodd" d="M221.901 75.9607C221.139 75.6867 220.61 75.6827 219.915 75.886C219.698 75.9493 219.466 76.0328 219.205 76.1345C219.314 76.371 219.415 76.5991 219.508 76.8202C220.437 79.0334 220.556 80.5512 220.223 82.8172C220.187 83.0589 220.146 83.3092 220.101 83.5697C220.356 83.5616 220.61 83.5599 220.862 83.564C224.019 83.6163 226.983 84.5978 230.037 85.8432L232.285 81.9519C232.02 81.4199 231.673 80.8842 231.326 80.3484C230.622 79.26 229.918 78.171 229.89 77.111C228.087 76.3383 227.045 76.1021 225.059 76.4857L222.838 74.3393L221.901 75.9607ZM223.007 75.5444L222.237 76.8775L221.647 76.6653C221.221 76.5121 220.932 76.475 220.653 76.4985C220.521 76.5097 220.381 76.5354 220.219 76.5786C220.694 77.7195 220.975 78.7155 221.086 79.7371C221.193 80.7228 221.139 81.7014 220.98 82.8173C224.025 82.887 226.874 83.7785 229.713 84.9056L231.429 81.9362C231.22 81.5627 230.982 81.195 230.729 80.8056C230.545 80.5218 230.354 80.2263 230.161 79.9087C229.747 79.228 229.334 78.4517 229.191 77.6307C228.507 77.3531 227.97 77.1842 227.435 77.1057C226.808 77.0138 226.14 77.0398 225.201 77.221L224.819 77.2949L223.007 75.5444Z" fill="white"/>
<path fill-rule="evenodd" clip-rule="evenodd" d="M243.967 88.6916C244.586 89.2137 244.854 89.6695 245.025 90.3729C245.079 90.5921 245.123 90.8353 245.165 91.1121C244.905 91.1356 244.657 91.1623 244.419 91.1926C242.037 91.495 240.662 92.1509 238.865 93.5723C238.673 93.724 238.476 93.8843 238.273 94.0539C238.153 93.829 238.027 93.6085 237.898 93.3921C236.274 90.6869 233.941 88.6118 231.335 86.5918L233.583 82.7005C234.177 82.6644 234.815 82.6964 235.452 82.7285C236.748 82.7936 238.044 82.8587 238.976 82.3529C240.547 83.5267 241.273 84.3103 241.933 86.221L244.904 87.0702L243.967 88.6916ZM243.775 87.5264L243.005 88.8595L243.484 89.2636C243.83 89.5556 244.006 89.7875 244.125 90.0402C244.182 90.1602 244.23 90.2945 244.273 90.4563C243.047 90.6154 242.043 90.8707 241.102 91.2854C240.195 91.6855 239.374 92.2217 238.486 92.9171C236.903 90.3168 234.706 88.2964 232.31 86.403L234.025 83.4337C234.453 83.428 234.891 83.4503 235.355 83.474C235.693 83.4912 236.044 83.5092 236.416 83.5174C237.213 83.5352 238.093 83.5048 238.875 83.2173C239.458 83.6707 239.873 84.0514 240.208 84.4753C240.601 84.9715 240.913 85.5629 241.225 86.4656L241.353 86.8338L243.775 87.5264Z" fill="white"/>
<path fill-rule="evenodd" clip-rule="evenodd" d="M225.893 79.0262C225.674 80.0398 225.643 80.7816 225.726 81.861C226.656 82.0294 227.564 82.3799 228.357 82.7589L228.947 81.7376C228.852 81.5101 228.746 81.2921 228.633 81.0596C228.543 80.8736 228.448 80.6784 228.351 80.4615C228.175 80.0709 228.002 79.6307 227.923 79.1512C227.176 78.995 226.629 78.9571 225.893 79.0262ZM228.629 78.5447C227.323 78.225 226.59 78.1645 225.283 78.344C224.887 79.9267 224.867 80.8475 225.032 82.5229C226.29 82.6286 227.591 83.1831 228.652 83.7466L229.776 81.8009C229.638 81.416 229.46 81.047 229.285 80.6852C228.938 79.9665 228.604 79.2759 228.629 78.5447Z" fill="white"/>
<path fill-rule="evenodd" clip-rule="evenodd" d="M239.314 86.7697C238.545 87.4657 237.918 87.8636 236.941 88.3318C236.33 87.611 235.573 87.0005 234.847 86.5034L235.438 85.4821C235.683 85.4512 235.924 85.4337 236.182 85.415C236.388 85.4 236.605 85.3843 236.842 85.3604C237.268 85.3174 237.736 85.2472 238.191 85.0758C238.7 85.6439 239.006 86.0982 239.314 86.7697ZM238.364 84.1614C239.294 85.1318 239.713 85.7358 240.211 86.9563C239.037 88.091 238.249 88.5682 236.714 89.263C235.994 88.227 234.863 87.3787 233.844 86.7422L234.968 84.7965C235.371 84.7233 235.78 84.6932 236.181 84.6637C236.977 84.605 237.743 84.5487 238.364 84.1614Z" fill="white"/>
<path fill-rule="evenodd" clip-rule="evenodd" d="M222.262 78.3307L221.613 77.9563C221.706 78.3191 221.781 78.6451 221.838 78.9508C221.99 79.7556 222.023 80.4189 221.956 81.2386C221.937 81.4762 221.91 81.727 221.874 81.9982C222.166 81.9684 222.401 81.9605 222.633 81.9724C222.687 81.9752 222.741 81.979 222.795 81.984C223.021 82.0044 223.256 82.0432 223.547 82.0985C223.541 81.8249 223.539 81.5745 223.542 81.3358C223.552 80.4203 223.641 79.6741 223.935 78.4311L223.012 77.0336L222.262 78.3307ZM223.054 78.4575L222.637 79.1795C222.743 79.8722 222.763 80.4963 222.709 81.2266C222.737 81.2282 222.765 81.2302 222.794 81.2323C222.809 80.388 222.891 79.6569 223.133 78.5759L223.054 78.4575Z" fill="white"/>
<path fill-rule="evenodd" clip-rule="evenodd" d="M241.733 89.5643L242.382 89.9387C242.021 90.0399 241.701 90.1383 241.407 90.2414C240.634 90.5127 240.043 90.8158 239.366 91.283C239.169 91.4184 238.966 91.5676 238.748 91.7339C238.628 91.4664 238.518 91.2589 238.391 91.0644C238.362 91.019 238.332 90.9743 238.3 90.9297C238.17 90.7443 238.019 90.5609 237.825 90.3364C238.065 90.2044 238.283 90.0814 238.489 89.9596C239.277 89.4925 239.879 89.0428 240.809 88.1668L242.482 88.2672L241.733 89.5643ZM241.227 88.9421L240.81 89.6642C240.156 89.9189 239.605 90.2133 239 90.6258C238.984 90.602 238.968 90.5785 238.952 90.5551C239.677 90.12 240.269 89.683 241.085 88.9336L241.227 88.9421Z" fill="white"/>
<path fill-rule="evenodd" clip-rule="evenodd" d="M153.371 202.368L154.058 202.069L158.226 211.634L168.599 210.459L168.684 211.203L157.76 212.441L153.371 202.368Z" fill="white"/>
<path fill-rule="evenodd" clip-rule="evenodd" d="M177.334 177.365L177.404 178.441L178.37 177.963L178.301 176.888L177.334 177.365ZM176.554 176.915L176.728 179.61L179.151 178.413L178.977 175.719L176.554 176.915Z" fill="white"/>
<path fill-rule="evenodd" clip-rule="evenodd" d="M174.855 182.852L172.634 180.706L172.981 186.095L177.826 183.702L174.855 182.852ZM175.756 183.889L174.469 183.521L173.506 182.591L173.657 184.926L175.756 183.889Z" fill="white"/>
<path fill-rule="evenodd" clip-rule="evenodd" d="M146.194 227.967L82.229 338.681C80.3977 341.851 80.3213 344.311 80.6097 345.977C82.1976 345.394 84.2918 344.097 86.123 340.928L150.088 230.213L150.087 230.179C150.027 228.824 149.989 227.975 149.605 226.557C148.184 226.933 147.429 227.325 146.225 227.951L146.194 227.967ZM150.124 225.658C150.723 227.603 150.765 228.565 150.836 230.152L150.847 230.399L86.772 341.302C84.8061 344.705 82.5169 346.095 80.7704 346.715C80.5196 346.804 80.2801 346.878 80.0542 346.939C79.9942 346.713 79.9378 346.469 79.8896 346.207C79.5539 344.386 79.614 341.709 81.58 338.307L145.655 227.403L145.874 227.289C147.284 226.557 148.139 226.113 150.124 225.658Z" fill="white"/>
<path fill-rule="evenodd" clip-rule="evenodd" d="M225.441 93.7977C225.681 93.8601 225.929 93.9278 226.19 94.0005C226.383 94.1891 226.565 94.3704 226.739 94.5466C227.417 95.2333 227.956 95.8437 228.418 96.5203C228.987 97.3541 229.438 98.2885 229.883 99.5903C229.317 98.5725 228.645 97.7391 227.846 97.0125C227.147 96.3763 226.349 95.822 225.44 95.2976C224.531 94.7731 223.652 94.3602 222.751 94.0727C221.721 93.7443 220.663 93.5795 219.499 93.5991C220.849 93.3334 221.884 93.2563 222.891 93.3318C223.709 93.3931 224.507 93.5548 225.441 93.7977Z" fill="white"/>
<path fill-rule="evenodd" clip-rule="evenodd" d="M220.945 101.58C221.184 101.642 221.433 101.71 221.693 101.783C221.886 101.971 222.069 102.153 222.243 102.329C222.92 103.016 223.46 103.626 223.922 104.303C224.49 105.136 224.941 106.071 225.386 107.372C224.821 106.355 224.149 105.521 223.35 104.795C222.65 104.159 221.853 103.604 220.944 103.08C220.035 102.555 219.156 102.142 218.254 101.855C217.225 101.527 216.167 101.362 215.002 101.381C216.353 101.116 217.388 101.039 218.395 101.114C219.212 101.175 220.011 101.337 220.945 101.58Z" fill="white"/>
<path fill-rule="evenodd" clip-rule="evenodd" d="M216.448 109.363C216.688 109.426 216.937 109.493 217.197 109.566C217.39 109.755 217.573 109.936 217.746 110.112C218.424 110.799 218.963 111.409 219.425 112.086C219.994 112.92 220.445 113.854 220.89 115.156C220.324 114.138 219.653 113.305 218.853 112.578C218.154 111.942 217.356 111.387 216.447 110.863C215.538 110.339 214.659 109.926 213.758 109.638C212.729 109.31 211.67 109.145 210.506 109.165C211.856 108.899 212.892 108.822 213.899 108.897C214.716 108.959 215.515 109.12 216.448 109.363Z" fill="white"/>
<path fill-rule="evenodd" clip-rule="evenodd" d="M211.952 117.145C212.192 117.208 212.44 117.275 212.7 117.348C212.893 117.537 213.076 117.718 213.25 117.894C213.927 118.581 214.467 119.191 214.929 119.868C215.498 120.702 215.948 121.636 216.393 122.938C215.828 121.92 215.156 121.087 214.357 120.36C213.657 119.724 212.86 119.17 211.951 118.645C211.042 118.121 210.163 117.708 209.261 117.42C208.232 117.092 207.174 116.927 206.009 116.947C207.36 116.681 208.395 116.604 209.402 116.679C210.219 116.741 211.018 116.902 211.952 117.145Z" fill="white"/>
<path fill-rule="evenodd" clip-rule="evenodd" d="M207.455 124.929C207.695 124.991 207.944 125.059 208.204 125.131C208.397 125.32 208.58 125.501 208.753 125.677C209.431 126.364 209.97 126.975 210.432 127.651C211.001 128.485 211.452 129.419 211.897 130.721C211.332 129.703 210.66 128.87 209.86 128.143C209.161 127.507 208.363 126.953 207.454 126.428C206.545 125.904 205.666 125.491 204.765 125.204C203.736 124.875 202.677 124.71 201.513 124.73C202.863 124.464 203.899 124.387 204.906 124.463C205.723 124.524 206.522 124.686 207.455 124.929Z" fill="white"/>
<path fill-rule="evenodd" clip-rule="evenodd" d="M288.433 388.303C288.812 387.867 288.93 387.515 288.93 387.233C288.93 386.952 288.812 386.599 288.433 386.164C288.05 385.722 287.438 385.243 286.56 384.742C284.805 383.739 282.157 382.742 278.665 381.777C271.695 379.851 261.567 378.106 249.002 376.638C223.884 373.702 189.159 371.883 150.785 371.883C126.191 371.883 103.096 372.63 83.0673 373.94V373.035C103.106 371.726 126.201 370.98 150.785 370.98C227.579 370.98 289.833 378.257 289.833 387.233L289.833 387.244V394.446L289.833 394.457C289.833 403.433 227.579 410.71 150.785 410.71C73.9915 410.71 11.7378 403.433 11.7378 394.457V394.457V387.233V387.233C11.7378 383.083 25.0479 379.296 46.9511 376.423V377.334C36.9652 378.647 28.8043 380.147 22.9053 381.777C19.4133 382.742 16.766 383.739 15.0106 384.742C14.1327 385.243 13.5208 385.722 13.1373 386.164C12.7589 386.599 12.6407 386.952 12.6407 387.233V387.233C12.6407 387.515 12.7589 387.867 13.1373 388.303C13.5208 388.744 14.1327 389.223 15.0106 389.725C16.766 390.727 19.4133 391.724 22.9053 392.689C29.8754 394.615 40.0035 396.36 52.5687 397.829C77.6868 400.765 112.412 402.583 150.785 402.583C189.159 402.583 223.884 400.765 249.002 397.829C261.567 396.36 271.695 394.615 278.665 392.689C282.157 391.724 284.805 390.727 286.56 389.725C287.438 389.223 288.05 388.744 288.433 388.303ZM150.785 403.486C222.191 403.486 281.025 397.195 288.93 389.096V392.594V394.457C288.93 394.739 288.812 395.091 288.433 395.526C288.05 395.968 287.438 396.447 286.56 396.948C284.805 397.951 282.157 398.948 278.665 399.913C271.695 401.839 261.567 403.584 249.002 405.052C223.884 407.988 189.159 409.807 150.785 409.807C112.412 409.807 77.6868 407.988 52.5687 405.052C40.0035 403.584 29.8754 401.839 22.9053 399.913C19.4133 398.948 16.766 397.951 15.0106 396.948C14.1327 396.447 13.5208 395.968 13.1373 395.526C12.7589 395.091 12.6407 394.739 12.6407 394.457V394.456V392.594L12.6407 389.096C20.5451 397.195 79.3795 403.486 150.785 403.486Z" fill="white"/>
</svg>
