<svg width="132" height="132" viewBox="0 0 132 132" fill="none" xmlns="http://www.w3.org/2000/svg">
<path fill-rule="evenodd" clip-rule="evenodd" d="M84.6756 128.686C78.758 130.446 72.4894 131.392 66 131.392C64.8714 131.392 63.7495 131.363 62.635 131.307C57.2713 131.035 52.0781 130.117 47.1317 128.628C20.2155 120.531 0.60833 95.555 0.60833 66.0001C0.60833 61.4108 1.0811 56.9319 1.98058 52.6095C1.99372 52.5463 2.00696 52.4831 2.0203 52.42C2.03828 52.3348 2.05643 52.2498 2.07475 52.1648C8.42268 22.6948 34.6321 0.608398 66 0.608398C84.4571 0.608398 101.128 8.25522 113.018 20.5536C114.396 21.9793 115.71 23.4674 116.956 25.0135C117.413 25.5818 117.862 26.1579 118.301 26.7416C126.52 37.6747 131.392 51.2685 131.392 66.0001C131.392 95.6255 111.691 120.65 84.6756 128.686ZM92.0682 116.168C84.2682 120.229 75.4022 122.525 66 122.525C52.0727 122.525 39.3219 117.488 29.4698 109.136C41.4774 92.7673 58.712 80.472 78.7143 74.7095C84.106 88.0886 88.5829 101.934 92.0682 116.168ZM122.126 72.7525C120.252 88.4912 111.912 102.245 99.8367 111.283C96.4702 98.0609 92.2696 85.1726 87.2952 72.6759C92.8731 71.632 98.6268 71.0861 104.508 71.0861C110.532 71.0861 116.421 71.6587 122.126 72.7525ZM111.656 32.6683C118.115 41.4993 122.073 52.2742 122.489 63.9512C116.652 62.9103 110.644 62.3672 104.508 62.3672C97.4432 62.3672 90.5466 63.0874 83.8882 64.4584C81.9933 60.065 80.0011 55.7231 77.9158 51.4355C89.9979 46.5971 101.321 40.2652 111.656 32.6683ZM105.966 26.0276C96.1622 33.1653 85.4269 39.1005 73.9763 43.6163C68.037 32.2229 61.4236 21.2369 54.189 10.7109C57.9982 9.90114 61.9494 9.47507 66 9.47507C81.6073 9.47507 95.7372 15.8005 105.966 26.0276ZM10.9063 53.3047C15.1084 34.9943 28.2039 20.0778 45.4032 13.3449C52.839 23.9558 59.6212 35.0582 65.6916 46.5935C51.604 51.173 36.5672 53.6483 20.9524 53.6483C17.5754 53.6483 14.2254 53.5325 10.9063 53.3047ZM23.2126 102.938C14.6525 93.0313 9.475 80.1203 9.475 66.0001C9.475 64.6398 9.52305 63.2907 9.61754 61.9545C13.3601 62.228 17.14 62.3672 20.9524 62.3672C37.9892 62.3672 54.3768 59.5882 69.6869 54.4587C71.6493 58.4635 73.5273 62.5172 75.3176 66.6176C54.2831 72.9081 36.1077 85.822 23.2126 102.938Z" fill="#CA3E73"/>
</svg>
