<svg width="116" height="133" viewBox="0 0 116 133" fill="none" xmlns="http://www.w3.org/2000/svg">
<path fill-rule="evenodd" clip-rule="evenodd" d="M7.89106 23.4375H57.5786V132.75H5.13064C-0.942274 132.75 0.161893 127.781 0.161893 127.781L7.89106 23.4375ZM107.266 23.4375H57.5786V132.75H110.026C116.099 132.75 114.995 127.781 114.995 127.781L107.266 23.4375Z" fill="#4470C1"/>
<path fill-rule="evenodd" clip-rule="evenodd" d="M7.89111 23.4375H57.5786H107.266L95.1203 11.2917L106.162 0.25H57.5786H8.99528L20.0369 11.2917L7.89111 23.4375Z" fill="#3D5D97"/>
<path fill-rule="evenodd" clip-rule="evenodd" d="M8.99528 0.25L7.89111 23.4375H21.1411V11.2917L10.0994 0.25H8.99528ZM106.162 0.25L107.266 23.4375H94.0161V11.2917L105.058 0.25H106.162Z" fill="#4470C1"/>
<path fill-rule="evenodd" clip-rule="evenodd" d="M21.1411 11.292V23.4378H7.89111L21.1411 11.292ZM94.0161 11.292V23.4378H107.266L94.0161 11.292Z" fill="#5386E4"/>
<path fill-rule="evenodd" clip-rule="evenodd" d="M29.9744 46.6253C32.4137 46.6253 34.3911 44.6479 34.3911 42.2087C34.3911 39.7694 32.4137 37.792 29.9744 37.792C27.5351 37.792 25.5577 39.7694 25.5577 42.2087C25.5577 44.6479 27.5351 46.6253 29.9744 46.6253ZM85.1827 46.6253C82.7435 46.6253 80.7661 44.6479 80.7661 42.2087C80.7661 39.7694 82.7435 37.792 85.1827 37.792C87.622 37.792 89.5994 39.7694 89.5994 42.2087C89.5994 44.6479 87.622 46.6253 85.1827 46.6253Z" fill="#8A0B0B"/>
<path d="M27.7661 42.2083C27.7661 43.428 28.7548 44.4167 29.9744 44.4167C31.194 44.4167 32.1827 43.428 32.1827 42.2083C32.1827 40.9887 31.194 40 29.9744 40C28.7548 40 27.7661 40.9887 27.7661 42.2083Z" fill="white"/>
<path fill-rule="evenodd" clip-rule="evenodd" d="M87.3911 42.2119C87.39 67.6055 75.2444 81.9583 57.5786 81.9583C39.9119 81.9583 27.7661 67.6042 27.7661 42.2083H32.1828C32.1828 60.9792 39.9119 77.5417 57.5786 77.5417C75.2453 77.5417 82.9744 60.9792 82.9744 42.2083C82.9744 40.9887 83.9632 40 85.1828 40C86.4024 40 87.3911 40.9887 87.3911 42.2083C87.3911 42.2095 87.3911 42.2107 87.3911 42.2119Z" fill="white"/>
</svg>
