<svg width="135" height="125" viewBox="0 0 135 125" fill="none" xmlns="http://www.w3.org/2000/svg">
<path d="M2.05007 84.7756C2.05007 84.7756 1.91707 91.5142 8.65573 95.3712C15.3944 99.2393 17.1234 104.105 17.1234 104.105C17.1234 104.105 19.1073 111.752 26.0233 111.265C32.9282 110.766 29.5257 118.314 37.0623 117.992C44.599 117.671 43.9562 121.218 51.5039 120.896C59.0517 120.575 53.1221 119.987 62.1772 122.78C71.2433 125.584 80.6974 124.421 81.9055 123.733C83.1025 123.046 89.0764 122.293 91.5923 122.98C94.1193 123.667 96.9899 125.551 101.833 123.944C106.677 122.337 110.999 116.396 114.346 115.277C117.694 114.157 119.556 112.284 118.447 108.937C117.328 105.579 122.415 107.64 122.171 98.7738C121.927 89.8961 129.353 94.9612 126.627 85.0748C123.889 75.1885 133.155 72.2847 128.644 67.6629C124.133 63.0522 137.067 62.8417 134.363 55.3272C131.67 47.8237 137.688 44.3768 132.8 38.6467C127.923 32.9167 126.848 30.0128 126.848 30.0128C126.848 30.0128 126.66 24.7482 119.622 23.5512C113.493 22.5094 111.265 20.3814 110.966 18.9517C110.678 17.5219 109.658 15.5602 107.852 14.7289C106.045 13.8977 102.354 14.8508 100.636 13.7092C98.9184 12.5566 94.9727 6.56049 86.6491 8.18974C80.0656 7.21441 75.9094 1.17399 71.864 4.82041C67.8297 8.46682 66.0563 -0.555011 59.7832 1.69491C52.3906 4.35491 50.6616 -1.95151 45.2751 1.66166C39.8886 5.27482 32.629 -0.422011 30.5121 6.11716C28.3952 12.6563 21.5124 11.8029 21.9225 19.0292C22.3326 26.2556 16.935 26.1447 16.0926 33.0275C15.2392 39.9102 15.8156 50.5613 10.3182 53.8198C4.8209 57.0672 8.42298 59.0622 7.05973 65.812C5.69648 72.5507 8.0794 72.5174 4.89848 76.7402C1.71757 80.9629 -1.86235 81.6833 2.03898 84.7756H2.05007Z" fill="white"/>
</svg>
