<svg width="139" height="129" viewBox="0 0 139 129" fill="none" xmlns="http://www.w3.org/2000/svg">
<path d="M4.05007 86.7756C4.05007 86.7756 3.91707 93.5142 10.6557 97.3712C17.3944 101.239 19.1234 106.105 19.1234 106.105C19.1234 106.105 21.1073 113.752 28.0233 113.265C34.9282 112.766 31.5257 120.314 39.0623 119.992C46.599 119.671 45.9562 123.218 53.5039 122.896C61.0517 122.575 55.1221 121.987 64.1772 124.78C73.2433 127.584 82.6974 126.421 83.9055 125.733C85.1025 125.046 91.0764 124.293 93.5923 124.98C96.1193 125.667 98.9899 127.551 103.833 125.944C108.677 124.337 112.999 118.396 116.346 117.277C119.694 116.157 121.556 114.284 120.447 110.937C119.328 107.579 124.415 109.64 124.171 100.774C123.927 91.8961 131.353 96.9612 128.627 87.0748C125.889 77.1885 135.155 74.2847 130.644 69.6629C126.133 65.0522 139.067 64.8417 136.363 57.3272C133.67 49.8237 139.688 46.3768 134.8 40.6467C129.923 34.9167 128.848 32.0128 128.848 32.0128C128.848 32.0128 128.66 26.7482 121.622 25.5512C115.493 24.5094 113.265 22.3814 112.966 20.9517C112.678 19.5219 111.658 17.5602 109.852 16.7289C108.045 15.8977 104.354 16.8508 102.636 15.7092C100.918 14.5566 96.9727 8.56049 88.6491 10.1897C82.0656 9.21441 77.9094 3.17399 73.864 6.82041C69.8297 10.4668 68.0563 1.44499 61.7832 3.69491C54.3906 6.35491 52.6616 0.0484893 47.2751 3.66166C41.8886 7.27482 34.629 1.57799 32.5121 8.11716C30.3952 14.6563 23.5124 13.8029 23.9225 21.0292C24.3326 28.2556 18.935 28.1447 18.0926 35.0275C17.2392 41.9102 17.8156 52.5613 12.3182 55.8198C6.8209 59.0672 10.423 61.0622 9.05973 67.812C7.69648 74.5507 10.0794 74.5174 6.89848 78.7402C3.71757 82.9629 0.137647 83.6833 4.03898 86.7756H4.05007Z" fill="white"/>
<path d="M31.4592 12.8608C31.4592 12.8608 33.953 7.25266 35.8039 7.33024C37.6659 7.40782 41.4121 9.77966 44.2826 8.22799C47.1532 6.66524 48.1507 5.02491 51.3649 6.01132C54.5791 6.99774 59.2451 8.41641 61.8941 7.56299C64.543 6.70957 68.1894 8.62699 69.065 9.23657C69.9295 9.85724 72.1461 10.3006 73.188 10.2673C74.2298 10.2341 75.7815 8.79324 76.7346 8.67132C77.6878 8.54941 78.7407 9.25874 80.2591 10.1454C81.7776 11.0321 85.9006 13.7364 90.4669 13.0825C95.0221 12.4175 97.9149 13.6921 97.8373 14.6563C97.7486 15.6206 98.2031 17.5491 102.991 18.0035C107.779 18.4579 108.366 19.0897 109.076 19.6217C109.785 20.1537 111.969 19.4997 112.146 19.1118C112.323 18.7128 113.143 15.676 111.437 15.6982C109.73 15.7314 108.034 16.1858 102.936 14.5677C97.8262 12.9495 93.3596 9.63557 92.0851 9.38066C90.8105 9.12574 86.0447 8.26124 84.7146 8.52724C83.3846 8.79324 81.7 6.31057 79.8491 6.21082C77.9981 6.11107 77.1226 4.16041 75.2273 5.24657C73.3321 6.33274 73.2434 5.73424 72.3235 6.55441C71.4036 7.37457 68.3113 5.05816 68.0231 5.05816C67.735 5.05816 65.3299 3.02991 63.8891 3.06316C62.4371 3.08532 60.8301 3.62841 59.9988 3.81682C59.1676 4.00524 56.1086 5.49041 54.7121 4.31557C53.3266 3.14074 48.0288 2.59766 48.0288 2.59766C48.0288 2.59766 45.7235 3.42891 44.8036 3.90549C43.8836 4.38207 39.6387 5.06924 38.3974 4.84757C37.1671 4.62591 35.1389 5.08032 34.7066 5.25766" fill="white"/>
<path d="M135.842 42.8087C135.842 42.8087 134.324 43.5069 133.06 44.6264C133.359 43.6621 133.37 42.8752 133.37 42.8752V38.9406L126.454 28.3782L121.611 25.5519L112.445 22.2269L110.084 16.8626L104.775 16.918L98.469 13.4046L95.1219 9.43678L89.9903 9.38136L86.1222 8.70528L78.7185 5.05886L71.9134 7.82969C71.9134 7.82969 66.8815 4.85936 67.4135 3.59586C67.9455 2.34345 66.0059 3.88403 63.5787 3.88403C61.1514 3.88403 55.2994 3.72886 53.9029 3.27445C52.5064 2.80895 49.2479 2.78678 48.6162 2.6427C47.9955 2.48753 42.7199 4.98128 40.8357 4.94803C38.9515 4.91478 34.8174 3.52936 34.097 5.67953C33.3988 7.72994 28.1342 9.80253 27.1589 13.9477C25.5629 14.8676 23.6898 16.6409 23.6344 16.9845C23.5568 17.4389 23.0802 21.1408 22.8031 23.8894L16.5854 39.5391C16.8846 46.4551 12.3183 55.8205 9.83561 57.9042C7.34186 59.9768 8.3172 76.4134 4.89245 81.013C1.47878 85.6125 4.05011 86.7652 6.54386 93.7809C6.93178 94.8671 7.53028 95.9754 8.26178 97.0727C11.1102 97.7931 13.5596 99.9544 15.876 101.672C17.7713 103.091 19.0459 104.92 19.3894 107.125C20.0434 107.413 20.4867 107.469 20.6086 107.247C20.664 107.469 20.7194 107.657 20.7638 107.812C21.329 109.597 22.0938 111.137 22.7144 111.681C23.3351 112.224 27.8682 112.279 29.4753 113.288C31.0934 114.296 33.9197 117.643 34.5293 118.464C35.1389 119.284 39.5944 121.556 41.146 117.965C42.6977 114.363 39.1178 112.479 30.1514 108.688C21.1739 104.898 22.8253 95.7094 22.8253 95.7094C22.8807 95.4656 22.9361 95.2107 22.9915 94.9558C23.0469 94.2464 22.8696 93.1824 21.5064 92.4731C19.2897 91.3315 17.9154 87.541 19.8993 88.2836C21.8832 89.0262 23.7119 91.6862 24.3659 89.3809C25.5629 84.9364 27.0702 80.4034 28.91 76.757C34.2633 66.1059 33.1217 57.5828 34.3298 56.685C35.3605 55.9092 34.1857 52.03 34.5847 47.907C34.629 47.774 35.0834 46.2445 36.1696 44.4379C36.1696 44.4379 36.7792 43.4404 35.161 42.6979C33.5429 41.9442 33.7867 38.8298 35.161 40.0822C36.5354 41.3235 36.9344 42.2324 38.1314 41.8666C40.2261 39.6832 43.3959 37.8766 48.0288 38.5194C58.3363 39.9381 62.2155 40.7472 58.5469 37.7879C59.6995 38.4419 60.7414 39.0293 60.9852 39.129C61.5726 39.3507 68.0896 39.2066 68.0896 39.2066L73.3985 36.2252L78.7074 40.0711C78.7074 40.0711 84.7479 44.4823 88.4608 46.2667C88.4608 46.2667 95.0443 46.0229 101.085 46.2667C107.114 46.5105 107.701 50.6224 110.938 50.833C111.78 50.8884 112.767 50.6557 113.864 50.2899L112.434 51.9857C112.434 51.9857 122.62 47.9846 124.437 55.1112C124.448 55.1666 124.459 55.2109 124.471 55.2664C124.471 55.2664 124.559 55.9535 125.468 55.8427C125.468 55.8427 125.479 55.8427 125.49 55.8427C125.734 55.7984 126 55.7873 126.255 55.8205C127.02 55.8759 127.751 56.1752 127.563 56.9843C127.308 58.0704 126.698 58.3697 125.668 58.8352C124.626 59.3007 124.615 59.6332 124.559 60.0322C123.927 65.6182 120.891 69.1759 117.178 67.6686C119.295 69.9961 124.858 77.5549 124.681 82.221C124.504 86.8871 125.435 98.037 127.319 94.2797C129.203 90.5225 130.733 77.3887 131.265 74.5292C131.808 71.6697 127.829 65.2303 129.17 65.7401C130.511 66.261 131.542 62.9471 133.404 62.7809C135.266 62.6146 135.432 52.7283 135.831 50.8441C136.23 48.9599 135.831 42.7976 135.831 42.7976L135.842 42.8087ZM123.218 48.5166C122.254 48.1176 121.179 47.9957 120.137 48.0289C120.724 47.8516 121.323 47.6964 121.932 47.5745C122.93 47.375 127.02 48.0733 128.017 48.1287C128.195 48.1287 128.372 48.1398 128.527 48.1287C126.876 48.8713 124.969 49.2481 123.218 48.5166Z" fill="#E6E7E8"/>
<path d="M44.8811 47.5965C43.7062 48.9487 47.3416 50.2122 48.7159 51.8969C47.131 50.988 44.5486 50.1568 43.9057 51.9745C43.0634 53.4485 45.2468 54.2687 46.599 55.0113C46.067 54.712 45.4131 54.3574 44.8922 53.9362C44.0055 53.4929 43.9057 51.9745 44.8811 51.3981C46.865 50.7553 48.5164 52.6727 50.3008 52.8057C49.658 50.8218 46.0559 50.057 46.9647 48.4721C48.6051 46.588 50.8661 49.9795 53.1492 50.0792C50.9991 48.195 46.7209 44.9365 44.87 47.5965H44.8811Z" fill="#E6E7E8"/>
<path d="M48.6384 105.363C45.8676 104.343 39.4614 101.218 40.6141 98.9122C41.7668 96.6069 48.4278 98.7017 49.8576 98.9233C51.2873 99.145 50.578 97.948 48.2838 96.7177C45.9895 95.4875 41.6559 93.6255 43.0413 90.5332C44.4268 87.4299 48.3946 89.4692 50.711 90.5332C50.711 90.5332 44.9034 87.2637 43.3074 88.7932C41.7224 90.3227 39.5501 93.0602 47.3084 97.3495C40.4589 94.7449 37.5108 96.3077 37.1339 98.7349C36.7571 101.162 39.2841 103.8 49.1926 106.759C51.7972 107.402 51.3982 106.394 48.6163 105.363H48.6384Z" fill="#E6E7E8"/>
<path d="M43.2408 76.2796C43.2408 76.2796 42.9748 76.0358 42.5869 75.5703C42.3874 75.3375 42.1657 75.0493 41.9219 74.6947C41.678 74.3511 41.4231 73.9299 41.1682 73.4755C40.9133 73.01 40.6805 72.478 40.4589 71.9017C40.2372 71.3143 40.0599 70.6714 39.9601 69.9621C39.8604 69.2528 39.8382 68.4769 39.9823 67.6678C40.1153 66.8588 40.4367 66.0386 40.9133 65.3182C41.4009 64.6088 42.0327 64.0214 42.7088 63.6003C42.875 63.5005 43.0413 63.4008 43.2186 63.301C43.3849 63.2234 43.5622 63.1348 43.7284 63.0572C43.9058 62.9685 44.0499 62.9131 44.1939 62.8577C44.338 62.8023 44.4821 62.7358 44.6262 62.6803C45.2025 62.4587 45.7567 62.237 46.2776 62.0375C46.8096 61.8491 47.3084 61.6607 47.7739 61.4944C49.6359 60.8294 50.9215 60.4858 50.9215 60.4858C51.2873 60.3861 51.6641 60.6078 51.7639 60.9735C51.8414 61.2617 51.7195 61.5609 51.4868 61.7161C51.4868 61.7161 50.3895 62.4698 48.6827 63.4562C48.2504 63.7 47.7849 63.966 47.2973 64.2431C46.7985 64.5091 46.2776 64.7862 45.7345 65.0854C45.6015 65.163 45.4574 65.2295 45.3244 65.296C45.1804 65.3625 45.0363 65.4401 44.9365 65.5066L44.604 65.695L44.2937 65.9167C43.9058 66.227 43.5622 66.5595 43.3294 66.9363C42.8418 67.6789 42.6977 68.6543 42.7642 69.685C42.7974 70.1948 42.8861 70.7158 42.9859 71.2034C43.0856 71.7022 43.2297 72.1677 43.3516 72.611C43.4846 73.0543 43.6287 73.4533 43.7395 73.8191C43.8725 74.1848 43.9834 74.4952 44.0831 74.7501C44.2826 75.2599 44.3934 75.5592 44.3934 75.5592C44.5264 75.936 44.3491 76.335 43.9944 76.468C43.7395 76.5678 43.4625 76.5013 43.274 76.335L43.2408 76.2796Z" fill="black"/>
<path d="M102.914 87.5851C102.914 87.5851 102.936 87.4632 102.98 87.2193C103.024 86.9866 103.102 86.6652 103.202 86.2551C103.412 85.4349 103.745 84.2823 104.321 82.9301C104.609 82.254 104.964 81.5336 105.418 80.791C105.873 80.0484 106.438 79.2948 107.169 78.6076C107.901 77.9204 108.832 77.2887 109.929 76.9783C111.015 76.6458 112.201 76.6458 113.265 76.8786L113.664 76.9783C113.775 77.0116 113.875 77.0338 114.008 77.0781C114.285 77.1889 114.595 77.2887 114.85 77.4106C115.105 77.5436 115.36 77.6655 115.593 77.8318L115.947 78.0756L116.269 78.3527C117.133 79.0953 117.721 80.0595 118.098 80.9794C118.475 81.9104 118.674 82.8414 118.774 83.6948C118.874 84.5593 118.896 85.3573 118.873 86.0888C118.829 87.5629 118.652 88.7488 118.497 89.5801C118.419 89.9902 118.353 90.3227 118.297 90.5443C118.242 90.7771 118.209 90.9101 118.209 90.9101C118.031 91.5751 117.344 91.9741 116.679 91.7968C116.014 91.6194 115.615 90.9323 115.792 90.2673C115.792 90.2894 115.903 89.8793 116.036 89.1368C116.169 88.3942 116.335 87.3191 116.358 86.0445C116.38 84.781 116.291 83.2737 115.748 81.9548C115.482 81.3008 115.105 80.7134 114.595 80.2812L114.407 80.1149L114.196 79.9819C114.063 79.8822 113.897 79.8157 113.753 79.727C113.598 79.6494 113.465 79.6162 113.321 79.5497C113.232 79.5164 113.11 79.4943 112.999 79.461L112.833 79.4167L112.755 79.3945H112.711L112.689 79.3723C112.622 79.3502 112.767 79.3834 112.744 79.3723C112.024 79.2172 111.326 79.2393 110.683 79.4278C110.04 79.6051 109.464 79.993 108.943 80.4807C107.912 81.456 107.203 82.786 106.704 83.9498C106.205 85.1246 105.906 86.1664 105.729 86.8979C105.64 87.2637 105.573 87.5518 105.54 87.7513C105.507 87.9398 105.485 88.0284 105.485 88.0284V88.0728C105.341 88.7821 104.665 89.2365 103.955 89.1035C103.246 88.9705 102.792 88.2944 102.925 87.5851H102.914Z" fill="black"/>
<path d="M73.6756 81.855C73.6756 81.855 73.6978 81.7331 73.7532 81.5114C73.7975 81.3008 73.8751 81.0016 73.9859 80.6137C74.1965 79.8489 74.5401 78.7738 75.1164 77.5325C75.4046 76.9118 75.7703 76.2357 76.2248 75.5597C76.6903 74.8836 77.2555 74.1964 77.987 73.5868C78.7185 72.9772 79.6606 72.4674 80.7024 72.2347C81.7443 72.0019 82.8415 72.0795 83.8058 72.3344L84.1161 72.412L84.504 72.545C84.77 72.6226 84.9917 72.7334 85.2244 72.8332C85.4572 72.9329 85.6788 73.077 85.9005 73.1878C86.1111 73.3319 86.3328 73.4649 86.5433 73.6201C87.3635 74.2407 88.0285 75.0498 88.4719 75.8811C88.9374 76.7123 89.2144 77.5768 89.3807 78.3748C89.558 79.1839 89.6356 79.9487 89.6578 80.6358C89.7132 82.0323 89.5913 83.1628 89.4804 83.9497C89.3696 84.7366 89.2588 85.1911 89.2588 85.1911V85.2354C89.0814 85.9337 88.3832 86.377 87.6849 86.2107C86.9867 86.0445 86.5433 85.3462 86.7096 84.6369C86.7096 84.6369 86.7983 84.2601 86.898 83.5729C86.9978 82.8857 87.1086 81.8993 87.0643 80.7356C87.0199 79.5829 86.8204 78.2418 86.1998 77.1113C85.9005 76.5461 85.4793 76.0473 84.9695 75.6594C84.8476 75.5597 84.7035 75.471 84.5705 75.3823C84.4264 75.3047 84.2824 75.2161 84.1272 75.1496C83.972 75.0831 83.8168 75.0055 83.6728 74.9612L83.4511 74.8836L83.1408 74.806C82.4647 74.6287 81.8218 74.5954 81.2123 74.7173C80.6138 74.8503 80.0596 75.1385 79.5719 75.5375C78.5855 76.3577 77.8651 77.5436 77.3663 78.5965C76.8676 79.6605 76.5573 80.6137 76.3689 81.2897C76.2691 81.6222 76.2137 81.8882 76.1693 82.0656C76.125 82.2318 76.1139 82.3205 76.1139 82.3205V82.3648C75.9588 83.0409 75.2938 83.4731 74.6177 83.318C73.9416 83.1739 73.5093 82.5089 73.6645 81.8328L73.6756 81.855Z" fill="black"/>
<path d="M81.5892 102.248C81.5892 102.248 81.6335 102.326 81.7111 102.47C81.7887 102.603 81.9328 102.836 82.1212 103.102C82.3096 103.379 82.5423 103.711 82.8416 104.077C82.9857 104.265 83.1408 104.465 83.3182 104.664C83.4955 104.864 83.6728 105.085 83.8723 105.285C84.2713 105.717 84.7258 106.149 85.2245 106.593C85.7233 107.036 86.2885 107.457 86.887 107.856C87.4855 108.255 88.1394 108.61 88.8266 108.92C89.1813 109.053 89.5248 109.22 89.8906 109.341C90.2563 109.452 90.6221 109.552 90.9878 109.663C91.3647 109.729 91.7415 109.796 92.1183 109.873H92.1848L92.2181 109.896C92.1073 109.896 92.1959 109.896 92.1738 109.896H92.1959H92.3511L92.6614 109.929C92.872 109.94 93.0826 109.962 93.2932 109.973C93.5148 109.995 93.6922 109.984 93.8695 109.984C94.0468 109.984 94.2353 109.984 94.4126 109.984C94.5899 109.984 94.7783 109.984 94.9557 109.951C95.133 109.929 95.3214 109.907 95.4988 109.896C96.2192 109.807 96.9063 109.63 97.5381 109.419C97.8484 109.308 98.1477 109.175 98.4358 109.064C98.7129 108.92 98.99 108.787 99.2449 108.643C99.7437 108.344 100.187 108.034 100.553 107.723C100.741 107.568 100.907 107.424 101.052 107.28C101.207 107.136 101.329 107.003 101.451 106.87C101.683 106.615 101.838 106.404 101.949 106.26C102.038 106.127 102.093 106.061 102.093 106.061L102.138 105.994C102.348 105.684 102.769 105.617 103.08 105.828C103.357 106.028 103.446 106.404 103.29 106.693C103.29 106.693 103.279 106.726 103.246 106.781C103.213 106.837 103.168 106.914 103.113 107.003C103.002 107.191 102.825 107.457 102.581 107.779C102.459 107.934 102.326 108.111 102.16 108.289C102.005 108.477 101.827 108.665 101.628 108.854C101.24 109.253 100.752 109.652 100.198 110.062C99.921 110.261 99.6107 110.439 99.2893 110.649C98.9568 110.816 98.6243 111.004 98.2585 111.17C97.527 111.481 96.7401 111.758 95.8978 111.946C95.6872 111.99 95.4766 112.035 95.2549 112.079C95.0443 112.123 94.8227 112.157 94.5899 112.179C94.3572 112.201 94.1355 112.223 93.9028 112.245C93.67 112.267 93.4372 112.29 93.2377 112.29C93.0272 112.29 92.8166 112.29 92.606 112.29H92.2846H92.1294H92.1073H92.0408H91.9964H91.9078C91.4423 112.245 90.9878 112.201 90.5223 112.157C90.0679 112.068 89.6135 111.979 89.148 111.891C88.6936 111.78 88.2613 111.625 87.818 111.503C86.9535 111.203 86.1222 110.838 85.3575 110.428C84.5927 110.018 83.8834 109.563 83.2406 109.098C82.5978 108.632 82.0214 108.156 81.5116 107.701C81.2456 107.479 81.0128 107.247 80.7912 107.025C80.5584 106.803 80.3589 106.593 80.1705 106.382C79.7826 105.972 79.4612 105.606 79.2063 105.285C78.9513 104.964 78.7518 104.709 78.6188 104.52C78.4858 104.332 78.4083 104.221 78.4083 104.221C77.8098 103.379 78.0203 102.204 78.8627 101.605C79.705 101.007 80.8798 101.217 81.4783 102.06C81.5116 102.104 81.5338 102.148 81.567 102.193L81.5892 102.237V102.248Z" fill="black"/>
<path d="M78.3417 64.3547C78.3417 64.3547 78.5412 64.1774 78.8959 63.9114C79.2506 63.6343 79.7604 63.2685 80.4143 62.8584C81.0571 62.4484 81.833 62.005 82.6975 61.5839C83.1297 61.3733 83.5841 61.1627 84.0496 60.9743C84.5151 60.7859 85.0028 60.6085 85.5015 60.4423C86.488 60.1319 87.5187 59.8881 88.5162 59.7773C89.015 59.7219 89.5026 59.6997 89.9681 59.7108C90.4336 59.7108 90.877 59.7662 91.287 59.8438C91.6971 59.9103 92.074 60.01 92.3843 60.1209C92.7057 60.2206 92.9828 60.3536 93.1934 60.4644C93.415 60.5642 93.5702 60.6861 93.6811 60.7526C93.7919 60.8191 93.8473 60.8524 93.8473 60.8524C94.1687 61.0519 94.2574 61.473 94.0579 61.7834C93.8916 62.0494 93.5702 62.1602 93.2821 62.0715L93.1934 62.0494C93.1934 62.0494 93.138 62.0383 93.0382 62.005C92.9385 61.9829 92.8055 61.9164 92.617 61.872C92.4286 61.8277 92.207 61.7723 91.941 61.739C91.808 61.7169 91.675 61.6947 91.5198 61.6836C91.3757 61.6725 91.2206 61.6504 91.0543 61.6504C90.7218 61.6504 90.3671 61.6504 89.9792 61.6725C89.5913 61.7058 89.1923 61.7501 88.7711 61.8277C88.35 61.8942 87.9177 62.005 87.4744 62.1048C87.031 62.2156 86.5877 62.3486 86.1333 62.4927C85.2356 62.7809 84.3489 63.1134 83.5176 63.4569C83.1076 63.6343 82.6975 63.8005 82.3206 63.9668C81.9438 64.1441 81.5891 64.2993 81.2566 64.4544C80.6027 64.7648 80.0596 65.0308 79.6717 65.2081C79.2949 65.3965 79.0843 65.4963 79.0843 65.4963H79.0732C78.7296 65.6625 78.3306 65.5295 78.1644 65.1859C78.0203 64.9089 78.0979 64.5653 78.3306 64.3769L78.3417 64.3547Z" fill="black"/>
<path d="M121.29 74.7947C121.29 74.7947 121.179 74.6174 120.99 74.3182C120.802 74.0078 120.525 73.5756 120.192 73.0547C120.026 72.7997 119.838 72.5227 119.638 72.2234C119.439 71.9352 119.228 71.6249 119.006 71.3146C118.563 70.6939 118.064 70.0621 117.543 69.4526C117.277 69.1533 117 68.8762 116.723 68.5992C116.446 68.3332 116.169 68.0893 115.881 67.8677C115.604 67.646 115.316 67.4465 115.039 67.2802C114.906 67.2027 114.761 67.1251 114.628 67.0475C114.495 66.981 114.362 66.9256 114.241 66.8591C113.986 66.7593 113.753 66.6596 113.531 66.6042C113.321 66.5377 113.121 66.5155 112.966 66.4712C112.645 66.4268 112.456 66.4046 112.456 66.4046H112.379C112.013 66.3603 111.736 66.0167 111.78 65.651C111.813 65.3296 112.079 65.0857 112.39 65.0525C112.39 65.0525 112.445 65.0525 112.567 65.0303C112.678 65.0303 112.844 64.9971 113.055 64.9971C113.265 64.9971 113.531 64.9971 113.819 65.0414C114.119 65.0747 114.44 65.1412 114.795 65.2409C115.149 65.3517 115.515 65.4847 115.892 65.6621C116.258 65.8394 116.635 66.0611 117 66.3049C117.366 66.5598 117.721 66.8369 118.053 67.1361C118.397 67.4354 118.707 67.7679 119.029 68.1004C119.328 68.4329 119.627 68.7765 119.893 69.1422C120.159 69.4969 120.414 69.8516 120.636 70.2062C121.09 70.9045 121.456 71.5917 121.733 72.1902C122.021 72.7887 122.221 73.3096 122.342 73.6753C122.464 74.0411 122.531 74.2738 122.531 74.2738C122.631 74.6396 122.409 75.0164 122.043 75.1051C121.744 75.1827 121.445 75.0496 121.29 74.8058V74.7947Z" fill="black"/>
<path d="M133.769 41.5333C133.237 41.2452 132.705 40.9681 132.185 40.6578C132.218 40.9681 132.24 41.3006 132.24 41.6553C132.24 42.2205 132.162 42.8523 131.93 43.3953C131.697 43.9273 131.342 44.3707 130.688 44.7143C130.034 45.0578 129.103 45.2906 128.028 45.3793C126.953 45.4679 125.745 45.4568 124.459 45.3238C119.915 43.484 115.859 45.2906 112.246 47.9949C110.893 48.4493 109.087 48.4493 108.178 47.9949C103.667 44.3818 98.7018 41.6774 93.4261 43.2623C92.1183 43.9052 90.9767 44.1158 89.9349 44.0271C84.7368 43.5838 82.2209 35.504 76.5905 33.9967C72.0796 33.0878 68.4664 36.2577 64.6316 36.5237C63.5898 36.4683 62.6034 36.1358 61.7056 35.3488C58.7685 33.0878 55.6098 32.0793 52.6284 31.2369C52.3956 31.1704 52.1629 31.1039 51.9412 31.0485C48.6162 30.3946 45.4575 31.2923 43.9501 27.79C43.7395 27.6792 43.5289 27.5794 43.3184 27.4908C39.8714 26.0278 35.5822 26.3713 32.2794 23.0907C31.2708 21.9491 30.8829 20.7078 30.6834 19.8876C30.6723 19.8322 30.6612 19.7768 30.6501 19.7324C30.4395 20.7188 30.2733 21.7163 30.0959 22.7138C30.5725 23.6338 31.0269 24.9859 31.9247 25.4403C35.6487 27.5129 39.3727 27.3023 42.3984 30.7271C42.4871 30.8268 42.5758 30.9377 42.6755 31.0485C43.6619 33.5644 46.8207 33.11 48.5275 32.3563C48.7603 32.3231 48.982 32.3009 49.2147 32.2898C50.1235 32.2233 51.0102 32.2788 51.786 32.6667C54.047 33.8748 56.3524 35.4264 58.7242 36.7453C59.9101 37.4103 61.1182 38.0199 62.3374 38.4854C66.671 40.7908 71.6363 36.7232 75.2494 38.0864C81.6445 40.3474 85.8451 47.9284 92.473 47.5073C93.803 47.4186 95.2216 47.0196 96.7844 46.1883C101.428 45.3017 103.689 49.3693 107.291 50.7214C112.257 52.0736 115.415 48.0171 119.838 47.0085C121.312 47.3521 122.742 47.6735 124.138 47.8841C125.535 48.1058 126.887 48.2166 128.228 48.1612C129.547 48.0947 130.877 47.8398 132.063 47.1748C132.65 46.8423 133.182 46.41 133.592 45.8891C134.002 45.3682 134.29 44.7918 134.446 44.2377C134.534 43.9495 134.579 43.6724 134.612 43.4064C134.412 42.7858 134.168 42.1873 133.814 41.5998C133.814 41.5777 133.792 41.5666 133.781 41.5444L133.769 41.5333Z" fill="white"/>
<path d="M138.857 57.926C138.779 57.5602 138.69 57.2167 138.569 56.8842L138.303 56.1083L138.236 55.9199L138.192 55.7758L138.103 55.4877C138.059 55.2882 138.003 55.0665 137.959 54.8559C137.793 54.0025 137.737 53.1491 137.815 52.2402C137.881 51.3425 138.07 50.3893 138.291 49.3364C138.513 48.2835 138.779 47.1087 138.79 45.7454C138.79 45.0693 138.735 44.36 138.569 43.6728C138.413 42.9857 138.147 42.3207 137.837 41.7111C137.527 41.1015 137.161 40.5584 136.773 40.0486C136.352 39.5277 136.03 39.173 135.676 38.7518L134.623 37.5326L133.659 36.3357C133.326 35.9477 133.016 35.5377 132.717 35.1165C132.406 34.7064 132.107 34.2852 131.819 33.8752L131.387 33.2434L130.988 32.6117C130.843 32.4011 130.744 32.1905 130.622 31.9799C130.555 31.8691 130.5 31.7693 130.456 31.6807L130.4 31.5698L130.367 31.3592C130.345 31.193 130.311 31.0378 130.278 30.8716C130.201 30.5502 130.112 30.2509 130.001 29.9406C129.779 29.3421 129.502 28.7657 129.159 28.2337C128.472 27.1587 127.53 26.2609 126.499 25.5848C125.457 24.9087 124.326 24.4654 123.207 24.1662C122.93 24.0997 122.642 24.0221 122.365 23.9667L121.567 23.8115L120.857 23.6674C120.625 23.612 120.381 23.5677 120.148 23.5122C119.217 23.2906 118.308 23.0135 117.466 22.6699C116.635 22.3263 115.848 21.8941 115.282 21.4175C115.005 21.1847 114.795 20.9187 114.695 20.7414C114.673 20.6971 114.662 20.6638 114.651 20.6306L114.606 20.4643L114.562 20.2759L114.496 20.0099C114.44 19.8215 114.396 19.6885 114.34 19.5333C113.897 18.3252 113.221 17.2169 112.223 16.2859C111.969 16.0532 111.703 15.8426 111.403 15.6431C111.259 15.5544 111.104 15.4547 110.949 15.366L110.716 15.2441L110.594 15.1887H110.561L110.472 15.1332L110.428 15.1111C109.685 14.8007 108.998 14.7232 108.411 14.6677C107.225 14.5791 106.194 14.6345 105.263 14.6012C104.809 14.5791 104.376 14.5458 104.055 14.4682C103.889 14.435 103.756 14.3907 103.656 14.3463L103.59 14.3131H103.567V14.2909L103.457 14.2022L103.39 14.1468C103.268 14.0471 103.08 13.8808 102.913 13.7146L102.359 13.1937C101.982 12.8279 101.583 12.4622 101.162 12.0964C100.32 11.376 99.4111 10.6888 98.4025 10.1125C97.405 9.53615 96.3189 9.07065 95.1884 8.74923C93.0271 8.15073 90.755 8.13965 88.6381 8.53865C87.3635 8.31699 86.1111 7.86257 84.8476 7.27515C83.5065 6.65448 82.1987 5.86757 80.6803 5.12498C79.9266 4.75923 79.0954 4.40457 78.1422 4.17182C77.6545 4.07207 77.1447 3.9834 76.5905 3.99448C76.0474 3.99448 75.4711 4.07207 74.928 4.26048C74.396 4.43782 73.8862 4.69273 73.4539 4.99198C73.2212 5.13607 73.0328 5.30232 72.8333 5.45748C72.6892 5.5794 72.5008 5.73457 72.4675 5.75673C72.2791 5.88973 72.1129 5.96732 72.0242 5.98948C71.9355 6.00057 71.8912 6.01165 71.7582 5.96732C71.4811 5.88973 70.9491 5.52398 70.406 5.0474C69.8519 4.57082 69.2534 4.01665 68.5662 3.46248C67.879 2.9194 67.0589 2.3874 66.0946 2.02165C65.1304 1.6559 64.022 1.50073 62.9913 1.62265C62.4704 1.67807 61.9827 1.7889 61.5061 1.93298L60.9298 2.1214C60.7524 2.17682 60.5308 2.2544 60.4089 2.27657C60.1207 2.35415 59.7993 2.43173 59.4779 2.48715C59.1564 2.54257 58.8461 2.57582 58.5247 2.5869C57.2612 2.64232 56.0974 2.33198 54.6788 1.75565C53.9694 1.47857 53.1714 1.14607 52.2183 0.913318C51.2651 0.680568 50.1124 0.636235 49.0817 0.880068C48.0399 1.1239 47.1421 1.57832 46.3663 2.08815C46.0227 2.30982 45.8564 2.40957 45.5683 2.54257C45.3023 2.66448 45.0252 2.76423 44.737 2.8529C43.5733 3.1854 42.199 3.1854 40.6916 3.08565C39.938 3.04132 39.151 2.96373 38.2976 2.93048C37.4553 2.89723 36.5354 2.88615 35.5268 3.07457C35.0169 3.17432 34.496 3.32948 33.964 3.57332C33.4431 3.81715 32.9444 4.16073 32.5121 4.55973C31.6476 5.36882 31.1378 6.35523 30.8164 7.27515L30.6169 7.82932L30.5171 8.09532L30.4284 8.28373C30.3841 8.40565 30.3176 8.53865 30.24 8.68273C30.1735 8.82682 30.0959 8.95982 30.0184 9.09282C29.6969 9.62482 29.309 10.1125 28.8546 10.578C27.9347 11.5201 26.6934 12.3181 25.3301 13.4375C24.6651 14.0138 23.9558 14.6899 23.3794 15.5433C22.8031 16.3857 22.3819 17.3832 22.1824 18.3696C22.0827 18.8572 22.0162 19.356 21.994 19.8215C21.994 20.0542 21.9608 20.2981 21.9719 20.5308V21.1626L22.0051 21.75V22.1933L21.9608 22.6699L21.8943 23.1354C21.6948 24.3546 21.196 25.341 20.3094 26.4604C19.8771 27.0146 19.3562 27.6242 18.8242 28.3002C18.3033 28.9874 17.7713 29.7411 17.3501 30.5834C16.9289 31.4257 16.5964 32.3235 16.3859 33.2102C16.275 33.6646 16.1974 34.1079 16.1309 34.5623L16.0866 34.8948L16.0534 35.183L15.9869 35.7926C15.6544 39.0289 15.5324 42.1212 15.1224 45.1026C14.9229 46.5877 14.6569 48.0397 14.2468 49.3918C13.8478 50.7329 13.2936 51.9742 12.551 52.872C12.1853 53.3264 11.7752 53.6922 11.3208 53.9582C11.1656 54.0579 10.9883 54.1687 10.822 54.2685C10.7444 54.3128 10.6447 54.3793 10.5449 54.4458L10.2457 54.6453C9.85778 54.9224 9.46986 55.2106 9.09303 55.5652C8.7162 55.9088 8.32828 56.33 8.00686 56.8398C7.67436 57.3386 7.40836 57.9371 7.25319 58.5245C6.94286 59.7326 7.04261 60.7633 7.10911 61.5724C7.17561 62.4037 7.2532 63.113 7.27536 63.8223C7.29753 64.5206 7.27536 65.1966 7.20886 65.8727C7.14236 66.5599 7.00936 67.1917 6.85419 68.0007C6.68794 68.8763 6.57711 69.6965 6.51061 70.5721C6.44411 71.4366 6.44411 72.3343 6.47736 73.1656C6.48845 73.5757 6.51061 73.9636 6.5217 74.2739C6.5217 74.5953 6.51061 74.8391 6.47736 75.0387C6.41086 75.4266 6.21136 75.881 5.86778 76.4241C5.69044 76.6901 5.51311 76.9672 5.29145 77.2553L5.14736 77.4437L4.97003 77.6765L4.64861 78.0644C4.19419 78.5964 3.70653 79.1062 3.17453 79.6272C2.64253 80.1702 2.05511 80.669 1.39011 81.4448C1.06869 81.8438 0.669696 82.3204 0.381529 83.1516C0.237446 83.5507 0.148779 84.0605 0.182029 84.5592C0.204195 85.058 0.34828 85.5124 0.503446 85.8892C0.835946 86.6207 1.24603 87.0862 1.61178 87.4741C1.72261 87.5961 1.84453 87.7069 1.95536 87.8066C1.99969 88.1059 2.04402 88.3941 2.09944 88.6822C2.22136 89.2918 2.37652 89.8903 2.57602 90.4777C2.95286 91.6526 3.49595 92.772 4.14986 93.8138C5.46878 95.8975 7.31969 97.6154 9.38119 98.8235L10.7444 99.6215C11.1767 99.8986 11.5314 100.142 11.9304 100.408C12.3183 100.708 12.7173 100.974 13.083 101.295C13.4599 101.594 13.8256 101.916 14.1692 102.259C14.3465 102.426 14.5017 102.603 14.679 102.769C14.8453 102.935 15.0115 103.113 15.1667 103.301C15.4881 103.656 15.7874 104.033 16.0644 104.409C16.3415 104.786 16.6075 105.174 16.8403 105.573C16.9622 105.773 17.0619 105.972 17.1728 106.161C17.2171 106.26 17.2725 106.36 17.3169 106.449L17.4055 106.648C17.4499 106.792 17.4831 106.892 17.5274 107.025L17.6826 107.468C17.7934 107.757 17.9043 108.045 18.0373 108.322C18.2922 108.876 18.5693 109.419 18.8907 109.94C19.5335 110.993 20.3315 111.99 21.329 112.833C22.3265 113.664 23.5235 114.34 24.8203 114.706C25.4631 114.894 26.1281 114.994 26.782 115.038C27.1034 115.049 27.4359 115.072 27.7574 115.049L28.5664 115.016C30.3065 115.049 30.6834 115.415 31.7695 117.521C32.0355 118.009 32.3348 118.563 32.7559 119.117C33.166 119.671 33.7091 120.236 34.3519 120.658C34.9948 121.09 35.7041 121.378 36.4024 121.555C37.1006 121.733 37.7545 121.777 38.4085 121.81C39.7052 121.81 40.5032 121.766 41.4674 121.877C42.3984 121.977 43.2408 122.176 44.0942 122.52C44.9365 122.841 45.8675 123.362 47.0202 123.827C48.1618 124.293 49.4253 124.603 50.6334 124.736C51.243 124.803 51.8414 124.836 52.4289 124.847C52.7281 124.847 53.0163 124.847 53.3044 124.847H53.7478L54.1468 124.825C55.1886 124.792 56.3967 124.714 57.4164 124.625C57.5383 124.625 57.6713 124.603 57.7378 124.603C57.7489 124.603 57.771 124.603 57.7821 124.603C57.7821 124.603 57.8264 124.625 57.8819 124.648L58.0259 124.714C58.5136 124.925 59.0678 125.157 59.5887 125.357C60.6416 125.756 61.6834 126.133 62.7253 126.465L63.5011 126.72L64.2991 126.964C64.8311 127.119 65.4185 127.285 65.9616 127.418C67.0589 127.696 68.1672 127.917 69.2755 128.106C71.5033 128.471 73.731 128.671 75.9809 128.726C77.1004 128.748 78.2309 128.737 79.3614 128.682C80.5029 128.627 81.6224 128.527 82.8194 128.327C83.1297 128.272 83.4289 128.216 83.7614 128.139C83.9277 128.106 84.1161 128.05 84.3045 127.984L84.6592 127.862C84.7479 127.829 84.8365 127.784 84.9141 127.74L85.036 127.673C84.8919 127.751 85.0249 127.673 85.0028 127.696L85.0804 127.651C85.0804 127.651 85.0582 127.673 85.0471 127.673C85.0028 127.696 85.0693 127.673 85.0914 127.662C85.1579 127.64 85.2466 127.618 85.3353 127.596C85.5237 127.54 85.7454 127.496 85.967 127.452C86.8759 127.274 87.8844 127.152 88.8709 127.075C89.8573 126.997 90.8548 126.975 91.7636 127.031C92.2069 127.064 92.6503 127.119 92.9274 127.197H92.9717L93.016 127.219L93.2044 127.274L93.3929 127.33L93.548 127.385L94.2241 127.629C95.2105 127.984 96.3632 128.416 97.6378 128.671C98.9013 128.926 100.253 129.003 101.55 128.87C102.858 128.737 104.088 128.416 105.263 127.973L105.762 127.762L106.205 127.563C106.493 127.418 106.782 127.274 107.048 127.119C107.591 126.82 108.112 126.487 108.599 126.155C110.561 124.814 112.212 123.307 113.808 121.965C114.595 121.3 115.382 120.669 116.103 120.203C116.457 119.97 116.801 119.793 117.045 119.704L117.765 119.45C118.075 119.328 118.364 119.217 118.674 119.073C119.284 118.796 119.904 118.463 120.514 118.02C121.123 117.576 121.744 117.011 122.254 116.258C122.764 115.526 123.129 114.606 123.262 113.719C123.407 112.822 123.34 111.968 123.196 111.226C123.141 110.949 123.074 110.694 122.996 110.439C123.262 110.228 123.628 109.918 123.983 109.574C124.515 109.053 125.025 108.399 125.402 107.734C126.166 106.371 126.499 104.986 126.654 103.711C126.743 103.068 126.776 102.448 126.787 101.838C126.798 101.528 126.787 101.229 126.787 100.929V100.165V99.9651C126.787 99.8986 126.787 99.8653 126.787 99.821V99.555C126.809 99.3776 126.842 99.1782 126.865 98.9897C126.931 98.6351 127.009 98.3137 127.119 98.0587C127.352 97.5711 127.53 97.3383 128.328 96.762C128.715 96.4738 129.259 96.1192 129.868 95.5428C130.478 94.9776 131.087 94.102 131.398 93.2264C131.719 92.3397 131.808 91.5085 131.808 90.777C131.808 90.0455 131.741 89.3694 131.641 88.7487C131.597 88.4273 131.542 88.117 131.464 87.8288C131.398 87.5296 131.331 87.2303 131.254 86.9532L131.043 86.1552L130.999 85.9557L130.965 85.8116C130.943 85.7119 130.921 85.6232 130.899 85.5124C130.71 84.6479 130.633 83.8056 130.677 82.9743C130.744 81.3118 131.32 79.7491 132.284 77.9757C132.75 77.0669 133.348 76.147 133.869 74.817C134.124 74.152 134.357 73.3318 134.368 72.3786C134.379 71.4255 134.091 70.4058 133.67 69.6411C133.459 69.2532 133.215 68.8985 132.971 68.5992C132.85 68.4441 132.728 68.3111 132.595 68.167L132.318 67.8677C132.428 67.768 132.572 67.6572 132.728 67.5463C133.448 67.0032 134.412 66.4047 135.377 65.6732C136.341 64.9196 137.394 63.9886 138.17 62.5921C138.557 61.9049 138.835 61.0958 138.934 60.2757C139.056 59.4555 138.99 58.6575 138.846 57.9149L138.857 57.926ZM82.775 123.772L82.8083 123.75C82.8083 123.75 82.8194 123.75 82.8304 123.75L82.7639 123.783L82.775 123.772ZM122.841 109.929C122.841 109.929 122.863 109.995 122.863 110.018V109.973L122.841 109.929ZM132.018 68.2002C131.985 68.2335 131.996 68.2335 132.018 68.2002V68.2002ZM134.113 60.32C133.836 60.7966 133.26 61.3397 132.517 61.8827C131.774 62.4369 130.888 62.9467 129.879 63.6672C129.369 64.044 128.815 64.443 128.217 65.1745C127.917 65.5402 127.607 66.0279 127.408 66.6707C127.197 67.3025 127.164 68.0672 127.308 68.699C127.441 69.3307 127.696 69.8295 127.94 70.2285C128.062 70.4391 128.195 70.6053 128.316 70.7716C128.449 70.9378 128.638 71.1595 128.704 71.226L128.959 71.5031C129.015 71.5696 129.059 71.625 129.103 71.6804C129.192 71.8023 129.259 71.9021 129.292 71.9797C129.38 72.157 129.38 72.2124 129.369 72.3232C129.369 72.4451 129.314 72.6779 129.181 73.0104C128.915 73.6754 128.372 74.5842 127.829 75.5596C127.275 76.546 126.72 77.6543 126.299 78.8735C125.878 80.0816 125.601 81.3894 125.523 82.7083C125.446 84.0162 125.557 85.324 125.801 86.5653C125.823 86.7205 125.867 86.8867 125.9 87.053L125.956 87.2968L126 87.4852L126.188 88.2389C126.255 88.4716 126.299 88.6933 126.344 88.9261C126.399 89.1588 126.432 89.3694 126.466 89.58C126.543 90.0122 126.565 90.4112 126.565 90.7548C126.565 91.0873 126.51 91.3312 126.466 91.4641C126.41 91.5972 126.399 91.6304 126.233 91.7966C126.067 91.9629 125.712 92.2067 125.235 92.5503C124.759 92.8828 124.16 93.3483 123.606 93.9579C123.052 94.5564 122.586 95.299 122.265 96.0305C121.644 97.5156 121.511 98.9232 121.489 100.22V101.073C121.489 101.306 121.5 101.55 121.489 101.772C121.478 102.226 121.445 102.68 121.389 103.102C121.29 103.955 121.079 104.687 120.791 105.207C120.647 105.473 120.492 105.673 120.27 105.906C120.037 106.15 119.738 106.36 119.128 106.892C118.84 107.169 118.408 107.579 118.064 108.255C117.898 108.577 117.754 108.976 117.699 109.342L117.654 109.619V109.874C117.632 110.051 117.632 110.217 117.643 110.361C117.654 110.66 117.71 110.971 117.787 111.27L117.809 111.37V111.414L117.854 111.514L117.942 111.791C117.998 111.957 118.042 112.123 118.075 112.268C118.142 112.567 118.142 112.8 118.12 112.966C118.098 113.132 118.053 113.243 117.965 113.387C117.787 113.675 117.255 114.107 116.513 114.44C116.335 114.529 116.125 114.617 115.936 114.684L115.149 114.972C114.396 115.271 113.808 115.626 113.265 115.992C112.201 116.712 111.337 117.455 110.494 118.186C108.843 119.638 107.325 121.046 105.762 122.143C105.374 122.42 104.986 122.664 104.598 122.896C104.41 123.007 104.21 123.107 104.022 123.207L103.734 123.351L103.49 123.462C102.659 123.794 101.805 124.027 100.985 124.116C100.154 124.215 99.3446 124.182 98.5023 124.027C97.6599 123.883 96.7844 123.584 95.7647 123.218L95.3657 123.085L94.9113 122.941L94.6785 122.863L94.4901 122.808L94.3017 122.752L94.1465 122.708L94.0024 122.675C93.2377 122.497 92.617 122.453 91.9853 122.409C90.755 122.353 89.6024 122.409 88.4497 122.509C87.297 122.619 86.1776 122.763 84.9917 123.018C84.6924 123.085 84.3932 123.151 84.0607 123.251C83.8944 123.295 83.7282 123.351 83.5398 123.417C83.4289 123.462 83.3735 123.473 83.2073 123.55L82.9856 123.65L82.8859 123.694L82.8415 123.717C82.775 123.739 82.7196 123.761 82.6199 123.783C82.4425 123.827 82.2098 123.872 81.9881 123.916C81.0682 124.082 80.0596 124.193 79.051 124.26C78.0424 124.326 77.0228 124.359 76.0031 124.348C73.9638 124.337 71.9134 124.182 69.8962 123.894C68.8876 123.739 67.8901 123.561 66.9037 123.329C66.3939 123.218 65.9505 123.096 65.4518 122.963L64.7092 122.752L63.9555 122.52C62.9469 122.209 61.9716 121.888 61.0074 121.533C60.5308 121.356 60.0764 121.179 59.5887 120.968L59.3559 120.879C59.2784 120.846 59.2119 120.824 59.0789 120.78C58.9569 120.746 58.8683 120.702 58.7131 120.669C58.5579 120.635 58.4028 120.602 58.2587 120.58C58.1257 120.58 57.9816 120.558 57.8486 120.558C57.7156 120.558 57.6491 120.558 57.5383 120.558C57.3277 120.558 57.2058 120.58 57.0506 120.591C55.9423 120.702 55.0113 120.78 53.9029 120.835L53.5039 120.857H53.1382C52.8944 120.879 52.6505 120.89 52.4067 120.89C51.919 120.89 51.4535 120.868 50.988 120.824C50.0681 120.735 49.2258 120.547 48.3724 120.225C47.5189 119.904 46.5658 119.394 45.402 118.951C44.2494 118.507 42.9859 118.23 41.7778 118.131C41.1682 118.075 40.5919 118.053 39.9712 118.064C39.6498 118.064 39.3949 118.075 39.1289 118.086L38.4085 118.108C37.544 118.108 36.8235 117.931 36.3359 117.61C35.8371 117.299 35.427 116.712 34.9394 115.792C34.6955 115.338 34.4295 114.828 34.0638 114.274C33.7091 113.719 33.2214 113.121 32.5897 112.633C31.9579 112.146 31.1932 111.802 30.4728 111.625C30.2954 111.58 30.107 111.547 29.9297 111.514L29.4088 111.447C29.2314 111.425 29.043 111.425 28.8657 111.414C28.6773 111.414 28.4889 111.414 28.3669 111.414L27.5689 111.447C27.3473 111.47 27.1478 111.447 26.9372 111.447C26.5271 111.414 26.117 111.37 25.7291 111.248C24.9533 111.037 24.2329 110.649 23.59 110.095C22.9472 109.552 22.393 108.854 21.9164 108.078C21.6837 107.69 21.4731 107.28 21.2847 106.859C21.196 106.648 21.1074 106.438 21.0298 106.216L20.9189 105.895C20.8857 105.795 20.8414 105.662 20.8303 105.629V105.606C20.8303 105.606 20.797 105.518 20.7859 105.473C20.6973 105.23 20.6419 105.119 20.5754 104.964C20.5089 104.808 20.4424 104.675 20.3759 104.542C20.2318 104.265 20.0988 103.999 19.9436 103.744C19.6444 103.224 19.3229 102.736 18.9794 102.259C18.6358 101.783 18.27 101.328 17.8932 100.896C17.7048 100.674 17.5164 100.453 17.3058 100.253C17.1063 100.043 16.9179 99.821 16.7073 99.6326L16.0866 99.0341C15.876 98.8346 15.6544 98.6572 15.4438 98.4577C15.0226 98.0698 14.5571 97.7373 14.1138 97.3716C13.6483 97.0391 13.1384 96.6733 12.684 96.363L11.3319 95.5206C10.9329 95.2768 10.5671 95.0108 10.2124 94.7337C9.85777 94.4566 9.5142 94.1574 9.20386 93.836C8.56103 93.2042 8.02903 92.4838 7.5857 91.7191C7.15345 90.9432 6.79877 90.1231 6.56602 89.2696C6.44411 88.8485 6.35544 88.4052 6.30002 87.9729C6.26678 87.7512 6.24461 87.5406 6.23353 87.3301V87.0197C6.22244 86.9311 6.22244 86.8092 6.23353 86.787C6.31111 86.2106 6.08944 85.6011 5.60178 85.2021L5.39119 85.0358C5.14736 84.8363 4.90353 84.6257 4.72619 84.4484C4.69294 84.4152 4.67077 84.3819 4.63753 84.3597C4.65969 84.3376 4.67078 84.3154 4.68186 84.2932C5.02544 83.8721 5.61286 83.329 6.18919 82.7526C6.76553 82.1763 7.36402 81.5556 7.91819 80.8906L8.33936 80.3697L8.51669 80.137L8.72728 79.8599C8.98219 79.5163 9.23711 79.1395 9.48095 78.7516C9.72478 78.3526 9.96861 77.9203 10.1792 77.4326C10.3898 76.945 10.5671 76.3908 10.6669 75.8256C10.7666 75.2603 10.7777 74.7062 10.7777 74.2407C10.7777 73.7752 10.7444 73.3762 10.7223 73.0104C10.689 72.2678 10.689 71.6028 10.7334 70.9046C10.7777 70.2174 10.8774 69.4859 10.9883 68.8209C11.1213 68.0894 11.3097 67.1917 11.3873 66.305C11.4759 65.4294 11.487 64.5317 11.4538 63.6672C11.4205 62.8027 11.3208 61.9603 11.2543 61.2288C11.1767 60.4862 11.1767 59.921 11.2654 59.5996C11.3097 59.4333 11.3651 59.3114 11.4649 59.1562C11.5646 59.0011 11.7087 58.8348 11.9082 58.6464C12.0966 58.4691 12.3404 58.2807 12.5954 58.0922L12.7727 57.9703C12.8281 57.926 12.8946 57.8817 12.9833 57.8373C13.1495 57.7376 13.3158 57.6378 13.482 57.527C14.3687 56.9839 15.1334 56.2746 15.743 55.4987C16.9844 53.9471 17.6715 52.2292 18.1592 50.5777C18.6469 48.9152 18.9239 47.2638 19.1345 45.6457C19.5446 42.4204 19.6444 39.2284 19.9325 36.2248L19.9879 35.6596L20.0212 35.3714L20.0544 35.1276C20.0988 34.7951 20.1542 34.4737 20.2318 34.1633C20.3759 33.5316 20.5864 32.9442 20.8635 32.39C21.1406 31.8247 21.4953 31.2817 21.9275 30.7164C22.3598 30.1512 22.8585 29.5637 23.3794 28.8766C23.9004 28.2005 24.4324 27.4136 24.8535 26.538C25.2747 25.6624 25.5518 24.6982 25.7069 23.7561L25.7956 23.0578L25.8399 22.3596V21.6281L25.8289 21.0407L25.8067 20.4976C25.8067 20.3313 25.8067 20.1872 25.8067 20.0321C25.8178 19.7217 25.8621 19.4336 25.9064 19.1565C26.1281 18.0592 26.7044 17.2391 27.7463 16.3413C28.7881 15.4436 30.1957 14.5347 31.4814 13.2269C32.1242 12.573 32.7116 11.8304 33.1882 11.0102C33.3101 10.8107 33.432 10.6002 33.5318 10.3896C33.6426 10.179 33.7424 9.9684 33.8421 9.72457L33.9862 9.3699L34.0859 9.08173L34.2854 8.52757C34.4849 7.96232 34.7399 7.53007 35.0169 7.26407C35.294 6.99807 35.6376 6.82073 36.1696 6.7099C36.6905 6.59907 37.3666 6.58798 38.076 6.61015C38.7964 6.63232 39.5722 6.69882 40.3813 6.74315C41.9995 6.83182 43.8171 6.88723 45.668 6.33307C46.1335 6.20007 46.588 6.02274 47.0313 5.81215C47.4524 5.62373 47.9623 5.30232 48.2726 5.10282C48.8046 4.74815 49.3366 4.49323 49.8243 4.37132C50.3119 4.2494 50.7664 4.26048 51.3427 4.3824C51.908 4.50432 52.5729 4.77032 53.3266 5.05848C54.0692 5.34665 54.9115 5.6459 55.8204 5.8454C56.7292 6.0449 57.6824 6.13357 58.6244 6.08923C59.0899 6.06707 59.5554 6.01165 60.0099 5.93407C60.4532 5.8454 60.8965 5.75673 61.362 5.61265C61.6059 5.54615 61.7721 5.49073 61.9605 5.42423L62.4925 5.2469C62.7696 5.15823 63.0467 5.09173 63.3016 5.06957C63.8225 5.01415 64.3102 5.06957 64.82 5.2469C65.3188 5.43532 65.8508 5.75673 66.3939 6.16682C66.937 6.5769 67.4911 7.08673 68.1339 7.62982C68.4554 7.9069 68.81 8.18398 69.2201 8.46107C69.6302 8.73815 70.1179 9.01523 70.7385 9.19257C71.3481 9.38099 72.1239 9.41424 72.7889 9.2369C73.465 9.05957 73.997 8.74923 74.4404 8.41673C74.7174 8.20615 74.8283 8.09532 74.9835 7.9734C75.0943 7.88473 75.194 7.79607 75.2938 7.72957C75.5044 7.5744 75.7039 7.48573 75.9144 7.40815C76.3134 7.27515 76.7679 7.26407 77.3442 7.38598C77.9094 7.51898 78.5412 7.76282 79.1951 8.07315C80.5029 8.69382 81.8994 9.5029 83.4068 10.2012C84.9141 10.8994 86.5655 11.4868 88.3278 11.7417C88.4829 11.775 88.6603 11.775 88.8265 11.7417H88.8819C90.6996 11.3871 92.5173 11.4314 94.213 11.9302C95.0554 12.1851 95.8755 12.5287 96.6514 12.9831C97.4272 13.4375 98.1698 13.9806 98.8791 14.6123C99.2338 14.9227 99.5884 15.2552 99.9431 15.5987L100.508 16.1418C100.708 16.3302 100.896 16.5076 101.173 16.7403L101.406 16.9287L101.561 17.0396L101.639 17.095L101.672 17.1172L101.739 17.1615L101.883 17.2502L102.16 17.3942C102.526 17.5716 102.891 17.6713 103.224 17.76C103.9 17.9152 104.498 17.9595 105.064 17.9927C106.183 18.0371 107.214 17.9927 108.078 18.0703C108.511 18.1036 108.854 18.1701 109.054 18.2698L109.231 18.3585L109.442 18.4804C109.575 18.5691 109.708 18.6799 109.829 18.7907C110.339 19.2562 110.76 19.9434 111.015 20.6638C111.038 20.7525 111.082 20.8522 111.093 20.9187L111.126 21.0185L111.171 21.2069L111.226 21.4397C111.248 21.5616 111.292 21.6613 111.326 21.7832C111.403 21.9938 111.492 22.1933 111.592 22.3707C111.991 23.0911 112.489 23.6009 112.988 24.0221C113.997 24.8644 115.061 25.3853 116.125 25.8176C117.189 26.2387 118.253 26.5491 119.317 26.7929C119.583 26.8594 119.849 26.9148 120.115 26.9702L120.913 27.1143L121.633 27.2473C121.855 27.2806 122.065 27.3471 122.287 27.3914C123.141 27.6131 123.95 27.9345 124.637 28.3778C125.324 28.8101 125.911 29.3532 126.344 29.996C126.565 30.3174 126.743 30.661 126.876 31.0267C126.942 31.2041 126.998 31.3925 127.053 31.5698C127.075 31.6585 127.097 31.7472 127.108 31.8358L127.131 31.9577C127.131 31.9577 127.131 32.0575 127.131 32.0132L127.23 32.5119C127.308 32.7336 127.363 32.8555 127.43 32.9996C127.496 33.1437 127.552 33.2877 127.618 33.4207C127.751 33.6867 127.873 33.9638 128.006 34.2077L128.416 34.9613L128.848 35.6928C129.126 36.1805 129.436 36.646 129.746 37.1115C130.045 37.577 130.367 38.0425 130.699 38.4969C131.032 38.9513 131.353 39.4168 131.686 39.8602L131.741 39.9377C131.752 40.0042 131.774 40.0818 131.808 40.1483C131.797 40.1262 131.919 40.5917 132.04 41.4451C132.096 41.8662 132.162 42.3872 132.162 42.9635C132.162 43.5287 132.085 44.1605 131.852 44.7036C131.619 45.2356 131.265 45.6678 130.611 46.0225C129.957 46.3772 129.026 46.5988 127.951 46.6875C125.801 46.8759 123.129 46.6099 120.325 45.9227L120.059 45.8562C119.949 45.8341 119.926 45.823 119.716 45.7787C119.372 45.7122 119.062 45.7232 118.774 45.7565C118.208 45.8341 117.743 46.0114 117.333 46.1887C116.502 46.5656 115.814 47.0089 115.127 47.4301C114.44 47.8512 113.775 48.2835 113.11 48.6382C112.445 48.9928 111.758 49.2921 111.182 49.3807C110.993 49.4251 110.506 49.4251 110.129 49.4251C109.73 49.4251 109.353 49.414 108.987 49.3697C108.256 49.2921 107.657 49.1037 107.081 48.7601C106.516 48.4165 105.928 47.8734 105.407 47.286L104.953 46.7651C104.742 46.5323 104.509 46.3106 104.277 46.1222C103.8 45.7343 103.301 45.4351 102.78 45.1912C100.719 44.2492 98.5909 44.0497 96.4962 44.1272C94.4014 44.2381 92.2956 44.6703 90.2895 45.5902C89.4472 46.0003 88.9817 46.0668 88.6159 45.9782C88.2502 45.9006 87.6295 45.4462 87.0089 44.8033C86.3882 44.1716 85.7453 43.429 85.0804 42.6864C84.4154 41.9438 83.7282 41.1902 83.0078 40.4587C82.2874 39.7161 81.5669 39.0178 80.78 38.3196L80.2259 37.8319C80.0264 37.6546 79.8158 37.4883 79.6163 37.3221C79.1951 36.9896 78.7629 36.6571 78.2863 36.3467C77.8097 36.0364 77.2999 35.7372 76.6903 35.4933C76.0918 35.2495 75.3714 35.0722 74.6066 35.0832C73.8419 35.0832 73.1436 35.3049 72.5894 35.5377C72.0242 35.7704 71.5809 36.0142 71.1486 36.2359C70.7274 36.4576 70.3284 36.6571 69.9294 36.8344L69.6524 36.9563C69.5637 36.9896 69.4307 37.045 69.3309 37.0893L68.7214 37.311C67.8901 37.5881 67.0367 37.8097 66.1944 37.9427C64.4986 38.2198 62.8139 38.1644 61.3509 37.6657C60.6305 37.4218 59.9434 37.0561 59.3781 36.6127C59.2784 36.5462 59.0345 36.3246 58.9237 36.2359L58.4028 35.7593C58.0481 35.449 57.6824 35.1497 57.3166 34.8505C56.574 34.2631 55.776 33.7089 54.9115 33.2545C54.047 32.789 53.116 32.4232 52.1518 32.2237C51.1875 32.0132 50.2233 31.9688 49.2701 32.0353C49.0374 32.0575 48.7603 32.0686 48.5829 32.1018C48.3724 32.1351 48.1507 32.1683 47.9401 32.2016C47.5411 32.2681 47.1643 32.3346 46.7874 32.39C46.0449 32.5008 45.3355 32.5673 44.8368 32.4897C44.3491 32.4011 44.0831 32.2348 43.7395 31.7804C43.4181 31.3482 43.141 30.7275 42.9304 30.1179C42.875 29.9738 42.8196 29.7854 42.7642 29.6302C42.6644 29.3532 42.5425 29.0872 42.3763 28.8655C42.0438 28.4111 41.6448 28.1229 41.2679 27.9012C40.5032 27.4801 39.805 27.2917 39.151 27.1143C38.4971 26.9481 37.8764 26.8262 37.289 26.7042C36.1253 26.4604 35.0724 26.2166 34.23 25.8508C33.3877 25.4962 32.7227 24.9752 32.2239 24.41C31.2154 23.2573 30.8274 22.016 30.6279 21.1958C30.5282 20.7747 30.4839 20.4532 30.4617 20.2316C30.4617 20.1318 30.4395 20.0432 30.4395 19.9877C30.4395 19.9434 30.4395 19.9212 30.4395 19.9212V19.888C30.4174 19.5333 30.1181 19.2562 29.7634 19.2562C29.4088 19.2562 29.0874 19.5555 29.0874 19.9323V20.0432C29.0874 20.1097 29.0874 20.2094 29.0874 20.3424C29.0984 20.5973 29.1317 20.9852 29.2204 21.4729C29.309 21.9606 29.442 22.5702 29.708 23.2573C29.9629 23.9445 30.3619 24.7092 30.9604 25.474C31.5589 26.2277 32.4124 26.9702 33.4653 27.4801C34.5071 28.001 35.6598 28.3113 36.8346 28.6217C37.422 28.7768 38.0205 28.932 38.5969 29.0982C39.1621 29.2756 39.7384 29.4862 40.1485 29.7522C40.348 29.8852 40.5032 30.0182 40.5697 30.129C40.614 30.1844 40.6251 30.2398 40.6473 30.2952C40.7027 30.4726 40.7581 30.6388 40.8135 30.8162C41.0574 31.5477 41.3234 32.3013 41.8332 33.0882C42.0881 33.4762 42.4317 33.8862 42.8861 34.2077C43.3405 34.5401 43.8836 34.7507 44.3824 34.8505C45.402 35.05 46.2776 34.9502 47.1199 34.8727C47.5411 34.8283 47.9512 34.7729 48.3613 34.7175C48.5497 34.6953 48.7381 34.6732 48.9265 34.651C49.1482 34.6177 49.2812 34.6288 49.4585 34.6177C50.1457 34.5956 50.8772 34.651 51.5644 34.8172C52.9498 35.1497 54.2687 35.9699 55.5544 37.0339C55.8758 37.2999 56.1861 37.5881 56.5075 37.8762L56.9841 38.3196C57.2058 38.5302 57.3055 38.6188 57.5605 38.8294C58.4139 39.5387 59.3559 40.0707 60.3756 40.4587C62.4149 41.2234 64.5984 41.3121 66.671 41.0461C67.7128 40.9131 68.7324 40.6803 69.741 40.37C70.7607 40.0707 71.7693 39.6163 72.667 39.173C73.1104 38.9513 73.5204 38.7518 73.864 38.6188C74.2076 38.4858 74.4625 38.4304 74.6953 38.4304C74.9169 38.4304 75.1608 38.4858 75.4711 38.6188C75.7703 38.7407 76.1139 38.9402 76.4575 39.173C76.8011 39.4057 77.1447 39.6828 77.4994 39.971L78.0092 40.4143L78.5634 40.902C79.2505 41.5227 79.9377 42.1987 80.6027 42.8748C81.2677 43.562 81.9105 44.2713 82.5534 45.0028C83.2073 45.7343 83.839 46.488 84.6038 47.2638C84.9806 47.6517 85.4018 48.0396 85.9116 48.4165C86.4214 48.7933 87.0532 49.1702 87.8179 49.3586C88.5827 49.5581 89.3918 49.5248 90.0678 49.3697C90.4114 49.2921 90.7218 49.1923 91.021 49.0704C91.1762 49.015 91.3092 48.9485 91.4422 48.8931L91.7858 48.7379C93.3153 48.0286 95.0443 47.6074 96.7511 47.4855C98.4469 47.3636 100.187 47.5077 101.528 48.084C101.861 48.2281 102.149 48.3943 102.404 48.5827C102.526 48.6714 102.636 48.7712 102.736 48.8709L103.202 49.3586L103.756 49.9017C103.955 50.079 104.133 50.2452 104.343 50.4115C104.742 50.744 105.197 51.0543 105.673 51.3314C106.161 51.5974 106.693 51.808 107.225 51.9632C107.757 52.1072 108.289 52.1848 108.799 52.2181C109.297 52.2513 109.785 52.2513 110.251 52.2292C110.727 52.1959 111.104 52.207 111.758 52.074C112.844 51.8302 113.686 51.3979 114.473 50.9546C115.249 50.5112 115.936 50.0347 116.601 49.5913C117.255 49.1591 117.887 48.7379 118.463 48.4608C118.752 48.3278 119.018 48.2281 119.195 48.1948C119.284 48.1837 119.35 48.1727 119.372 48.1948C119.35 48.1948 119.505 48.217 119.572 48.2392L119.838 48.3057C122.786 48.9928 125.557 49.5913 128.228 49.4694C128.494 49.4583 128.76 49.4361 129.026 49.4029C130.223 49.3475 133.936 49.4362 133.437 52.8831C133.293 53.8584 133.348 54.4126 133.515 54.6786C133.548 54.9889 133.581 55.2882 133.625 55.5874C133.681 55.9088 133.736 56.2081 133.814 56.5295L133.936 57.0282L134.002 57.2721L134.058 57.4716L134.29 58.2252C134.346 58.4026 134.379 58.5688 134.412 58.7351C134.501 59.389 134.412 59.8102 134.146 60.2867L134.113 60.32Z" fill="black"/>
<path d="M43.7284 19.0124C43.7284 19.0124 45.4352 25.075 55.8979 26.7486C66.3606 28.4222 74.7728 29.863 87.4965 34.9835C100.22 40.1151 112.323 43.1962 118.685 40.1151C125.047 37.0339 113.564 27.4025 97.7707 21.085C81.977 14.7564 41.6115 6.73208 43.7284 19.0124Z" fill="white"/>
<path d="M43.7284 19.0124C43.7284 19.0124 45.4352 25.075 55.8979 26.7486C66.3606 28.4222 74.7728 29.863 87.4965 34.9835C100.22 40.1151 112.323 43.1962 118.685 40.1151C125.047 37.0339 113.564 27.4025 97.7707 21.085C81.977 14.7564 41.6115 6.73208 43.7284 19.0124Z" fill="white"/>
<path d="M77.4772 25.5852C77.4772 25.5852 82.5534 24.366 88.7379 26.2945C94.9335 28.223 88.084 34.5738 82.4869 32.5234C76.8898 30.4619 76.4686 30.1848 76.4686 29.0654" fill="#E0E566"/>
<path d="M77.7876 24.3881C77.7876 24.3881 82.4315 23.1689 92.6836 25.8843C98.4469 27.4138 108.278 26.638 104.388 24.6873C100.497 22.7366 87.8402 16.0977 87.6517 18.6801C87.4744 21.2515 79.0843 21.2182 77.7876 21.9386C76.4908 22.6591 76.4797 25.3856 76.4797 25.3856" fill="#BED730"/>
<path d="M88.9706 26.1498C82.6753 24.188 77.5216 25.4293 77.5216 25.4293L77.2334 26.4379L77.6989 26.8702C77.6989 26.8702 77.8208 25.8394 79.2838 25.6953C80.7579 25.5513 88.5827 26.5488 90.0346 27.9674C91.4866 29.3972 89.8241 31.1816 88.7933 31.9131C88.8598 31.8798 88.9263 31.8355 88.9928 31.8023C89.281 31.6028 89.7132 31.2924 90.1676 30.9599C91.9521 29.3528 92.2181 27.1583 88.9817 26.1608L88.9706 26.1498Z" fill="#C4DA4F"/>
<path d="M102.658 26.549C105.03 26.2719 106.216 25.6069 104.387 24.6981C101.129 23.0578 91.7081 18.1368 88.6381 18.1035L89.0371 19.5443C89.0371 19.5443 98.7904 23.0245 102.492 25.3409C103.545 25.9505 103.368 26.3163 102.658 26.549Z" fill="#A6C12E"/>
<path d="M74.9059 26.7483C75.1386 20.9628 80.1151 20.9628 84.6371 20.5084C89.1147 20.0651 89.2034 18.1588 86.2109 17.3497C67.8347 12.3954 42.0106 9.12584 43.7174 19.0122C43.7174 19.0122 45.4242 25.0748 55.8869 26.7483C60.7303 27.5242 65.1415 28.2557 69.7411 29.3197C72.6116 29.3418 74.8172 28.7101 74.8948 26.7483H74.9059Z" fill="#F47C3F"/>
<path d="M86.2109 17.3497C67.8347 12.3954 42.0106 9.12584 43.7174 19.0122C43.7174 19.0122 44.6927 22.448 49.6359 24.8642L50.2787 23.9221C50.2787 23.9221 43.5622 18.3693 49.2147 15.5763C54.8672 12.7833 64.41 14.2131 73.7865 15.5763C74.7507 15.7204 75.0056 17.0615 75.8701 17.1945C77.71 17.4938 78.375 17.0726 79.8269 17.3386C84.892 18.2585 87.818 19.0565 88.2391 18.724C88.2946 18.6797 88.0175 18.4137 88.0618 18.3361C87.7626 17.9482 87.1308 17.5935 86.2109 17.3386V17.3497Z" fill="#E5602E"/>
<path d="M87.0975 17.8375C89.3475 18.7574 86.8205 19.8214 84.238 19.9988C81.6556 20.1761 75.1275 20.3645 74.6842 24.4875C74.2409 28.6105 73.1436 27.8901 69.0871 26.8926C65.0195 25.8951 61.1847 25.3631 55.3105 24.8533C49.4253 24.3434 46.5215 21.2734 46.5215 21.2734L46.2887 22.3484C48.0399 24.0442 51.0656 25.9173 56.1861 26.7374C61.0295 27.5133 65.4407 28.2448 70.0403 29.3088C72.9109 29.3309 75.1164 28.6992 75.194 26.7374C75.4268 20.9519 80.4032 20.9519 84.9252 20.4975C88.9263 20.0985 89.414 18.5247 87.3414 17.6269C86.5323 17.4496 86.0224 17.3831 87.1086 17.8264L87.0975 17.8375Z" fill="#FBBA8E"/>
<path d="M119.206 33.8195C118.696 32.6447 113.021 27.9786 109.785 27.6239C106.549 27.2582 103.512 28.0229 98.9457 29.2753C95.399 30.2507 90.5556 33.6089 88.5717 35.0608C89.3807 35.6926 90.1455 36.4019 91.0211 36.9228C91.409 37.1556 91.7969 37.3883 92.1848 37.6211C93.9138 38.0201 98.325 39.0176 101.75 40.1813C105.95 41.6111 111.991 40.8131 114.529 40.7909C117.067 40.7687 117.433 40.3587 118.319 39.4831C119.195 38.6075 120.425 38.1087 120.558 37.3772C120.691 36.6457 119.727 35.0054 119.206 33.8306V33.8195Z" fill="#EE304C"/>
<path d="M120.447 36.6014C119.838 35.2049 116.768 32.7222 115.648 31.758C114.917 31.1262 112.39 29.2421 109.94 27.6461C109.885 27.6461 109.829 27.6239 109.763 27.6239C106.527 27.2582 103.49 28.0229 98.9234 29.2753C95.2992 30.2728 90.3338 33.7419 88.4275 35.1495C89.1036 35.6039 89.7686 36.1027 90.4447 36.5571C90.4779 36.5792 90.5112 36.6014 90.5444 36.6236L93.4593 35.4931C93.4593 35.4931 90.755 34.0301 93.8362 32.3787C96.9173 30.7272 97.9481 29.7741 104.088 29.098C110.228 28.4219 111.414 29.5857 114.252 32.3011C117.1 35.0165 119.317 37.9979 116.745 39.2503C115.26 39.9818 115.138 40.5027 115.504 40.7577C117.144 40.6357 117.532 40.2367 118.275 39.4942C118.929 38.8402 119.782 38.3969 120.226 37.9092C120.403 37.6211 120.514 37.3551 120.525 37.1112C120.514 36.9672 120.469 36.8009 120.414 36.6236L120.447 36.6014Z" fill="#C9263F"/>
<mask id="mask0_5136_36156" style="mask-type:luminance" maskUnits="userSpaceOnUse" x="87" y="27" width="34" height="15">
<path d="M87.6517 35.7262C87.6517 35.7262 94.3682 30.517 98.9346 29.2646C103.501 28.0122 106.538 27.2585 109.774 27.6132C113.01 27.9789 118.685 32.645 119.195 33.8088C119.716 34.9836 120.68 36.6129 120.547 37.3554C120.414 38.0869 119.184 38.5857 118.308 39.4613C117.433 40.3369 117.056 40.7469 114.518 40.7691C111.98 40.8024 105.939 41.5893 101.739 40.1595C97.5492 38.7298 91.8634 37.5549 91.4533 37.4219" fill="white"/>
</mask>
<g mask="url(#mask0_5136_36156)">
<path d="M101.063 21.251C100.73 21.3507 100.387 21.4283 100.043 21.4837C101.883 24.443 107.857 33.487 114.119 36.6346C121.655 40.4251 121.112 39.4276 121.112 39.4276L118.053 37.9425C118.053 37.9425 110.162 35.216 101.063 21.251Z" fill="#C9263F"/>
<path d="M115.504 42.0544C115.504 42.0544 106.726 41.5889 95.8535 28.4219C95.6429 28.7433 95.4213 29.0758 95.1996 29.4083C96.2747 30.7937 103.944 40.3143 111.37 41.8881C113.698 42.3758 115.294 42.6529 116.391 42.7859C116.601 42.6418 116.79 42.4866 116.989 42.3425L115.493 42.0544H115.504Z" fill="#C9263F"/>
<path d="M117.422 42.0208L115.948 41.7437C115.948 41.7437 107.557 40.6132 96.6293 27.291C96.4076 27.6013 95.7426 28.5878 95.5099 28.9203C95.5099 28.9203 103.8 39.8817 111.813 41.5663C114.13 42.054 115.726 42.3311 116.812 42.4641C117.012 42.32 117.211 42.1649 117.411 42.0097L117.422 42.0208Z" fill="#F6891F"/>
<path d="M94.2464 30.8936C94.1466 31.0598 94.0358 31.2261 93.936 31.3923C96.0862 34.008 102.914 41.7774 109.552 43.1739C111.825 43.6505 113.409 43.9276 114.507 44.0716C114.673 43.9719 114.839 43.8611 115.005 43.7613C113.908 43.6172 112.323 43.3512 110.018 42.8636C103.224 41.4338 96.2303 33.343 94.2575 30.9046L94.2464 30.8936Z" fill="#C9263F"/>
<path d="M100.963 22.0599C103.213 25.5733 108.766 33.5422 114.573 36.4682C117.067 37.7206 118.674 38.4521 119.716 38.8622C119.849 38.7514 119.982 38.6516 120.104 38.5408L118.508 37.765C118.508 37.765 111.547 35.0939 102.681 21.8271C102.293 21.8715 101.295 21.9712 100.963 22.0599Z" fill="#F6891F"/>
</g>
<path d="M87.0975 17.8375C89.3475 18.7574 86.8205 19.8214 84.238 19.9988C81.6556 20.1761 75.1275 20.3645 74.6842 24.4875C74.2409 28.6105 73.1436 27.8901 69.0871 26.8926C65.0195 25.8951 61.1847 25.3631 55.3105 24.8533C49.4253 24.3434 46.5215 21.2734 46.5215 21.2734L46.2887 22.3484C48.0399 24.0442 51.0656 25.9173 56.1861 26.7374C61.0295 27.5133 65.4407 28.2448 70.0403 29.3088C72.9109 29.3309 75.1164 28.6992 75.194 26.7374C75.4268 20.9519 80.4032 20.9519 84.9252 20.4975C88.9263 20.0985 89.414 18.5247 87.3414 17.6269C86.5323 17.4496 86.0224 17.3831 87.1086 17.8264L87.0975 17.8375Z" fill="#FBBA8E"/>
<path d="M61.7056 23.3792C59.9433 21.6723 59.9433 18.0148 59.3559 15.1332C59.1231 14.0138 58.8017 13.3931 58.4027 13.0495C57.5715 13.0384 56.7624 13.0495 55.9755 13.0606C55.7427 13.0606 55.51 13.0828 55.2772 13.0938C57.4163 14.9558 56.2747 17.9594 57.8264 21.5504C59.0788 24.4432 61.6169 25.9505 62.7474 26.5047C63.7006 26.6488 64.6759 26.8039 65.6734 26.9702C64.8643 25.8618 63.2683 24.8754 61.7056 23.3792Z" fill="#FBBA8E"/>
<path d="M61.3288 23.3684C59.5665 21.6726 59.5665 18.0041 58.9791 15.1335C58.7464 14.0251 58.436 13.3934 58.037 13.0498C57.3388 13.0498 56.6405 13.0498 55.9755 13.0609C55.9423 13.0609 55.9201 13.0609 55.8868 13.0609C58.0592 14.9229 56.9065 17.9376 58.4582 21.5286C59.8547 24.776 62.8693 26.2722 63.7228 26.638C64.2215 26.7156 64.7424 26.8042 65.2523 26.8818C64.4321 25.7956 62.8583 24.8203 61.3398 23.3462L61.3288 23.3684Z" fill="white"/>
<path d="M71.5033 18.0153C71.0932 15.2888 70.9713 14.4575 70.262 14.1361C69.741 14.0585 69.2201 13.981 68.6992 13.9034C68.7103 13.9034 68.7325 13.9255 68.7435 13.9366C68.533 13.9145 68.3113 13.8923 68.0453 13.8701C69.0539 14.4797 68.677 17.2173 70.5945 22.0829C72.5119 26.9485 74.4293 27.6356 74.4293 27.6356L74.6399 27.7132C74.795 27.4361 74.8948 27.1147 74.9059 26.7379C74.9059 26.6159 74.917 26.5051 74.928 26.3832C73.5315 24.8315 72.0796 21.8723 71.5033 18.0042V18.0153Z" fill="#FBBA8E"/>
<path d="M74.9058 26.7483C74.9058 26.7483 74.9058 26.6929 74.9058 26.6596C74.9058 26.6596 74.9058 26.6596 74.8947 26.6375C73.4317 25.1634 71.8468 22.0933 71.2372 18.0036C70.6276 13.9138 70.6498 14.0801 68.3999 13.8584C69.4085 14.468 69.0316 17.2056 70.9491 22.0711C72.6337 26.3604 74.3295 27.4022 74.6952 27.5906C74.8171 27.3357 74.8947 27.0476 74.9058 26.7372V26.7483Z" fill="white"/>
<path d="M120.547 35.8255C120.758 36.5459 120.68 37.1444 120.547 37.6099C120.68 37.7208 120.802 37.8316 120.924 37.9424C120.891 38.1087 120.868 38.2749 120.88 38.4523C120.88 38.5742 120.913 38.6628 120.957 38.7515C121.312 38.5409 121.655 38.3193 121.988 38.0754C122.154 37.8981 122.309 37.7097 122.464 37.5323C122.631 37.1555 122.83 36.7787 122.919 36.3797C122.963 36.1802 122.996 35.9918 123.019 35.8033C123.107 35.5041 123.163 35.1827 123.118 34.8169C123.03 34.0411 122.719 33.4426 122.121 32.9438C121.223 32.2013 119.771 32.1902 119.339 30.971C119.062 30.2063 118.419 30.1952 117.765 29.9181C117.732 29.907 117.688 29.8959 117.654 29.8848C116.457 28.9317 115.105 28.0007 113.587 27.0808C110.76 25.385 107.469 23.6893 103.778 22.0711C100.098 20.4308 96.0307 18.8458 91.686 17.3274C87.3303 15.809 82.6864 14.3682 77.7764 13.1823C76.5462 12.883 75.3049 12.617 74.0303 12.3732C72.7779 12.1293 71.4922 11.9298 70.2065 11.7303C67.6241 11.3535 64.9974 11.0653 62.3374 10.9213C59.6774 10.7772 56.973 10.755 54.2354 10.9767C52.8722 11.0875 51.4979 11.2538 50.1235 11.5419C48.7381 11.8412 47.3527 12.2291 45.9562 12.9828C45.269 13.3707 44.5486 13.8916 43.9723 14.7118C43.8171 14.9002 43.7063 15.144 43.5954 15.3878C43.4735 15.6206 43.4181 15.8977 43.3627 16.1637C43.3405 16.2856 43.3184 16.4075 43.3184 16.5294C43.7174 16.474 44.1053 16.4297 44.5043 16.3964C45.7013 14.0689 48.8711 13.4483 51.254 13.2266C53.7699 12.9938 56.4299 12.75 58.9348 13.2266C60.0431 13.2044 61.1404 13.1933 62.2487 13.2266C67.4135 13.3707 72.1129 14.1465 76.9341 15.2216C81.7775 16.2745 86.8426 17.405 91.1873 18.8126C95.5319 20.2313 99.5663 21.7718 103.224 23.3568C106.87 24.9528 110.14 26.582 112.866 28.2778C115.593 29.9624 117.821 31.6914 119.206 33.3983C119.893 34.2517 120.37 35.0829 120.558 35.8144L120.547 35.8255Z" fill="#BCBEC0"/>
<path d="M120.813 34.906C120.17 33.4208 119.173 32.3235 118.164 31.3371C117.144 30.3618 116.047 29.5084 114.939 28.7104C112.7 27.1365 110.361 25.8065 107.99 24.5763C105.618 23.3571 103.224 22.2599 100.83 21.2513C98.4358 20.2427 96.0307 19.3339 93.6145 18.558C91.2095 17.7822 88.8265 17.1061 86.4769 16.4965C85.302 16.1862 84.1383 15.9202 82.9856 15.6431C82.4093 15.5101 81.833 15.3882 81.2677 15.2552C80.9795 15.1887 80.7025 15.1222 80.4143 15.0668C80.1594 15.0114 79.7825 14.9227 79.4057 14.9227C78.7185 14.9227 78.1422 15.0225 77.6102 15.0779C77.3442 15.1111 77.1004 15.1111 76.8898 15.1C76.79 15.1 76.6681 15.0779 76.6127 15.0557C76.4354 15.0114 76.4575 15.0114 76.3356 14.956C75.9699 14.8008 75.5598 14.4461 74.9835 14.1247C74.6953 13.9695 74.3517 13.8144 73.9859 13.759C73.7199 13.7036 73.4539 13.6592 73.1879 13.6149C71.0489 13.227 68.9763 12.8945 66.9813 12.6174C62.9913 12.0743 59.2894 11.7861 55.9755 11.7861C52.6727 11.7861 49.7467 12.0854 47.3859 12.8834C46.2111 13.2824 45.1693 13.8365 44.3824 14.557C43.5955 15.2663 43.1299 16.164 42.9637 16.8955C42.7864 17.6381 42.8085 18.2145 42.8418 18.5802C42.8418 18.7686 42.875 18.9016 42.8861 19.0014C42.8972 19.09 42.9083 19.1455 42.9083 19.1455V19.1898L42.9859 19.3893C43.0191 19.489 43.0745 19.6221 43.141 19.7883C43.2851 20.1208 43.5289 20.5974 43.9058 21.1626C44.6594 22.2931 46.0338 23.7783 48.1729 25.0196C50.3009 26.2831 53.1493 27.2363 56.4632 27.6907C58.159 27.9124 59.8769 27.9789 61.6835 28.123C63.49 28.267 65.3631 28.4665 67.2916 28.8101C68.2448 28.9985 69.2534 29.1759 70.2065 29.453C71.1154 29.719 72.0685 30.1069 73.0217 30.5502C74.928 31.448 76.9674 32.5563 79.306 33.2545C81.6556 33.9306 83.961 34.2077 86.1111 34.9281C86.6542 35.1055 87.1197 35.305 87.7071 35.5488C88.2613 35.7815 88.76 36.0143 89.3031 36.2803C90.3671 36.8012 91.409 37.3997 92.5062 38.0315C93.6035 38.6632 94.7894 39.295 96.0639 39.7937C96.7068 40.0265 97.3496 40.2481 98.0035 40.4255L98.5244 40.5585C98.6907 40.5917 98.8126 40.625 99.0232 40.6582C99.4222 40.7247 99.7547 40.769 100.109 40.8023C101.484 40.9242 102.803 40.902 104.077 40.9353C104.709 40.9464 105.341 40.9685 105.873 41.0572C106.05 41.0794 106.172 41.1126 106.305 41.1348C106.438 41.157 106.593 41.2013 106.737 41.2345C107.036 41.3121 107.336 41.3897 107.646 41.4784C108.278 41.6668 108.91 41.8552 109.552 42.0436C110.217 42.232 110.905 42.4094 111.714 42.487C111.813 42.487 111.924 42.487 112.035 42.498H112.19H112.312H112.811C113.154 42.498 113.498 42.487 113.853 42.4648C114.551 42.4315 115.305 42.365 116.069 42.1655C116.834 41.9771 117.577 41.6446 118.22 41.2456C118.541 41.0461 118.851 40.8355 119.139 40.6139L119.383 40.4255L119.572 40.2592C119.716 40.1373 119.904 39.96 120.037 39.8048C120.614 39.1952 121.09 38.3529 121.212 37.4219C121.345 36.4909 121.134 35.6042 120.824 34.8616L120.813 34.906ZM73.8197 28.6993C72.8111 28.267 71.7915 27.8902 70.7053 27.602C69.6524 27.336 68.6327 27.1476 67.6241 26.9814C65.6069 26.6489 63.6563 26.4605 61.8165 26.3385C59.9877 26.2166 58.2365 26.1501 56.707 25.9728C53.5594 25.5738 50.9437 24.6871 49.0374 23.5677C47.12 22.4594 45.934 21.1737 45.3023 20.2427C44.7703 19.4558 44.5819 18.9349 44.5486 18.813C44.5486 18.7465 44.5265 18.6356 44.5043 18.4583C44.4821 18.1812 44.471 17.7822 44.5819 17.3056C44.7038 16.829 44.9587 16.286 45.524 15.765C46.0781 15.2441 46.9094 14.7897 47.9401 14.435C50.0127 13.7257 52.8057 13.4154 56.0088 13.4043C59.2119 13.3932 62.8472 13.6703 66.7929 14.1912C68.7657 14.4461 70.8161 14.7676 72.933 15.1555C73.199 15.1998 73.465 15.2552 73.731 15.2995C73.9084 15.3328 74.0635 15.3882 74.263 15.499C74.6509 15.6985 75.0832 16.0975 75.7371 16.3968C75.8701 16.4633 76.1583 16.552 76.258 16.5741C76.4686 16.6295 76.6349 16.6406 76.8122 16.6517C77.1558 16.6739 77.4772 16.6517 77.7764 16.6295C78.3749 16.5852 78.9291 16.4965 79.3835 16.5187C79.583 16.5187 79.7715 16.563 80.0818 16.6406C80.3589 16.7071 80.6359 16.7847 80.9241 16.8512C81.4894 16.9953 82.0546 17.1283 82.6199 17.2724C83.7504 17.5716 84.903 17.8709 86.0446 18.2034C86.8759 18.4361 87.7182 18.68 88.5494 18.9349C88.4719 19.611 87.3414 20.276 84.9474 20.5087C80.4254 20.9631 75.449 20.9631 75.2162 26.7486C75.1829 27.6685 74.662 28.2892 73.8419 28.6993H73.8197ZM79.9488 31.0379C78.7961 30.7386 77.6767 30.3285 76.5573 29.8741C76.9563 29.6857 77.3996 29.1426 77.6213 27.735C78.0757 24.8866 76.4797 24.2881 79.6717 22.9138C82.6753 21.6281 90.0679 22.282 90.0568 19.4004C91.0432 19.7107 92.0296 20.0321 93.016 20.3646C95.3546 21.1626 97.7043 22.0715 100.043 23.1022C102.315 24.0886 104.576 25.1526 106.793 26.3275C106.56 26.4937 106.128 26.7043 105.274 26.8927C103.457 27.2917 97.5602 28.0121 93.548 30.2177C90.0014 32.1795 89.9903 32.5452 88.3721 33.1215C87.9066 32.922 87.3746 32.7225 86.8869 32.5674C84.4375 31.8026 82.0325 31.5255 79.9488 31.0157V31.0379ZM118.907 37.1337C118.851 37.5327 118.641 37.8985 118.308 38.2642C118.22 38.364 118.164 38.4083 118.053 38.508L117.865 38.6743L117.71 38.7851C117.466 38.9735 117.233 39.1398 116.989 39.2839C116.502 39.5831 116.014 39.7937 115.482 39.9267C114.961 40.0597 114.374 40.1151 113.753 40.1484C113.443 40.1595 113.121 40.1705 112.8 40.1705H112.09L111.913 40.1595C111.403 40.104 110.805 39.96 110.206 39.7937C109.575 39.6053 108.954 39.4169 108.322 39.2285C108.001 39.1287 107.668 39.04 107.325 38.9514C107.147 38.907 106.992 38.8627 106.793 38.8295C106.604 38.7851 106.405 38.7519 106.261 38.7297C105.496 38.6078 104.82 38.5856 104.144 38.5635C102.814 38.5302 101.539 38.5302 100.342 38.4194C100.043 38.3972 99.7436 38.3529 99.5109 38.3085C99.4 38.2975 99.2116 38.2421 99.0675 38.2199L98.6685 38.109C98.0811 37.9539 97.527 37.7544 96.9728 37.5438C95.8755 37.1115 94.8337 36.5463 93.7586 35.9256C92.7722 35.3493 91.7415 34.7508 90.6885 34.2188C91.42 33.5427 93.4483 31.7472 94.8337 31.049C96.5516 30.1845 101.994 28.3335 104.122 28.001C106.039 27.7018 108.034 27.469 109.187 27.6685C110.727 28.5552 112.235 29.4973 113.664 30.528C114.706 31.2928 115.715 32.0908 116.601 32.9775C117.488 33.853 118.286 34.8284 118.685 35.8037C118.885 36.2914 118.962 36.7569 118.896 37.1559L118.907 37.1337Z" fill="#231F20"/>
<path d="M15.6655 70.4507C15.6655 70.4507 15.8761 73.2215 17.7935 73.8643C19.7109 74.5072 17.6827 69.8078 15.6655 69.2758C15.6655 69.2758 15.2665 68.8547 15.6655 70.4507Z" fill="white"/>
<path d="M24.255 60.9517C24.255 60.9517 21.3401 59.8323 19.4005 62.0711C17.461 64.31 23.5235 63.9775 25.4188 61.5502C25.4188 61.5502 26.106 61.2288 24.244 60.9517H24.255Z" fill="white"/>
<path d="M25.6295 57.7494C26.5383 58.2814 28.5 57.8824 27.9237 56.6632C27.6134 55.7433 26.228 57.0511 24.9645 57.439C24.9645 57.439 24.5987 57.5942 25.6184 57.7494H25.6295Z" fill="white"/>
<path d="M49.7689 7.87396C49.7689 7.87396 47.7961 7.1203 46.4883 8.62763C45.1804 10.135 49.2702 9.92438 50.5558 8.27296C50.5558 8.27296 51.0214 8.0513 49.7689 7.87396Z" fill="white"/>
<path d="M37.3334 10.6009C37.954 10.9556 39.284 10.6896 38.885 9.86945C38.6745 9.24878 37.7324 10.1354 36.89 10.4014C36.89 10.4014 36.6462 10.5123 37.3334 10.612V10.6009Z" fill="white"/>
<path d="M20.2983 51.2871C20.2872 51.3536 20.1875 51.5531 20.1764 51.4977C20.2429 51.6196 20.2983 51.7415 20.3426 51.8745C20.3537 51.8745 20.3648 51.8745 20.3759 51.8745C21.3512 52.7058 24.1221 52.8388 24.1996 51.276C24.3548 50.2785 22.3376 50.9325 20.2983 51.276V51.2871Z" fill="white"/>
<path d="M130.577 52.3628C130.577 52.3628 129.015 51.0218 127.308 51.9749C125.601 52.9392 129.447 54.0808 131.176 52.9946C131.176 52.9946 131.675 52.9503 130.577 52.3628Z" fill="white"/>
<path d="M40.6252 19.7444C39.9823 19.0462 39.3838 18.1373 38.4639 17.827C39.0735 18.4366 40.5919 18.7469 40.5919 18.4366C41.8111 15.9983 38.1536 15.3887 36.3248 15.3887C37.544 15.9983 39.0624 16.3086 39.672 17.5167C37.8433 17.5167 36.0145 15.9872 34.1857 16.5968C34.1857 16.5968 34.1857 16.9071 34.4961 16.9071C33.5872 17.2063 32.3681 17.2063 32.0577 18.4255C35.1057 18.7358 36.9344 21.4734 40.0156 21.4623C40.736 21.2961 41.0685 20.6865 40.6141 19.7333L40.6252 19.7444Z" fill="white"/>
<path d="M53.9584 17.8378C53.9584 18.4474 53.0496 18.9351 51.9191 18.9351C50.7886 18.9351 49.8798 18.4474 49.8798 17.8378C49.8798 17.2282 50.7886 16.7295 51.9191 16.7295C53.0496 16.7295 53.9584 17.2172 53.9584 17.8378Z" fill="white"/>
<path d="M53.77 20.7859C53.77 21.0629 53.3599 21.2846 52.839 21.2846C52.3181 21.2846 51.9191 21.0629 51.9191 20.7859C51.9191 20.5088 52.3292 20.2871 52.839 20.2871C53.3488 20.2871 53.77 20.5088 53.77 20.7859Z" fill="white"/>
<path d="M104.809 32.2791C105.13 31.869 106.028 31.9576 106.793 32.4675C107.568 32.9884 107.934 33.731 107.613 34.1411C107.291 34.5511 106.405 34.4625 105.629 33.9526C104.853 33.4317 104.487 32.6891 104.809 32.2791Z" fill="white"/>
<path d="M103.9 31.5146C103.723 31.6808 103.301 31.5589 102.969 31.2486C102.636 30.9383 102.526 30.5503 102.703 30.3841C102.891 30.2178 103.301 30.3398 103.634 30.6501C103.966 30.9604 104.077 31.3483 103.9 31.5146Z" fill="white"/>
<path d="M124.714 38.9515C125.335 39.3062 126.654 39.0402 126.266 38.22C126.055 37.5994 125.113 38.486 124.271 38.752C124.271 38.752 124.027 38.8629 124.714 38.9626V38.9515Z" fill="white"/>
<path d="M126.388 42.7975C126.388 42.7975 128.594 43.3073 129.757 41.5118C130.921 39.7163 126.61 40.5587 125.49 42.4872C125.49 42.4872 125.025 42.7864 126.388 42.7975Z" fill="white"/>
</svg>
